<?xml version="1.0" encoding="iso-8859-1"?>
<!-- Generator: Adobe Illustrator 29.4.0, SVG Export Plug-In . SVG Version: 9.03 Build 0)  -->
<svg version="1.1" id="Layer_1" xmlns="http://www.w3.org/2000/svg" xmlns:xlink="http://www.w3.org/1999/xlink" x="0px" y="0px"
	 viewBox="0 0 62 62" style="enable-background:new 0 0 62 62;" xml:space="preserve"><metadata><c2pa:manifest xmlns:c2pa="http://c2pa.org/manifest">AAA0Rmp1bWIAAAAeanVtZGMycGEAEQAQgAAAqgA4m3EDYzJwYQAAADQganVtYgAAAEdqdW1kYzJtYQARABCAAACqADibcQN1cm46dXVpZDphODRmMDYyMC00MmQ2LTRjMzMtOWFkNC1mMjE1MTFiYjJjODEAAAABtWp1bWIAAAApanVtZGMyYXMAEQAQgAAAqgA4m3EDYzJwYS5hc3NlcnRpb25zAAAAANdqdW1iAAAAJmp1bWRjYm9yABEAEIAAAKoAOJtxA2MycGEuYWN0aW9ucwAAAACpY2JvcqFnYWN0aW9uc4GjZmFjdGlvbmtjMnBhLmVkaXRlZG1zb2Z0d2FyZUFnZW50bUFkb2JlIEZpcmVmbHlxZGlnaXRhbFNvdXJjZVR5cGV4U2h0dHA6Ly9jdi5pcHRjLm9yZy9uZXdzY29kZXMvZGlnaXRhbHNvdXJjZXR5cGUvY29tcG9zaXRlV2l0aFRyYWluZWRBbGdvcml0aG1pY01lZGlhAAAArWp1bWIAAAAoanVtZGNib3IAEQAQgAAAqgA4m3EDYzJwYS5oYXNoLmRhdGEAAAAAfWNib3KlamV4Y2x1c2lvbnOBomVzdGFydBkBn2ZsZW5ndGgZRbRkbmFtZW5qdW1iZiBtYW5pZmVzdGNhbGdmc2hhMjU2ZGhhc2hYIJTpd5MHzsA5NPreOdOgzEFoRhTKbGRdCdsKBeaabn8UY3BhZEkAAAAAAAAAAAAAAAIManVtYgAAACRqdW1kYzJjbAARABCAAACqADibcQNjMnBhLmNsYWltAAAAAeBjYm9yqGhkYzp0aXRsZW9HZW5lcmF0ZWQgSW1hZ2VpZGM6Zm9ybWF0bWltYWdlL3N2Zyt4bWxqaW5zdGFuY2VJRHgseG1wOmlpZDo5NzI2ZjA2Yi05NTVmLTRhZWItYTk2MC1hODQyNzc1ZTljZmZvY2xhaW1fZ2VuZXJhdG9yeDdBZG9iZV9JbGx1c3RyYXRvci8yOS40IGFkb2JlX2MycGEvMC4xMi4yIGMycGEtcnMvMC4zMi41dGNsYWltX2dlbmVyYXRvcl9pbmZvgb9kbmFtZXFBZG9iZSBJbGx1c3RyYXRvcmd2ZXJzaW9uZDI5LjT/aXNpZ25hdHVyZXgZc2VsZiNqdW1iZj1jMnBhLnNpZ25hdHVyZWphc3NlcnRpb25zgqJjdXJseCdzZWxmI2p1bWJmPWMycGEuYXNzZXJ0aW9ucy9jMnBhLmFjdGlvbnNkaGFzaFggSmnBvf+o3kEweL4k7cz4MTrB0WSVNFZxoA1rBrM31K+iY3VybHgpc2VsZiNqdW1iZj1jMnBhLmFzc2VydGlvbnMvYzJwYS5oYXNoLmRhdGFkaGFzaFggnz2rLGOJbcVrM1NYVnXqAjaeocRwGht3Il2cLqAZpcFjYWxnZnNoYTI1NgAAMBBqdW1iAAAAKGp1bWRjMmNzABEAEIAAAKoAOJtxA2MycGEuc2lnbmF0dXJlAAAAL+BjYm9y0oRZDO+iATgkGCGCWQY9MIIGOTCCBCGgAwIBAgIQFY3/J6wj0rglS05jNx4dnjANBgkqhkiG9w0BAQsFADB1MQswCQYDVQQGEwJVUzEjMCEGA1UEChMaQWRvYmUgU3lzdGVtcyBJbmNvcnBvcmF0ZWQxHTAbBgNVBAsTFEFkb2JlIFRydXN0IFNlcnZpY2VzMSIwIAYDVQQDExlBZG9iZSBQcm9kdWN0IFNlcnZpY2VzIEczMB4XDTI0MTAxNTAwMDAwMFoXDTI1MTAxNTIzNTk1OVowgasxEzARBgNVBAMMCkFkb2JlIEMyUEExKDAmBgNVBAsMH0NvbnRlbnQgQXV0aGVudGljaXR5IEluaXRpYXRpdmUxEzARBgNVBAoMCkFkb2JlIEluYy4xETAPBgNVBAcMCFNhbiBKb3NlMRMwEQYDVQQIDApDYWxpZm9ybmlhMQswCQYDVQQGEwJVUzEgMB4GCSqGSIb3DQEJARYRY2FpLW9wc0BhZG9iZS5jb20wggEiMA0GCSqGSIb3DQEBAQUAA4IBDwAwggEKAoIBAQDDEMGB0H09cukxc/Dmg2BiQVYM8/VpJ+2H1Nk8g0605CWGnW/iH6EzFlYWORndElG6hIGuxJJgFoR+IMwqKyL+w7G4UcoFX/+XWu/dKuOuLEA1ciWqMZ0hjJ1oxoVr/mi8XP+bj5JTPRxxjOrD69IDO5HJIaemCbwaaP5IQlwv8YgfOpT1tTLc2yLNjahjbzKPfatuQ6p4ANIznU6ogkqWgQEUV7HMy6fOlT4rawuqF6hHwUkxpHR8Zdr+CpHOGSIEWHBSEs9L2zr5MKfPT1RkyVdt0b+IUqPdQ8VQOOqHTC0WBzPbgOtSVpZ6KW0oei7KYEe6KvO+Y4bRW1I96nE5AgMBAAGjggGMMIIBiDAMBgNVHRMBAf8EAjAAMA4GA1UdDwEB/wQEAwIHgDAeBgNVHSUEFzAVBgkqhkiG9y8BAQwGCCsGAQUFBwMEMIGOBgNVHSAEgYYwgYMwgYAGCSqGSIb3LwECAzBzMHEGCCsGAQUFBwICMGUMY1lvdSBhcmUgbm90IHBlcm1pdHRlZCB0byB1c2UgdGhpcyBMaWNlbnNlIENlcnRpZmljYXRlIGV4Y2VwdCBhcyBwZXJtaXR0ZWQgYnkgdGhlIGxpY2Vuc2UgYWdyZWVtZW50LjBdBgNVHR8EVjBUMFKgUKBOhkxodHRwOi8vcGtpLWNybC5zeW1hdXRoLmNvbS9jYV83YTVjM2EwYzczMTE3NDA2YWRkMTkzMTJiYzFiYzIzZi9MYXRlc3RDUkwuY3JsMDcGCCsGAQUFBwEBBCswKTAnBggrBgEFBQcwAYYbaHR0cDovL3BraS1vY3NwLnN5bWF1dGguY29tMB8GA1UdIwQYMBaAFFcpejJNzP7kNU7AHyRzznNTq99qMA0GCSqGSIb3DQEBCwUAA4ICAQCquXoUtD5z0thp/SKDJOASs0v1eaaJ6JPeiEoV68ncE3uRaRkPXOdtXDdedfm2BBoqr4CJIKV03FgQqpT5Gr0uvboYaCUFIDSz8OzaTD7YuWdOaiMAcIfcK9VFuEYcetqyGad+DCYXVNKRpaTs3ESFu33BCiIQyQtJB4zhLgK77XvoXMR3L7POQORFap5I5A7+obZZG2j+8irfQQJ/q/oW1rMkjUJYiqEErmgmKhI1suwJUmFqvdRxr0PXW6N5lbiTaM8KyfOuJOYWpV+13eTZJdRCDvBBxBxd8oEi1Zm3zO2fQhihnMlrXH2X129coAm82wOjPi4N6tLzP2vMuwRC/MvXI9tOnj7/qZNMBayhoO2aRmCbdf6x989fdfMwWZ/MgeJh9SNrmcorZuzg/vW2K3/VT8UPbF2WnNlK6lGoIwbP5RN5cjwis3llH/4XytKyZEBK2OeCDP/AO5zBwOUltjj9EqrcGsCLgtqYswh/Cj91svnlMOUg53scJ+ZKBptzVY7QqOLctb9Vmc/1UbxaJQb5aq03U5AgBmYVQ5Z1dAYtqD4jU5pnUFckM2wmJdyDZMY0FIQ+jjgCR+f0zMUYrIHlS6sw3g0fSqVqaGuEqJXT5vvcWPHffQ/9+vEGbPHk2kBCE0qSzH4XjPVLwDLWjZMEiSR4AVsPPLx/8XG7K1kGpTCCBqEwggSJoAMCAQICEAyotlR7iebSBol1zYubieIwDQYJKoZIhvcNAQELBQAwbDELMAkGA1UEBhMCVVMxIzAhBgNVBAoTGkFkb2JlIFN5c3RlbXMgSW5jb3Jwb3JhdGVkMR0wGwYDVQQLExRBZG9iZSBUcnVzdCBTZXJ2aWNlczEZMBcGA1UEAxMQQWRvYmUgUm9vdCBDQSBHMjAeFw0xNjExMjkwMDAwMDBaFw00MTExMjgyMzU5NTlaMHUxCzAJBgNVBAYTAlVTMSMwIQYDVQQKExpBZG9iZSBTeXN0ZW1zIEluY29ycG9yYXRlZDEdMBsGA1UECxMUQWRvYmUgVHJ1c3QgU2VydmljZXMxIjAgBgNVBAMTGUFkb2JlIFByb2R1Y3QgU2VydmljZXMgRzMwggIiMA0GCSqGSIb3DQEBAQUAA4ICDwAwggIKAoICAQC3Hy69vQmzXEhs/gyDrmwB6lF4JaSAPomnsbKIZNr2iXaB+fkd85X8eJiNmI7P5O4cVT4Nc1p3zrESqBV4ZUyW8gcZ78QdwoHG8QNd2VNcHnMgSR+XT9Iafsnq9Nfww3Jt9KL3l5ANQ5n1+MJqr48EWNLll942bOL/JH4ywDSMoqhZqtJEIUUUGlQVBZ8CAvJc7LE6ddA5C52PE2Ppa7RfQgHXf4gfXVZwpxYRZcziPiOHqEvLb0J3cShUbejFxV6cwX8QyAPa1ePHg1RtM0HX+D34xHo3DkyGnmT+Ddq00TEDGG26AL5PdINKFIQl+zaq6KJFQe1fdGE5wrWzU4mBPmzaz3EbLn+7FWlwAhorYqIMldbfHE3ydc+aTU1JW7+bG19qmvhO9IluGtTtQDeqFBj2fg6faxsfVfVPD7stN6TwoIDlkOCE4RE+Iin8m3z3eqi/VsTmsmRqBxWDRaqOHz02EJoEDxXJG3ei+UbIIp01XZQvdufm90WxOTuqqan2ZqTPX9K5VdjEh/ovr7xFc5q1dZo+Sa5y4sTVM854/tLU3klOgUKzzSXYPYS3GhBcYJHjwr9xNRHnNX99D6F0g7OijScWfvtjxh13aTv/H0ETvymah4yfDpVdh9cK5YSCPqnuOlsujFAyhYwJXOWDvZZU2EkWVLDhoPx9zp7N4QIDAQABo4IBNDCCATAwEgYDVR0TAQH/BAgwBgEB/wIBADA1BgNVHR8ELjAsMCqgKKAmhiRodHRwOi8vY3JsLmFkb2JlLmNvbS9hZG9iZXJvb3RnMi5jcmwwDgYDVR0PAQH/BAQDAgEGMBQGA1UdJQQNMAsGCSqGSIb3LwEBBzBXBgNVHSAEUDBOMEwGCSqGSIb3LwECAzA/MD0GCCsGAQUFBwIBFjFodHRwczovL3d3dy5hZG9iZS5jb20vbWlzYy9wa2kvcHJvZF9zdmNlX2Nwcy5odG1sMCQGA1UdEQQdMBukGTAXMRUwEwYDVQQDEwxTWU1DLTQwOTYtMzMwHQYDVR0OBBYEFFcpejJNzP7kNU7AHyRzznNTq99qMB8GA1UdIwQYMBaAFKYc4W1UJEyoj0hyv26pjNXk7DHUMA0GCSqGSIb3DQEBCwUAA4ICAQBxzuUHjKbcLdzI4DtlXgCSgZXrlSAkr59pOF3JfPG42qVNAGU7JcEYXJ6+WbfcGwY7WYMl+jO7IvJPb7shXFYW9bnJgxX7lLU14KExchmcLNY1ee6IhBJ2Y8PzZMRUKSd5CkURPg0PBLGjz/KR/DofHx+G4rPTCOGORYxeYrd01lci5hVxvKccvIk7MD69ZTewfZPSM+0WnsU3f0Zmd7hgbRpUyWceG0eHFpdUKK/ZFWhHjDVC28odCnN885tHncKXviItK0ZUUo/AIthFKlhEXsnq9VL9fFbgvO83ZvpUQo5y8mY3cuGnEVGXdhjNb53CfC1u4dbpYmWaN99subUzEsUaUb3loLPfVfzDOpg2y9v37kBdy/wuXr20teY7U62xj/fAgs1QSnhUtlMTfCqbefyEycKVmKIrJkJLsvgTSYKVvH4FFIwfd5WjqOC97jX98rcVAzhAI0iSkazsWOMvL6m0L4nLJapx+85GsVX8Y6AHmEP4bmCElwil6KAP+UewJFiw5rmwV2pESHAhYuZJa03B8tl0nd2QJzvJGmbeBqXqpF9ORinFM3HErK8puRokOjFH2+1asLeI2tB31W/ELdNe27Ogduq6Z6qBwCp59YX27qydDhD0WRfN64kCs25K88iGAGNW2CAfTDS+b+WYJBiIL9jXYZ4LF+BiUvfdu6Jmc2lnVHN0oWl0c3RUb2tlbnOBoWN2YWxZDjkwgg41MAMCAQAwgg4sBgkqhkiG9w0BBwKggg4dMIIOGQIBAzEPMA0GCWCGSAFlAwQCAQUAMIGCBgsqhkiG9w0BCRABBKBzBHEwbwIBAQYJYIZIAYb9bAcBMDEwDQYJYIZIAWUDBAIBBQAEII0VRzV8mkQxyxX62lvn3rGa0sYByXpPLZZdWpDkySt4AhEAq/O1R6YDVNvnEMgvwIANiBgPMjAyNTA0MTQxNTIyMzZaAggXMnzl1Zx3XqCCC8AwggUKMIIC8qADAgECAhAMCy/HenjPuu1lVlTBmiQDMA0GCSqGSIb3DQEBCwUAMGMxCzAJBgNVBAYTAlVTMRcwFQYDVQQKEw5EaWdpQ2VydCwgSW5jLjE7MDkGA1UEAxMyRGlnaUNlcnQgVHJ1c3RlZCBHNCBSU0E0MDk2IFNIQTI1NiBUaW1lU3RhbXBpbmcgQ0EwHhcNMjQxMTIwMDAwMDAwWhcNMzYwMjE5MjM1OTU5WjBbMQswCQYDVQQGEwJVUzERMA8GA1UEChMIRGlnaUNlcnQxOTA3BgNVBAMTMEVDQzI1Nl9TSEEyNTZfVGltZXN0YW1wX1Jlc3BvbmRlcl9BZG9iZV9OT1ZfMjAyNDBZMBMGByqGSM49AgEGCCqGSM49AwEHA0IABND8HoX4gZimKpBAvE5+qRSZ5OZJFZnPFIK3AzzayJb9JtdrOS1HIRabAhWz7w8mOFX0Lh9QnbcgZHGx/MkzyV6jggGLMIIBhzAOBgNVHQ8BAf8EBAMCB4AwDAYDVR0TAQH/BAIwADAWBgNVHSUBAf8EDDAKBggrBgEFBQcDCDAgBgNVHSAEGTAXMAgGBmeBDAEEAjALBglghkgBhv1sBwEwHwYDVR0jBBgwFoAUuhbZbU2FL3MpdpovdYxqII+eyG8wHQYDVR0OBBYEFOzRHG9856BN5DE/hwAI1K3UfTa7MFoGA1UdHwRTMFEwT6BNoEuGSWh0dHA6Ly9jcmwzLmRpZ2ljZXJ0LmNvbS9EaWdpQ2VydFRydXN0ZWRHNFJTQTQwOTZTSEEyNTZUaW1lU3RhbXBpbmdDQS5jcmwwgZAGCCsGAQUFBwEBBIGDMIGAMCQGCCsGAQUFBzABhhhodHRwOi8vb2NzcC5kaWdpY2VydC5jb20wWAYIKwYBBQUHMAKGTGh0dHA6Ly9jYWNlcnRzLmRpZ2ljZXJ0LmNvbS9EaWdpQ2VydFRydXN0ZWRHNFJTQTQwOTZTSEEyNTZUaW1lU3RhbXBpbmdDQS5jcnQwDQYJKoZIhvcNAQELBQADggIBAKLswSDyeS8tq4sjtwCPbUOCcwSuHSae0K3hzi2xb3IlBl1m/WfwTV255rJvoiJnyZhqZsiatN65UrAapRIhNlOJWG0VE/fNEP0OkWT4THg/TXQhK0f94PWWArptV9pjSC/NwhFA/cLAjOoFkATzVzlAg2M+zzVy8ks4Up39xfvM6GhC+vOI0PLXlQ1Pl+5RF7Z+KgA1CxE1g6ZVcB2DZMrs6S1gP4Qf8PyBavucdCFEky4PngY2OJmc0+dhfPoXePsG7ZpWWKu9AYACytbbsuqGD2Sxbn5ov6D3+XKpGgytYtLLgoNBrO08H48qyR5w7VHt1slvDtQEVWX4ZsZpRzjHoe9Us00vmEeOIut/0DjPF7nZ71mqlJTuQO7t2xFe+b64ssxeMcVLH+PSy0hzGdAfA4vgDlFG5QfVfDXDPYKIa8gc1yhiuSp+RvpOwolTue0Oo0oUpnfj2wEStN1fBWgh3jNL9xX8Dms7UrDlo07/NRMK1CRtwyDzxcZaoiZpiYgeEi8doTWdF09YJrRCGvG+Kh4/jmnj/Op38mtVs2ygS4QFJEg8Hf5WItqgWWKZlFR4/PApi/JOt3qDvaZW0Xg+ttu/LWSoJSaxkMwWqffcNHQ3xDOqTOKvdu583IjmT3lGrc1dxt81gPH2pnyCMK7g0e1LEB0kqzDNv2CLqPIVMIIGrjCCBJagAwIBAgIQBzY3tyRUfNhHrP0oZipeWzANBgkqhkiG9w0BAQsFADBiMQswCQYDVQQGEwJVUzEVMBMGA1UEChMMRGlnaUNlcnQgSW5jMRkwFwYDVQQLExB3d3cuZGlnaWNlcnQuY29tMSEwHwYDVQQDExhEaWdpQ2VydCBUcnVzdGVkIFJvb3QgRzQwHhcNMjIwMzIzMDAwMDAwWhcNMzcwMzIyMjM1OTU5WjBjMQswCQYDVQQGEwJVUzEXMBUGA1UEChMORGlnaUNlcnQsIEluYy4xOzA5BgNVBAMTMkRpZ2lDZXJ0IFRydXN0ZWQgRzQgUlNBNDA5NiBTSEEyNTYgVGltZVN0YW1waW5nIENBMIICIjANBgkqhkiG9w0BAQEFAAOCAg8AMIICCgKCAgEAxoY1BkmzwT1ySVFVxyUDxPKRN6mXUaHW0oPRnkyibaCwzIP5WvYRoUQVQl+kiPNo+n3znIkLf50fng8zH1ATCyZzlm34V6gCff1DtITaEfFzsbPuK4CEiiIY3+vaPcQXf6sZKz5C3GeO6lE98NZW1OcoLevTsbV15x8GZY2UKdPZ7Gnf2ZCHRgB720RBidx8ald68Dd5n12sy+iEZLRS8nZH92GDGd1ftFQLIWhuNyG7QKxfst5Kfc71ORJn7w6lY2zkpsUdzTYNXNXmG6jBZHRAp8ByxbpOH7G1WE15/tePc5OsLDnipUjW8LAxE6lXKZYnLvWHpo9OdhVVJnCYJn+gGkcgQ+NDY4B7dW4nJZCYOjgRs/b2nuY7W+yB3iIU2YIqx5K/oN7jPqJz+ucfWmyU8lKVEStYdEAoq3NDzt9KoRxrOMUp88qqlnNCaJ+2RrOdOqPVA+C/8KI8ykLcGEh/FDTP0kyr75s9/g64ZCr6dSgkQe1CvwWcZklSUPRR8zZJTYsg0ixXNXkrqPNFYLwjjVj33GHek/45wPmyMKVM1+mYSlg+0wOI/rOP015LdhJRk8mMDDtbiiKowSYI+RQQEgN9XyO7ZONj4KbhPvbCdLI/Hgl27KtdRnXiYKNYCQEoAA6EVO7O6V3IXjASvUaetdN2udIOa5kM0jO0zbECAwEAAaOCAV0wggFZMBIGA1UdEwEB/wQIMAYBAf8CAQAwHQYDVR0OBBYEFLoW2W1NhS9zKXaaL3WMaiCPnshvMB8GA1UdIwQYMBaAFOzX44LScV1kTN8uZz/nupiuHA9PMA4GA1UdDwEB/wQEAwIBhjATBgNVHSUEDDAKBggrBgEFBQcDCDB3BggrBgEFBQcBAQRrMGkwJAYIKwYBBQUHMAGGGGh0dHA6Ly9vY3NwLmRpZ2ljZXJ0LmNvbTBBBggrBgEFBQcwAoY1aHR0cDovL2NhY2VydHMuZGlnaWNlcnQuY29tL0RpZ2lDZXJ0VHJ1c3RlZFJvb3RHNC5jcnQwQwYDVR0fBDwwOjA4oDagNIYyaHR0cDovL2NybDMuZGlnaWNlcnQuY29tL0RpZ2lDZXJ0VHJ1c3RlZFJvb3RHNC5jcmwwIAYDVR0gBBkwFzAIBgZngQwBBAIwCwYJYIZIAYb9bAcBMA0GCSqGSIb3DQEBCwUAA4ICAQB9WY7Ak7ZvmKlEIgF+ZtbYIULhsBguEE0TzzBTzr8Y+8dQXeJLKftwig2qKWn8acHPHQfpPmDI2AvlXFvXbYf6hCAlNDFnzbYSlm/EUExiHQwIgqgWvalWzxVzjQEiJc6VaT9Hd/tydBTX/6tPiix6q4XNQ1/tYLaqT5Fmniye4Iqs5f2MvGQmh2ySvZ180HAKfO+ovHVPulr3qRCyXen/KFSJ8NWKcXZl2szwcqMj+sAngkSumScbqyQeJsG33irr9p6xeZmBo1aGqwpFyd/EjaDnmPv7pp1yr8THwcFqcdnGE4AJxLafzYeHJLtPo0m5d2aR8XKc6UsCUqc3fpNTrDsdCEkPlM05et3/JWOZJyw9P2un8WbDQc1PtkCbISFA0LcTJM3cHXg65J6t5TRxktcma+Q4c6umAU+9Pzt4rUyt+8SVe+0KXzM5h0F4ejjpnOHdI/0dKNPH+ejxmF/7K9h+8kaddSweJywm228Vex4Ziza4k9Tm8heZWcpw8De/mADfIBZPJ/tgZxahZrrdVcA6KYawmKAr7ZVBtzrVFZgxtGIJDwq9gdkT/r+k0fNX2bwE+oLeMt8EifAAzV3C+dAjfwAL5HYCJtnwZXZCpimHCUcr5n8apIUP/JiW9lVUKx+A+sDyDivl1vupL0QVSucTDh3bNzgaoSv27dZ8/DGCAbgwggG0AgEBMHcwYzELMAkGA1UEBhMCVVMxFzAVBgNVBAoTDkRpZ2lDZXJ0LCBJbmMuMTswOQYDVQQDEzJEaWdpQ2VydCBUcnVzdGVkIEc0IFJTQTQwOTYgU0hBMjU2IFRpbWVTdGFtcGluZyBDQQIQDAsvx3p4z7rtZVZUwZokAzANBglghkgBZQMEAgEFAKCB0TAaBgkqhkiG9w0BCQMxDQYLKoZIhvcNAQkQAQQwHAYJKoZIhvcNAQkFMQ8XDTI1MDQxNDE1MjIzNlowKwYLKoZIhvcNAQkQAgwxHDAaMBgwFgQU9xMCVGQbnM7SUS1ixb+fKYSM/PgwLwYJKoZIhvcNAQkEMSIEIJS0QfIFokSAvDjKKEEP0ihD0Bm6KWro03wOrJmiQ9DKMDcGCyqGSIb3DQEJEAIvMSgwJjAkMCIEILl6JmgdGOm5fGM++Eg5ZFV1l5baUENELI+MzeUn4ACpMAoGCCqGSM49BAMCBEcwRQIhAPMQcY5E9d73nzKpuREyc7GzfAa/CIAa8Ne9OGse+D+AAiBeLShs/rvVuMQiz8rRwi5aQYUYmSfPl/LG793h6jYtc2NwYWRZE4QAAAAAAAAAAAAAAAAAAAAAAAAAAAAAAAAAAAAAAAAAAAAAAAAAAAAAAAAAAAAAAAAAAAAAAAAAAAAAAAAAAAAAAAAAAAAAAAAAAAAAAAAAAAAAAAAAAAAAAAAAAAAAAAAAAAAAAAAAAAAAAAAAAAAAAAAAAAAAAAAAAAAAAAAAAAAAAAAAAAAAAAAAAAAAAAAAAAAAAAAAAAAAAAAAAAAAAAAAAAAAAAAAAAAAAAAAAAAAAAAAAAAAAAAAAAAAAAAAAAAAAAAAAAAAAAAAAAAAAAAAAAAAAAAAAAAAAAAAAAAAAAAAAAAAAAAAAAAAAAAAAAAAAAAAAAAAAAAAAAAAAAAAAAAAAAAAAAAAAAAAAAAAAAAAAAAAAAAAAAAAAAAAAAAAAAAAAAAAAAAAAAAAAAAAAAAAAAAAAAAAAAAAAAAAAAAAAAAAAAAAAAAAAAAAAAAAAAAAAAAAAAAAAAAAAAAAAAAAAAAAAAAAAAAAAAAAAAAAAAAAAAAAAAAAAAAAAAAAAAAAAAAAAAAAAAAAAAAAAAAAAAAAAAAAAAAAAAAAAAAAAAAAAAAAAAAAAAAAAAAAAAAAAAAAAAAAAAAAAAAAAAAAAAAAAAAAAAAAAAAAAAAAAAAAAAAAAAAAAAAAAAAAAAAAAAAAAAAAAAAAAAAAAAAAAAAAAAAAAAAAAAAAAAAAAAAAAAAAAAAAAAAAAAAAAAAAAAAAAAAAAAAAAAAAAAAAAAAAAAAAAAAAAAAAAAAAAAAAAAAAAAAAAAAAAAAAAAAAAAAAAAAAAAAAAAAAAAAAAAAAAAAAAAAAAAAAAAAAAAAAAAAAAAAAAAAAAAAAAAAAAAAAAAAAAAAAAAAAAAAAAAAAAAAAAAAAAAAAAAAAAAAAAAAAAAAAAAAAAAAAAAAAAAAAAAAAAAAAAAAAAAAAAAAAAAAAAAAAAAAAAAAAAAAAAAAAAAAAAAAAAAAAAAAAAAAAAAAAAAAAAAAAAAAAAAAAAAAAAAAAAAAAAAAAAAAAAAAAAAAAAAAAAAAAAAAAAAAAAAAAAAAAAAAAAAAAAAAAAAAAAAAAAAAAAAAAAAAAAAAAAAAAAAAAAAAAAAAAAAAAAAAAAAAAAAAAAAAAAAAAAAAAAAAAAAAAAAAAAAAAAAAAAAAAAAAAAAAAAAAAAAAAAAAAAAAAAAAAAAAAAAAAAAAAAAAAAAAAAAAAAAAAAAAAAAAAAAAAAAAAAAAAAAAAAAAAAAAAAAAAAAAAAAAAAAAAAAAAAAAAAAAAAAAAAAAAAAAAAAAAAAAAAAAAAAAAAAAAAAAAAAAAAAAAAAAAAAAAAAAAAAAAAAAAAAAAAAAAAAAAAAAAAAAAAAAAAAAAAAAAAAAAAAAAAAAAAAAAAAAAAAAAAAAAAAAAAAAAAAAAAAAAAAAAAAAAAAAAAAAAAAAAAAAAAAAAAAAAAAAAAAAAAAAAAAAAAAAAAAAAAAAAAAAAAAAAAAAAAAAAAAAAAAAAAAAAAAAAAAAAAAAAAAAAAAAAAAAAAAAAAAAAAAAAAAAAAAAAAAAAAAAAAAAAAAAAAAAAAAAAAAAAAAAAAAAAAAAAAAAAAAAAAAAAAAAAAAAAAAAAAAAAAAAAAAAAAAAAAAAAAAAAAAAAAAAAAAAAAAAAAAAAAAAAAAAAAAAAAAAAAAAAAAAAAAAAAAAAAAAAAAAAAAAAAAAAAAAAAAAAAAAAAAAAAAAAAAAAAAAAAAAAAAAAAAAAAAAAAAAAAAAAAAAAAAAAAAAAAAAAAAAAAAAAAAAAAAAAAAAAAAAAAAAAAAAAAAAAAAAAAAAAAAAAAAAAAAAAAAAAAAAAAAAAAAAAAAAAAAAAAAAAAAAAAAAAAAAAAAAAAAAAAAAAAAAAAAAAAAAAAAAAAAAAAAAAAAAAAAAAAAAAAAAAAAAAAAAAAAAAAAAAAAAAAAAAAAAAAAAAAAAAAAAAAAAAAAAAAAAAAAAAAAAAAAAAAAAAAAAAAAAAAAAAAAAAAAAAAAAAAAAAAAAAAAAAAAAAAAAAAAAAAAAAAAAAAAAAAAAAAAAAAAAAAAAAAAAAAAAAAAAAAAAAAAAAAAAAAAAAAAAAAAAAAAAAAAAAAAAAAAAAAAAAAAAAAAAAAAAAAAAAAAAAAAAAAAAAAAAAAAAAAAAAAAAAAAAAAAAAAAAAAAAAAAAAAAAAAAAAAAAAAAAAAAAAAAAAAAAAAAAAAAAAAAAAAAAAAAAAAAAAAAAAAAAAAAAAAAAAAAAAAAAAAAAAAAAAAAAAAAAAAAAAAAAAAAAAAAAAAAAAAAAAAAAAAAAAAAAAAAAAAAAAAAAAAAAAAAAAAAAAAAAAAAAAAAAAAAAAAAAAAAAAAAAAAAAAAAAAAAAAAAAAAAAAAAAAAAAAAAAAAAAAAAAAAAAAAAAAAAAAAAAAAAAAAAAAAAAAAAAAAAAAAAAAAAAAAAAAAAAAAAAAAAAAAAAAAAAAAAAAAAAAAAAAAAAAAAAAAAAAAAAAAAAAAAAAAAAAAAAAAAAAAAAAAAAAAAAAAAAAAAAAAAAAAAAAAAAAAAAAAAAAAAAAAAAAAAAAAAAAAAAAAAAAAAAAAAAAAAAAAAAAAAAAAAAAAAAAAAAAAAAAAAAAAAAAAAAAAAAAAAAAAAAAAAAAAAAAAAAAAAAAAAAAAAAAAAAAAAAAAAAAAAAAAAAAAAAAAAAAAAAAAAAAAAAAAAAAAAAAAAAAAAAAAAAAAAAAAAAAAAAAAAAAAAAAAAAAAAAAAAAAAAAAAAAAAAAAAAAAAAAAAAAAAAAAAAAAAAAAAAAAAAAAAAAAAAAAAAAAAAAAAAAAAAAAAAAAAAAAAAAAAAAAAAAAAAAAAAAAAAAAAAAAAAAAAAAAAAAAAAAAAAAAAAAAAAAAAAAAAAAAAAAAAAAAAAAAAAAAAAAAAAAAAAAAAAAAAAAAAAAAAAAAAAAAAAAAAAAAAAAAAAAAAAAAAAAAAAAAAAAAAAAAAAAAAAAAAAAAAAAAAAAAAAAAAAAAAAAAAAAAAAAAAAAAAAAAAAAAAAAAAAAAAAAAAAAAAAAAAAAAAAAAAAAAAAAAAAAAAAAAAAAAAAAAAAAAAAAAAAAAAAAAAAAAAAAAAAAAAAAAAAAAAAAAAAAAAAAAAAAAAAAAAAAAAAAAAAAAAAAAAAAAAAAAAAAAAAAAAAAAAAAAAAAAAAAAAAAAAAAAAAAAAAAAAAAAAAAAAAAAAAAAAAAAAAAAAAAAAAAAAAAAAAAAAAAAAAAAAAAAAAAAAAAAAAAAAAAAAAAAAAAAAAAAAAAAAAAAAAAAAAAAAAAAAAAAAAAAAAAAAAAAAAAAAAAAAAAAAAAAAAAAAAAAAAAAAAAAAAAAAAAAAAAAAAAAAAAAAAAAAAAAAAAAAAAAAAAAAAAAAAAAAAAAAAAAAAAAAAAAAAAAAAAAAAAAAAAAAAAAAAAAAAAAAAAAAAAAAAAAAAAAAAAAAAAAAAAAAAAAAAAAAAAAAAAAAAAAAAAAAAAAAAAAAAAAAAAAAAAAAAAAAAAAAAAAAAAAAAAAAAAAAAAAAAAAAAAAAAAAAAAAAAAAAAAAAAAAAAAAAAAAAAAAAAAAAAAAAAAAAAAAAAAAAAAAAAAAAAAAAAAAAAAAAAAAAAAAAAAAAAAAAAAAAAAAAAAAAAAAAAAAAAAAAAAAAAAAAAAAAAAAAAAAAAAAAAAAAAAAAAAAAAAAAAAAAAAAAAAAAAAAAAAAAAAAAAAAAAAAAAAAAAAAAAAAAAAAAAAAAAAAAAAAAAAAAAAAAAAAAAAAAAAAAAAAAAAAAAAAAAAAAAAAAAAAAAAAAAAAAAAAAAAAAAAAAAAAAAAAAAAAAAAAAAAAAAAAAAAAAAAAAAAAAAAAAAAAAAAAAAAAAAAAAAAAAAAAAAAAAAAAAAAAAAAAAAAAAAAAAAAAAAAAAAAAAAAAAAAAAAAAAAAAAAAAAAAAAAAAAAAAAAAAAAAAAAAAAAAAAAAAAAAAAAAAAAAAAAAAAAAAAAAAAAAAAAAAAAAAAAAAAAAAAAAAAAAAAAAAAAAAAAAAAAAAAAAAAAAAAAAAAAAAAAAAAAAAAAAAAAAAAAAAAAAAAAAAAAAAAAAAAAAAAAAAAAAAAAAAAAAAAAAAAAAAAAAAAAAAAAAAAAAAAAAAAAAAAAAAAAAAAAAAAAAAAAAAAAAAAAAAAAAAAAAAAAAAAAAAAAAAAAAAAAAAAAAAAAAAAAAAAAAAAAAAAAAAAAAAAAAAAAAAAAAAAAAAAAAAAAAAAAAAAAAAAAAAAAAAAAAAAAAAAAAAAAAAAAAAAAAAAAAAAAAAAAAAAAAAAAAAAAAAAAAAAAAAAAAAAAAAAAAAAAAAAAAAAAAAAAAAAAAAAAAAAAAAAAAAAAAAAAAAAAAAAAAAAAAAAAAAAAAAAAAAAAAAAAAAAAAAAAAAAAAAAAAAAAAAAAAAAAAAAAAAAAAAAAAAAAAAAAAAAAAAAAAAAAAAAAAAAAAAAAAAAAAAAAAAAAAAAAAAAAAAAAAAAAAAAAAAAAAAAAAAAAAAAAAAAAAAAAAAAAAAAAAAAAAAAAAAAAAAAAAAAAAAAAAAAAAAAAAAAAAAAAAAAAAAAAAAAAAAAAAAAAAAAAAAAAAAAAAAAAAAAAAAAAAAAAAAAAAAAAAAAAAAAAAAAAAAAAAAAAAAAAAAAAAAAAAAAAAAAAAAAAAAAAAAAAAAAAAAAAAAAAAAAAAAAAAAAAAAAAAAAAAAAAAAAAAAAAAAAAAAAAAAAAAAAAAAAAAAAAAAAAAAAAAAAAAAAAAAAAAAAAAAAAAAAAAAAAAAAAAAAAAAAAAAAAAAAAAAAAAAAAAAAAAAAAAAAAAAAAAAAAAAAAAAAAAAAAAAAAAAAAAAAAAAAAAAAAAAAAAAAAAAAAAAAAAAAAAAAAAAAAAAAAAAAAAAAAAAAAAAAAAAAAAAAAAAAAAAAAAAAAAAAAAAAAAAAAAAAAAAAAAAAAAAAAAAAAAAAAAAAAAAAAAAAAAAAAAAAAAAAAAAAAAAAAAAAAAAAAAAAAAAAAAAAAAAAAAAAAAAAAAAAAAAAAAAAAAAAAAAAAAAAAAAAAAAAAAAAAAAAAAAAAAAAAAAAAAAAAAAAAAAAAAAAAAAAAAAAAAAAAAAAAAAAAAAAAAAAAAAAAAAAAAAAAAAAAAAAAAAAAAAAAAAAAAAAAAAAAAAAAAAAAAAAAAAAAAAAAAAAAAAAAAAAAAAAAAAAAAAAAAAAAAAAAAAAAAAAAAAAAAAAAAAAAAAAAAAAAAAAAAAAAAAAAAAAAAAAAAAAAAAAAAAAAAAAAAAAAAAAAAAAAAAAAAAAAAAAAAAAAAAAAAAAAAAAAAAAAAAAAAAAAAAAAAAAAAAAAAAAAAAAAAAAAAAAAAAAAAAAAAAAAAAAAAAAAAAAAAAAAAAAAAAAAAAAAAAAAAAAAAAAAAAAAAAAAAAAAAAAAAAAAAAAAAAAAAAAAAAAAAAAAAAAAAAAAAAAAAAAAAAAAAAAAAAAAAAAAAAAAAAAAAAAAAAAAAAAAAAAAAAAAAAAAAAAAAAAAAAAAAAAAAAAAAAAAAAAAAAAAAAAAAAAAAAAAAAAAAAAAAAAAAAAAAAAAAAAAAAAAAAAAAAAAAAAAAAAAAAAAAAAAAAAAAAAAAAAAAAAAAAAAAAAAAAAAAAAAAAAAAAAAAAAAAAAAAAAAAAAAAAAAAAAAAAAAAAAAAAAAAAAAAAAAAAAAAAAAAAAAAAAAAAAAAAAAAAAAAAAAAAAAAAAAAAAAAAAAAAAAAAAAAAAAAAAAAAAAAAAAAAAAAAAAAAAAAAAAAAAAAAAAAAAAAAAAAAAAAAAAAAAAAAAAAAAAAAAAAAAAAAAAAAAAAAAAAAAAAAAAAAAAAAAAAAAAAAAAAAAAAAAAAAAAAAAAAAAAAAAAAAAAAAAAAAAAAAAAAAAAAAAAAAAAAAAAAAAAAAAAAAAAAAAAAAAAAAAAAAAAAAAAAAAAAAAAAAAAAAAAAAAAAAAAAAAAAAAAAAAAAAAAAAAAAAAAAAAAAAAAAAAAAAAAAAAAAAAAAAAAAAAAAAAAAAAAAAAAAAAAAAAAAAAAAAAAAAAAAAAAAAAAAAAAAAAAAAAAAAAAAAAAAAAAAAAAAAAAAAAAAAAAAAAAAAAAAAAAAAAAAAAAAAAAAAAAAAAAAAAAAAAAAAAAAAAAAAAAAAAAAAAAAAAAAAAAAAAAAAAAAAAAAAAAAAAAAAAAAAAAAAAAAAAAAAAAAAAAAAAAAAAAAAAAAAAAAAAAAAAAAAAAAAAAAAAAAAAAAAAAAAAAAAAAAAAAAAAAAAAAAAAAAAAAAAAAAAAAAAAAAAAAAAAAAAAAAAAAAAAAAAAAAAAAAAAAAAAAAAAAAAAAAAAAAAAAAAAAAAAAAAAAAAAAAAAAAAAAAAAAAAAAAAAAAAAAAAAAAAAAAAAAAAAAAAAAAAAAAAAAAAAAAAAAAAAAAAAAAAAAAAAAAAAAAAAAAAAAAAAAAAAAAAAAAAAAAAAAAAAAAAAAAAAAAAAAAAAAAAAAAAAAAAAAAAAAAAAAAAAAAAAAAAAAAAAAAAAAAAAAAAAAAAAAAAAAAAAAAAAAAAAAAAAAAAAAAAAAAAAAAAAAAAAAAAAAAAAAAAAAAAAAAAAAAAAAAAAAAAAAAAAAAAAAAAAAAAAAAA9lkBAKPj+ldIcG//di6Y0DyNz5RotpfuYLpKiBugGhIYKv2/OvtMdHIHk4zXB3SVl+luGXpoyjdy5k7WfhZXNPHFB8TgFNLpX8zYso1gJkRQp8XfWms0/J35qnlIkuTu1oojGLMjwi4WORLMzDY9eIL/RkL2bFKDtz9cTIHxolhasRiHY4WohdE2sim02g/gX/XQb9q65+cdG9oBMs11Oj6c86HV1jr13iL3P4a9hkCU9/VLt5XGHAMO9RXqPn7KWciXVxsQL04iS8qzU3vABUEnnSo9PGrM6tCk5RZjl2ZQjRVY0fTpWcoqvHohOHthlVWC922X+WRzfeZSPZ86OI0aAWQ=</c2pa:manifest></metadata>
<path style="fill:#FF0000;" d="M31,4.2l13.4,13.4L57.8,31L44.4,44.3L31,57.7L17.7,44.3L4.3,31l13.4-13.4L31,4.2 M30.9,0L15.5,15.5
	L0,31.1l15.5,15.4L30.9,62l15.5-15.5l15.5-15.4L46.4,15.6L30.9,0L30.9,0z"/>
<g>
	<path d="M28.52,23.998h-2.883c-0.228,0-0.615,0.205-0.615,0.698c0,0.49,0.638,2.393,2.153,2.393v-0.004
		c1.033,0,1.472-0.741,1.969-1.402c0.289-0.383,0.424-0.775,0.424-0.956C29.568,24.248,28.827,23.998,28.52,23.998z"/>
	<polygon points="30.159,30.818 30.157,30.818 30.155,30.818 	"/>
	<path d="M31,27.396c-0.331,0-0.589,0.135-0.836,0.43c-0.406,0.478-0.438,1.28-0.689,1.592c-0.247,0.302-0.343,0.627-0.343,0.797
		c0,0.183,0.088,0.602,0.795,0.603c0.706-0.001,0.467-0.287,1.073-0.287s0.367,0.286,1.073,0.287
		c0.707-0.001,0.795-0.42,0.795-0.603c0-0.17-0.096-0.495-0.343-0.797c-0.251-0.312-0.283-1.114-0.689-1.592
		C31.589,27.531,31.331,27.396,31,27.396z"/>
	<path d="M36.978,24.696c0-0.493-0.387-0.698-0.615-0.698H33.48c-0.307,0-1.048,0.25-1.048,0.729c0,0.181,0.135,0.573,0.424,0.956
		c0.497,0.661,0.936,1.402,1.969,1.402v0.004C36.34,27.089,36.978,25.186,36.978,24.696z"/>
	<path d="M43.802,34.4c-0.679,0-1.194,0.189-1.608,0.344c-0.294,0.109-0.547,0.204-0.784,0.204c-0.406,0-0.446-0.021-0.578-0.092
		l-0.303-0.147c-0.298-0.125-2.604-1.225-4.182-1.979l0.165-0.598c1.509-0.759,4.955-2.506,4.971-2.514
		c0.46-0.215,0.744-0.202,0.933-0.193l0.108,0.003c0.178,0,0.479,0.146,0.77,0.288c0.418,0.204,0.894,0.437,1.386,0.437
		c0.78,0,1.325-0.598,1.325-1.454v-0.875c0-0.476-0.328-1.138-0.939-1.508c-0.033-0.565-0.152-1.095-0.501-1.455
		c-0.252-0.26-0.585-0.392-0.989-0.392c-0.947,0-1.695,0.555-2.075,1.08l-0.15,0.214c-0.288,0.418-0.824,1.195-1.407,1.495
		c-0.319,0.164-1.102,0.531-1.919,0.911c0.511-0.466,0.902-1.064,0.902-1.912c0-0.616-0.096-1.495-0.189-2.161l0.116-0.172
		c0.653-0.947,1.55-2.243,1.55-3.697c0-0.868-0.893-1.678-2.13-2.797l-0.409-0.372c-0.314-0.286-0.59-0.558-0.858-0.821
		c-0.65-0.64-1.214-1.194-1.912-1.548c-1.403-0.713-2.741-1.057-4.095-1.057c-1.354,0-2.692,0.344-4.095,1.057
		c-0.698,0.354-1.262,0.908-1.912,1.548c-0.268,0.263-0.544,0.535-0.858,0.821l-0.409,0.372c-1.237,1.119-2.13,1.929-2.13,2.797
		c0,1.454,0.897,2.75,1.55,3.697l0.116,0.172c-0.093,0.666-0.189,1.545-0.189,2.161c0,0.848,0.391,1.446,0.902,1.912
		c-0.817-0.38-1.6-0.747-1.919-0.911c-0.583-0.3-1.119-1.077-1.407-1.495l-0.15-0.214c-0.38-0.525-1.128-1.08-2.075-1.08
		c-0.404,0-0.737,0.132-0.989,0.392c-0.349,0.36-0.468,0.89-0.501,1.455c-0.611,0.37-0.939,1.032-0.939,1.508v0.875
		c0,0.856,0.545,1.454,1.325,1.454c0.492,0,0.968-0.233,1.386-0.437c0.291-0.142,0.592-0.288,0.77-0.288l0.108-0.003
		c0.189-0.009,0.473-0.022,0.933,0.193c0.016,0.008,3.462,1.755,4.971,2.514l0.165,0.598c-1.578,0.754-3.884,1.854-4.182,1.979
		l-0.303,0.147c-0.132,0.071-0.172,0.092-0.578,0.092c-0.237,0-0.49-0.095-0.784-0.204c-0.414-0.155-0.929-0.344-1.608-0.344
		c-0.935,0-2.294,0.652-2.294,1.673c0,0.909,0.583,1.182,1.548,1.636l0.415,0.197c0.097,0.477,0.19,0.943,0.226,1.161
		c0.135,0.813,0.956,1.3,1.667,1.3c1.016,0,1.903-0.995,1.989-1.636c0.102-0.815,0.494-1.377,1.199-1.715l0.671-0.318l3.832-1.804
		c0.263,0.189,0.548,0.364,0.854,0.517c0.75,0.377,2.034,0.935,2.695,0.935c0.661,0,1.945-0.558,2.695-0.935
		c0.306-0.153,0.591-0.328,0.854-0.517l3.832,1.804l0.671,0.318c0.705,0.338,1.097,0.9,1.199,1.715
		c0.086,0.641,0.973,1.636,1.989,1.636c0.711,0,1.532-0.487,1.667-1.3c0.036-0.218,0.129-0.684,0.226-1.161l0.415-0.197
		c0.965-0.454,1.548-0.727,1.548-1.636C46.096,35.052,44.737,34.4,43.802,34.4z M40.345,28.064c0.783-0.402,1.382-1.271,1.739-1.788
		l0.137-0.195c0.237-0.325,0.73-0.705,1.341-0.705c0.201,0,0.288,0.066,0.336,0.115c0.292,0.302,0.265,1.186,0.244,1.832
		l-0.011,0.512c-0.006,0.252,0.193,0.45,0.444,0.455c0.251,0.005,0.46-0.204,0.465-0.455l0.004-0.183
		c0.026,0.07,0.038,0.129,0.038,0.168v0.875c0,0.249-0.071,0.544-0.415,0.544c-0.282,0-0.646-0.174-0.99-0.344
		c-0.402-0.196-0.781-0.381-1.169-0.381l-0.065-0.003c-0.226-0.011-0.698-0.034-1.363,0.278l-0.007,0.003l-4.567,2.313v-1.244
		C37.564,29.375,39.735,28.378,40.345,28.064z M25.494,31.105l-4.567-2.313l-0.007-0.003c-0.665-0.312-1.137-0.289-1.363-0.278
		l-0.065,0.003c-0.388,0-0.767,0.185-1.169,0.381c-0.344,0.17-0.708,0.344-0.99,0.344c-0.344,0-0.415-0.295-0.415-0.544V27.82
		c0-0.039,0.012-0.098,0.038-0.168l0.004,0.183c0.005,0.251,0.214,0.46,0.465,0.455c0.251-0.005,0.45-0.203,0.444-0.455
		l-0.011-0.512c-0.021-0.646-0.048-1.53,0.244-1.832c0.048-0.049,0.135-0.115,0.336-0.115c0.611,0,1.104,0.38,1.341,0.705
		l0.137,0.195c0.357,0.517,0.956,1.386,1.739,1.788c0.61,0.314,2.781,1.311,3.839,1.797V31.105z M25.649,28.232
		c-0.873-0.534-1.497-0.837-1.497-2.084c0-1.311,0.313-1.78,0.313-2.185c0-0.405-0.437-1.981-0.437-2.228
		c0-0.032,0.003-0.298,0.003-0.298c0-0.59,0.075-1.082,0.987-1.893c0.074-0.065,0.187-0.266,0.096-0.377
		c-0.09-0.111-0.127-0.158-0.232-0.282c-0.053-0.062-0.148-0.086-0.24-0.087c-0.092,0-0.182,0.024-0.222,0.06
		c-1.079,0.958-1.3,1.684-1.3,2.578c0,0-0.003,0.266-0.003,0.306c0,0.243-0.01,0.121,0.115,0.631
		c-0.389-0.66-0.716-1.402-0.716-2.148c0-0.464,0.89-1.27,1.832-2.123l0.412-0.374c0.326-0.297,0.611-0.574,0.882-0.843
		c0.623-0.612,1.115-1.095,1.688-1.386c1.291-0.654,2.446-0.896,3.67-0.896s2.379,0.242,3.67,0.896
		c0.573,0.291,1.065,0.774,1.688,1.386c0.271,0.269,0.556,0.546,0.882,0.843l0.412,0.374c0.942,0.853,1.832,1.659,1.832,2.123
		c0,0.746-0.327,1.488-0.716,2.148c0.125-0.51,0.115-0.388,0.115-0.631c0-0.04-0.003-0.306-0.003-0.306
		c0-0.894-0.221-1.62-1.3-2.578c-0.04-0.036-0.13-0.06-0.222-0.06c-0.092,0.001-0.187,0.025-0.24,0.087
		c-0.105,0.124-0.142,0.171-0.232,0.282c-0.091,0.111,0.022,0.312,0.096,0.377c0.912,0.811,0.987,1.303,0.987,1.893
		c0,0,0.003,0.266,0.003,0.298c0,0.247-0.437,1.823-0.437,2.228c0,0.405,0.313,0.874,0.313,2.185c0,1.247-0.624,1.55-1.497,2.084
		l-0.274,0.169c-0.392,0.245-0.724,0.439-0.992,0.594c-0.962,0.558-1.444,0.838-1.444,1.833c0,0,0.018,0.18,0.018,0.596
		c-0.05,0.314-1.415,1.173-2.659,1.175c-1.244-0.002-2.609-0.861-2.659-1.175c0-0.416,0.018-0.596,0.018-0.596
		c0-0.995-0.482-1.275-1.444-1.833c-0.268-0.155-0.6-0.349-0.992-0.594L25.649,28.232z M23.223,35.857l-0.68,0.322
		c-0.681,0.328-1.531,1.014-1.708,2.42c-0.029,0.231-0.55,0.843-1.084,0.843c-0.328,0-0.716-0.217-0.77-0.54
		c-0.093-0.555-0.512-2.545-0.53-2.629c-0.052-0.245-0.293-0.403-0.539-0.35c-0.246,0.053-0.403,0.293-0.35,0.539
		c0,0.005,0.065,0.314,0.065,0.314c-0.791-0.377-0.823-0.445-0.823-0.717c0-0.336,0.775-0.764,1.386-0.764
		c0.514,0,0.908,0.147,1.289,0.289c0.344,0.129,0.7,0.262,1.102,0.262c0.579,0,0.744-0.059,1.01-0.202l0.224-0.109
		c0.35-0.147,3.069-1.445,4.267-2.018c0.167,0.239,0.367,0.48,0.598,0.71L23.223,35.857z M33.284,34.581
		c-0.921,0.464-1.942,0.802-2.284,0.802c-0.342,0-1.363-0.338-2.284-0.802c-1.491-0.749-2.316-2.035-2.316-2.637l-0.005-2.195
		c1.058,0.657,1.042,0.628,1.047,1.042c-0.013,0.112-0.017,0.296-0.017,0.638c0,1.126,2.192,2.071,3.571,2.074v0.001
		c0.001,0,0.002,0,0.004,0c0.002,0,0.002,0,0.004,0v-0.001c1.379-0.003,3.571-0.948,3.571-2.074c0-0.342-0.004-0.526-0.017-0.638
		c0.005-0.414-0.011-0.385,1.047-1.042L35.6,31.943C35.6,32.545,34.775,33.831,33.284,34.581z M44.373,36.775
		c0,0,0.065-0.309,0.065-0.314c0.053-0.246-0.104-0.486-0.35-0.539c-0.246-0.053-0.487,0.105-0.539,0.35
		c-0.018,0.084-0.437,2.074-0.53,2.629c-0.054,0.323-0.442,0.54-0.77,0.54c-0.534,0-1.055-0.612-1.084-0.843
		c-0.177-1.406-1.027-2.092-1.708-2.42l-0.68-0.322l-3.457-1.63c0.231-0.23,0.431-0.471,0.598-0.71
		c1.198,0.573,3.917,1.871,4.267,2.018l0.224,0.109c0.266,0.143,0.431,0.202,1.01,0.202c0.402,0,0.758-0.133,1.102-0.262
		c0.381-0.142,0.775-0.289,1.289-0.289c0.611,0,1.386,0.428,1.386,0.764C45.196,36.331,45.164,36.398,44.373,36.775z"/>
	<polygon points="31.845,30.818 31.843,30.818 31.841,30.818 	"/>
</g>
</svg>
