<?xml version="1.0" encoding="UTF-8"?>
<svg id="Layer_1" xmlns="http://www.w3.org/2000/svg" version="1.1" xmlns:xlink="http://www.w3.org/1999/xlink" viewBox="0 0 30.2 39.6"><metadata><c2pa:manifest xmlns:c2pa="http://c2pa.org/manifest">AAA0RGp1bWIAAAAeanVtZGMycGEAEQAQgAAAqgA4m3EDYzJwYQAAADQeanVtYgAAAEdqdW1kYzJtYQARABCAAACqADibcQN1cm46dXVpZDpmMGQwM2EwNC0yNTE2LTRkOTgtYWY5Yi1jYzI5MmJiMTA5ODUAAAABtGp1bWIAAAApanVtZGMyYXMAEQAQgAAAqgA4m3EDYzJwYS5hc3NlcnRpb25zAAAAANdqdW1iAAAAJmp1bWRjYm9yABEAEIAAAKoAOJtxA2MycGEuYWN0aW9ucwAAAACpY2JvcqFnYWN0aW9uc4GjZmFjdGlvbmtjMnBhLmVkaXRlZG1zb2Z0d2FyZUFnZW50bUFkb2JlIEZpcmVmbHlxZGlnaXRhbFNvdXJjZVR5cGV4U2h0dHA6Ly9jdi5pcHRjLm9yZy9uZXdzY29kZXMvZGlnaXRhbHNvdXJjZXR5cGUvY29tcG9zaXRlV2l0aFRyYWluZWRBbGdvcml0aG1pY01lZGlhAAAArGp1bWIAAAAoanVtZGNib3IAEQAQgAAAqgA4m3EDYzJwYS5oYXNoLmRhdGEAAAAAfGNib3KlamV4Y2x1c2lvbnOBomVzdGFydBjsZmxlbmd0aBlFsGRuYW1lbmp1bWJmIG1hbmlmZXN0Y2FsZ2ZzaGEyNTZkaGFzaFgg9UUDdEZI7ea4QPs0oKjTtHwYvUM+fSq1eMi4DqeJsBdjcGFkSQAAAAAAAAAAAAAAAgtqdW1iAAAAJGp1bWRjMmNsABEAEIAAAKoAOJtxA2MycGEuY2xhaW0AAAAB32Nib3KoaGRjOnRpdGxlb0dlbmVyYXRlZCBJbWFnZWlkYzpmb3JtYXRtaW1hZ2Uvc3ZnK3htbGppbnN0YW5jZUlEeCx4bXA6aWlkOmQ1YWRhNjY3LTMyOWEtNDJlMS1iYzJmLTM1MDE3MGNkYTE1N29jbGFpbV9nZW5lcmF0b3J4NkFkb2JlX0lsbHVzdHJhdG9yLzI5LjMgYWRvYmVfYzJwYS8wLjcuNiBjMnBhLXJzLzAuMjUuMnRjbGFpbV9nZW5lcmF0b3JfaW5mb4G/ZG5hbWVxQWRvYmUgSWxsdXN0cmF0b3JndmVyc2lvbmQyOS4z/2lzaWduYXR1cmV4GXNlbGYjanVtYmY9YzJwYS5zaWduYXR1cmVqYXNzZXJ0aW9uc4KiY3VybHgnc2VsZiNqdW1iZj1jMnBhLmFzc2VydGlvbnMvYzJwYS5hY3Rpb25zZGhhc2hYIEppwb3/qN5BMHi+JO3M+DE6wdFklTRWcaANawazN9SvomN1cmx4KXNlbGYjanVtYmY9YzJwYS5hc3NlcnRpb25zL2MycGEuaGFzaC5kYXRhZGhhc2hYIBEcUP7MJTcoZqevXSAWhlsGpvIuajZe3YzaqbH1KeJhY2FsZ2ZzaGEyNTYAADAQanVtYgAAAChqdW1kYzJjcwARABCAAACqADibcQNjMnBhLnNpZ25hdHVyZQAAAC/gY2JvctKEWQzvogE4JBghglkGPTCCBjkwggQhoAMCAQICEBWN/yesI9K4JUtOYzceHZ4wDQYJKoZIhvcNAQELBQAwdTELMAkGA1UEBhMCVVMxIzAhBgNVBAoTGkFkb2JlIFN5c3RlbXMgSW5jb3Jwb3JhdGVkMR0wGwYDVQQLExRBZG9iZSBUcnVzdCBTZXJ2aWNlczEiMCAGA1UEAxMZQWRvYmUgUHJvZHVjdCBTZXJ2aWNlcyBHMzAeFw0yNDEwMTUwMDAwMDBaFw0yNTEwMTUyMzU5NTlaMIGrMRMwEQYDVQQDDApBZG9iZSBDMlBBMSgwJgYDVQQLDB9Db250ZW50IEF1dGhlbnRpY2l0eSBJbml0aWF0aXZlMRMwEQYDVQQKDApBZG9iZSBJbmMuMREwDwYDVQQHDAhTYW4gSm9zZTETMBEGA1UECAwKQ2FsaWZvcm5pYTELMAkGA1UEBhMCVVMxIDAeBgkqhkiG9w0BCQEWEWNhaS1vcHNAYWRvYmUuY29tMIIBIjANBgkqhkiG9w0BAQEFAAOCAQ8AMIIBCgKCAQEAwxDBgdB9PXLpMXPw5oNgYkFWDPP1aSfth9TZPINOtOQlhp1v4h+hMxZWFjkZ3RJRuoSBrsSSYBaEfiDMKisi/sOxuFHKBV//l1rv3SrjrixANXIlqjGdIYydaMaFa/5ovFz/m4+SUz0ccYzqw+vSAzuRySGnpgm8Gmj+SEJcL/GIHzqU9bUy3NsizY2oY28yj32rbkOqeADSM51OqIJKloEBFFexzMunzpU+K2sLqheoR8FJMaR0fGXa/gqRzhkiBFhwUhLPS9s6+TCnz09UZMlXbdG/iFKj3UPFUDjqh0wtFgcz24DrUlaWeiltKHouymBHuirzvmOG0VtSPepxOQIDAQABo4IBjDCCAYgwDAYDVR0TAQH/BAIwADAOBgNVHQ8BAf8EBAMCB4AwHgYDVR0lBBcwFQYJKoZIhvcvAQEMBggrBgEFBQcDBDCBjgYDVR0gBIGGMIGDMIGABgkqhkiG9y8BAgMwczBxBggrBgEFBQcCAjBlDGNZb3UgYXJlIG5vdCBwZXJtaXR0ZWQgdG8gdXNlIHRoaXMgTGljZW5zZSBDZXJ0aWZpY2F0ZSBleGNlcHQgYXMgcGVybWl0dGVkIGJ5IHRoZSBsaWNlbnNlIGFncmVlbWVudC4wXQYDVR0fBFYwVDBSoFCgToZMaHR0cDovL3BraS1jcmwuc3ltYXV0aC5jb20vY2FfN2E1YzNhMGM3MzExNzQwNmFkZDE5MzEyYmMxYmMyM2YvTGF0ZXN0Q1JMLmNybDA3BggrBgEFBQcBAQQrMCkwJwYIKwYBBQUHMAGGG2h0dHA6Ly9wa2ktb2NzcC5zeW1hdXRoLmNvbTAfBgNVHSMEGDAWgBRXKXoyTcz+5DVOwB8kc85zU6vfajANBgkqhkiG9w0BAQsFAAOCAgEAqrl6FLQ+c9LYaf0igyTgErNL9XmmieiT3ohKFevJ3BN7kWkZD1znbVw3XnX5tgQaKq+AiSCldNxYEKqU+Rq9Lr26GGglBSA0s/Ds2kw+2LlnTmojAHCH3CvVRbhGHHrashmnfgwmF1TSkaWk7NxEhbt9wQoiEMkLSQeM4S4Cu+176FzEdy+zzkDkRWqeSOQO/qG2WRto/vIq30ECf6v6FtazJI1CWIqhBK5oJioSNbLsCVJhar3Uca9D11ujeZW4k2jPCsnzriTmFqVftd3k2SXUQg7wQcQcXfKBItWZt8ztn0IYoZzJa1x9l9dvXKAJvNsDoz4uDerS8z9rzLsEQvzL1yPbTp4+/6mTTAWsoaDtmkZgm3X+sffPX3XzMFmfzIHiYfUja5nKK2bs4P71tit/1U/FD2xdlpzZSupRqCMGz+UTeXI8IrN5ZR/+F8rSsmRAStjnggz/wDucwcDlJbY4/RKq3BrAi4LamLMIfwo/dbL55TDlIOd7HCfmSgabc1WO0Kji3LW/VZnP9VG8WiUG+WqtN1OQIAZmFUOWdXQGLag+I1OaZ1BXJDNsJiXcg2TGNBSEPo44Akfn9MzFGKyB5UurMN4NH0qlamhrhKiV0+b73Fjx330P/frxBmzx5NpAQhNKksx+F4z1S8Ay1o2TBIkkeAFbDzy8f/FxuytZBqUwggahMIIEiaADAgECAhAMqLZUe4nm0gaJdc2Lm4niMA0GCSqGSIb3DQEBCwUAMGwxCzAJBgNVBAYTAlVTMSMwIQYDVQQKExpBZG9iZSBTeXN0ZW1zIEluY29ycG9yYXRlZDEdMBsGA1UECxMUQWRvYmUgVHJ1c3QgU2VydmljZXMxGTAXBgNVBAMTEEFkb2JlIFJvb3QgQ0EgRzIwHhcNMTYxMTI5MDAwMDAwWhcNNDExMTI4MjM1OTU5WjB1MQswCQYDVQQGEwJVUzEjMCEGA1UEChMaQWRvYmUgU3lzdGVtcyBJbmNvcnBvcmF0ZWQxHTAbBgNVBAsTFEFkb2JlIFRydXN0IFNlcnZpY2VzMSIwIAYDVQQDExlBZG9iZSBQcm9kdWN0IFNlcnZpY2VzIEczMIICIjANBgkqhkiG9w0BAQEFAAOCAg8AMIICCgKCAgEAtx8uvb0Js1xIbP4Mg65sAepReCWkgD6Jp7GyiGTa9ol2gfn5HfOV/HiYjZiOz+TuHFU+DXNad86xEqgVeGVMlvIHGe/EHcKBxvEDXdlTXB5zIEkfl0/SGn7J6vTX8MNybfSi95eQDUOZ9fjCaq+PBFjS5ZfeNmzi/yR+MsA0jKKoWarSRCFFFBpUFQWfAgLyXOyxOnXQOQudjxNj6Wu0X0IB13+IH11WcKcWEWXM4j4jh6hLy29Cd3EoVG3oxcVenMF/EMgD2tXjx4NUbTNB1/g9+MR6Nw5Mhp5k/g3atNExAxhtugC+T3SDShSEJfs2quiiRUHtX3RhOcK1s1OJgT5s2s9xGy5/uxVpcAIaK2KiDJXW3xxN8nXPmk1NSVu/mxtfapr4TvSJbhrU7UA3qhQY9n4On2sbH1X1Tw+7LTek8KCA5ZDghOERPiIp/Jt893qov1bE5rJkagcVg0Wqjh89NhCaBA8VyRt3ovlGyCKdNV2UL3bn5vdFsTk7qqmp9makz1/SuVXYxIf6L6+8RXOatXWaPkmucuLE1TPOeP7S1N5JToFCs80l2D2EtxoQXGCR48K/cTUR5zV/fQ+hdIOzoo0nFn77Y8Ydd2k7/x9BE78pmoeMnw6VXYfXCuWEgj6p7jpbLoxQMoWMCVzlg72WVNhJFlSw4aD8fc6ezeECAwEAAaOCATQwggEwMBIGA1UdEwEB/wQIMAYBAf8CAQAwNQYDVR0fBC4wLDAqoCigJoYkaHR0cDovL2NybC5hZG9iZS5jb20vYWRvYmVyb290ZzIuY3JsMA4GA1UdDwEB/wQEAwIBBjAUBgNVHSUEDTALBgkqhkiG9y8BAQcwVwYDVR0gBFAwTjBMBgkqhkiG9y8BAgMwPzA9BggrBgEFBQcCARYxaHR0cHM6Ly93d3cuYWRvYmUuY29tL21pc2MvcGtpL3Byb2Rfc3ZjZV9jcHMuaHRtbDAkBgNVHREEHTAbpBkwFzEVMBMGA1UEAxMMU1lNQy00MDk2LTMzMB0GA1UdDgQWBBRXKXoyTcz+5DVOwB8kc85zU6vfajAfBgNVHSMEGDAWgBSmHOFtVCRMqI9Icr9uqYzV5Owx1DANBgkqhkiG9w0BAQsFAAOCAgEAcc7lB4ym3C3cyOA7ZV4AkoGV65UgJK+faThdyXzxuNqlTQBlOyXBGFyevlm33BsGO1mDJfozuyLyT2+7IVxWFvW5yYMV+5S1NeChMXIZnCzWNXnuiIQSdmPD82TEVCkneQpFET4NDwSxo8/ykfw6Hx8fhuKz0wjhjkWMXmK3dNZXIuYVcbynHLyJOzA+vWU3sH2T0jPtFp7FN39GZne4YG0aVMlnHhtHhxaXVCiv2RVoR4w1QtvKHQpzfPObR53Cl74iLStGVFKPwCLYRSpYRF7J6vVS/XxW4LzvN2b6VEKOcvJmN3LhpxFRl3YYzW+dwnwtbuHW6WJlmjffbLm1MxLFGlG95aCz31X8wzqYNsvb9+5AXcv8Ll69tLXmO1OtsY/3wILNUEp4VLZTE3wqm3n8hMnClZiiKyZCS7L4E0mClbx+BRSMH3eVo6jgve41/fK3FQM4QCNIkpGs7FjjLy+ptC+JyyWqcfvORrFV/GOgB5hD+G5ghJcIpeigD/lHsCRYsOa5sFdqREhwIWLmSWtNwfLZdJ3dkCc7yRpm3gal6qRfTkYpxTNxxKyvKbkaJDoxR9vtWrC3iNrQd9VvxC3TXtuzoHbqumeqgcAqefWF9u6snQ4Q9FkXzeuJArNuSvPIhgBjVtggH0w0vm/lmCQYiC/Y12GeCxfgYlL33buiZnNpZ1RzdKFpdHN0VG9rZW5zgaFjdmFsWQ44MIIONDADAgEAMIIOKwYJKoZIhvcNAQcCoIIOHDCCDhgCAQMxDzANBglghkgBZQMEAgEFADCBgQYLKoZIhvcNAQkQAQSgcgRwMG4CAQEGCWCGSAGG/WwHATAxMA0GCWCGSAFlAwQCAQUABCDPfkautUyo1yDiS6cpnfNgFO4U8Cj6Vk8gu0bBr8mr2wIQSu2WfgldWWhCABek1c2YlxgPMjAyNTAyMjgxOTU4NTRaAggvSV4HKrpq5KCCC8AwggUKMIIC8qADAgECAhAMCy/HenjPuu1lVlTBmiQDMA0GCSqGSIb3DQEBCwUAMGMxCzAJBgNVBAYTAlVTMRcwFQYDVQQKEw5EaWdpQ2VydCwgSW5jLjE7MDkGA1UEAxMyRGlnaUNlcnQgVHJ1c3RlZCBHNCBSU0E0MDk2IFNIQTI1NiBUaW1lU3RhbXBpbmcgQ0EwHhcNMjQxMTIwMDAwMDAwWhcNMzYwMjE5MjM1OTU5WjBbMQswCQYDVQQGEwJVUzERMA8GA1UEChMIRGlnaUNlcnQxOTA3BgNVBAMTMEVDQzI1Nl9TSEEyNTZfVGltZXN0YW1wX1Jlc3BvbmRlcl9BZG9iZV9OT1ZfMjAyNDBZMBMGByqGSM49AgEGCCqGSM49AwEHA0IABND8HoX4gZimKpBAvE5+qRSZ5OZJFZnPFIK3AzzayJb9JtdrOS1HIRabAhWz7w8mOFX0Lh9QnbcgZHGx/MkzyV6jggGLMIIBhzAOBgNVHQ8BAf8EBAMCB4AwDAYDVR0TAQH/BAIwADAWBgNVHSUBAf8EDDAKBggrBgEFBQcDCDAgBgNVHSAEGTAXMAgGBmeBDAEEAjALBglghkgBhv1sBwEwHwYDVR0jBBgwFoAUuhbZbU2FL3MpdpovdYxqII+eyG8wHQYDVR0OBBYEFOzRHG9856BN5DE/hwAI1K3UfTa7MFoGA1UdHwRTMFEwT6BNoEuGSWh0dHA6Ly9jcmwzLmRpZ2ljZXJ0LmNvbS9EaWdpQ2VydFRydXN0ZWRHNFJTQTQwOTZTSEEyNTZUaW1lU3RhbXBpbmdDQS5jcmwwgZAGCCsGAQUFBwEBBIGDMIGAMCQGCCsGAQUFBzABhhhodHRwOi8vb2NzcC5kaWdpY2VydC5jb20wWAYIKwYBBQUHMAKGTGh0dHA6Ly9jYWNlcnRzLmRpZ2ljZXJ0LmNvbS9EaWdpQ2VydFRydXN0ZWRHNFJTQTQwOTZTSEEyNTZUaW1lU3RhbXBpbmdDQS5jcnQwDQYJKoZIhvcNAQELBQADggIBAKLswSDyeS8tq4sjtwCPbUOCcwSuHSae0K3hzi2xb3IlBl1m/WfwTV255rJvoiJnyZhqZsiatN65UrAapRIhNlOJWG0VE/fNEP0OkWT4THg/TXQhK0f94PWWArptV9pjSC/NwhFA/cLAjOoFkATzVzlAg2M+zzVy8ks4Up39xfvM6GhC+vOI0PLXlQ1Pl+5RF7Z+KgA1CxE1g6ZVcB2DZMrs6S1gP4Qf8PyBavucdCFEky4PngY2OJmc0+dhfPoXePsG7ZpWWKu9AYACytbbsuqGD2Sxbn5ov6D3+XKpGgytYtLLgoNBrO08H48qyR5w7VHt1slvDtQEVWX4ZsZpRzjHoe9Us00vmEeOIut/0DjPF7nZ71mqlJTuQO7t2xFe+b64ssxeMcVLH+PSy0hzGdAfA4vgDlFG5QfVfDXDPYKIa8gc1yhiuSp+RvpOwolTue0Oo0oUpnfj2wEStN1fBWgh3jNL9xX8Dms7UrDlo07/NRMK1CRtwyDzxcZaoiZpiYgeEi8doTWdF09YJrRCGvG+Kh4/jmnj/Op38mtVs2ygS4QFJEg8Hf5WItqgWWKZlFR4/PApi/JOt3qDvaZW0Xg+ttu/LWSoJSaxkMwWqffcNHQ3xDOqTOKvdu583IjmT3lGrc1dxt81gPH2pnyCMK7g0e1LEB0kqzDNv2CLqPIVMIIGrjCCBJagAwIBAgIQBzY3tyRUfNhHrP0oZipeWzANBgkqhkiG9w0BAQsFADBiMQswCQYDVQQGEwJVUzEVMBMGA1UEChMMRGlnaUNlcnQgSW5jMRkwFwYDVQQLExB3d3cuZGlnaWNlcnQuY29tMSEwHwYDVQQDExhEaWdpQ2VydCBUcnVzdGVkIFJvb3QgRzQwHhcNMjIwMzIzMDAwMDAwWhcNMzcwMzIyMjM1OTU5WjBjMQswCQYDVQQGEwJVUzEXMBUGA1UEChMORGlnaUNlcnQsIEluYy4xOzA5BgNVBAMTMkRpZ2lDZXJ0IFRydXN0ZWQgRzQgUlNBNDA5NiBTSEEyNTYgVGltZVN0YW1waW5nIENBMIICIjANBgkqhkiG9w0BAQEFAAOCAg8AMIICCgKCAgEAxoY1BkmzwT1ySVFVxyUDxPKRN6mXUaHW0oPRnkyibaCwzIP5WvYRoUQVQl+kiPNo+n3znIkLf50fng8zH1ATCyZzlm34V6gCff1DtITaEfFzsbPuK4CEiiIY3+vaPcQXf6sZKz5C3GeO6lE98NZW1OcoLevTsbV15x8GZY2UKdPZ7Gnf2ZCHRgB720RBidx8ald68Dd5n12sy+iEZLRS8nZH92GDGd1ftFQLIWhuNyG7QKxfst5Kfc71ORJn7w6lY2zkpsUdzTYNXNXmG6jBZHRAp8ByxbpOH7G1WE15/tePc5OsLDnipUjW8LAxE6lXKZYnLvWHpo9OdhVVJnCYJn+gGkcgQ+NDY4B7dW4nJZCYOjgRs/b2nuY7W+yB3iIU2YIqx5K/oN7jPqJz+ucfWmyU8lKVEStYdEAoq3NDzt9KoRxrOMUp88qqlnNCaJ+2RrOdOqPVA+C/8KI8ykLcGEh/FDTP0kyr75s9/g64ZCr6dSgkQe1CvwWcZklSUPRR8zZJTYsg0ixXNXkrqPNFYLwjjVj33GHek/45wPmyMKVM1+mYSlg+0wOI/rOP015LdhJRk8mMDDtbiiKowSYI+RQQEgN9XyO7ZONj4KbhPvbCdLI/Hgl27KtdRnXiYKNYCQEoAA6EVO7O6V3IXjASvUaetdN2udIOa5kM0jO0zbECAwEAAaOCAV0wggFZMBIGA1UdEwEB/wQIMAYBAf8CAQAwHQYDVR0OBBYEFLoW2W1NhS9zKXaaL3WMaiCPnshvMB8GA1UdIwQYMBaAFOzX44LScV1kTN8uZz/nupiuHA9PMA4GA1UdDwEB/wQEAwIBhjATBgNVHSUEDDAKBggrBgEFBQcDCDB3BggrBgEFBQcBAQRrMGkwJAYIKwYBBQUHMAGGGGh0dHA6Ly9vY3NwLmRpZ2ljZXJ0LmNvbTBBBggrBgEFBQcwAoY1aHR0cDovL2NhY2VydHMuZGlnaWNlcnQuY29tL0RpZ2lDZXJ0VHJ1c3RlZFJvb3RHNC5jcnQwQwYDVR0fBDwwOjA4oDagNIYyaHR0cDovL2NybDMuZGlnaWNlcnQuY29tL0RpZ2lDZXJ0VHJ1c3RlZFJvb3RHNC5jcmwwIAYDVR0gBBkwFzAIBgZngQwBBAIwCwYJYIZIAYb9bAcBMA0GCSqGSIb3DQEBCwUAA4ICAQB9WY7Ak7ZvmKlEIgF+ZtbYIULhsBguEE0TzzBTzr8Y+8dQXeJLKftwig2qKWn8acHPHQfpPmDI2AvlXFvXbYf6hCAlNDFnzbYSlm/EUExiHQwIgqgWvalWzxVzjQEiJc6VaT9Hd/tydBTX/6tPiix6q4XNQ1/tYLaqT5Fmniye4Iqs5f2MvGQmh2ySvZ180HAKfO+ovHVPulr3qRCyXen/KFSJ8NWKcXZl2szwcqMj+sAngkSumScbqyQeJsG33irr9p6xeZmBo1aGqwpFyd/EjaDnmPv7pp1yr8THwcFqcdnGE4AJxLafzYeHJLtPo0m5d2aR8XKc6UsCUqc3fpNTrDsdCEkPlM05et3/JWOZJyw9P2un8WbDQc1PtkCbISFA0LcTJM3cHXg65J6t5TRxktcma+Q4c6umAU+9Pzt4rUyt+8SVe+0KXzM5h0F4ejjpnOHdI/0dKNPH+ejxmF/7K9h+8kaddSweJywm228Vex4Ziza4k9Tm8heZWcpw8De/mADfIBZPJ/tgZxahZrrdVcA6KYawmKAr7ZVBtzrVFZgxtGIJDwq9gdkT/r+k0fNX2bwE+oLeMt8EifAAzV3C+dAjfwAL5HYCJtnwZXZCpimHCUcr5n8apIUP/JiW9lVUKx+A+sDyDivl1vupL0QVSucTDh3bNzgaoSv27dZ8/DGCAbgwggG0AgEBMHcwYzELMAkGA1UEBhMCVVMxFzAVBgNVBAoTDkRpZ2lDZXJ0LCBJbmMuMTswOQYDVQQDEzJEaWdpQ2VydCBUcnVzdGVkIEc0IFJTQTQwOTYgU0hBMjU2IFRpbWVTdGFtcGluZyBDQQIQDAsvx3p4z7rtZVZUwZokAzANBglghkgBZQMEAgEFAKCB0TAaBgkqhkiG9w0BCQMxDQYLKoZIhvcNAQkQAQQwHAYJKoZIhvcNAQkFMQ8XDTI1MDIyODE5NTg1NFowKwYLKoZIhvcNAQkQAgwxHDAaMBgwFgQU9xMCVGQbnM7SUS1ixb+fKYSM/PgwLwYJKoZIhvcNAQkEMSIEINmc988sR7vuUWpwe/P1m+UGLG10hCk8WTQcG42TP4EiMDcGCyqGSIb3DQEJEAIvMSgwJjAkMCIEILl6JmgdGOm5fGM++Eg5ZFV1l5baUENELI+MzeUn4ACpMAoGCCqGSM49BAMCBEcwRQIhANlkIPGWID7BfeKlWcpS79vihAFpr2qkizuYGtvE5NpaAiAGJXQ39HN5+QFH3j2WktGUixftt/ULCC0FGK5sVP41NmNwYWRZE4UAAAAAAAAAAAAAAAAAAAAAAAAAAAAAAAAAAAAAAAAAAAAAAAAAAAAAAAAAAAAAAAAAAAAAAAAAAAAAAAAAAAAAAAAAAAAAAAAAAAAAAAAAAAAAAAAAAAAAAAAAAAAAAAAAAAAAAAAAAAAAAAAAAAAAAAAAAAAAAAAAAAAAAAAAAAAAAAAAAAAAAAAAAAAAAAAAAAAAAAAAAAAAAAAAAAAAAAAAAAAAAAAAAAAAAAAAAAAAAAAAAAAAAAAAAAAAAAAAAAAAAAAAAAAAAAAAAAAAAAAAAAAAAAAAAAAAAAAAAAAAAAAAAAAAAAAAAAAAAAAAAAAAAAAAAAAAAAAAAAAAAAAAAAAAAAAAAAAAAAAAAAAAAAAAAAAAAAAAAAAAAAAAAAAAAAAAAAAAAAAAAAAAAAAAAAAAAAAAAAAAAAAAAAAAAAAAAAAAAAAAAAAAAAAAAAAAAAAAAAAAAAAAAAAAAAAAAAAAAAAAAAAAAAAAAAAAAAAAAAAAAAAAAAAAAAAAAAAAAAAAAAAAAAAAAAAAAAAAAAAAAAAAAAAAAAAAAAAAAAAAAAAAAAAAAAAAAAAAAAAAAAAAAAAAAAAAAAAAAAAAAAAAAAAAAAAAAAAAAAAAAAAAAAAAAAAAAAAAAAAAAAAAAAAAAAAAAAAAAAAAAAAAAAAAAAAAAAAAAAAAAAAAAAAAAAAAAAAAAAAAAAAAAAAAAAAAAAAAAAAAAAAAAAAAAAAAAAAAAAAAAAAAAAAAAAAAAAAAAAAAAAAAAAAAAAAAAAAAAAAAAAAAAAAAAAAAAAAAAAAAAAAAAAAAAAAAAAAAAAAAAAAAAAAAAAAAAAAAAAAAAAAAAAAAAAAAAAAAAAAAAAAAAAAAAAAAAAAAAAAAAAAAAAAAAAAAAAAAAAAAAAAAAAAAAAAAAAAAAAAAAAAAAAAAAAAAAAAAAAAAAAAAAAAAAAAAAAAAAAAAAAAAAAAAAAAAAAAAAAAAAAAAAAAAAAAAAAAAAAAAAAAAAAAAAAAAAAAAAAAAAAAAAAAAAAAAAAAAAAAAAAAAAAAAAAAAAAAAAAAAAAAAAAAAAAAAAAAAAAAAAAAAAAAAAAAAAAAAAAAAAAAAAAAAAAAAAAAAAAAAAAAAAAAAAAAAAAAAAAAAAAAAAAAAAAAAAAAAAAAAAAAAAAAAAAAAAAAAAAAAAAAAAAAAAAAAAAAAAAAAAAAAAAAAAAAAAAAAAAAAAAAAAAAAAAAAAAAAAAAAAAAAAAAAAAAAAAAAAAAAAAAAAAAAAAAAAAAAAAAAAAAAAAAAAAAAAAAAAAAAAAAAAAAAAAAAAAAAAAAAAAAAAAAAAAAAAAAAAAAAAAAAAAAAAAAAAAAAAAAAAAAAAAAAAAAAAAAAAAAAAAAAAAAAAAAAAAAAAAAAAAAAAAAAAAAAAAAAAAAAAAAAAAAAAAAAAAAAAAAAAAAAAAAAAAAAAAAAAAAAAAAAAAAAAAAAAAAAAAAAAAAAAAAAAAAAAAAAAAAAAAAAAAAAAAAAAAAAAAAAAAAAAAAAAAAAAAAAAAAAAAAAAAAAAAAAAAAAAAAAAAAAAAAAAAAAAAAAAAAAAAAAAAAAAAAAAAAAAAAAAAAAAAAAAAAAAAAAAAAAAAAAAAAAAAAAAAAAAAAAAAAAAAAAAAAAAAAAAAAAAAAAAAAAAAAAAAAAAAAAAAAAAAAAAAAAAAAAAAAAAAAAAAAAAAAAAAAAAAAAAAAAAAAAAAAAAAAAAAAAAAAAAAAAAAAAAAAAAAAAAAAAAAAAAAAAAAAAAAAAAAAAAAAAAAAAAAAAAAAAAAAAAAAAAAAAAAAAAAAAAAAAAAAAAAAAAAAAAAAAAAAAAAAAAAAAAAAAAAAAAAAAAAAAAAAAAAAAAAAAAAAAAAAAAAAAAAAAAAAAAAAAAAAAAAAAAAAAAAAAAAAAAAAAAAAAAAAAAAAAAAAAAAAAAAAAAAAAAAAAAAAAAAAAAAAAAAAAAAAAAAAAAAAAAAAAAAAAAAAAAAAAAAAAAAAAAAAAAAAAAAAAAAAAAAAAAAAAAAAAAAAAAAAAAAAAAAAAAAAAAAAAAAAAAAAAAAAAAAAAAAAAAAAAAAAAAAAAAAAAAAAAAAAAAAAAAAAAAAAAAAAAAAAAAAAAAAAAAAAAAAAAAAAAAAAAAAAAAAAAAAAAAAAAAAAAAAAAAAAAAAAAAAAAAAAAAAAAAAAAAAAAAAAAAAAAAAAAAAAAAAAAAAAAAAAAAAAAAAAAAAAAAAAAAAAAAAAAAAAAAAAAAAAAAAAAAAAAAAAAAAAAAAAAAAAAAAAAAAAAAAAAAAAAAAAAAAAAAAAAAAAAAAAAAAAAAAAAAAAAAAAAAAAAAAAAAAAAAAAAAAAAAAAAAAAAAAAAAAAAAAAAAAAAAAAAAAAAAAAAAAAAAAAAAAAAAAAAAAAAAAAAAAAAAAAAAAAAAAAAAAAAAAAAAAAAAAAAAAAAAAAAAAAAAAAAAAAAAAAAAAAAAAAAAAAAAAAAAAAAAAAAAAAAAAAAAAAAAAAAAAAAAAAAAAAAAAAAAAAAAAAAAAAAAAAAAAAAAAAAAAAAAAAAAAAAAAAAAAAAAAAAAAAAAAAAAAAAAAAAAAAAAAAAAAAAAAAAAAAAAAAAAAAAAAAAAAAAAAAAAAAAAAAAAAAAAAAAAAAAAAAAAAAAAAAAAAAAAAAAAAAAAAAAAAAAAAAAAAAAAAAAAAAAAAAAAAAAAAAAAAAAAAAAAAAAAAAAAAAAAAAAAAAAAAAAAAAAAAAAAAAAAAAAAAAAAAAAAAAAAAAAAAAAAAAAAAAAAAAAAAAAAAAAAAAAAAAAAAAAAAAAAAAAAAAAAAAAAAAAAAAAAAAAAAAAAAAAAAAAAAAAAAAAAAAAAAAAAAAAAAAAAAAAAAAAAAAAAAAAAAAAAAAAAAAAAAAAAAAAAAAAAAAAAAAAAAAAAAAAAAAAAAAAAAAAAAAAAAAAAAAAAAAAAAAAAAAAAAAAAAAAAAAAAAAAAAAAAAAAAAAAAAAAAAAAAAAAAAAAAAAAAAAAAAAAAAAAAAAAAAAAAAAAAAAAAAAAAAAAAAAAAAAAAAAAAAAAAAAAAAAAAAAAAAAAAAAAAAAAAAAAAAAAAAAAAAAAAAAAAAAAAAAAAAAAAAAAAAAAAAAAAAAAAAAAAAAAAAAAAAAAAAAAAAAAAAAAAAAAAAAAAAAAAAAAAAAAAAAAAAAAAAAAAAAAAAAAAAAAAAAAAAAAAAAAAAAAAAAAAAAAAAAAAAAAAAAAAAAAAAAAAAAAAAAAAAAAAAAAAAAAAAAAAAAAAAAAAAAAAAAAAAAAAAAAAAAAAAAAAAAAAAAAAAAAAAAAAAAAAAAAAAAAAAAAAAAAAAAAAAAAAAAAAAAAAAAAAAAAAAAAAAAAAAAAAAAAAAAAAAAAAAAAAAAAAAAAAAAAAAAAAAAAAAAAAAAAAAAAAAAAAAAAAAAAAAAAAAAAAAAAAAAAAAAAAAAAAAAAAAAAAAAAAAAAAAAAAAAAAAAAAAAAAAAAAAAAAAAAAAAAAAAAAAAAAAAAAAAAAAAAAAAAAAAAAAAAAAAAAAAAAAAAAAAAAAAAAAAAAAAAAAAAAAAAAAAAAAAAAAAAAAAAAAAAAAAAAAAAAAAAAAAAAAAAAAAAAAAAAAAAAAAAAAAAAAAAAAAAAAAAAAAAAAAAAAAAAAAAAAAAAAAAAAAAAAAAAAAAAAAAAAAAAAAAAAAAAAAAAAAAAAAAAAAAAAAAAAAAAAAAAAAAAAAAAAAAAAAAAAAAAAAAAAAAAAAAAAAAAAAAAAAAAAAAAAAAAAAAAAAAAAAAAAAAAAAAAAAAAAAAAAAAAAAAAAAAAAAAAAAAAAAAAAAAAAAAAAAAAAAAAAAAAAAAAAAAAAAAAAAAAAAAAAAAAAAAAAAAAAAAAAAAAAAAAAAAAAAAAAAAAAAAAAAAAAAAAAAAAAAAAAAAAAAAAAAAAAAAAAAAAAAAAAAAAAAAAAAAAAAAAAAAAAAAAAAAAAAAAAAAAAAAAAAAAAAAAAAAAAAAAAAAAAAAAAAAAAAAAAAAAAAAAAAAAAAAAAAAAAAAAAAAAAAAAAAAAAAAAAAAAAAAAAAAAAAAAAAAAAAAAAAAAAAAAAAAAAAAAAAAAAAAAAAAAAAAAAAAAAAAAAAAAAAAAAAAAAAAAAAAAAAAAAAAAAAAAAAAAAAAAAAAAAAAAAAAAAAAAAAAAAAAAAAAAAAAAAAAAAAAAAAAAAAAAAAAAAAAAAAAAAAAAAAAAAAAAAAAAAAAAAAAAAAAAAAAAAAAAAAAAAAAAAAAAAAAAAAAAAAAAAAAAAAAAAAAAAAAAAAAAAAAAAAAAAAAAAAAAAAAAAAAAAAAAAAAAAAAAAAAAAAAAAAAAAAAAAAAAAAAAAAAAAAAAAAAAAAAAAAAAAAAAAAAAAAAAAAAAAAAAAAAAAAAAAAAAAAAAAAAAAAAAAAAAAAAAAAAAAAAAAAAAAAAAAAAAAAAAAAAAAAAAAAAAAAAAAAAAAAAAAAAAAAAAAAAAAAAAAAAAAAAAAAAAAAAAAAAAAAAAAAAAAAAAAAAAAAAAAAAAAAAAAAAAAAAAAAAAAAAAAAAAAAAAAAAAAAAAAAAAAAAAAAAAAAAAAAAAAAAAAAAAAAAAAAAAAAAAAAAAAAAAAAAAAAAAAAAAAAAAAAAAAAAAAAAAAAAAAAAAAAAAAAAAAAAAAAAAAAAAAAAAAAAAAAAAAAAAAAAAAAAAAAAAAAAAAAAAAAAAAAAAAAAAAAAAAAAAAAAAAAAAAAAAAAAAAAAAAAAAAAAAAAAAAAAAAAAAAAAAAAAAAAAAAAAAAAAAAAAAAAAAAAAAAAAAAAAAAAAAAAAAAAAAAAAAAAAAAAAAAAAAAAAAAAAAAAAAAAAAAAAAAAAAAAAAAAAAAAAAAAAAAAAAAAAAAAAAAAAAAAAAAAAAAAAAAAAAAAAAAAAAAAAAAAAAAAAAAAAAAAAAAAAAAAAAAAAAAAAAAAAAAAAAAAAAAAAAAAAAAAAAAAAAAAAAAAAAAAAAAAAAAAAAAAAAAAAAAAAAAAAAAAAAAAAAAAAAAAAAAAAAAAAAAAAAAAAAAAAAAAAAAAAAAAAAAAAAAAAAAAAAAAAAAAAAAAAAAAAAAAAAAAAAAAAAAAAAAAAAAAAAAAAAAAAAAAAAAAAAAAAAAAAAAAAAAAAAAAAAAAAAAAAAAAAAAAAAAAAAAAAAAAAAAAAAAAAAAAAAAAAAAAAAAAAAAAAAAAAAAAAAAAAAAAAAAAAAAAAAAAAAAAAAAAAAAAAAAAAAAAAAAAAAAAAAAAAAAAAAAAAAAAAAAAAAAAAAAAAAAAAAAAAAAAAAAAAAAAAAAAAAAAAAAAAAAAAAAAAAAAAAAAAAAAAAAAAAAAAAAAAAAAAAAAAAAAAAAAAAAAAAAAAAAAAAAAAAAAAAAAAAAAAAAAAAAAAAAAAAAAAAAAAAAAAAAAAAAAAAAAAAAAAAAAAAAAAAAAAAAAAAAAAAAAAAAAAAAAAAAAAAAAAAAAAAAAAAAAAAAAAAAAAAAAAAAAAAAAAAAAAAAAAAAAAAAAAAAAAAAAAAAAAAAAAAAAAAAAAAAAAAAAAAAAAAAAAAAAAAAAAAAAAAAAAAAAAAAAAAAAAAAAAAAAAAAAAAAAAAAAAAAAAAAAAAAAAAAAAAAAAAAAAAAAAAAAAAAAAAAAAAAAAAAAAAAAAAAAAAAAAAAAAAAAAAAAAAAAAAAAAAAAAAAAAAAAAAAAAAAAAAAAAAAAAAAAAAAAAAAAAAAAAAAAAAAAAAAAAAAAAAAAAAAAAAAAAAAAAAAAAAAAAAAAAAAAAAAAAAAAAAAAAAAAAAAAAAAAAAAAAAAAAAAAAAAAAAAAAAAAAAAAAAAAAAAAAAAAAAAAAAAAAAAAAAAAAAAAAAAAAAAAAAAAAAAAAAAAAAAAAAAAAAAAAAAAAAAAAAAAAAAAAAAAAAAAAAAAAAAAAAAAAAAAAAAAAAAAAAAAAAAAAAAAAAAAAAAAAAAAAAAAAAAAAAAAAAAAAAAAAAAAAAAAAAAAAAAAAAAAAAAAAAAAAAAAAAAAAAAAAAAAAAAAAAAAAAAAAAAAAAAAAAAAAAAAAAAAAAAAAAAAAAAAAAAAAAAAAAAAAAAAAAAAAAAAAAAAAAAAAAAAAAAAAAAAAAAAAAAAAAAAAAAAAAAAAAAAAAAAAAAAAAAAAAAAAAAAAAAAAAAAAAAAAAAAAAAAAAAAAAAAAAAAAAAAAAAAAAAAAAAAAAAAAAAAAAAAAAAAAAAAAAAAAAAAAAAAAAAAAAAAAAAAAAAAAAAAAAAAAAAAAAAAAAAAAAAAAAAAAAAAAAAAAAAAAAAAAAAAAAAAAAAAAAAAAAAAAAAAAAAAAAAAAAAAAAAAAAAAAAAAAAAAAAAAAAAAAAAAAAAAAAAAAAAAAAAAAAAAAAAAAAAAAAAAAAAAAAAAAAAAAAAAAAAAAAAAAAAAAAAAAAAAAAAAAAAAAAAAAAAAAAAAAAAAAAAAAAAAAAAAAAAAAAAAAAAAAAAAAAAAAAAAAAAAAAAAAAAAAAAAAAAAAAAAAAAAAAAAAAAAAAAAAAAAAAAAAAAAAAAAAAAAAAAAAAAAAAAAAAAAAAAAAAAAAAAAAAAAAAAAAAAAAAAAAAAAAAAAAAAAAAAAAAAAAAPZZAQAHbecYOzoe344wiPL7MGJvivDXVMRMn7zd16tU51ZTVBni8hlAqapJgevsyz27bvB8jxR/Sa+9WfLhxE+b12T/pMh4p7e0BPZFr8GCWzL5vgzVW95f24oX7hErdn4cFb186VIqrQ/RsymVHTUFj3hl+KX0fPYLJZYus7PLLA7/eG5ESjejJM1was0oO0EcXEGi+BaT9nsOgGTyju2uaQFnn6LX1v72/OjbDqlNUNSv1V+IB9A1DLhMMUbLu54fipqaVoS+jYTFuonHnMDikOt9FiMAgg0IqDmdf90Fpi8hiDrI4LBKJW/fKp/ij6UOoQ0+5oDyHTy2qViQ83F4ErX4</c2pa:manifest></metadata>
  <!-- Generator: Adobe Illustrator 29.3.1, SVG Export Plug-In . SVG Version: 2.1.0 Build 151)  -->
  <defs>
    <style>
      .st0 {
        fill: #fff;
      }

      .st1 {
        fill: none;
      }
    </style>
  </defs>
  <path class="st0" d="M26.8,18.6c-.2,0-1.4-.5-1.8-.6,0,0,0,0,0,0,0,0,0,0,0,0,0,0,0,0,0,0-.2,0-.4,0-.6,0s0,0,0,0h0s0,0,0,0c0,0,0,0,0,0-.2-.2-.4-.3-.7-.4h-.4c0-.1-2.9-1.1-2.9-1.1.5-.7.9-1.5,1.3-2.4.7-2,1.2-4.3,1.2-5.7C22.7,4.5,19.2,0,14.8,0c0,0,0,0,0,0h0c-4.3,0-7.9,3.7-7.9,8.3s.8,5.6,2.4,8h0s-3.2,1.2-3.2,1.2c-.2,0-.4.2-.6.3-.3,0-.6,0-.8.2-1,.4-1.9.7-2.2.8-1.5.6-2.5,2.1-2.5,3.7v2.5c0,.5.2,1,.6,1.4l4.1,4.2c.1.1.3.2.4.3,0,.2.2.3.3.4l7.5,7.6c.4.4.9.6,1.4.6s.3,0,.5,0c.1,0,.2,0,.4,0,.5,0,1-.2,1.4-.5l8-7.4c.1-.1.2-.2.3-.4.3-.1.5-.3.7-.5l4-3.7c.4-.4.6-.9.6-1.5v-2.8c0-1.7-1.4-3.5-3.3-4.2Z"/>
  <g>
    <path class="st1" d="M13.6,20.6s0,0,0,0h0s0,0,0,0Z"/>
    <path d="M7.8,28.3s0,0,0,0c.1.1.3.2.5.2.3,0,.6-.3.6-.6s0-.2,0-.3c.1,0,.2-.1.3-.2,0,0,.2.1.3.1.2,0,.4-.2.4-.4s0-.2-.1-.3c.2,0,.3-.2.3-.4,0,.1.2.2.4.2,0,0,0,.2,0,.3,0,.2.2.4.4.4s.4-.2.4-.4-.1-.4-.3-.4c.1-.1.2-.3.2-.5s0-.1,0-.2c0,0,0,0,0,0,0,0,.2,0,.2,0,0,.2.1.3.3.3s.3-.1.3-.3-.1-.3-.3-.3c0,0,0-.2,0-.2s0-.1,0-.2c.2,0,.3-.1.3-.3s-.1-.3-.3-.3,0,0,0,0c0-.2-.1-.4-.3-.6,0,0,0,0,0,0,0-.4-.3-.8-.8-.8s-.3,0-.4.1c0,0,0,0,0-.1,0-.2-.2-.4-.4-.4s0,0-.1,0c0,0,0,0,0-.1,0-.4-.3-.8-.8-.8s-.3,0-.4,0c0-.2-.2-.3-.4-.3,0,0,0-.1,0-.2,0-.2-.2-.4-.4-.4s-.1,0-.1,0c0-.4-.3-.8-.8-.8s-.1,0-.2,0c0-.1-.2-.2-.4-.2s-.2,0-.3,0c0-.2-.2-.3-.4-.3h0c0,0-.1,0-.2,0-1.1.4-1.9.7-2.3.9-.7.3-1.3,1.1-1.3,1.9v2.5l4.1,4.2s0,0,.1,0c.2,0,.4-.1.5-.3,0,0,.2,0,.3,0,.4,0,.8-.3.8-.8Z"/>
    <path d="M14.4,33c.1,0,.2-.2.2-.3s0-.3-.2-.4c0,0,0-.2,0-.3,0-.2-.2-.4-.4-.4s0,0-.1,0c0,0,0-.2,0-.3s0-.2,0-.3c.2,0,.4-.2.4-.4s-.1-.3-.3-.4c.2-.1.3-.3.3-.6s-.1-.5-.3-.6c.1-.1.2-.3.2-.5s0-.3-.1-.4c.1,0,.2-.2.2-.3s-.1-.3-.3-.3-.2,0-.3.1c-.1-.2-.4-.3-.6-.3s-.2,0-.3,0c0-.1-.2-.2-.4-.2h0c-.2,0-.4.2-.4.4s.2.4.4.4c0,0,0,0,0,0-.1-.1-.3-.2-.5-.2-.3,0-.5.1-.6.4-.1-.1-.3-.2-.5-.2-.3,0-.5.2-.6.5,0,0-.2-.1-.3-.1-.3,0-.6.3-.6.6s0,0,0,.1c-.2-.1-.4-.2-.6-.2-.4,0-.7.2-.8.6,0,0-.2-.1-.3-.1-.3,0-.6.3-.6.6s0,0,0,.1l7.5,7.6c0,0,.2-.1.2-.2s0-.2-.2-.2c.1,0,.2-.1.2-.3s0-.2-.2-.2c0,0,.2-.2.2-.3s-.1-.3-.3-.3c.3-.2.5-.6.5-1s0-.5-.2-.7c.2-.1.4-.4.4-.6,0-.3-.2-.6-.4-.7Z"/>
    <path d="M12.3,22.6c0-.2-.2-.4-.4-.4s-.4.2-.4.4.2.4.4.4.4-.2.4-.4Z"/>
    <path d="M12.6,24.5c.2,0,.4-.2.4-.4s-.2-.4-.4-.4-.2,0-.3.1c0-.1-.1-.2-.3-.2h0c-.2,0-.3.1-.3.3s.1.3.3.3.1,0,.2,0c0,.2.2.4.4.4Z"/>
    <path d="M12,26.2c-.2,0-.3.1-.3.3s.1.3.3.3.3-.1.3-.3-.1-.3-.3-.3Z"/>
    <path d="M26.2,20.5c-.2,0-1.9-.6-1.9-.6-.2,0-.3.2-.4.3,0,0-.1,0-.2,0-.2,0-.4.2-.4.4s0,0,0,0c-.1,0-.3-.2-.5-.2-.4,0-.8.3-.8.8h0c0,0-.2,0-.2,0-.6,0-1,.4-1,1s0,.1,0,.2c0,0-.1,0-.2,0-.2,0-.3,0-.4.2,0,0-.2,0-.3,0-.5,0-.9.4-.9.9,0,0,0,0,0,0-.3,0-.5.2-.5.5s0,.2,0,.2c0,0-.2,0-.3,0-.3,0-.5.2-.5.5s0,.3.2.4h0c-.1,0-.2.1-.3.2,0,0,0,0,0,.1,0,0,0,.2.1.2,0,0,.1,0,.2,0,.1,0,.2,0,.3-.2,0,0,.2,0,.2,0s0,0,.1,0c0,0,0,0,0,0,0,.1,0,.2,0,.3-.2,0-.3.2-.3.4s0,.1,0,.2c0,.1.2.2.3.2s.2,0,.3-.2c0,0,0,0,0-.1.1,0,.3,0,.4,0s0,0,.1,0c0,0,0,.1,0,.2s0,.2,0,.3c0,0,0,0,0,0-.2,0-.3.1-.3.3s.1.3.3.3.3-.1.3-.3c0,.3.4.6.7.6s.3,0,.4-.1c0,.3.3.5.6.5s.3,0,.4-.2c0,0,0,0,0,0,0,.4.3.8.8.8s.3,0,.4-.1c0,0,0,.2,0,.3,0,.3.2.5.5.5s.3,0,.4-.2l4.1-3.8v-2.8c0-.8-.9-1.9-2-2.3Z"/>
    <polygon points="24.3 19.9 24.3 19.9 24.3 19.9 24.3 19.9"/>
    <path d="M22.8,29.6c0,0-.1,0-.2,0,0-.3-.3-.4-.6-.4s-.2,0-.3,0c0,0,0,0,0,0,0-.4-.3-.8-.8-.8s-.2,0-.3,0c0-.2-.2-.4-.4-.4s-.4.2-.4.4,0,0,0,0c-.1-.2-.3-.3-.5-.3s0,0-.1,0c0-.4-.3-.8-.8-.8s0,0-.1,0c0-.2-.2-.4-.4-.4s-.3.1-.4.3c0,0,0,0,0,0,0,0-.2,0-.2,0,0-.2-.3-.3-.5-.3h0c-.3,0-.5.2-.5.5s0,.2,0,.2c0,0-.2,0-.3,0-.2,0-.4.2-.4.4s.1.4.3.4c0,.1,0,.2,0,.4,0,.2.1.5.3.6,0,.1-.1.3-.1.4,0,.2,0,.5.2.6,0,.1,0,.2,0,.4s0,.1,0,.2c0,0-.1,0-.2,0,0,0,0-.2,0-.3,0-.2-.2-.4-.4-.4s-.4.2-.4.4,0,.2.1.3c-.2,0-.3.2-.3.4s.2.4.4.4,0,0,0,0c0,.1-.1.3-.1.5,0,.3.2.6.4.8-.3.1-.6.5-.6.8s.1.5.3.7c-.2.1-.3.4-.3.6s0,.2,0,.3c0,0,0,.2,0,.3s0,.3.1.4c0,0-.1.1-.1.2s0,.2.1.2c0,0-.1.1-.1.2s0,0,0,0c0,0-.1.1-.1.2s0,.2.2.2l8-7.4s0,0,0-.1c0-.2-.2-.4-.4-.4Z"/>
    <path d="M13.8,26.5c0,.2.2.4.4.4s.4-.2.4-.4-.2-.4-.4-.4-.4.2-.4.4Z"/>
    <path d="M17.9,26c0-.2-.2-.4-.4-.4h0c-.2,0-.4.2-.4.4s0,.1,0,.1c-.2,0-.3.1-.3.3s0,0,0,.1c0,.1.1.2.3.2h0c.2,0,.3-.1.3-.3s0,0,0,0c0,0,0,0,0,0,.2,0,.4-.2.4-.4Z"/>
    <path d="M15,30.1c.2,0,.4-.2.4-.4s-.1-.3-.3-.4c0,0,0,0,0-.2,0-.2-.1-.3-.3-.3h0c-.2,0-.3.1-.3.3s0,.2.1.2c0,0-.1.2-.1.3,0,.2.2.4.4.4Z"/>
    <path d="M16,23.3c0,.2.1.3.3.3s0,0,0,0c0,.2.2.4.4.4s0,0,0,0c.2,0,.3-.2.3-.4s0-.1,0-.2c0-.1-.2-.2-.4-.2s-.1,0-.2,0c0-.1-.2-.2-.3-.2h0c-.2,0-.3.1-.3.3Z"/>
    <path d="M6.8,19.4c0,.3.4.6.7.6s.1,0,.2,0c0,.3.4.6.7.6s0,0,.1,0c0,.3.4.6.7.6s.2,0,.3,0c0,.2.2.4.5.4s0,0,.1,0c0,.4.4.6.7.6s.5-.2.7-.4c.1,0,.3.2.5.2s.2,0,.3,0c0,.2.3.4.5.4,0,0,0,0,0,0,0,.2.1.3.3.3s.3-.1.3-.3,0,0,0,0c.3-.1.6-.4.6-.8s0-.3-.1-.5c.1,0,.2-.1.2-.3s0-.2-.2-.3c.1-.1.2-.3.2-.5s0,0,0-.1c.3-.1.5-.4.5-.7s0-.4-.2-.5c0,0,0,0,0,0,.2,0,.3-.1.3-.3s-.1-.3-.3-.3-.1,0-.2,0c0-.1-.2-.2-.3-.2,0-.2.1-.3.1-.5s0-.2,0-.4c.3-.1.5-.4.5-.7s0-.4-.2-.5c.2,0,.4-.3.4-.5s-.1-.4-.3-.5c0,0,.1-.2.1-.3s0,0,0,0c.1,0,.2,0,.3-.1,0,0,0,0,0,.1,0,.2,0,.4.2.4,0,0,0,.2,0,.3,0,.3.2.6.4.7,0,0,0,.2,0,.3,0,.3.2.6.4.8-.2,0-.3.3-.3.5s.1.4.3.5c0,0,0,.2,0,.2,0,.2.1.4.3.4,0,.1,0,.2,0,.4s0,.3.1.4c0,0,0,0,0,.1,0,0-.1,0-.2,0-.2,0-.3.1-.3.3s.1.3.3.3,0,0,0,0c0,0,0,0,0,0,0,.2,0,.4.2.5,0,.2-.1.3-.1.5,0,.3.1.5.3.7,0,0,0,.2,0,.3,0,.3.2.5.5.5s.5-.2.5-.4c.1,0,.3,0,.4-.1,0,.1.2.2.4.2s.4-.2.4-.4,0-.3-.2-.4c0,0,0-.2,0-.3,0,0,.2,0,.3,0s0,0,0,0c0,.2.2.3.4.3s.3,0,.4-.2c0,.2.2.3.4.3s.3,0,.3-.2c0,0,.2,0,.3,0,.3,0,.5-.2.5-.5s0-.2,0-.3c0,0,0,0,.1,0,.2,0,.4-.2.4-.4s0,0,0,0c0,.2.3.3.5.3s.5-.2.5-.5c.1,0,.2-.2.2-.4,0,0,0,0,0,0,.2,0,.3-.1.3-.3s0,0,0,0h-.4c0-.1-4.4-1.6-4.4-1.6v-1.9c.7-.7,1.2-1.7,1.6-2.7.7-1.9,1.1-3.9,1.1-5,0-2.7-2.6-6.3-5.9-6.3-3.2,0-5.9,2.8-5.9,6.3s.8,5.4,2.5,7.4l-.2,2.1-4.4,1.6ZM13.6,20.6h0s0,0,0,0c0,0,0,0,0,0Z"/>
    <polygon points="14.8 2 14.8 2 14.8 2 14.8 2"/>
    <path d="M15.4,20.6c0-.2-.2-.4-.4-.4s-.4.2-.4.4,0,.3.2.3c-.1,0-.2.1-.2.3s.1.3.3.3.3-.1.3-.3,0-.2-.1-.2c.2,0,.3-.2.3-.4Z"/>
    <path d="M14.1,22.2c0,.2.1.3.3.3s.3-.1.3-.3-.1-.3-.3-.3-.3.1-.3.3Z"/>
  </g>
</svg>