<?xml version="1.0" encoding="iso-8859-1"?>
<!-- Generator: Adobe Illustrator 29.4.0, SVG Export Plug-In . SVG Version: 9.03 Build 0)  -->
<svg version="1.1" id="Layer_1" xmlns="http://www.w3.org/2000/svg" xmlns:xlink="http://www.w3.org/1999/xlink" x="0px" y="0px"
	 viewBox="0 0 24.932 39.566" style="enable-background:new 0 0 24.932 39.566;" xml:space="preserve">
<path style="fill:#FFFFFF;" d="M24.926,30.027c-0.001-0.644-0.312-1.248-0.835-1.623l-2.133-1.528l-5.029-13.348
	c0.339-0.488,0.623-1.114,0.693-1.883c0.074-0.799-0.072-2.022-1.186-3.31c-0.025-0.03-0.052-0.059-0.077-0.087
	c0.46-0.602,0.723-1.349,0.723-2.147c0-0.766-0.24-1.483-0.665-2.071c0.109-0.313,0.168-0.646,0.168-0.986
	c0-1.236-0.739-2.339-1.866-2.804C14.345,0.081,13.949,0,13.542,0c-0.287,0-0.517,0.054-0.621,0.083
	c-0.151,0.023-0.338,0.063-0.53,0.146c-1.149,0.47-1.893,1.575-1.893,2.814c0,0.339,0.059,0.672,0.17,0.986
	c-0.425,0.589-0.667,1.308-0.667,2.071c0,0.898,0.335,1.736,0.91,2.372c-0.068,0.053-0.133,0.11-0.195,0.171l0.001,0.001
	c-0.668,0.659-1.32,2.011-0.986,3.505c0.068,0.302,0.174,0.595,0.314,0.874c-1.521,2.703-3.685,6.556-4.632,8.243l-4.097,1.486
	C0.527,23.04,0,23.791,0,24.633v5.582c0,0.731,0.399,1.405,1.042,1.756l1.678,0.916c0.163,0.24,0.377,0.444,0.63,0.596l0.517,0.31
	c0.078,0.047,0.165,0.071,0.248,0.106c0.136,0.157,0.291,0.299,0.474,0.409l0.517,0.311c0.363,0.218,0.786,0.316,1.202,0.277
	l3.198,1.777c0.213,0.438,0.584,0.793,1.056,0.981l0.517,0.207c0.039,0.016,0.081,0.022,0.121,0.036
	c0.266,0.246,0.618,0.479,1.097,0.678c0.312,0.129,0.607,0.166,0.859,0.166c0.001,0,0.003,0,0.005,0
	c0.144,0.09,0.283,0.182,0.4,0.259c0.389,0.253,0.603,0.393,0.915,0.477c0.175,0.05,0.313,0.09,0.51,0.09
	c0.527,0,1.472-0.287,4.656-1.433l3.967-1.428c0.794-0.286,1.323-1.04,1.322-1.885L24.926,30.027z"/>
<g>
	<path d="M22.929,32.427l-0.003-2.397L20.3,28.147l-0.001,0.001l0.007,5.48l-7.839,2.65c-0.037,0.121,0.29,0.322,0.596,0.449
		c0.137,0.057,0.48-0.076,0.62,0c0.55,0.296,1.261,0.804,1.344,0.827c0.082,0.023,1.756-0.517,3.938-1.302l3.967-1.428
		L22.929,32.427z"/>
	<path d="M19.679,27.838l-5.893-4.135v5.892c-2.774,0.862-5.468,1.932-8.167,2.998l0.517,0.31L6.653,32.8l4.652,2.584v0.414
		l0.517,0.207l7.818-2.678L19.679,27.838z"/>
	<path d="M14.614,13.054c0.157-0.108,0.932-0.666,1.017-1.592c0.083-0.904-0.539-1.625-0.707-1.819
		c-0.422-0.488-0.834-0.609-0.827-1.052c0.002-0.11,0.002-0.524,0.003-1.059c0.574-0.224,0.982-0.779,0.982-1.432
		c0-0.654-0.409-1.209-0.984-1.432c0-0.379-0.001-0.663-0.001-0.764c0.287-0.186,0.488-0.493,0.488-0.861
		c0-0.435-0.267-0.807-0.646-0.963C13.817,2.029,13.684,2,13.543,2c0,0,0,0-0.001,0s0,0,0,0c-0.077,0-0.144,0.028-0.216,0.044
		c-0.059,0.013-0.123,0.013-0.177,0.036c-0.38,0.156-0.649,0.527-0.649,0.964c0,0.355,0.188,0.653,0.459,0.841v0.792
		c-0.561,0.23-0.956,0.78-0.956,1.424s0.395,1.194,0.956,1.424v1.293c0,0.9,1.179,1.245,0.93,2.068
		c-0.234,0.771-1.345,0.516-1.599-0.372c-0.051-0.07-0.11-0.461-0.154-0.458c0,0-0.002,0-0.004,0.002
		c-0.033,0.022-0.653,0.732-0.447,1.655c0.136,0.608,0.559,0.983,0.757,1.136c-1.689,2.997-4.998,8.89-5.646,10.046L2,24.633v5.582
		l2.274,1.241l0.103,0.31l0.517,0.31l8.09-3.006l0.077-5.987l-2.371-1.602l-2.842,1.031c0.89-1.649,5.052-9.353,5.11-9.353
		c0.065,0,0.103,9.924,0.103,9.924l0.724,0.619l0.104-10.543l5.79,14.679l0.621,0.309L14.614,13.054z"/>
</g>
</svg>
