<?xml version="1.0" encoding="iso-8859-1"?>
<!-- Generator: Adobe Illustrator 29.4.0, SVG Export Plug-In . SVG Version: 9.03 Build 0)  -->
<svg version="1.1" id="Layer_1" xmlns="http://www.w3.org/2000/svg" xmlns:xlink="http://www.w3.org/1999/xlink" x="0px" y="0px"
	 viewBox="0 0 62 55" style="enable-background:new 0 0 62 55;" xml:space="preserve"><metadata><c2pa:manifest xmlns:c2pa="http://c2pa.org/manifest">AAA0Rmp1bWIAAAAeanVtZGMycGEAEQAQgAAAqgA4m3EDYzJwYQAAADQganVtYgAAAEdqdW1kYzJtYQARABCAAACqADibcQN1cm46dXVpZDoyZmQzZDlmMi1hYjEwLTQ0N2YtODJhMC05NTVhYWQ2MWFmYmUAAAABtWp1bWIAAAApanVtZGMyYXMAEQAQgAAAqgA4m3EDYzJwYS5hc3NlcnRpb25zAAAAANdqdW1iAAAAJmp1bWRjYm9yABEAEIAAAKoAOJtxA2MycGEuYWN0aW9ucwAAAACpY2JvcqFnYWN0aW9uc4GjZmFjdGlvbmtjMnBhLmVkaXRlZG1zb2Z0d2FyZUFnZW50bUFkb2JlIEZpcmVmbHlxZGlnaXRhbFNvdXJjZVR5cGV4U2h0dHA6Ly9jdi5pcHRjLm9yZy9uZXdzY29kZXMvZGlnaXRhbHNvdXJjZXR5cGUvY29tcG9zaXRlV2l0aFRyYWluZWRBbGdvcml0aG1pY01lZGlhAAAArWp1bWIAAAAoanVtZGNib3IAEQAQgAAAqgA4m3EDYzJwYS5oYXNoLmRhdGEAAAAAfWNib3KlamV4Y2x1c2lvbnOBomVzdGFydBkBn2ZsZW5ndGgZRbRkbmFtZW5qdW1iZiBtYW5pZmVzdGNhbGdmc2hhMjU2ZGhhc2hYIC3Z1zw/qSbhvtEAojzT/aCUN7vLSxI2wO2BN15dCQSnY3BhZEkAAAAAAAAAAAAAAAIManVtYgAAACRqdW1kYzJjbAARABCAAACqADibcQNjMnBhLmNsYWltAAAAAeBjYm9yqGhkYzp0aXRsZW9HZW5lcmF0ZWQgSW1hZ2VpZGM6Zm9ybWF0bWltYWdlL3N2Zyt4bWxqaW5zdGFuY2VJRHgseG1wOmlpZDo3OGRkMjI2Yi1kOWUwLTQ4YjktYjQ0ZC1mZmRlMmRjYTFlODNvY2xhaW1fZ2VuZXJhdG9yeDdBZG9iZV9JbGx1c3RyYXRvci8yOS40IGFkb2JlX2MycGEvMC4xMi4yIGMycGEtcnMvMC4zMi41dGNsYWltX2dlbmVyYXRvcl9pbmZvgb9kbmFtZXFBZG9iZSBJbGx1c3RyYXRvcmd2ZXJzaW9uZDI5LjT/aXNpZ25hdHVyZXgZc2VsZiNqdW1iZj1jMnBhLnNpZ25hdHVyZWphc3NlcnRpb25zgqJjdXJseCdzZWxmI2p1bWJmPWMycGEuYXNzZXJ0aW9ucy9jMnBhLmFjdGlvbnNkaGFzaFggSmnBvf+o3kEweL4k7cz4MTrB0WSVNFZxoA1rBrM31K+iY3VybHgpc2VsZiNqdW1iZj1jMnBhLmFzc2VydGlvbnMvYzJwYS5oYXNoLmRhdGFkaGFzaFgggDgLPiG7zRVXSTEM+Wqy/x8FF6HpMJ2J5whivUX8BO1jYWxnZnNoYTI1NgAAMBBqdW1iAAAAKGp1bWRjMmNzABEAEIAAAKoAOJtxA2MycGEuc2lnbmF0dXJlAAAAL+BjYm9y0oRZDO+iATgkGCGCWQY9MIIGOTCCBCGgAwIBAgIQFY3/J6wj0rglS05jNx4dnjANBgkqhkiG9w0BAQsFADB1MQswCQYDVQQGEwJVUzEjMCEGA1UEChMaQWRvYmUgU3lzdGVtcyBJbmNvcnBvcmF0ZWQxHTAbBgNVBAsTFEFkb2JlIFRydXN0IFNlcnZpY2VzMSIwIAYDVQQDExlBZG9iZSBQcm9kdWN0IFNlcnZpY2VzIEczMB4XDTI0MTAxNTAwMDAwMFoXDTI1MTAxNTIzNTk1OVowgasxEzARBgNVBAMMCkFkb2JlIEMyUEExKDAmBgNVBAsMH0NvbnRlbnQgQXV0aGVudGljaXR5IEluaXRpYXRpdmUxEzARBgNVBAoMCkFkb2JlIEluYy4xETAPBgNVBAcMCFNhbiBKb3NlMRMwEQYDVQQIDApDYWxpZm9ybmlhMQswCQYDVQQGEwJVUzEgMB4GCSqGSIb3DQEJARYRY2FpLW9wc0BhZG9iZS5jb20wggEiMA0GCSqGSIb3DQEBAQUAA4IBDwAwggEKAoIBAQDDEMGB0H09cukxc/Dmg2BiQVYM8/VpJ+2H1Nk8g0605CWGnW/iH6EzFlYWORndElG6hIGuxJJgFoR+IMwqKyL+w7G4UcoFX/+XWu/dKuOuLEA1ciWqMZ0hjJ1oxoVr/mi8XP+bj5JTPRxxjOrD69IDO5HJIaemCbwaaP5IQlwv8YgfOpT1tTLc2yLNjahjbzKPfatuQ6p4ANIznU6ogkqWgQEUV7HMy6fOlT4rawuqF6hHwUkxpHR8Zdr+CpHOGSIEWHBSEs9L2zr5MKfPT1RkyVdt0b+IUqPdQ8VQOOqHTC0WBzPbgOtSVpZ6KW0oei7KYEe6KvO+Y4bRW1I96nE5AgMBAAGjggGMMIIBiDAMBgNVHRMBAf8EAjAAMA4GA1UdDwEB/wQEAwIHgDAeBgNVHSUEFzAVBgkqhkiG9y8BAQwGCCsGAQUFBwMEMIGOBgNVHSAEgYYwgYMwgYAGCSqGSIb3LwECAzBzMHEGCCsGAQUFBwICMGUMY1lvdSBhcmUgbm90IHBlcm1pdHRlZCB0byB1c2UgdGhpcyBMaWNlbnNlIENlcnRpZmljYXRlIGV4Y2VwdCBhcyBwZXJtaXR0ZWQgYnkgdGhlIGxpY2Vuc2UgYWdyZWVtZW50LjBdBgNVHR8EVjBUMFKgUKBOhkxodHRwOi8vcGtpLWNybC5zeW1hdXRoLmNvbS9jYV83YTVjM2EwYzczMTE3NDA2YWRkMTkzMTJiYzFiYzIzZi9MYXRlc3RDUkwuY3JsMDcGCCsGAQUFBwEBBCswKTAnBggrBgEFBQcwAYYbaHR0cDovL3BraS1vY3NwLnN5bWF1dGguY29tMB8GA1UdIwQYMBaAFFcpejJNzP7kNU7AHyRzznNTq99qMA0GCSqGSIb3DQEBCwUAA4ICAQCquXoUtD5z0thp/SKDJOASs0v1eaaJ6JPeiEoV68ncE3uRaRkPXOdtXDdedfm2BBoqr4CJIKV03FgQqpT5Gr0uvboYaCUFIDSz8OzaTD7YuWdOaiMAcIfcK9VFuEYcetqyGad+DCYXVNKRpaTs3ESFu33BCiIQyQtJB4zhLgK77XvoXMR3L7POQORFap5I5A7+obZZG2j+8irfQQJ/q/oW1rMkjUJYiqEErmgmKhI1suwJUmFqvdRxr0PXW6N5lbiTaM8KyfOuJOYWpV+13eTZJdRCDvBBxBxd8oEi1Zm3zO2fQhihnMlrXH2X129coAm82wOjPi4N6tLzP2vMuwRC/MvXI9tOnj7/qZNMBayhoO2aRmCbdf6x989fdfMwWZ/MgeJh9SNrmcorZuzg/vW2K3/VT8UPbF2WnNlK6lGoIwbP5RN5cjwis3llH/4XytKyZEBK2OeCDP/AO5zBwOUltjj9EqrcGsCLgtqYswh/Cj91svnlMOUg53scJ+ZKBptzVY7QqOLctb9Vmc/1UbxaJQb5aq03U5AgBmYVQ5Z1dAYtqD4jU5pnUFckM2wmJdyDZMY0FIQ+jjgCR+f0zMUYrIHlS6sw3g0fSqVqaGuEqJXT5vvcWPHffQ/9+vEGbPHk2kBCE0qSzH4XjPVLwDLWjZMEiSR4AVsPPLx/8XG7K1kGpTCCBqEwggSJoAMCAQICEAyotlR7iebSBol1zYubieIwDQYJKoZIhvcNAQELBQAwbDELMAkGA1UEBhMCVVMxIzAhBgNVBAoTGkFkb2JlIFN5c3RlbXMgSW5jb3Jwb3JhdGVkMR0wGwYDVQQLExRBZG9iZSBUcnVzdCBTZXJ2aWNlczEZMBcGA1UEAxMQQWRvYmUgUm9vdCBDQSBHMjAeFw0xNjExMjkwMDAwMDBaFw00MTExMjgyMzU5NTlaMHUxCzAJBgNVBAYTAlVTMSMwIQYDVQQKExpBZG9iZSBTeXN0ZW1zIEluY29ycG9yYXRlZDEdMBsGA1UECxMUQWRvYmUgVHJ1c3QgU2VydmljZXMxIjAgBgNVBAMTGUFkb2JlIFByb2R1Y3QgU2VydmljZXMgRzMwggIiMA0GCSqGSIb3DQEBAQUAA4ICDwAwggIKAoICAQC3Hy69vQmzXEhs/gyDrmwB6lF4JaSAPomnsbKIZNr2iXaB+fkd85X8eJiNmI7P5O4cVT4Nc1p3zrESqBV4ZUyW8gcZ78QdwoHG8QNd2VNcHnMgSR+XT9Iafsnq9Nfww3Jt9KL3l5ANQ5n1+MJqr48EWNLll942bOL/JH4ywDSMoqhZqtJEIUUUGlQVBZ8CAvJc7LE6ddA5C52PE2Ppa7RfQgHXf4gfXVZwpxYRZcziPiOHqEvLb0J3cShUbejFxV6cwX8QyAPa1ePHg1RtM0HX+D34xHo3DkyGnmT+Ddq00TEDGG26AL5PdINKFIQl+zaq6KJFQe1fdGE5wrWzU4mBPmzaz3EbLn+7FWlwAhorYqIMldbfHE3ydc+aTU1JW7+bG19qmvhO9IluGtTtQDeqFBj2fg6faxsfVfVPD7stN6TwoIDlkOCE4RE+Iin8m3z3eqi/VsTmsmRqBxWDRaqOHz02EJoEDxXJG3ei+UbIIp01XZQvdufm90WxOTuqqan2ZqTPX9K5VdjEh/ovr7xFc5q1dZo+Sa5y4sTVM854/tLU3klOgUKzzSXYPYS3GhBcYJHjwr9xNRHnNX99D6F0g7OijScWfvtjxh13aTv/H0ETvymah4yfDpVdh9cK5YSCPqnuOlsujFAyhYwJXOWDvZZU2EkWVLDhoPx9zp7N4QIDAQABo4IBNDCCATAwEgYDVR0TAQH/BAgwBgEB/wIBADA1BgNVHR8ELjAsMCqgKKAmhiRodHRwOi8vY3JsLmFkb2JlLmNvbS9hZG9iZXJvb3RnMi5jcmwwDgYDVR0PAQH/BAQDAgEGMBQGA1UdJQQNMAsGCSqGSIb3LwEBBzBXBgNVHSAEUDBOMEwGCSqGSIb3LwECAzA/MD0GCCsGAQUFBwIBFjFodHRwczovL3d3dy5hZG9iZS5jb20vbWlzYy9wa2kvcHJvZF9zdmNlX2Nwcy5odG1sMCQGA1UdEQQdMBukGTAXMRUwEwYDVQQDEwxTWU1DLTQwOTYtMzMwHQYDVR0OBBYEFFcpejJNzP7kNU7AHyRzznNTq99qMB8GA1UdIwQYMBaAFKYc4W1UJEyoj0hyv26pjNXk7DHUMA0GCSqGSIb3DQEBCwUAA4ICAQBxzuUHjKbcLdzI4DtlXgCSgZXrlSAkr59pOF3JfPG42qVNAGU7JcEYXJ6+WbfcGwY7WYMl+jO7IvJPb7shXFYW9bnJgxX7lLU14KExchmcLNY1ee6IhBJ2Y8PzZMRUKSd5CkURPg0PBLGjz/KR/DofHx+G4rPTCOGORYxeYrd01lci5hVxvKccvIk7MD69ZTewfZPSM+0WnsU3f0Zmd7hgbRpUyWceG0eHFpdUKK/ZFWhHjDVC28odCnN885tHncKXviItK0ZUUo/AIthFKlhEXsnq9VL9fFbgvO83ZvpUQo5y8mY3cuGnEVGXdhjNb53CfC1u4dbpYmWaN99subUzEsUaUb3loLPfVfzDOpg2y9v37kBdy/wuXr20teY7U62xj/fAgs1QSnhUtlMTfCqbefyEycKVmKIrJkJLsvgTSYKVvH4FFIwfd5WjqOC97jX98rcVAzhAI0iSkazsWOMvL6m0L4nLJapx+85GsVX8Y6AHmEP4bmCElwil6KAP+UewJFiw5rmwV2pESHAhYuZJa03B8tl0nd2QJzvJGmbeBqXqpF9ORinFM3HErK8puRokOjFH2+1asLeI2tB31W/ELdNe27Ogduq6Z6qBwCp59YX27qydDhD0WRfN64kCs25K88iGAGNW2CAfTDS+b+WYJBiIL9jXYZ4LF+BiUvfdu6Jmc2lnVHN0oWl0c3RUb2tlbnOBoWN2YWxZDjgwgg40MAMCAQAwgg4rBgkqhkiG9w0BBwKggg4cMIIOGAIBAzEPMA0GCWCGSAFlAwQCAQUAMIGCBgsqhkiG9w0BCRABBKBzBHEwbwIBAQYJYIZIAYb9bAcBMDEwDQYJYIZIAWUDBAIBBQAEIKIUI426ECiW7tAYQzCZYvcX08aReMeo5CEvNfd39EfCAhEA9Y98iREwwk5Tt+Js2qO9ORgPMjAyNTA0MTQxNzMxMDFaAggYE2occJzpOqCCC8AwggUKMIIC8qADAgECAhAMCy/HenjPuu1lVlTBmiQDMA0GCSqGSIb3DQEBCwUAMGMxCzAJBgNVBAYTAlVTMRcwFQYDVQQKEw5EaWdpQ2VydCwgSW5jLjE7MDkGA1UEAxMyRGlnaUNlcnQgVHJ1c3RlZCBHNCBSU0E0MDk2IFNIQTI1NiBUaW1lU3RhbXBpbmcgQ0EwHhcNMjQxMTIwMDAwMDAwWhcNMzYwMjE5MjM1OTU5WjBbMQswCQYDVQQGEwJVUzERMA8GA1UEChMIRGlnaUNlcnQxOTA3BgNVBAMTMEVDQzI1Nl9TSEEyNTZfVGltZXN0YW1wX1Jlc3BvbmRlcl9BZG9iZV9OT1ZfMjAyNDBZMBMGByqGSM49AgEGCCqGSM49AwEHA0IABND8HoX4gZimKpBAvE5+qRSZ5OZJFZnPFIK3AzzayJb9JtdrOS1HIRabAhWz7w8mOFX0Lh9QnbcgZHGx/MkzyV6jggGLMIIBhzAOBgNVHQ8BAf8EBAMCB4AwDAYDVR0TAQH/BAIwADAWBgNVHSUBAf8EDDAKBggrBgEFBQcDCDAgBgNVHSAEGTAXMAgGBmeBDAEEAjALBglghkgBhv1sBwEwHwYDVR0jBBgwFoAUuhbZbU2FL3MpdpovdYxqII+eyG8wHQYDVR0OBBYEFOzRHG9856BN5DE/hwAI1K3UfTa7MFoGA1UdHwRTMFEwT6BNoEuGSWh0dHA6Ly9jcmwzLmRpZ2ljZXJ0LmNvbS9EaWdpQ2VydFRydXN0ZWRHNFJTQTQwOTZTSEEyNTZUaW1lU3RhbXBpbmdDQS5jcmwwgZAGCCsGAQUFBwEBBIGDMIGAMCQGCCsGAQUFBzABhhhodHRwOi8vb2NzcC5kaWdpY2VydC5jb20wWAYIKwYBBQUHMAKGTGh0dHA6Ly9jYWNlcnRzLmRpZ2ljZXJ0LmNvbS9EaWdpQ2VydFRydXN0ZWRHNFJTQTQwOTZTSEEyNTZUaW1lU3RhbXBpbmdDQS5jcnQwDQYJKoZIhvcNAQELBQADggIBAKLswSDyeS8tq4sjtwCPbUOCcwSuHSae0K3hzi2xb3IlBl1m/WfwTV255rJvoiJnyZhqZsiatN65UrAapRIhNlOJWG0VE/fNEP0OkWT4THg/TXQhK0f94PWWArptV9pjSC/NwhFA/cLAjOoFkATzVzlAg2M+zzVy8ks4Up39xfvM6GhC+vOI0PLXlQ1Pl+5RF7Z+KgA1CxE1g6ZVcB2DZMrs6S1gP4Qf8PyBavucdCFEky4PngY2OJmc0+dhfPoXePsG7ZpWWKu9AYACytbbsuqGD2Sxbn5ov6D3+XKpGgytYtLLgoNBrO08H48qyR5w7VHt1slvDtQEVWX4ZsZpRzjHoe9Us00vmEeOIut/0DjPF7nZ71mqlJTuQO7t2xFe+b64ssxeMcVLH+PSy0hzGdAfA4vgDlFG5QfVfDXDPYKIa8gc1yhiuSp+RvpOwolTue0Oo0oUpnfj2wEStN1fBWgh3jNL9xX8Dms7UrDlo07/NRMK1CRtwyDzxcZaoiZpiYgeEi8doTWdF09YJrRCGvG+Kh4/jmnj/Op38mtVs2ygS4QFJEg8Hf5WItqgWWKZlFR4/PApi/JOt3qDvaZW0Xg+ttu/LWSoJSaxkMwWqffcNHQ3xDOqTOKvdu583IjmT3lGrc1dxt81gPH2pnyCMK7g0e1LEB0kqzDNv2CLqPIVMIIGrjCCBJagAwIBAgIQBzY3tyRUfNhHrP0oZipeWzANBgkqhkiG9w0BAQsFADBiMQswCQYDVQQGEwJVUzEVMBMGA1UEChMMRGlnaUNlcnQgSW5jMRkwFwYDVQQLExB3d3cuZGlnaWNlcnQuY29tMSEwHwYDVQQDExhEaWdpQ2VydCBUcnVzdGVkIFJvb3QgRzQwHhcNMjIwMzIzMDAwMDAwWhcNMzcwMzIyMjM1OTU5WjBjMQswCQYDVQQGEwJVUzEXMBUGA1UEChMORGlnaUNlcnQsIEluYy4xOzA5BgNVBAMTMkRpZ2lDZXJ0IFRydXN0ZWQgRzQgUlNBNDA5NiBTSEEyNTYgVGltZVN0YW1waW5nIENBMIICIjANBgkqhkiG9w0BAQEFAAOCAg8AMIICCgKCAgEAxoY1BkmzwT1ySVFVxyUDxPKRN6mXUaHW0oPRnkyibaCwzIP5WvYRoUQVQl+kiPNo+n3znIkLf50fng8zH1ATCyZzlm34V6gCff1DtITaEfFzsbPuK4CEiiIY3+vaPcQXf6sZKz5C3GeO6lE98NZW1OcoLevTsbV15x8GZY2UKdPZ7Gnf2ZCHRgB720RBidx8ald68Dd5n12sy+iEZLRS8nZH92GDGd1ftFQLIWhuNyG7QKxfst5Kfc71ORJn7w6lY2zkpsUdzTYNXNXmG6jBZHRAp8ByxbpOH7G1WE15/tePc5OsLDnipUjW8LAxE6lXKZYnLvWHpo9OdhVVJnCYJn+gGkcgQ+NDY4B7dW4nJZCYOjgRs/b2nuY7W+yB3iIU2YIqx5K/oN7jPqJz+ucfWmyU8lKVEStYdEAoq3NDzt9KoRxrOMUp88qqlnNCaJ+2RrOdOqPVA+C/8KI8ykLcGEh/FDTP0kyr75s9/g64ZCr6dSgkQe1CvwWcZklSUPRR8zZJTYsg0ixXNXkrqPNFYLwjjVj33GHek/45wPmyMKVM1+mYSlg+0wOI/rOP015LdhJRk8mMDDtbiiKowSYI+RQQEgN9XyO7ZONj4KbhPvbCdLI/Hgl27KtdRnXiYKNYCQEoAA6EVO7O6V3IXjASvUaetdN2udIOa5kM0jO0zbECAwEAAaOCAV0wggFZMBIGA1UdEwEB/wQIMAYBAf8CAQAwHQYDVR0OBBYEFLoW2W1NhS9zKXaaL3WMaiCPnshvMB8GA1UdIwQYMBaAFOzX44LScV1kTN8uZz/nupiuHA9PMA4GA1UdDwEB/wQEAwIBhjATBgNVHSUEDDAKBggrBgEFBQcDCDB3BggrBgEFBQcBAQRrMGkwJAYIKwYBBQUHMAGGGGh0dHA6Ly9vY3NwLmRpZ2ljZXJ0LmNvbTBBBggrBgEFBQcwAoY1aHR0cDovL2NhY2VydHMuZGlnaWNlcnQuY29tL0RpZ2lDZXJ0VHJ1c3RlZFJvb3RHNC5jcnQwQwYDVR0fBDwwOjA4oDagNIYyaHR0cDovL2NybDMuZGlnaWNlcnQuY29tL0RpZ2lDZXJ0VHJ1c3RlZFJvb3RHNC5jcmwwIAYDVR0gBBkwFzAIBgZngQwBBAIwCwYJYIZIAYb9bAcBMA0GCSqGSIb3DQEBCwUAA4ICAQB9WY7Ak7ZvmKlEIgF+ZtbYIULhsBguEE0TzzBTzr8Y+8dQXeJLKftwig2qKWn8acHPHQfpPmDI2AvlXFvXbYf6hCAlNDFnzbYSlm/EUExiHQwIgqgWvalWzxVzjQEiJc6VaT9Hd/tydBTX/6tPiix6q4XNQ1/tYLaqT5Fmniye4Iqs5f2MvGQmh2ySvZ180HAKfO+ovHVPulr3qRCyXen/KFSJ8NWKcXZl2szwcqMj+sAngkSumScbqyQeJsG33irr9p6xeZmBo1aGqwpFyd/EjaDnmPv7pp1yr8THwcFqcdnGE4AJxLafzYeHJLtPo0m5d2aR8XKc6UsCUqc3fpNTrDsdCEkPlM05et3/JWOZJyw9P2un8WbDQc1PtkCbISFA0LcTJM3cHXg65J6t5TRxktcma+Q4c6umAU+9Pzt4rUyt+8SVe+0KXzM5h0F4ejjpnOHdI/0dKNPH+ejxmF/7K9h+8kaddSweJywm228Vex4Ziza4k9Tm8heZWcpw8De/mADfIBZPJ/tgZxahZrrdVcA6KYawmKAr7ZVBtzrVFZgxtGIJDwq9gdkT/r+k0fNX2bwE+oLeMt8EifAAzV3C+dAjfwAL5HYCJtnwZXZCpimHCUcr5n8apIUP/JiW9lVUKx+A+sDyDivl1vupL0QVSucTDh3bNzgaoSv27dZ8/DGCAbcwggGzAgEBMHcwYzELMAkGA1UEBhMCVVMxFzAVBgNVBAoTDkRpZ2lDZXJ0LCBJbmMuMTswOQYDVQQDEzJEaWdpQ2VydCBUcnVzdGVkIEc0IFJTQTQwOTYgU0hBMjU2IFRpbWVTdGFtcGluZyBDQQIQDAsvx3p4z7rtZVZUwZokAzANBglghkgBZQMEAgEFAKCB0TAaBgkqhkiG9w0BCQMxDQYLKoZIhvcNAQkQAQQwHAYJKoZIhvcNAQkFMQ8XDTI1MDQxNDE3MzEwMVowKwYLKoZIhvcNAQkQAgwxHDAaMBgwFgQU9xMCVGQbnM7SUS1ixb+fKYSM/PgwLwYJKoZIhvcNAQkEMSIEIOGdBbNU67G8MY7aEhQBwheBhVws9EcktqnGJ+TPaFNvMDcGCyqGSIb3DQEJEAIvMSgwJjAkMCIEILl6JmgdGOm5fGM++Eg5ZFV1l5baUENELI+MzeUn4ACpMAoGCCqGSM49BAMCBEYwRAIgOH97UhOOF0Rpi2KJJRLqjfaiM4aST/EVK9c/8RAfby8CIDdp10GMRPxaFTsvt0AOPNuJQocDHfeSsiCwowa+/dD7Y3BhZFkThQAAAAAAAAAAAAAAAAAAAAAAAAAAAAAAAAAAAAAAAAAAAAAAAAAAAAAAAAAAAAAAAAAAAAAAAAAAAAAAAAAAAAAAAAAAAAAAAAAAAAAAAAAAAAAAAAAAAAAAAAAAAAAAAAAAAAAAAAAAAAAAAAAAAAAAAAAAAAAAAAAAAAAAAAAAAAAAAAAAAAAAAAAAAAAAAAAAAAAAAAAAAAAAAAAAAAAAAAAAAAAAAAAAAAAAAAAAAAAAAAAAAAAAAAAAAAAAAAAAAAAAAAAAAAAAAAAAAAAAAAAAAAAAAAAAAAAAAAAAAAAAAAAAAAAAAAAAAAAAAAAAAAAAAAAAAAAAAAAAAAAAAAAAAAAAAAAAAAAAAAAAAAAAAAAAAAAAAAAAAAAAAAAAAAAAAAAAAAAAAAAAAAAAAAAAAAAAAAAAAAAAAAAAAAAAAAAAAAAAAAAAAAAAAAAAAAAAAAAAAAAAAAAAAAAAAAAAAAAAAAAAAAAAAAAAAAAAAAAAAAAAAAAAAAAAAAAAAAAAAAAAAAAAAAAAAAAAAAAAAAAAAAAAAAAAAAAAAAAAAAAAAAAAAAAAAAAAAAAAAAAAAAAAAAAAAAAAAAAAAAAAAAAAAAAAAAAAAAAAAAAAAAAAAAAAAAAAAAAAAAAAAAAAAAAAAAAAAAAAAAAAAAAAAAAAAAAAAAAAAAAAAAAAAAAAAAAAAAAAAAAAAAAAAAAAAAAAAAAAAAAAAAAAAAAAAAAAAAAAAAAAAAAAAAAAAAAAAAAAAAAAAAAAAAAAAAAAAAAAAAAAAAAAAAAAAAAAAAAAAAAAAAAAAAAAAAAAAAAAAAAAAAAAAAAAAAAAAAAAAAAAAAAAAAAAAAAAAAAAAAAAAAAAAAAAAAAAAAAAAAAAAAAAAAAAAAAAAAAAAAAAAAAAAAAAAAAAAAAAAAAAAAAAAAAAAAAAAAAAAAAAAAAAAAAAAAAAAAAAAAAAAAAAAAAAAAAAAAAAAAAAAAAAAAAAAAAAAAAAAAAAAAAAAAAAAAAAAAAAAAAAAAAAAAAAAAAAAAAAAAAAAAAAAAAAAAAAAAAAAAAAAAAAAAAAAAAAAAAAAAAAAAAAAAAAAAAAAAAAAAAAAAAAAAAAAAAAAAAAAAAAAAAAAAAAAAAAAAAAAAAAAAAAAAAAAAAAAAAAAAAAAAAAAAAAAAAAAAAAAAAAAAAAAAAAAAAAAAAAAAAAAAAAAAAAAAAAAAAAAAAAAAAAAAAAAAAAAAAAAAAAAAAAAAAAAAAAAAAAAAAAAAAAAAAAAAAAAAAAAAAAAAAAAAAAAAAAAAAAAAAAAAAAAAAAAAAAAAAAAAAAAAAAAAAAAAAAAAAAAAAAAAAAAAAAAAAAAAAAAAAAAAAAAAAAAAAAAAAAAAAAAAAAAAAAAAAAAAAAAAAAAAAAAAAAAAAAAAAAAAAAAAAAAAAAAAAAAAAAAAAAAAAAAAAAAAAAAAAAAAAAAAAAAAAAAAAAAAAAAAAAAAAAAAAAAAAAAAAAAAAAAAAAAAAAAAAAAAAAAAAAAAAAAAAAAAAAAAAAAAAAAAAAAAAAAAAAAAAAAAAAAAAAAAAAAAAAAAAAAAAAAAAAAAAAAAAAAAAAAAAAAAAAAAAAAAAAAAAAAAAAAAAAAAAAAAAAAAAAAAAAAAAAAAAAAAAAAAAAAAAAAAAAAAAAAAAAAAAAAAAAAAAAAAAAAAAAAAAAAAAAAAAAAAAAAAAAAAAAAAAAAAAAAAAAAAAAAAAAAAAAAAAAAAAAAAAAAAAAAAAAAAAAAAAAAAAAAAAAAAAAAAAAAAAAAAAAAAAAAAAAAAAAAAAAAAAAAAAAAAAAAAAAAAAAAAAAAAAAAAAAAAAAAAAAAAAAAAAAAAAAAAAAAAAAAAAAAAAAAAAAAAAAAAAAAAAAAAAAAAAAAAAAAAAAAAAAAAAAAAAAAAAAAAAAAAAAAAAAAAAAAAAAAAAAAAAAAAAAAAAAAAAAAAAAAAAAAAAAAAAAAAAAAAAAAAAAAAAAAAAAAAAAAAAAAAAAAAAAAAAAAAAAAAAAAAAAAAAAAAAAAAAAAAAAAAAAAAAAAAAAAAAAAAAAAAAAAAAAAAAAAAAAAAAAAAAAAAAAAAAAAAAAAAAAAAAAAAAAAAAAAAAAAAAAAAAAAAAAAAAAAAAAAAAAAAAAAAAAAAAAAAAAAAAAAAAAAAAAAAAAAAAAAAAAAAAAAAAAAAAAAAAAAAAAAAAAAAAAAAAAAAAAAAAAAAAAAAAAAAAAAAAAAAAAAAAAAAAAAAAAAAAAAAAAAAAAAAAAAAAAAAAAAAAAAAAAAAAAAAAAAAAAAAAAAAAAAAAAAAAAAAAAAAAAAAAAAAAAAAAAAAAAAAAAAAAAAAAAAAAAAAAAAAAAAAAAAAAAAAAAAAAAAAAAAAAAAAAAAAAAAAAAAAAAAAAAAAAAAAAAAAAAAAAAAAAAAAAAAAAAAAAAAAAAAAAAAAAAAAAAAAAAAAAAAAAAAAAAAAAAAAAAAAAAAAAAAAAAAAAAAAAAAAAAAAAAAAAAAAAAAAAAAAAAAAAAAAAAAAAAAAAAAAAAAAAAAAAAAAAAAAAAAAAAAAAAAAAAAAAAAAAAAAAAAAAAAAAAAAAAAAAAAAAAAAAAAAAAAAAAAAAAAAAAAAAAAAAAAAAAAAAAAAAAAAAAAAAAAAAAAAAAAAAAAAAAAAAAAAAAAAAAAAAAAAAAAAAAAAAAAAAAAAAAAAAAAAAAAAAAAAAAAAAAAAAAAAAAAAAAAAAAAAAAAAAAAAAAAAAAAAAAAAAAAAAAAAAAAAAAAAAAAAAAAAAAAAAAAAAAAAAAAAAAAAAAAAAAAAAAAAAAAAAAAAAAAAAAAAAAAAAAAAAAAAAAAAAAAAAAAAAAAAAAAAAAAAAAAAAAAAAAAAAAAAAAAAAAAAAAAAAAAAAAAAAAAAAAAAAAAAAAAAAAAAAAAAAAAAAAAAAAAAAAAAAAAAAAAAAAAAAAAAAAAAAAAAAAAAAAAAAAAAAAAAAAAAAAAAAAAAAAAAAAAAAAAAAAAAAAAAAAAAAAAAAAAAAAAAAAAAAAAAAAAAAAAAAAAAAAAAAAAAAAAAAAAAAAAAAAAAAAAAAAAAAAAAAAAAAAAAAAAAAAAAAAAAAAAAAAAAAAAAAAAAAAAAAAAAAAAAAAAAAAAAAAAAAAAAAAAAAAAAAAAAAAAAAAAAAAAAAAAAAAAAAAAAAAAAAAAAAAAAAAAAAAAAAAAAAAAAAAAAAAAAAAAAAAAAAAAAAAAAAAAAAAAAAAAAAAAAAAAAAAAAAAAAAAAAAAAAAAAAAAAAAAAAAAAAAAAAAAAAAAAAAAAAAAAAAAAAAAAAAAAAAAAAAAAAAAAAAAAAAAAAAAAAAAAAAAAAAAAAAAAAAAAAAAAAAAAAAAAAAAAAAAAAAAAAAAAAAAAAAAAAAAAAAAAAAAAAAAAAAAAAAAAAAAAAAAAAAAAAAAAAAAAAAAAAAAAAAAAAAAAAAAAAAAAAAAAAAAAAAAAAAAAAAAAAAAAAAAAAAAAAAAAAAAAAAAAAAAAAAAAAAAAAAAAAAAAAAAAAAAAAAAAAAAAAAAAAAAAAAAAAAAAAAAAAAAAAAAAAAAAAAAAAAAAAAAAAAAAAAAAAAAAAAAAAAAAAAAAAAAAAAAAAAAAAAAAAAAAAAAAAAAAAAAAAAAAAAAAAAAAAAAAAAAAAAAAAAAAAAAAAAAAAAAAAAAAAAAAAAAAAAAAAAAAAAAAAAAAAAAAAAAAAAAAAAAAAAAAAAAAAAAAAAAAAAAAAAAAAAAAAAAAAAAAAAAAAAAAAAAAAAAAAAAAAAAAAAAAAAAAAAAAAAAAAAAAAAAAAAAAAAAAAAAAAAAAAAAAAAAAAAAAAAAAAAAAAAAAAAAAAAAAAAAAAAAAAAAAAAAAAAAAAAAAAAAAAAAAAAAAAAAAAAAAAAAAAAAAAAAAAAAAAAAAAAAAAAAAAAAAAAAAAAAAAAAAAAAAAAAAAAAAAAAAAAAAAAAAAAAAAAAAAAAAAAAAAAAAAAAAAAAAAAAAAAAAAAAAAAAAAAAAAAAAAAAAAAAAAAAAAAAAAAAAAAAAAAAAAAAAAAAAAAAAAAAAAAAAAAAAAAAAAAAAAAAAAAAAAAAAAAAAAAAAAAAAAAAAAAAAAAAAAAAAAAAAAAAAAAAAAAAAAAAAAAAAAAAAAAAAAAAAAAAAAAAAAAAAAAAAAAAAAAAAAAAAAAAAAAAAAAAAAAAAAAAAAAAAAAAAAAAAAAAAAAAAAAAAAAAAAAAAAAAAAAAAAAAAAAAAAAAAAAAAAAAAAAAAAAAAAAAAAAAAAAAAAAAAAAAAAAAAAAAAAAAAAAAAAAAAAAAAAAAAAAAAAAAAAAAAAAAAAAAAAAAAAAAAAAAAAAAAAAAAAAAAAAAAAAAAAAAAAAAAAAAAAAAAAAAAAAAAAAAAAAAAAAAAAAAAAAAAAAAAAAAAAAAAAAAAAAAAAAAAAAAAAAAAAAAAAAAAAAAAAAAAAAAAAAAAAAAAAAAAAAAAAAAAAAAAAAAAAAAAAAAAAAAAAAAAAAAAAAAAAAAAAAAAAAAAAAAAAAAAAAAAAAAAAAAAAAAAAAAAAAAAAAAAAAAAAAAAAAAAAAAAAAAAAAAAAAAAAAAAAAAAAAAAAAAAAAAAAAAAAAAAAAAAAAAAAAAAAAAAAAAAAAAAAAAAAAAAAAAAAAAAAAAAAAAAAAAAAAAAAAAAAAAAAAAAAAAAAAAAAAAAAAAAAAAAAAAAAAAAAAAAAAAAAAAAAAAAAAAAAAAAAAAAAAAAAAAAAAAAAAAAAAAAAAAAAAAAAAAAAAAAAAAAAAAAAAAAAAAAAAAAAAAAAAAAAAAAAAAAAAAAAAAAAAAAAAAAAAAAAAAAAAAAAAAAAAAAAAAAAAAAAAAAAAAAAAAAAAAAAAAAAAAAAAAAAAAAAAAAAAAAAAAAAAAAAAAAAAAAAAAAAAAAAAAAAAAAAAAAAAAAAAAAAAAAAAAAAAAAAAAAAAAAAAAAAAAAAAAAAAAAAAAAAAAAAAAAAAAAAAAAAAAAAAAAAAAAAAAAAAAAAAAAAAAAAAAAAAAAAAAAAAAAAAAAAAAAAAAAAAAAAAAAAAAAAAAAAAAAAAAAAAAAAAAAAAAAAAAAAAAAAAAAAAAAAAAAAAAAAAAAAAAAAAAAAAAAAAAAAAAAAAAAAAAAAAAAAAAAAAAAAAAAAAAAAAAAAAAAAAAAAAAAAAAAAAAAAAAAAAAAAAAAAAAAAAAAAAAAAAAAAAAAAAAAAAAAAAAAAAAAAAAAAAAAAAAAAAAAAAAAAAAAAAAAAAAAAAAAAAAAAAAAAAAAAAAAAAAAAAAAAAAAAAAAAAAAAAAAAAAAAAAAAAAAAAAAAAAAAAAAAAAAAAAAAAAAAAAAAAAAAAAAAAAAAAAAAAAAAAAAAAAAAAAAAAAAAAAAAAAAAAAAAAAAAAAAAAAAAAAAAAAAAAAAAAAAAAAAAAAAAAAAAAAAAAAAAAAAAAAAAAAAAAAAAAAAAAAAAAAAAAAAAAAAAAAAAAAAAAAAAAAAAAAAAAAAAAAAAAAAAAAAAAAAAAAAAAAAAAAAAAAAAAAAAAAAAAAAAAAAAAAAAAAAAAAAAAAAAAAAAAAAAAAAAAAAAAAAAAAAAAAAAAAAAAAAAAAAAAAAAAAAAAAAAAAAAAAAAAAAAAAAAAAAAAAAAAAAAAAAAAAAAAAAAAAAAAAAAAAAAAAAAAAAAAAAAAAAAAAAAAAAAAAAAAAAAAAAAAAAAAAAAAAAAAAAAAAAAAAAAAAAAAAAAAAAAAAAAAAAAAAAAAAAAAAAAAAAAAAAAAAAAAAAAAAAAAAAAAAAAAAAAAAAAAAAAAAAAAAAAAAAAAAAAAAAAAAAAAAAAAAAAAAAAAAAAAAAAAAAAAAAAAAAAAAAAAAAAAAAAAAAAAAAAAAAAAAAAAAAAAAAAAAAAAAAAAAAAAAAAAAAAAAAAAAAAAAAAAAAAAAAAAAAAAAAAAAAAAAAAAAAAAAAAAAAAAAAAAAAAAAAAAAAAAAAAAAAAAAAAAAAAAAAAAAAAAAAAAAAAAAAAAAAAAAAAAAAAAAAAAAAAAAAAAAAAAAAAAAAAAAAAAAAAAAAAAAAAAAAAAAAAAAAAAAAAAAAAAAAAAAAAAAAAAAAAAAAAAAAAAAAAAAAAAAAAAAAAAAAAAAAAAAAAAAAAAAAAAAAAAAAAAAAAAAAAAAAAAAAAAAAAAAAAAAAAAAAAAAAAAAAAAAAAAAAAAAAAAAAAAAAAAAAAAAAAAAAAAAAAAAAAAAAAAAAAAAAAAAAAAAAAAAAAAAAAAAAAAAAAAAAAAAAAAAAAAAAAAAAAAAAAAAAAAAAAAAAAAAAAAAAAAAAAAAAAAAAAAAAAAAAAAAAAAAAAAAAAAAAAAAAAAAAAAAAAAAAAAAAAAAAAAAAAAAAAAAAAAAAAAAAAAAAAAAAAAAAAAAAAAAAAAAAAAAAAAAAAAAAAAAAAAAAAAAAAAAAAAAAAAAAAAAAAAAAAAAAAAAAAAAAAAAAAAAAAAAAAAAAAAAAAAAAAAAAAAAAAAAAAAAAAAAAAAAAAAAAAAAAAAAAAAAAAAAAAAAAAAAAAAAAAAAAAAAAAAAAAAAAAAAAAAAAAAAAAAAAAAAAAAAAAAAAAAAAAAAAAAAAAAAAAAAAAAAAAAAAAAA9lkBADaVzbs15Ro3t25OP4PBjl4HdnqiYLqg3zqbzJtQS5xxWuQNJlhuMqe52viXs64Qv6Jb5S/Y+F83Q66WOvFKNEn1ji5n4n5bT1iZKb+NnPatfh5Jlb8h9XFE/VDbmkRCLOrHs54z38VvTCtHbg2sRH3lQn797dylmVrZQRW1+G0y78h5M/wUHpWE1DfjxxsIMBz6RbyOuImhqE/O6yz8i5WjFHS34tgkQy3h8N0KWkfhzPG8rc2u2ErTjCCTJ6gU2J9aMPL45tglFE4fgY4yrNYUTW4V3NECQF4x8Do0Oy/eUNMjBIY1vjN9Ml/cTLvkNiOs5LuP9iGlau4fzvSvdhM=</c2pa:manifest></metadata>
<g id="path4316">
	<path d="M31,4.3L58,52H3.9L31,4.3 M31,0c-0.6,0-1.2,0.3-1.5,0.8L0.2,52.5C-0.3,53.2,0.3,55,1.3,55s0,0,0,0h59.1c0,0,0,0,0.1,0
		c0.9,0,1.7-1.5,1.3-2.3L32.4,0.8C32.1,0.3,31.6,0,31,0C31,0,31,0,31,0z"/>
</g>
<g>
	<polygon points="36.462,30.392 36.513,30.465 36.571,30.524 36.643,30.573 36.725,30.604 36.812,30.623 36.897,30.623 
		36.984,30.604 37.061,30.569 37.133,30.524 37.197,30.46 37.242,30.387 37.388,30.092 37.518,29.793 37.632,29.485 37.732,29.172 
		37.814,28.853 37.881,28.532 37.931,28.21 37.963,27.883 37.981,27.557 37.981,27.225 37.963,26.898 37.931,26.572 37.881,26.25 
		37.814,25.928 37.732,25.61 37.632,25.298 37.518,24.988 37.388,24.69 37.242,24.395 37.197,24.321 37.133,24.258 37.061,24.209 
		36.984,24.177 36.897,24.159 36.812,24.159 36.725,24.177 36.643,24.209 36.571,24.254 36.513,24.318 36.462,24.39 36.431,24.467 
		36.412,24.554 36.412,24.639 36.426,24.725 36.462,24.807 36.598,25.093 36.722,25.383 36.829,25.678 36.916,25.982 36.988,26.29 
		37.043,26.603 37.08,26.917 37.097,27.235 37.097,27.548 37.08,27.865 37.043,28.178 36.988,28.491 36.916,28.8 36.829,29.103 
		36.722,29.398 36.598,29.688 36.462,29.974 36.426,30.056 36.412,30.138 36.412,30.229 36.431,30.311 	"/>
	<polygon points="34.863,29.616 34.908,29.693 34.972,29.752 35.039,29.802 35.121,29.839 35.207,29.852 35.293,29.857 
		35.379,29.839 35.457,29.807 35.529,29.757 35.592,29.698 35.642,29.625 35.765,29.38 35.878,29.13 35.972,28.872 36.049,28.609 
		36.113,28.346 36.163,28.074 36.195,27.801 36.208,27.53 36.208,27.252 36.195,26.98 36.163,26.709 36.113,26.435 36.049,26.173 
		35.972,25.909 35.878,25.651 35.765,25.402 35.642,25.157 35.592,25.084 35.529,25.02 35.457,24.975 35.379,24.943 35.293,24.926 
		35.207,24.926 35.121,24.943 35.039,24.979 34.972,25.03 34.908,25.088 34.863,25.161 34.826,25.243 34.813,25.328 34.813,25.415 
		34.83,25.501 34.867,25.583 34.98,25.805 35.076,26.037 35.157,26.277 35.225,26.518 35.275,26.762 35.306,27.012 35.325,27.266 
		35.325,27.515 35.306,27.769 35.275,28.015 35.225,28.264 35.157,28.505 35.076,28.744 34.98,28.977 34.867,29.199 34.83,29.28 
		34.813,29.366 34.813,29.453 34.826,29.539 	"/>
	<polygon points="33.525,27.747 33.484,27.924 33.429,28.091 33.357,28.26 33.271,28.418 33.235,28.496 33.212,28.577 
		33.207,28.668 33.222,28.754 33.252,28.835 33.298,28.909 33.352,28.971 33.426,29.026 33.503,29.063 33.588,29.081 33.675,29.086 
		33.76,29.076 33.842,29.044 33.914,28.999 33.978,28.94 34.032,28.872 34.137,28.677 34.232,28.473 34.304,28.264 34.363,28.051 
		34.41,27.833 34.431,27.61 34.441,27.389 34.431,27.166 34.41,26.948 34.363,26.73 34.304,26.518 34.232,26.305 34.137,26.105 
		34.032,25.909 33.978,25.837 33.914,25.782 33.842,25.737 33.76,25.705 33.675,25.692 33.588,25.697 33.503,25.719 33.426,25.755 
		33.352,25.809 33.298,25.873 33.252,25.946 33.222,26.027 33.207,26.114 33.212,26.199 33.235,26.286 33.271,26.363 33.357,26.523 
		33.429,26.69 33.484,26.858 33.525,27.034 33.548,27.211 33.556,27.389 33.548,27.57 	"/>
	<path d="M47.559,39.304c-0.183-0.325-0.592-0.442-0.919-0.259l-5.465,3.059c-0.031-0.029-0.056-0.065-0.093-0.088l-1.758-1.096
		c-0.081-0.05-0.169-0.079-0.257-0.092l-2.733-5.997c-0.126-0.277-0.416-0.416-0.701-0.379l-0.4-1.617h-3.185V28.39
		c0.368-0.186,0.628-0.557,0.628-0.998c0-0.623-0.505-1.128-1.128-1.128c-0.623,0-1.128,0.505-1.128,1.128
		c0,0.441,0.26,0.813,0.628,0.998v4.445H19.204L14.4,41.069v4.613h1.683c0.558,1.467,1.969,2.518,3.63,2.518s3.071-1.05,3.63-2.518
		h3.696c0.241,0.632,0.642,1.177,1.153,1.603c0.061,0.352,0.355,0.626,0.725,0.626h0.294c0.451,0.183,0.942,0.289,1.458,0.289
		s1.007-0.106,1.458-0.289h5.413c0.018,0.002,0.035,0.011,0.054,0.011c0.021,0,0.042-0.001,0.063-0.003
		c0.062-0.006,0.116-0.034,0.173-0.056c0.024-0.008,0.048-0.013,0.071-0.023c0.032-0.016,0.058-0.037,0.086-0.058
		c0.134-0.086,0.242-0.204,0.3-0.355l2.328-3.462c0.001,0,0.002,0,0.003-0.001l6.684-3.741
		C47.625,40.041,47.741,39.629,47.559,39.304z M34.519,43.894l0.432,1.139h-0.463c0.045-0.236,0.073-0.477,0.073-0.726
		C34.561,44.165,34.534,44.031,34.519,43.894z M27.425,44.307c0-1.788,1.455-3.242,3.243-3.242c0.931,0,1.766,0.4,2.358,1.031
		l-2.352,0.634c-0.4,0.107-0.637,0.519-0.529,0.919c0.108,0.399,0.517,0.642,0.919,0.528l2.715-0.732
		c0.077,0.276,0.131,0.561,0.131,0.862c0,1.788-1.455,3.243-3.243,3.243C28.879,47.55,27.425,46.095,27.425,44.307z M34.297,45.683
		h0.9l0.276,0.729h-1.54C34.08,46.184,34.2,45.939,34.297,45.683z M38.004,41.751l-0.407,0.642l-0.83-3.357L38.004,41.751z
		 M19.713,47.55c-1.788,0-3.243-1.455-3.243-3.243s1.455-3.242,3.243-3.242s3.243,1.454,3.243,3.242S21.501,47.55,19.713,47.55z
		 M23.532,45.032c0.045-0.236,0.073-0.477,0.073-0.726c0-2.146-1.747-3.893-3.893-3.893s-3.893,1.746-3.893,3.893
		c0,0.248,0.029,0.49,0.073,0.726H15.05v-3.787l4.527-7.76h15.147l0.355,1.436c-0.045,0.151-0.045,0.316,0.026,0.471l0.199,0.436
		l1.812,7.324l-0.798,1.259l-0.861-2.272c-0.137-0.361-0.522-0.565-0.896-0.458l-0.85,0.229c-0.713-0.904-1.806-1.496-3.044-1.496
		c-2.146,0-3.893,1.746-3.893,3.893c0,0.248,0.029,0.49,0.073,0.726h-3.315V45.032z"/>
	<circle cx="41.113" cy="40.078" r="1.416"/>
</g>
</svg>
