<?xml version="1.0" encoding="iso-8859-1"?>
<!-- Generator: Adobe Illustrator 29.4.0, SVG Export Plug-In . SVG Version: 9.03 Build 0)  -->
<svg version="1.1" id="Layer_1" xmlns="http://www.w3.org/2000/svg" xmlns:xlink="http://www.w3.org/1999/xlink" x="0px" y="0px"
	 viewBox="0 0 40.743 28.812" style="enable-background:new 0 0 40.743 28.812;" xml:space="preserve"><metadata><c2pa:manifest xmlns:c2pa="http://c2pa.org/manifest">AAA0Rmp1bWIAAAAeanVtZGMycGEAEQAQgAAAqgA4m3EDYzJwYQAAADQganVtYgAAAEdqdW1kYzJtYQARABCAAACqADibcQN1cm46dXVpZDpmY2I0ZmY3Yi00ZjJkLTQzNTEtYjYwMC1hY2ZiZDNjNjU2MWYAAAABtWp1bWIAAAApanVtZGMyYXMAEQAQgAAAqgA4m3EDYzJwYS5hc3NlcnRpb25zAAAAANdqdW1iAAAAJmp1bWRjYm9yABEAEIAAAKoAOJtxA2MycGEuYWN0aW9ucwAAAACpY2JvcqFnYWN0aW9uc4GjZmFjdGlvbmtjMnBhLmVkaXRlZG1zb2Z0d2FyZUFnZW50bUFkb2JlIEZpcmVmbHlxZGlnaXRhbFNvdXJjZVR5cGV4U2h0dHA6Ly9jdi5pcHRjLm9yZy9uZXdzY29kZXMvZGlnaXRhbHNvdXJjZXR5cGUvY29tcG9zaXRlV2l0aFRyYWluZWRBbGdvcml0aG1pY01lZGlhAAAArWp1bWIAAAAoanVtZGNib3IAEQAQgAAAqgA4m3EDYzJwYS5oYXNoLmRhdGEAAAAAfWNib3KlamV4Y2x1c2lvbnOBomVzdGFydBkBr2ZsZW5ndGgZRbRkbmFtZW5qdW1iZiBtYW5pZmVzdGNhbGdmc2hhMjU2ZGhhc2hYID5QujkyGZfNbHDQJqsngUFHcQ0NlXV+gSO95inTxgIwY3BhZEkAAAAAAAAAAAAAAAIManVtYgAAACRqdW1kYzJjbAARABCAAACqADibcQNjMnBhLmNsYWltAAAAAeBjYm9yqGhkYzp0aXRsZW9HZW5lcmF0ZWQgSW1hZ2VpZGM6Zm9ybWF0bWltYWdlL3N2Zyt4bWxqaW5zdGFuY2VJRHgseG1wOmlpZDoxMTdkNjFkNi03Y2M0LTQxOWEtOThiMi05MTVkMTNmNDZjNzhvY2xhaW1fZ2VuZXJhdG9yeDdBZG9iZV9JbGx1c3RyYXRvci8yOS40IGFkb2JlX2MycGEvMC4xMi4yIGMycGEtcnMvMC4zMi41dGNsYWltX2dlbmVyYXRvcl9pbmZvgb9kbmFtZXFBZG9iZSBJbGx1c3RyYXRvcmd2ZXJzaW9uZDI5LjT/aXNpZ25hdHVyZXgZc2VsZiNqdW1iZj1jMnBhLnNpZ25hdHVyZWphc3NlcnRpb25zgqJjdXJseCdzZWxmI2p1bWJmPWMycGEuYXNzZXJ0aW9ucy9jMnBhLmFjdGlvbnNkaGFzaFggSmnBvf+o3kEweL4k7cz4MTrB0WSVNFZxoA1rBrM31K+iY3VybHgpc2VsZiNqdW1iZj1jMnBhLmFzc2VydGlvbnMvYzJwYS5oYXNoLmRhdGFkaGFzaFgg5wuUc5Ny+yqykddXFpRhSrXKPi6UUXDbCOTVEF1iHfxjYWxnZnNoYTI1NgAAMBBqdW1iAAAAKGp1bWRjMmNzABEAEIAAAKoAOJtxA2MycGEuc2lnbmF0dXJlAAAAL+BjYm9y0oRZDO+iATgkGCGCWQY9MIIGOTCCBCGgAwIBAgIQFY3/J6wj0rglS05jNx4dnjANBgkqhkiG9w0BAQsFADB1MQswCQYDVQQGEwJVUzEjMCEGA1UEChMaQWRvYmUgU3lzdGVtcyBJbmNvcnBvcmF0ZWQxHTAbBgNVBAsTFEFkb2JlIFRydXN0IFNlcnZpY2VzMSIwIAYDVQQDExlBZG9iZSBQcm9kdWN0IFNlcnZpY2VzIEczMB4XDTI0MTAxNTAwMDAwMFoXDTI1MTAxNTIzNTk1OVowgasxEzARBgNVBAMMCkFkb2JlIEMyUEExKDAmBgNVBAsMH0NvbnRlbnQgQXV0aGVudGljaXR5IEluaXRpYXRpdmUxEzARBgNVBAoMCkFkb2JlIEluYy4xETAPBgNVBAcMCFNhbiBKb3NlMRMwEQYDVQQIDApDYWxpZm9ybmlhMQswCQYDVQQGEwJVUzEgMB4GCSqGSIb3DQEJARYRY2FpLW9wc0BhZG9iZS5jb20wggEiMA0GCSqGSIb3DQEBAQUAA4IBDwAwggEKAoIBAQDDEMGB0H09cukxc/Dmg2BiQVYM8/VpJ+2H1Nk8g0605CWGnW/iH6EzFlYWORndElG6hIGuxJJgFoR+IMwqKyL+w7G4UcoFX/+XWu/dKuOuLEA1ciWqMZ0hjJ1oxoVr/mi8XP+bj5JTPRxxjOrD69IDO5HJIaemCbwaaP5IQlwv8YgfOpT1tTLc2yLNjahjbzKPfatuQ6p4ANIznU6ogkqWgQEUV7HMy6fOlT4rawuqF6hHwUkxpHR8Zdr+CpHOGSIEWHBSEs9L2zr5MKfPT1RkyVdt0b+IUqPdQ8VQOOqHTC0WBzPbgOtSVpZ6KW0oei7KYEe6KvO+Y4bRW1I96nE5AgMBAAGjggGMMIIBiDAMBgNVHRMBAf8EAjAAMA4GA1UdDwEB/wQEAwIHgDAeBgNVHSUEFzAVBgkqhkiG9y8BAQwGCCsGAQUFBwMEMIGOBgNVHSAEgYYwgYMwgYAGCSqGSIb3LwECAzBzMHEGCCsGAQUFBwICMGUMY1lvdSBhcmUgbm90IHBlcm1pdHRlZCB0byB1c2UgdGhpcyBMaWNlbnNlIENlcnRpZmljYXRlIGV4Y2VwdCBhcyBwZXJtaXR0ZWQgYnkgdGhlIGxpY2Vuc2UgYWdyZWVtZW50LjBdBgNVHR8EVjBUMFKgUKBOhkxodHRwOi8vcGtpLWNybC5zeW1hdXRoLmNvbS9jYV83YTVjM2EwYzczMTE3NDA2YWRkMTkzMTJiYzFiYzIzZi9MYXRlc3RDUkwuY3JsMDcGCCsGAQUFBwEBBCswKTAnBggrBgEFBQcwAYYbaHR0cDovL3BraS1vY3NwLnN5bWF1dGguY29tMB8GA1UdIwQYMBaAFFcpejJNzP7kNU7AHyRzznNTq99qMA0GCSqGSIb3DQEBCwUAA4ICAQCquXoUtD5z0thp/SKDJOASs0v1eaaJ6JPeiEoV68ncE3uRaRkPXOdtXDdedfm2BBoqr4CJIKV03FgQqpT5Gr0uvboYaCUFIDSz8OzaTD7YuWdOaiMAcIfcK9VFuEYcetqyGad+DCYXVNKRpaTs3ESFu33BCiIQyQtJB4zhLgK77XvoXMR3L7POQORFap5I5A7+obZZG2j+8irfQQJ/q/oW1rMkjUJYiqEErmgmKhI1suwJUmFqvdRxr0PXW6N5lbiTaM8KyfOuJOYWpV+13eTZJdRCDvBBxBxd8oEi1Zm3zO2fQhihnMlrXH2X129coAm82wOjPi4N6tLzP2vMuwRC/MvXI9tOnj7/qZNMBayhoO2aRmCbdf6x989fdfMwWZ/MgeJh9SNrmcorZuzg/vW2K3/VT8UPbF2WnNlK6lGoIwbP5RN5cjwis3llH/4XytKyZEBK2OeCDP/AO5zBwOUltjj9EqrcGsCLgtqYswh/Cj91svnlMOUg53scJ+ZKBptzVY7QqOLctb9Vmc/1UbxaJQb5aq03U5AgBmYVQ5Z1dAYtqD4jU5pnUFckM2wmJdyDZMY0FIQ+jjgCR+f0zMUYrIHlS6sw3g0fSqVqaGuEqJXT5vvcWPHffQ/9+vEGbPHk2kBCE0qSzH4XjPVLwDLWjZMEiSR4AVsPPLx/8XG7K1kGpTCCBqEwggSJoAMCAQICEAyotlR7iebSBol1zYubieIwDQYJKoZIhvcNAQELBQAwbDELMAkGA1UEBhMCVVMxIzAhBgNVBAoTGkFkb2JlIFN5c3RlbXMgSW5jb3Jwb3JhdGVkMR0wGwYDVQQLExRBZG9iZSBUcnVzdCBTZXJ2aWNlczEZMBcGA1UEAxMQQWRvYmUgUm9vdCBDQSBHMjAeFw0xNjExMjkwMDAwMDBaFw00MTExMjgyMzU5NTlaMHUxCzAJBgNVBAYTAlVTMSMwIQYDVQQKExpBZG9iZSBTeXN0ZW1zIEluY29ycG9yYXRlZDEdMBsGA1UECxMUQWRvYmUgVHJ1c3QgU2VydmljZXMxIjAgBgNVBAMTGUFkb2JlIFByb2R1Y3QgU2VydmljZXMgRzMwggIiMA0GCSqGSIb3DQEBAQUAA4ICDwAwggIKAoICAQC3Hy69vQmzXEhs/gyDrmwB6lF4JaSAPomnsbKIZNr2iXaB+fkd85X8eJiNmI7P5O4cVT4Nc1p3zrESqBV4ZUyW8gcZ78QdwoHG8QNd2VNcHnMgSR+XT9Iafsnq9Nfww3Jt9KL3l5ANQ5n1+MJqr48EWNLll942bOL/JH4ywDSMoqhZqtJEIUUUGlQVBZ8CAvJc7LE6ddA5C52PE2Ppa7RfQgHXf4gfXVZwpxYRZcziPiOHqEvLb0J3cShUbejFxV6cwX8QyAPa1ePHg1RtM0HX+D34xHo3DkyGnmT+Ddq00TEDGG26AL5PdINKFIQl+zaq6KJFQe1fdGE5wrWzU4mBPmzaz3EbLn+7FWlwAhorYqIMldbfHE3ydc+aTU1JW7+bG19qmvhO9IluGtTtQDeqFBj2fg6faxsfVfVPD7stN6TwoIDlkOCE4RE+Iin8m3z3eqi/VsTmsmRqBxWDRaqOHz02EJoEDxXJG3ei+UbIIp01XZQvdufm90WxOTuqqan2ZqTPX9K5VdjEh/ovr7xFc5q1dZo+Sa5y4sTVM854/tLU3klOgUKzzSXYPYS3GhBcYJHjwr9xNRHnNX99D6F0g7OijScWfvtjxh13aTv/H0ETvymah4yfDpVdh9cK5YSCPqnuOlsujFAyhYwJXOWDvZZU2EkWVLDhoPx9zp7N4QIDAQABo4IBNDCCATAwEgYDVR0TAQH/BAgwBgEB/wIBADA1BgNVHR8ELjAsMCqgKKAmhiRodHRwOi8vY3JsLmFkb2JlLmNvbS9hZG9iZXJvb3RnMi5jcmwwDgYDVR0PAQH/BAQDAgEGMBQGA1UdJQQNMAsGCSqGSIb3LwEBBzBXBgNVHSAEUDBOMEwGCSqGSIb3LwECAzA/MD0GCCsGAQUFBwIBFjFodHRwczovL3d3dy5hZG9iZS5jb20vbWlzYy9wa2kvcHJvZF9zdmNlX2Nwcy5odG1sMCQGA1UdEQQdMBukGTAXMRUwEwYDVQQDEwxTWU1DLTQwOTYtMzMwHQYDVR0OBBYEFFcpejJNzP7kNU7AHyRzznNTq99qMB8GA1UdIwQYMBaAFKYc4W1UJEyoj0hyv26pjNXk7DHUMA0GCSqGSIb3DQEBCwUAA4ICAQBxzuUHjKbcLdzI4DtlXgCSgZXrlSAkr59pOF3JfPG42qVNAGU7JcEYXJ6+WbfcGwY7WYMl+jO7IvJPb7shXFYW9bnJgxX7lLU14KExchmcLNY1ee6IhBJ2Y8PzZMRUKSd5CkURPg0PBLGjz/KR/DofHx+G4rPTCOGORYxeYrd01lci5hVxvKccvIk7MD69ZTewfZPSM+0WnsU3f0Zmd7hgbRpUyWceG0eHFpdUKK/ZFWhHjDVC28odCnN885tHncKXviItK0ZUUo/AIthFKlhEXsnq9VL9fFbgvO83ZvpUQo5y8mY3cuGnEVGXdhjNb53CfC1u4dbpYmWaN99subUzEsUaUb3loLPfVfzDOpg2y9v37kBdy/wuXr20teY7U62xj/fAgs1QSnhUtlMTfCqbefyEycKVmKIrJkJLsvgTSYKVvH4FFIwfd5WjqOC97jX98rcVAzhAI0iSkazsWOMvL6m0L4nLJapx+85GsVX8Y6AHmEP4bmCElwil6KAP+UewJFiw5rmwV2pESHAhYuZJa03B8tl0nd2QJzvJGmbeBqXqpF9ORinFM3HErK8puRokOjFH2+1asLeI2tB31W/ELdNe27Ogduq6Z6qBwCp59YX27qydDhD0WRfN64kCs25K88iGAGNW2CAfTDS+b+WYJBiIL9jXYZ4LF+BiUvfdu6Nmc2lnVHN0oWl0c3RUb2tlbnOBoWN2YWxZDjowgg42MAMCAQAwgg4tBgkqhkiG9w0BBwKggg4eMIIOGgIBAzEPMA0GCWCGSAFlAwQCAQUAMIGCBgsqhkiG9w0BCRABBKBzBHEwbwIBAQYJYIZIAYb9bAcBMDEwDQYJYIZIAWUDBAIBBQAEICy5DBZSRPcawUQXhd1f0cXlCFeKkLV4wh1b9yKTNieHAhBBtx70eomGXovvvnUtHktSGA8yMDI1MDQxNDE3NTcyMFoCCQC49J3png2mU6CCC8AwggUKMIIC8qADAgECAhAMCy/HenjPuu1lVlTBmiQDMA0GCSqGSIb3DQEBCwUAMGMxCzAJBgNVBAYTAlVTMRcwFQYDVQQKEw5EaWdpQ2VydCwgSW5jLjE7MDkGA1UEAxMyRGlnaUNlcnQgVHJ1c3RlZCBHNCBSU0E0MDk2IFNIQTI1NiBUaW1lU3RhbXBpbmcgQ0EwHhcNMjQxMTIwMDAwMDAwWhcNMzYwMjE5MjM1OTU5WjBbMQswCQYDVQQGEwJVUzERMA8GA1UEChMIRGlnaUNlcnQxOTA3BgNVBAMTMEVDQzI1Nl9TSEEyNTZfVGltZXN0YW1wX1Jlc3BvbmRlcl9BZG9iZV9OT1ZfMjAyNDBZMBMGByqGSM49AgEGCCqGSM49AwEHA0IABND8HoX4gZimKpBAvE5+qRSZ5OZJFZnPFIK3AzzayJb9JtdrOS1HIRabAhWz7w8mOFX0Lh9QnbcgZHGx/MkzyV6jggGLMIIBhzAOBgNVHQ8BAf8EBAMCB4AwDAYDVR0TAQH/BAIwADAWBgNVHSUBAf8EDDAKBggrBgEFBQcDCDAgBgNVHSAEGTAXMAgGBmeBDAEEAjALBglghkgBhv1sBwEwHwYDVR0jBBgwFoAUuhbZbU2FL3MpdpovdYxqII+eyG8wHQYDVR0OBBYEFOzRHG9856BN5DE/hwAI1K3UfTa7MFoGA1UdHwRTMFEwT6BNoEuGSWh0dHA6Ly9jcmwzLmRpZ2ljZXJ0LmNvbS9EaWdpQ2VydFRydXN0ZWRHNFJTQTQwOTZTSEEyNTZUaW1lU3RhbXBpbmdDQS5jcmwwgZAGCCsGAQUFBwEBBIGDMIGAMCQGCCsGAQUFBzABhhhodHRwOi8vb2NzcC5kaWdpY2VydC5jb20wWAYIKwYBBQUHMAKGTGh0dHA6Ly9jYWNlcnRzLmRpZ2ljZXJ0LmNvbS9EaWdpQ2VydFRydXN0ZWRHNFJTQTQwOTZTSEEyNTZUaW1lU3RhbXBpbmdDQS5jcnQwDQYJKoZIhvcNAQELBQADggIBAKLswSDyeS8tq4sjtwCPbUOCcwSuHSae0K3hzi2xb3IlBl1m/WfwTV255rJvoiJnyZhqZsiatN65UrAapRIhNlOJWG0VE/fNEP0OkWT4THg/TXQhK0f94PWWArptV9pjSC/NwhFA/cLAjOoFkATzVzlAg2M+zzVy8ks4Up39xfvM6GhC+vOI0PLXlQ1Pl+5RF7Z+KgA1CxE1g6ZVcB2DZMrs6S1gP4Qf8PyBavucdCFEky4PngY2OJmc0+dhfPoXePsG7ZpWWKu9AYACytbbsuqGD2Sxbn5ov6D3+XKpGgytYtLLgoNBrO08H48qyR5w7VHt1slvDtQEVWX4ZsZpRzjHoe9Us00vmEeOIut/0DjPF7nZ71mqlJTuQO7t2xFe+b64ssxeMcVLH+PSy0hzGdAfA4vgDlFG5QfVfDXDPYKIa8gc1yhiuSp+RvpOwolTue0Oo0oUpnfj2wEStN1fBWgh3jNL9xX8Dms7UrDlo07/NRMK1CRtwyDzxcZaoiZpiYgeEi8doTWdF09YJrRCGvG+Kh4/jmnj/Op38mtVs2ygS4QFJEg8Hf5WItqgWWKZlFR4/PApi/JOt3qDvaZW0Xg+ttu/LWSoJSaxkMwWqffcNHQ3xDOqTOKvdu583IjmT3lGrc1dxt81gPH2pnyCMK7g0e1LEB0kqzDNv2CLqPIVMIIGrjCCBJagAwIBAgIQBzY3tyRUfNhHrP0oZipeWzANBgkqhkiG9w0BAQsFADBiMQswCQYDVQQGEwJVUzEVMBMGA1UEChMMRGlnaUNlcnQgSW5jMRkwFwYDVQQLExB3d3cuZGlnaWNlcnQuY29tMSEwHwYDVQQDExhEaWdpQ2VydCBUcnVzdGVkIFJvb3QgRzQwHhcNMjIwMzIzMDAwMDAwWhcNMzcwMzIyMjM1OTU5WjBjMQswCQYDVQQGEwJVUzEXMBUGA1UEChMORGlnaUNlcnQsIEluYy4xOzA5BgNVBAMTMkRpZ2lDZXJ0IFRydXN0ZWQgRzQgUlNBNDA5NiBTSEEyNTYgVGltZVN0YW1waW5nIENBMIICIjANBgkqhkiG9w0BAQEFAAOCAg8AMIICCgKCAgEAxoY1BkmzwT1ySVFVxyUDxPKRN6mXUaHW0oPRnkyibaCwzIP5WvYRoUQVQl+kiPNo+n3znIkLf50fng8zH1ATCyZzlm34V6gCff1DtITaEfFzsbPuK4CEiiIY3+vaPcQXf6sZKz5C3GeO6lE98NZW1OcoLevTsbV15x8GZY2UKdPZ7Gnf2ZCHRgB720RBidx8ald68Dd5n12sy+iEZLRS8nZH92GDGd1ftFQLIWhuNyG7QKxfst5Kfc71ORJn7w6lY2zkpsUdzTYNXNXmG6jBZHRAp8ByxbpOH7G1WE15/tePc5OsLDnipUjW8LAxE6lXKZYnLvWHpo9OdhVVJnCYJn+gGkcgQ+NDY4B7dW4nJZCYOjgRs/b2nuY7W+yB3iIU2YIqx5K/oN7jPqJz+ucfWmyU8lKVEStYdEAoq3NDzt9KoRxrOMUp88qqlnNCaJ+2RrOdOqPVA+C/8KI8ykLcGEh/FDTP0kyr75s9/g64ZCr6dSgkQe1CvwWcZklSUPRR8zZJTYsg0ixXNXkrqPNFYLwjjVj33GHek/45wPmyMKVM1+mYSlg+0wOI/rOP015LdhJRk8mMDDtbiiKowSYI+RQQEgN9XyO7ZONj4KbhPvbCdLI/Hgl27KtdRnXiYKNYCQEoAA6EVO7O6V3IXjASvUaetdN2udIOa5kM0jO0zbECAwEAAaOCAV0wggFZMBIGA1UdEwEB/wQIMAYBAf8CAQAwHQYDVR0OBBYEFLoW2W1NhS9zKXaaL3WMaiCPnshvMB8GA1UdIwQYMBaAFOzX44LScV1kTN8uZz/nupiuHA9PMA4GA1UdDwEB/wQEAwIBhjATBgNVHSUEDDAKBggrBgEFBQcDCDB3BggrBgEFBQcBAQRrMGkwJAYIKwYBBQUHMAGGGGh0dHA6Ly9vY3NwLmRpZ2ljZXJ0LmNvbTBBBggrBgEFBQcwAoY1aHR0cDovL2NhY2VydHMuZGlnaWNlcnQuY29tL0RpZ2lDZXJ0VHJ1c3RlZFJvb3RHNC5jcnQwQwYDVR0fBDwwOjA4oDagNIYyaHR0cDovL2NybDMuZGlnaWNlcnQuY29tL0RpZ2lDZXJ0VHJ1c3RlZFJvb3RHNC5jcmwwIAYDVR0gBBkwFzAIBgZngQwBBAIwCwYJYIZIAYb9bAcBMA0GCSqGSIb3DQEBCwUAA4ICAQB9WY7Ak7ZvmKlEIgF+ZtbYIULhsBguEE0TzzBTzr8Y+8dQXeJLKftwig2qKWn8acHPHQfpPmDI2AvlXFvXbYf6hCAlNDFnzbYSlm/EUExiHQwIgqgWvalWzxVzjQEiJc6VaT9Hd/tydBTX/6tPiix6q4XNQ1/tYLaqT5Fmniye4Iqs5f2MvGQmh2ySvZ180HAKfO+ovHVPulr3qRCyXen/KFSJ8NWKcXZl2szwcqMj+sAngkSumScbqyQeJsG33irr9p6xeZmBo1aGqwpFyd/EjaDnmPv7pp1yr8THwcFqcdnGE4AJxLafzYeHJLtPo0m5d2aR8XKc6UsCUqc3fpNTrDsdCEkPlM05et3/JWOZJyw9P2un8WbDQc1PtkCbISFA0LcTJM3cHXg65J6t5TRxktcma+Q4c6umAU+9Pzt4rUyt+8SVe+0KXzM5h0F4ejjpnOHdI/0dKNPH+ejxmF/7K9h+8kaddSweJywm228Vex4Ziza4k9Tm8heZWcpw8De/mADfIBZPJ/tgZxahZrrdVcA6KYawmKAr7ZVBtzrVFZgxtGIJDwq9gdkT/r+k0fNX2bwE+oLeMt8EifAAzV3C+dAjfwAL5HYCJtnwZXZCpimHCUcr5n8apIUP/JiW9lVUKx+A+sDyDivl1vupL0QVSucTDh3bNzgaoSv27dZ8/DGCAbkwggG1AgEBMHcwYzELMAkGA1UEBhMCVVMxFzAVBgNVBAoTDkRpZ2lDZXJ0LCBJbmMuMTswOQYDVQQDEzJEaWdpQ2VydCBUcnVzdGVkIEc0IFJTQTQwOTYgU0hBMjU2IFRpbWVTdGFtcGluZyBDQQIQDAsvx3p4z7rtZVZUwZokAzANBglghkgBZQMEAgEFAKCB0TAaBgkqhkiG9w0BCQMxDQYLKoZIhvcNAQkQAQQwHAYJKoZIhvcNAQkFMQ8XDTI1MDQxNDE3NTcyMFowKwYLKoZIhvcNAQkQAgwxHDAaMBgwFgQU9xMCVGQbnM7SUS1ixb+fKYSM/PgwLwYJKoZIhvcNAQkEMSIEIIplO3NyH6MnwPl9tIazAzfidtuVY+f3Ja0KEuq2P7ZoMDcGCyqGSIb3DQEJEAIvMSgwJjAkMCIEILl6JmgdGOm5fGM++Eg5ZFV1l5baUENELI+MzeUn4ACpMAoGCCqGSM49BAMCBEgwRgIhAM7JPZYOQG1HUnAtnmhYn9b1xPVm1zYuAVnLiPi6/QoFAiEAzumhHt0mchJpD9Ahhs9mFWO5+hSMOssTdUTV0AvcRFllclZhbHOhaG9jc3BWYWxzgVkI2DCCCNQKAQCgggjNMIIIyQYJKwYBBQUHMAEBBIIIujCCCLYwgZ6iFgQUNP4JdS2T7BUACxFmwpyozhIhXfAYDzIwMjUwNDEzMjA1NzAxWjBzMHEwSTAJBgUrDgMCGgUABBS733Mle9sjosdOiV3f/BGFqJuLAQQUVyl6Mk3M/uQ1TsAfJHPOc1Or32oCEBWN/yesI9K4JUtOYzceHZ6AABgPMjAyNTA0MTMyMDU3MDFaoBEYDzIwMjUwNDIwMjA1NzAxWjANBgkqhkiG9w0BAQsFAAOCAgEAf3/6X266fioUCY63yA6QX2437PuzjVNDlAUHiWqywo/1J07subJ+5MYx9in+tXbyC+8ZxJI6p44H7OrGLjf43+oZqY0SlM0bkG7DBmmA9xdqXfDFYuErTgx55wnsYJ9h/G5CGtTHH/IJMzgRcXMoKijcuBkWd+R4OlV+UaqCEgaITbDGxsBkjq4TxezU51RQlphZF//bVEJAw6CzSHrhd9nFATgZQeoAHyhj92/vXgVBbzoB1tKCM+Vkqh9jpRpDN2yUbSoqqx1hpB2h4tfCzBxxJxerLsiBH4GC2DvAOrWmRTb21olN1ElFbXsjVvJZysG22SMUo303AzTE8QXqRCg5s75aKj4PqF6of+Q3b2XBJXp6AT1em5bOP8Cv2etIl1oMeb4/BF4rU1wQ8cfjbq87124GAUeH5krdGvGKkVI9eFrE1IQlkFn0aPKp3CBmAGoJ5NH7Cs7SpOHWKVSlDBo748wbqRl26/PYrlxgdSDNflJkVk/gVcCEtVsI0mGwHBDV8rJXSi8tZEP4JHUUhwgqFuRbICl5LhINdY1EHvNuzh+KGu5LYVezaIOkVD2zp4JIcVTNCjOKuBIBO8oqL1L74BddiENcuKU6e/aGWAlypjMktlFIDspea7k2CxiVeOVjICm4VsYxOCci98WVwYiEDzIcquCSKsX9A5dO5G2gggX9MIIF+TCCBfUwggPdoAMCAQICFCfGLTyeddpK25bUjKI4vSPbD1vwMA0GCSqGSIb3DQEBCwUAMHUxCzAJBgNVBAYTAlVTMSMwIQYDVQQKExpBZG9iZSBTeXN0ZW1zIEluY29ycG9yYXRlZDEdMBsGA1UECxMUQWRvYmUgVHJ1c3QgU2VydmljZXMxIjAgBgNVBAMTGUFkb2JlIFByb2R1Y3QgU2VydmljZXMgRzMwHhcNMjUwMjEzMjAyMzMxWhcNMjUwNTE0MjAyMzMxWjB6MQswCQYDVQQGEwJVUzEjMCEGA1UEChMaQWRvYmUgU3lzdGVtcyBJbmNvcnBvcmF0ZWQxRjBEBgNVBAMTPUFkb2JlIFByb2R1Y3QgU2VydmljZXMgRzMgT0NTUCBSZXNwb25kZXIgMjAyNS0wMi0xM1QyMDoyMzozMVowggIiMA0GCSqGSIb3DQEBAQUAA4ICDwAwggIKAoICAQDUNKOzznG1+lrObBs3NSIoQmDFDlgvw/NMsOYBAPK2wdbOAImujhdcok93Pj4QCkMeWK83r1huCVJSQHn35MobRtZIP4Wf5OFko4MRrEl4DKb6/rCujbOxtD+McHXl3vzK1k9dMKDZRWphAOGRWwANdynCXg2P3qeqrVqxqwzP7d5fkeUR+f/r9Kwi02O/Ni6TEuezov8rs3JPhdEFXfWJGaTpJptubnu+8RXlnfrNvIvpUF+uyxM4UMQrAUvkBFSehJFc2ULEaozQovVCboh2JR9KuWlUgiHwRD7U9cQT+zmcIdWUuGPeQdXw5cTNhXfca6RxVIrN+7F6+esfKwaqYPHK04dH8rzixnxABf9c8kogbkgMGeHxgRBQEYznrgYGxksvOwMjob23Dgobej1UejV4v2pwhclyyfWITpIc7JBoDsoXIMJKFDIGWxzi+BbpzlZuFwhR8WcfGkz5rECIP267f/rvPG7/joTvRQfH9e0Ri+j1CKrLdg5IbuTfS0FPeEs8XIiHZnjwbCyZ8937wAlR/c+KawcY4gLymL2ygzP7GZgV0Nuql/QE7A1rFW93djVB+Iiyt7fpcVyqHKlr07fyPztkVDytc71WHmawt0iDuLwe/p/6NPCm1SrPzn9mtjgr6PrnRETv3AMoigQ6vGngZUhxfqOU5HNfNfJmjQIDAQABo3gwdjAdBgNVHQ4EFgQUNP4JdS2T7BUACxFmwpyozhIhXfAwHwYDVR0jBBgwFoAUVyl6Mk3M/uQ1TsAfJHPOc1Or32owDgYDVR0PAQH/BAQDAgeAMBMGA1UdJQQMMAoGCCsGAQUFBwMJMA8GCSsGAQUFBzABBQQCBQAwDQYJKoZIhvcNAQELBQADggIBADGP8yH5cgHXr0paT+fLqttOyW6o5dOGZz7AP/lN/YvTd+8S2Xc03A0QIxHEkZ5Zf2xG7v/0h9xg8BXm0b1oeUO2Bo+gHZgUOvOaKoD4Fc8bmR0Q/yQdz8XCS7QDqhDulmdJ+V1Nkg5kLslgy0i972GkhuAtgmKmJMbPX6Ojj6EjPK3m8xAWzR1AzpnceSoRRzGVJB+m9zgMz8/1HGGeUBwXSFvZt8A7USyoEHQpS2avtwDVug0pSt9jY1PJMRxvl7jGV/bpBzmMpunu4w68RzaWoEIdugVNdCYigbDaAsXABj7Y5iJ+kVL66arc/biQHkKFZGFzEuNPm3VxkqgDD6g29+2XE5t1X9yGEzff73IltecT7+RFdhSbw8xqcNoV2BHJKJjUnnB3xZ9TsN6mEEHSHA3KCa/deD88YRnu6PZASvusPnzy4HhyMkFkDzue53pB7+QLsVAEYME4C101JqP0is6UgRJSz5zWdRfja10wERl5DLJRnakB9e/K4TwGQ+xNAAC7V+x9elljGIFnEXN6E1UBNTciYFv2BiSr/O3GA6P3qgt3KDNJpG1dP847vK4JbOaR/HIvK9U9DQauY28GA8Q1WNi50JQ6dbVVadj+3H7BF2nPwUXORbAzsbj5cUulQvZAHYvtrR+xxHmOBI2ecukcrXT5zdpoFUwQepTHY3BhZFkKlwAAAAAAAAAAAAAAAAAAAAAAAAAAAAAAAAAAAAAAAAAAAAAAAAAAAAAAAAAAAAAAAAAAAAAAAAAAAAAAAAAAAAAAAAAAAAAAAAAAAAAAAAAAAAAAAAAAAAAAAAAAAAAAAAAAAAAAAAAAAAAAAAAAAAAAAAAAAAAAAAAAAAAAAAAAAAAAAAAAAAAAAAAAAAAAAAAAAAAAAAAAAAAAAAAAAAAAAAAAAAAAAAAAAAAAAAAAAAAAAAAAAAAAAAAAAAAAAAAAAAAAAAAAAAAAAAAAAAAAAAAAAAAAAAAAAAAAAAAAAAAAAAAAAAAAAAAAAAAAAAAAAAAAAAAAAAAAAAAAAAAAAAAAAAAAAAAAAAAAAAAAAAAAAAAAAAAAAAAAAAAAAAAAAAAAAAAAAAAAAAAAAAAAAAAAAAAAAAAAAAAAAAAAAAAAAAAAAAAAAAAAAAAAAAAAAAAAAAAAAAAAAAAAAAAAAAAAAAAAAAAAAAAAAAAAAAAAAAAAAAAAAAAAAAAAAAAAAAAAAAAAAAAAAAAAAAAAAAAAAAAAAAAAAAAAAAAAAAAAAAAAAAAAAAAAAAAAAAAAAAAAAAAAAAAAAAAAAAAAAAAAAAAAAAAAAAAAAAAAAAAAAAAAAAAAAAAAAAAAAAAAAAAAAAAAAAAAAAAAAAAAAAAAAAAAAAAAAAAAAAAAAAAAAAAAAAAAAAAAAAAAAAAAAAAAAAAAAAAAAAAAAAAAAAAAAAAAAAAAAAAAAAAAAAAAAAAAAAAAAAAAAAAAAAAAAAAAAAAAAAAAAAAAAAAAAAAAAAAAAAAAAAAAAAAAAAAAAAAAAAAAAAAAAAAAAAAAAAAAAAAAAAAAAAAAAAAAAAAAAAAAAAAAAAAAAAAAAAAAAAAAAAAAAAAAAAAAAAAAAAAAAAAAAAAAAAAAAAAAAAAAAAAAAAAAAAAAAAAAAAAAAAAAAAAAAAAAAAAAAAAAAAAAAAAAAAAAAAAAAAAAAAAAAAAAAAAAAAAAAAAAAAAAAAAAAAAAAAAAAAAAAAAAAAAAAAAAAAAAAAAAAAAAAAAAAAAAAAAAAAAAAAAAAAAAAAAAAAAAAAAAAAAAAAAAAAAAAAAAAAAAAAAAAAAAAAAAAAAAAAAAAAAAAAAAAAAAAAAAAAAAAAAAAAAAAAAAAAAAAAAAAAAAAAAAAAAAAAAAAAAAAAAAAAAAAAAAAAAAAAAAAAAAAAAAAAAAAAAAAAAAAAAAAAAAAAAAAAAAAAAAAAAAAAAAAAAAAAAAAAAAAAAAAAAAAAAAAAAAAAAAAAAAAAAAAAAAAAAAAAAAAAAAAAAAAAAAAAAAAAAAAAAAAAAAAAAAAAAAAAAAAAAAAAAAAAAAAAAAAAAAAAAAAAAAAAAAAAAAAAAAAAAAAAAAAAAAAAAAAAAAAAAAAAAAAAAAAAAAAAAAAAAAAAAAAAAAAAAAAAAAAAAAAAAAAAAAAAAAAAAAAAAAAAAAAAAAAAAAAAAAAAAAAAAAAAAAAAAAAAAAAAAAAAAAAAAAAAAAAAAAAAAAAAAAAAAAAAAAAAAAAAAAAAAAAAAAAAAAAAAAAAAAAAAAAAAAAAAAAAAAAAAAAAAAAAAAAAAAAAAAAAAAAAAAAAAAAAAAAAAAAAAAAAAAAAAAAAAAAAAAAAAAAAAAAAAAAAAAAAAAAAAAAAAAAAAAAAAAAAAAAAAAAAAAAAAAAAAAAAAAAAAAAAAAAAAAAAAAAAAAAAAAAAAAAAAAAAAAAAAAAAAAAAAAAAAAAAAAAAAAAAAAAAAAAAAAAAAAAAAAAAAAAAAAAAAAAAAAAAAAAAAAAAAAAAAAAAAAAAAAAAAAAAAAAAAAAAAAAAAAAAAAAAAAAAAAAAAAAAAAAAAAAAAAAAAAAAAAAAAAAAAAAAAAAAAAAAAAAAAAAAAAAAAAAAAAAAAAAAAAAAAAAAAAAAAAAAAAAAAAAAAAAAAAAAAAAAAAAAAAAAAAAAAAAAAAAAAAAAAAAAAAAAAAAAAAAAAAAAAAAAAAAAAAAAAAAAAAAAAAAAAAAAAAAAAAAAAAAAAAAAAAAAAAAAAAAAAAAAAAAAAAAAAAAAAAAAAAAAAAAAAAAAAAAAAAAAAAAAAAAAAAAAAAAAAAAAAAAAAAAAAAAAAAAAAAAAAAAAAAAAAAAAAAAAAAAAAAAAAAAAAAAAAAAAAAAAAAAAAAAAAAAAAAAAAAAAAAAAAAAAAAAAAAAAAAAAAAAAAAAAAAAAAAAAAAAAAAAAAAAAAAAAAAAAAAAAAAAAAAAAAAAAAAAAAAAAAAAAAAAAAAAAAAAAAAAAAAAAAAAAAAAAAAAAAAAAAAAAAAAAAAAAAAAAAAAAAAAAAAAAAAAAAAAAAAAAAAAAAAAAAAAAAAAAAAAAAAAAAAAAAAAAAAAAAAAAAAAAAAAAAAAAAAAAAAAAAAAAAAAAAAAAAAAAAAAAAAAAAAAAAAAAAAAAAAAAAAAAAAAAAAAAAAAAAAAAAAAAAAAAAAAAAAAAAAAAAAAAAAAAAAAAAAAAAAAAAAAAAAAAAAAAAAAAAAAAAAAAAAAAAAAAAAAAAAAAAAAAAAAAAAAAAAAAAAAAAAAAAAAAAAAAAAAAAAAAAAAAAAAAAAAAAAAAAAAAAAAAAAAAAAAAAAAAAAAAAAAAAAAAAAAAAAAAAAAAAAAAAAAAAAAAAAAAAAAAAAAAAAAAAAAAAAAAAAAAAAAAAAAAAAAAAAAAAAAAAAAAAAAAAAAAAAAAAAAAAAAAAAAAAAAAAAAAAAAAAAAAAAAAAAAAAAAAAAAAAAAAAAAAAAAAAAAAAAAAAAAAAAAAAAAAAAAAAAAAAAAAAAAAAAAAAAAAAAAAAAAAAAAAAAAAAAAAAAAAAAAAAAAAAAAAAAAAAAAAAAAAAAAAAAAAAAAAAAAAAAAAAAAAAAAAAAAAAAAAAAAAAAAAAAAAAAAAAAAAAAAAAAAAAAAAAAAAAAAAAAAAAAAAAAAAAAAAAAAAAAAAAAAAAAAAAAAAAAAAAAAAAAAAAAAAAAAAAAAAAAAAAAAAAAAAAAAAAAAAAAAAAAAAAAAAAAAAAAAAAAAAAAAAAAAAAAAAAAAAAAAAAAAAAAAAAAAAAAAAAAAAAAAAAAAAAAAAAAAAAAAAAAAAAAAAAAAAAAAAAAAAAAAAAAAAAAAAAAAAAAAAAAAAAAAAAAAAAAAAAAAAAAAAAAAAAAAAAAAAAAAAAAAAAAAAAAAAAAAAAAAAAAAAAAAAAAAAAAAAAAAAAAAAAAAAAAAAAAAAAAAAAAAAAAAAAAAAAAAAAAAAAAAAAAAAAAAAAAAAAAAAAAAAAAAAAAAAAAAAAAAAAAAAAAAAAAAAAAAAAAAAAAAAAAAAAAAAAAAAAAAAAAAAAAAAAAAAAAAAAAAAAAAAAAAAAAAAAAAAAAAAAAAAAAAAAAAAAAAAAAAAAAAAAAAAAAAAAAAAAAAAAAAAAAAAAAAAAAAAAAAAAAAAAAAAAAAAAAAAAAAAAAAAAAAAAAAAAAAAAAAAAAAAAAAAAAAAAAAAAAAAAAAAAAAAAAAAAAAAAAAAAAAAAAAAAAAAAAAAAAAAAAAAAAAAAAAAAAAAAAAAAAAAAAAAAAAAAAAAAAAAAAAAAAAAAAAAAA9lkBAETKDLmQpeGHfTVGW/FKmQqao7KG9hS6+OLoTOZ9I8/oWg6v1V7vulPmmTCdSdg+vKEG46NCBAkVEqP1SAEcBTFIGpikzl3A7iLuzkadB7bpeIPIqmDG3/wSnZAiXsruqvnnGmcR+PJxYSxV76bFyOosay8hqMAeNeK3p8s3J1BFaO0noNQKlSjzGDHPWLwwoiAFb7URXq7Lq2FD4tf66kfNwEXLAtonnjjTN2HIBsQo1pLOK6tIvlnjuNxbbVZjpXYMIOOYZ31TjNzZWjOlIRwMY8hAoUHv5AIkghm/416jB5GVwP4ydRO5F2/XgEMRrd0jZ1LnfdOEOTHhIcVF6Q8=</c2pa:manifest></metadata>
<path style="fill:#FFFFFF;" d="M40.725,25.759c-0.003-0.026-0.007-0.052-0.012-0.077V18.72c0-1.348-0.979-2.422-2.376-2.559
	l-7.274-0.535c-0.24-0.017-0.482,0.008-0.713,0.077c-0.898,0.265-1.822,0.325-2.704,0.202c0.106-0.299,0.174-0.616,0.174-0.95
	c0-0.614-0.194-1.214-0.496-1.621c-0.214-0.317-0.355-0.585-0.432-0.818c-0.08-0.246-0.215-0.457-0.374-0.648
	c0.965-0.463,1.639-1.446,1.639-2.592c0-0.605-0.189-1.2-0.496-1.623c-0.219-0.324-0.383-0.626-0.5-0.926
	c-0.082-0.209-0.202-0.394-0.342-0.559c0.103-0.082,0.199-0.175,0.286-0.278c0.345-0.41,0.511-0.942,0.461-1.476l-0.245-2.604
	c-0.103-1.087-1.051-1.881-2.146-1.807L13.848,0.886c-1.699,0.158-2.981,1.581-2.981,3.309c0,0.901,0.363,1.718,0.948,2.313
	l-1.74-0.135C8.967,6.29,8.017,7.105,7.926,8.202l-0.215,2.604c-0.008,0.091,0,0.181,0.004,0.272
	c-0.192,0.185-0.361,0.396-0.47,0.656c-0.164,0.391-0.3,0.646-0.458,0.854c-0.047,0.062-0.09,0.127-0.13,0.195
	c-0.275,0.471-0.427,1.008-0.427,1.512c0,1.213,0.709,2.228,1.741,2.658C7.9,17.06,7.821,17.162,7.77,17.284
	c-0.128,0.304-0.307,0.629-0.518,0.939c-0.024,0.036-0.048,0.072-0.07,0.11c-0.281,0.478-0.429,1.013-0.429,1.546
	c0,0.43,0.103,0.834,0.276,1.2H2c-1.104,0-2,0.896-2,2v1.506c0,1.104,0.896,2,2,2h14.582c1.104,0,2-0.896,2-2v-0.32
	c0.087,0.056,0.164,0.127,0.258,0.173c0.166,0.794,0.704,1.468,1.416,1.82c0.25,1.171,1.288,2.052,2.527,2.052h5.791
	c1.498,0.333,3.06,0.502,4.646,0.502c1.97,0,4.009-0.288,6.06-0.856C40.242,27.688,40.86,26.75,40.725,25.759z"/>
<g>
	<path d="M21.124,11.849c0.707,0,1.289-0.596,1.289-1.317c0-0.66-0.522-1.224-1.166-1.287L9.919,8.367l-0.215,2.604l11.327,0.878
		C21.062,11.849,21.093,11.849,21.124,11.849z M10.411,8.963L21.216,9.81c0.337,0.031,0.584,0.282,0.645,0.627H10.288L10.411,8.963z
		"/>
	<path d="M14.125,5.481c0.031,0,0.092,0,0.123,0l11.327-0.878L25.33,1.999L14.033,2.877c-0.675,0.063-1.166,0.628-1.166,1.317
		C12.867,4.916,13.419,5.481,14.125,5.481z M14.064,3.442l10.775-0.847l0.122,1.506H13.419C13.45,3.755,13.726,3.473,14.064,3.442z"
		/>
	<path d="M38.713,26.028v-7.309c0-0.314-0.215-0.534-0.523-0.564l-7.275-0.534c-1.381,0.408-2.824,0.47-4.205,0.157
		c-0.031,0-0.062,0-0.093,0c-0.276,0-0.522,0.25-0.522,0.533s0.185,0.502,0.461,0.564c1.197,0.188,2.363,0.314,3.531,0.346
		c0.122,0,0.245,0.126,0.245,0.252c0,0,0,0.031-0.032,0.031l-1.842,0.22c-0.061,0-0.122,0-0.183,0h-2.793
		c-0.399,0.031-0.738,0.314-0.86,0.69c-0.337,0.25-0.768,0.25-1.075,0c-0.215-0.158-0.46-0.252-0.706-0.252
		c-0.031,0-0.031,0-0.031,0l-0.123-0.438h-2.026c-0.338,0-0.583,0.25-0.583,0.596c0,0.344,0.246,0.596,0.583,0.596h7.275
		c0.154,0,0.276,0.126,0.276,0.314c0,0.156-0.122,0.282-0.276,0.282h-7.951c-0.338,0-0.614,0.282-0.614,0.596
		c0,0.344,0.276,0.596,0.614,0.596h7.429c0.153,0,0.276,0.156,0.276,0.314c0,0.156-0.123,0.282-0.276,0.282H21.37
		c-0.308,0-0.584,0.282-0.584,0.627c0,0.314,0.276,0.596,0.584,0.596h6.814c0.154,0,0.308,0.126,0.308,0.283
		c0,0.156-0.154,0.313-0.308,0.313h-5.402c-0.338,0-0.584,0.252-0.584,0.596c0,0.314,0.245,0.596,0.584,0.596h6.016
		c1.473,0.346,2.947,0.502,4.42,0.502c1.872,0,3.714-0.282,5.526-0.784H38.713z"/>
	<path d="M10.625,23.174L9.95,23.582v0.282l-0.368,0.22c-0.092,0.062-0.184,0.094-0.276,0.094H8.845v-0.22L8.6,23.801
		c-0.153-0.094-0.246-0.282-0.246-0.471l-0.245-0.156c-0.062-0.062-0.184-0.094-0.277-0.094H2v1.506h14.581V23.08h-5.679
		C10.81,23.08,10.718,23.111,10.625,23.174z"/>
	<path d="M9.091,15.175c0.46,0,0.829-0.376,0.829-0.879c0-0.156-0.031-0.344-0.153-0.502c-0.276-0.376-0.491-0.815-0.675-1.286
		c-0.184,0.44-0.399,0.879-0.706,1.286c-0.092,0.158-0.153,0.346-0.153,0.502C8.232,14.799,8.6,15.175,9.091,15.175z"/>
	<path d="M8.907,19.347c-0.092,0.156-0.154,0.344-0.154,0.533c0,0.47,0.368,0.848,0.86,0.848c0.46,0,0.829-0.377,0.829-0.848
		c0-0.188-0.031-0.376-0.153-0.533c-0.277-0.376-0.522-0.816-0.675-1.286C9.428,18.499,9.183,18.939,8.907,19.347z"/>
	<path d="M24.287,14.421c-0.093,0.157-0.154,0.346-0.154,0.534c0,0.47,0.368,0.846,0.859,0.846c0.46,0,0.829-0.376,0.829-0.846
		c0-0.188-0.061-0.376-0.154-0.502c-0.276-0.408-0.522-0.846-0.675-1.318C24.808,13.607,24.561,14.045,24.287,14.421z"/>
	<path d="M24.624,8.775c-0.123,0.126-0.184,0.314-0.184,0.502c0,0.47,0.399,0.878,0.86,0.878c0.46,0,0.859-0.408,0.859-0.878
		c0-0.188-0.061-0.376-0.153-0.502c-0.276-0.408-0.522-0.846-0.706-1.318C25.115,7.928,24.9,8.367,24.624,8.775z"/>
</g>
</svg>
