<?xml version="1.0" encoding="UTF-8"?>
<svg id="Layer_1" xmlns="http://www.w3.org/2000/svg" version="1.1" xmlns:xlink="http://www.w3.org/1999/xlink" viewBox="0 0 47.3 45.5"><metadata><c2pa:manifest xmlns:c2pa="http://c2pa.org/manifest">AAA0RGp1bWIAAAAeanVtZGMycGEAEQAQgAAAqgA4m3EDYzJwYQAAADQeanVtYgAAAEdqdW1kYzJtYQARABCAAACqADibcQN1cm46dXVpZDowNDAxZDJhNy05OTAxLTRjMDQtYTdkZi0zYTU4MGZhMTk5ZGQAAAABtGp1bWIAAAApanVtZGMyYXMAEQAQgAAAqgA4m3EDYzJwYS5hc3NlcnRpb25zAAAAANdqdW1iAAAAJmp1bWRjYm9yABEAEIAAAKoAOJtxA2MycGEuYWN0aW9ucwAAAACpY2JvcqFnYWN0aW9uc4GjZmFjdGlvbmtjMnBhLmVkaXRlZG1zb2Z0d2FyZUFnZW50bUFkb2JlIEZpcmVmbHlxZGlnaXRhbFNvdXJjZVR5cGV4U2h0dHA6Ly9jdi5pcHRjLm9yZy9uZXdzY29kZXMvZGlnaXRhbHNvdXJjZXR5cGUvY29tcG9zaXRlV2l0aFRyYWluZWRBbGdvcml0aG1pY01lZGlhAAAArGp1bWIAAAAoanVtZGNib3IAEQAQgAAAqgA4m3EDYzJwYS5oYXNoLmRhdGEAAAAAfGNib3KlamV4Y2x1c2lvbnOBomVzdGFydBjsZmxlbmd0aBlFsGRuYW1lbmp1bWJmIG1hbmlmZXN0Y2FsZ2ZzaGEyNTZkaGFzaFgg5idPRn9sBP8DakoYl1UbiNayrqJhFimbtQ2Ha50nBRNjcGFkSQAAAAAAAAAAAAAAAgtqdW1iAAAAJGp1bWRjMmNsABEAEIAAAKoAOJtxA2MycGEuY2xhaW0AAAAB32Nib3KoaGRjOnRpdGxlb0dlbmVyYXRlZCBJbWFnZWlkYzpmb3JtYXRtaW1hZ2Uvc3ZnK3htbGppbnN0YW5jZUlEeCx4bXA6aWlkOmI0YWVjNjEzLWNlY2YtNDAwNy05M2M2LWE3NmYzYTNhNWM5OW9jbGFpbV9nZW5lcmF0b3J4NkFkb2JlX0lsbHVzdHJhdG9yLzI5LjMgYWRvYmVfYzJwYS8wLjcuNiBjMnBhLXJzLzAuMjUuMnRjbGFpbV9nZW5lcmF0b3JfaW5mb4G/ZG5hbWVxQWRvYmUgSWxsdXN0cmF0b3JndmVyc2lvbmQyOS4z/2lzaWduYXR1cmV4GXNlbGYjanVtYmY9YzJwYS5zaWduYXR1cmVqYXNzZXJ0aW9uc4KiY3VybHgnc2VsZiNqdW1iZj1jMnBhLmFzc2VydGlvbnMvYzJwYS5hY3Rpb25zZGhhc2hYIEppwb3/qN5BMHi+JO3M+DE6wdFklTRWcaANawazN9SvomN1cmx4KXNlbGYjanVtYmY9YzJwYS5hc3NlcnRpb25zL2MycGEuaGFzaC5kYXRhZGhhc2hYIKSqDKfLv3WkAG6sLpKF1ipV27NVTCw6V7BkDRYjXXOLY2FsZ2ZzaGEyNTYAADAQanVtYgAAAChqdW1kYzJjcwARABCAAACqADibcQNjMnBhLnNpZ25hdHVyZQAAAC/gY2JvctKEWQzvogE4JBghglkGPTCCBjkwggQhoAMCAQICEBWN/yesI9K4JUtOYzceHZ4wDQYJKoZIhvcNAQELBQAwdTELMAkGA1UEBhMCVVMxIzAhBgNVBAoTGkFkb2JlIFN5c3RlbXMgSW5jb3Jwb3JhdGVkMR0wGwYDVQQLExRBZG9iZSBUcnVzdCBTZXJ2aWNlczEiMCAGA1UEAxMZQWRvYmUgUHJvZHVjdCBTZXJ2aWNlcyBHMzAeFw0yNDEwMTUwMDAwMDBaFw0yNTEwMTUyMzU5NTlaMIGrMRMwEQYDVQQDDApBZG9iZSBDMlBBMSgwJgYDVQQLDB9Db250ZW50IEF1dGhlbnRpY2l0eSBJbml0aWF0aXZlMRMwEQYDVQQKDApBZG9iZSBJbmMuMREwDwYDVQQHDAhTYW4gSm9zZTETMBEGA1UECAwKQ2FsaWZvcm5pYTELMAkGA1UEBhMCVVMxIDAeBgkqhkiG9w0BCQEWEWNhaS1vcHNAYWRvYmUuY29tMIIBIjANBgkqhkiG9w0BAQEFAAOCAQ8AMIIBCgKCAQEAwxDBgdB9PXLpMXPw5oNgYkFWDPP1aSfth9TZPINOtOQlhp1v4h+hMxZWFjkZ3RJRuoSBrsSSYBaEfiDMKisi/sOxuFHKBV//l1rv3SrjrixANXIlqjGdIYydaMaFa/5ovFz/m4+SUz0ccYzqw+vSAzuRySGnpgm8Gmj+SEJcL/GIHzqU9bUy3NsizY2oY28yj32rbkOqeADSM51OqIJKloEBFFexzMunzpU+K2sLqheoR8FJMaR0fGXa/gqRzhkiBFhwUhLPS9s6+TCnz09UZMlXbdG/iFKj3UPFUDjqh0wtFgcz24DrUlaWeiltKHouymBHuirzvmOG0VtSPepxOQIDAQABo4IBjDCCAYgwDAYDVR0TAQH/BAIwADAOBgNVHQ8BAf8EBAMCB4AwHgYDVR0lBBcwFQYJKoZIhvcvAQEMBggrBgEFBQcDBDCBjgYDVR0gBIGGMIGDMIGABgkqhkiG9y8BAgMwczBxBggrBgEFBQcCAjBlDGNZb3UgYXJlIG5vdCBwZXJtaXR0ZWQgdG8gdXNlIHRoaXMgTGljZW5zZSBDZXJ0aWZpY2F0ZSBleGNlcHQgYXMgcGVybWl0dGVkIGJ5IHRoZSBsaWNlbnNlIGFncmVlbWVudC4wXQYDVR0fBFYwVDBSoFCgToZMaHR0cDovL3BraS1jcmwuc3ltYXV0aC5jb20vY2FfN2E1YzNhMGM3MzExNzQwNmFkZDE5MzEyYmMxYmMyM2YvTGF0ZXN0Q1JMLmNybDA3BggrBgEFBQcBAQQrMCkwJwYIKwYBBQUHMAGGG2h0dHA6Ly9wa2ktb2NzcC5zeW1hdXRoLmNvbTAfBgNVHSMEGDAWgBRXKXoyTcz+5DVOwB8kc85zU6vfajANBgkqhkiG9w0BAQsFAAOCAgEAqrl6FLQ+c9LYaf0igyTgErNL9XmmieiT3ohKFevJ3BN7kWkZD1znbVw3XnX5tgQaKq+AiSCldNxYEKqU+Rq9Lr26GGglBSA0s/Ds2kw+2LlnTmojAHCH3CvVRbhGHHrashmnfgwmF1TSkaWk7NxEhbt9wQoiEMkLSQeM4S4Cu+176FzEdy+zzkDkRWqeSOQO/qG2WRto/vIq30ECf6v6FtazJI1CWIqhBK5oJioSNbLsCVJhar3Uca9D11ujeZW4k2jPCsnzriTmFqVftd3k2SXUQg7wQcQcXfKBItWZt8ztn0IYoZzJa1x9l9dvXKAJvNsDoz4uDerS8z9rzLsEQvzL1yPbTp4+/6mTTAWsoaDtmkZgm3X+sffPX3XzMFmfzIHiYfUja5nKK2bs4P71tit/1U/FD2xdlpzZSupRqCMGz+UTeXI8IrN5ZR/+F8rSsmRAStjnggz/wDucwcDlJbY4/RKq3BrAi4LamLMIfwo/dbL55TDlIOd7HCfmSgabc1WO0Kji3LW/VZnP9VG8WiUG+WqtN1OQIAZmFUOWdXQGLag+I1OaZ1BXJDNsJiXcg2TGNBSEPo44Akfn9MzFGKyB5UurMN4NH0qlamhrhKiV0+b73Fjx330P/frxBmzx5NpAQhNKksx+F4z1S8Ay1o2TBIkkeAFbDzy8f/FxuytZBqUwggahMIIEiaADAgECAhAMqLZUe4nm0gaJdc2Lm4niMA0GCSqGSIb3DQEBCwUAMGwxCzAJBgNVBAYTAlVTMSMwIQYDVQQKExpBZG9iZSBTeXN0ZW1zIEluY29ycG9yYXRlZDEdMBsGA1UECxMUQWRvYmUgVHJ1c3QgU2VydmljZXMxGTAXBgNVBAMTEEFkb2JlIFJvb3QgQ0EgRzIwHhcNMTYxMTI5MDAwMDAwWhcNNDExMTI4MjM1OTU5WjB1MQswCQYDVQQGEwJVUzEjMCEGA1UEChMaQWRvYmUgU3lzdGVtcyBJbmNvcnBvcmF0ZWQxHTAbBgNVBAsTFEFkb2JlIFRydXN0IFNlcnZpY2VzMSIwIAYDVQQDExlBZG9iZSBQcm9kdWN0IFNlcnZpY2VzIEczMIICIjANBgkqhkiG9w0BAQEFAAOCAg8AMIICCgKCAgEAtx8uvb0Js1xIbP4Mg65sAepReCWkgD6Jp7GyiGTa9ol2gfn5HfOV/HiYjZiOz+TuHFU+DXNad86xEqgVeGVMlvIHGe/EHcKBxvEDXdlTXB5zIEkfl0/SGn7J6vTX8MNybfSi95eQDUOZ9fjCaq+PBFjS5ZfeNmzi/yR+MsA0jKKoWarSRCFFFBpUFQWfAgLyXOyxOnXQOQudjxNj6Wu0X0IB13+IH11WcKcWEWXM4j4jh6hLy29Cd3EoVG3oxcVenMF/EMgD2tXjx4NUbTNB1/g9+MR6Nw5Mhp5k/g3atNExAxhtugC+T3SDShSEJfs2quiiRUHtX3RhOcK1s1OJgT5s2s9xGy5/uxVpcAIaK2KiDJXW3xxN8nXPmk1NSVu/mxtfapr4TvSJbhrU7UA3qhQY9n4On2sbH1X1Tw+7LTek8KCA5ZDghOERPiIp/Jt893qov1bE5rJkagcVg0Wqjh89NhCaBA8VyRt3ovlGyCKdNV2UL3bn5vdFsTk7qqmp9makz1/SuVXYxIf6L6+8RXOatXWaPkmucuLE1TPOeP7S1N5JToFCs80l2D2EtxoQXGCR48K/cTUR5zV/fQ+hdIOzoo0nFn77Y8Ydd2k7/x9BE78pmoeMnw6VXYfXCuWEgj6p7jpbLoxQMoWMCVzlg72WVNhJFlSw4aD8fc6ezeECAwEAAaOCATQwggEwMBIGA1UdEwEB/wQIMAYBAf8CAQAwNQYDVR0fBC4wLDAqoCigJoYkaHR0cDovL2NybC5hZG9iZS5jb20vYWRvYmVyb290ZzIuY3JsMA4GA1UdDwEB/wQEAwIBBjAUBgNVHSUEDTALBgkqhkiG9y8BAQcwVwYDVR0gBFAwTjBMBgkqhkiG9y8BAgMwPzA9BggrBgEFBQcCARYxaHR0cHM6Ly93d3cuYWRvYmUuY29tL21pc2MvcGtpL3Byb2Rfc3ZjZV9jcHMuaHRtbDAkBgNVHREEHTAbpBkwFzEVMBMGA1UEAxMMU1lNQy00MDk2LTMzMB0GA1UdDgQWBBRXKXoyTcz+5DVOwB8kc85zU6vfajAfBgNVHSMEGDAWgBSmHOFtVCRMqI9Icr9uqYzV5Owx1DANBgkqhkiG9w0BAQsFAAOCAgEAcc7lB4ym3C3cyOA7ZV4AkoGV65UgJK+faThdyXzxuNqlTQBlOyXBGFyevlm33BsGO1mDJfozuyLyT2+7IVxWFvW5yYMV+5S1NeChMXIZnCzWNXnuiIQSdmPD82TEVCkneQpFET4NDwSxo8/ykfw6Hx8fhuKz0wjhjkWMXmK3dNZXIuYVcbynHLyJOzA+vWU3sH2T0jPtFp7FN39GZne4YG0aVMlnHhtHhxaXVCiv2RVoR4w1QtvKHQpzfPObR53Cl74iLStGVFKPwCLYRSpYRF7J6vVS/XxW4LzvN2b6VEKOcvJmN3LhpxFRl3YYzW+dwnwtbuHW6WJlmjffbLm1MxLFGlG95aCz31X8wzqYNsvb9+5AXcv8Ll69tLXmO1OtsY/3wILNUEp4VLZTE3wqm3n8hMnClZiiKyZCS7L4E0mClbx+BRSMH3eVo6jgve41/fK3FQM4QCNIkpGs7FjjLy+ptC+JyyWqcfvORrFV/GOgB5hD+G5ghJcIpeigD/lHsCRYsOa5sFdqREhwIWLmSWtNwfLZdJ3dkCc7yRpm3gal6qRfTkYpxTNxxKyvKbkaJDoxR9vtWrC3iNrQd9VvxC3TXtuzoHbqumeqgcAqefWF9u6snQ4Q9FkXzeuJArNuSvPIhgBjVtggH0w0vm/lmCQYiC/Y12GeCxfgYlL33buiZnNpZ1RzdKFpdHN0VG9rZW5zgaFjdmFsWQ47MIIONzADAgEAMIIOLgYJKoZIhvcNAQcCoIIOHzCCDhsCAQMxDzANBglghkgBZQMEAgEFADCBgwYLKoZIhvcNAQkQAQSgdARyMHACAQEGCWCGSAGG/WwHATAxMA0GCWCGSAFlAwQCAQUABCAzotADL+Pu9sAfnJQyuoMFNab1kGmZ1c6SrDUkLxGVUQIRAJebXevyufWil36ERxLxoHIYDzIwMjUwMjI4MjAwNTQ4WgIJAKkMuq1su3LNoIILwDCCBQowggLyoAMCAQICEAwLL8d6eM+67WVWVMGaJAMwDQYJKoZIhvcNAQELBQAwYzELMAkGA1UEBhMCVVMxFzAVBgNVBAoTDkRpZ2lDZXJ0LCBJbmMuMTswOQYDVQQDEzJEaWdpQ2VydCBUcnVzdGVkIEc0IFJTQTQwOTYgU0hBMjU2IFRpbWVTdGFtcGluZyBDQTAeFw0yNDExMjAwMDAwMDBaFw0zNjAyMTkyMzU5NTlaMFsxCzAJBgNVBAYTAlVTMREwDwYDVQQKEwhEaWdpQ2VydDE5MDcGA1UEAxMwRUNDMjU2X1NIQTI1Nl9UaW1lc3RhbXBfUmVzcG9uZGVyX0Fkb2JlX05PVl8yMDI0MFkwEwYHKoZIzj0CAQYIKoZIzj0DAQcDQgAE0PwehfiBmKYqkEC8Tn6pFJnk5kkVmc8UgrcDPNrIlv0m12s5LUchFpsCFbPvDyY4VfQuH1CdtyBkcbH8yTPJXqOCAYswggGHMA4GA1UdDwEB/wQEAwIHgDAMBgNVHRMBAf8EAjAAMBYGA1UdJQEB/wQMMAoGCCsGAQUFBwMIMCAGA1UdIAQZMBcwCAYGZ4EMAQQCMAsGCWCGSAGG/WwHATAfBgNVHSMEGDAWgBS6FtltTYUvcyl2mi91jGogj57IbzAdBgNVHQ4EFgQU7NEcb3znoE3kMT+HAAjUrdR9NrswWgYDVR0fBFMwUTBPoE2gS4ZJaHR0cDovL2NybDMuZGlnaWNlcnQuY29tL0RpZ2lDZXJ0VHJ1c3RlZEc0UlNBNDA5NlNIQTI1NlRpbWVTdGFtcGluZ0NBLmNybDCBkAYIKwYBBQUHAQEEgYMwgYAwJAYIKwYBBQUHMAGGGGh0dHA6Ly9vY3NwLmRpZ2ljZXJ0LmNvbTBYBggrBgEFBQcwAoZMaHR0cDovL2NhY2VydHMuZGlnaWNlcnQuY29tL0RpZ2lDZXJ0VHJ1c3RlZEc0UlNBNDA5NlNIQTI1NlRpbWVTdGFtcGluZ0NBLmNydDANBgkqhkiG9w0BAQsFAAOCAgEAouzBIPJ5Ly2riyO3AI9tQ4JzBK4dJp7QreHOLbFvciUGXWb9Z/BNXbnmsm+iImfJmGpmyJq03rlSsBqlEiE2U4lYbRUT980Q/Q6RZPhMeD9NdCErR/3g9ZYCum1X2mNIL83CEUD9wsCM6gWQBPNXOUCDYz7PNXLySzhSnf3F+8zoaEL684jQ8teVDU+X7lEXtn4qADULETWDplVwHYNkyuzpLWA/hB/w/IFq+5x0IUSTLg+eBjY4mZzT52F8+hd4+wbtmlZYq70BgALK1tuy6oYPZLFufmi/oPf5cqkaDK1i0suCg0Gs7TwfjyrJHnDtUe3WyW8O1ARVZfhmxmlHOMeh71SzTS+YR44i63/QOM8XudnvWaqUlO5A7u3bEV75vriyzF4xxUsf49LLSHMZ0B8Di+AOUUblB9V8NcM9gohryBzXKGK5Kn5G+k7CiVO57Q6jShSmd+PbARK03V8FaCHeM0v3FfwOaztSsOWjTv81EwrUJG3DIPPFxlqiJmmJiB4SLx2hNZ0XT1gmtEIa8b4qHj+OaeP86nfya1WzbKBLhAUkSDwd/lYi2qBZYpmUVHj88CmL8k63eoO9plbReD62278tZKglJrGQzBap99w0dDfEM6pM4q927nzciOZPeUatzV3G3zWA8famfIIwruDR7UsQHSSrMM2/YIuo8hUwggauMIIElqADAgECAhAHNje3JFR82Ees/ShmKl5bMA0GCSqGSIb3DQEBCwUAMGIxCzAJBgNVBAYTAlVTMRUwEwYDVQQKEwxEaWdpQ2VydCBJbmMxGTAXBgNVBAsTEHd3dy5kaWdpY2VydC5jb20xITAfBgNVBAMTGERpZ2lDZXJ0IFRydXN0ZWQgUm9vdCBHNDAeFw0yMjAzMjMwMDAwMDBaFw0zNzAzMjIyMzU5NTlaMGMxCzAJBgNVBAYTAlVTMRcwFQYDVQQKEw5EaWdpQ2VydCwgSW5jLjE7MDkGA1UEAxMyRGlnaUNlcnQgVHJ1c3RlZCBHNCBSU0E0MDk2IFNIQTI1NiBUaW1lU3RhbXBpbmcgQ0EwggIiMA0GCSqGSIb3DQEBAQUAA4ICDwAwggIKAoICAQDGhjUGSbPBPXJJUVXHJQPE8pE3qZdRodbSg9GeTKJtoLDMg/la9hGhRBVCX6SI82j6ffOciQt/nR+eDzMfUBMLJnOWbfhXqAJ9/UO0hNoR8XOxs+4rgISKIhjf69o9xBd/qxkrPkLcZ47qUT3w1lbU5ygt69OxtXXnHwZljZQp09nsad/ZkIdGAHvbREGJ3HxqV3rwN3mfXazL6IRktFLydkf3YYMZ3V+0VAshaG43IbtArF+y3kp9zvU5EmfvDqVjbOSmxR3NNg1c1eYbqMFkdECnwHLFuk4fsbVYTXn+149zk6wsOeKlSNbwsDETqVcplicu9Yemj052FVUmcJgmf6AaRyBD40NjgHt1biclkJg6OBGz9vae5jtb7IHeIhTZgirHkr+g3uM+onP65x9abJTyUpURK1h0QCirc0PO30qhHGs4xSnzyqqWc0Jon7ZGs506o9UD4L/wojzKQtwYSH8UNM/STKvvmz3+DrhkKvp1KCRB7UK/BZxmSVJQ9FHzNklNiyDSLFc1eSuo80VgvCONWPfcYd6T/jnA+bIwpUzX6ZhKWD7TA4j+s4/TXkt2ElGTyYwMO1uKIqjBJgj5FBASA31fI7tk42PgpuE+9sJ0sj8eCXbsq11GdeJgo1gJASgADoRU7s7pXcheMBK9Rp6103a50g5rmQzSM7TNsQIDAQABo4IBXTCCAVkwEgYDVR0TAQH/BAgwBgEB/wIBADAdBgNVHQ4EFgQUuhbZbU2FL3MpdpovdYxqII+eyG8wHwYDVR0jBBgwFoAU7NfjgtJxXWRM3y5nP+e6mK4cD08wDgYDVR0PAQH/BAQDAgGGMBMGA1UdJQQMMAoGCCsGAQUFBwMIMHcGCCsGAQUFBwEBBGswaTAkBggrBgEFBQcwAYYYaHR0cDovL29jc3AuZGlnaWNlcnQuY29tMEEGCCsGAQUFBzAChjVodHRwOi8vY2FjZXJ0cy5kaWdpY2VydC5jb20vRGlnaUNlcnRUcnVzdGVkUm9vdEc0LmNydDBDBgNVHR8EPDA6MDigNqA0hjJodHRwOi8vY3JsMy5kaWdpY2VydC5jb20vRGlnaUNlcnRUcnVzdGVkUm9vdEc0LmNybDAgBgNVHSAEGTAXMAgGBmeBDAEEAjALBglghkgBhv1sBwEwDQYJKoZIhvcNAQELBQADggIBAH1ZjsCTtm+YqUQiAX5m1tghQuGwGC4QTRPPMFPOvxj7x1Bd4ksp+3CKDaopafxpwc8dB+k+YMjYC+VcW9dth/qEICU0MWfNthKWb8RQTGIdDAiCqBa9qVbPFXONASIlzpVpP0d3+3J0FNf/q0+KLHqrhc1DX+1gtqpPkWaeLJ7giqzl/Yy8ZCaHbJK9nXzQcAp876i8dU+6WvepELJd6f8oVInw1YpxdmXazPByoyP6wCeCRK6ZJxurJB4mwbfeKuv2nrF5mYGjVoarCkXJ38SNoOeY+/umnXKvxMfBwWpx2cYTgAnEtp/Nh4cku0+jSbl3ZpHxcpzpSwJSpzd+k1OsOx0ISQ+UzTl63f8lY5knLD0/a6fxZsNBzU+2QJshIUDQtxMkzdwdeDrknq3lNHGS1yZr5Dhzq6YBT70/O3itTK37xJV77QpfMzmHQXh6OOmc4d0j/R0o08f56PGYX/sr2H7yRp11LB4nLCbbbxV7HhmLNriT1ObyF5lZynDwN7+YAN8gFk8n+2BnFqFmut1VwDophrCYoCvtlUG3OtUVmDG0YgkPCr2B2RP+v6TR81fZvAT6gt4y3wSJ8ADNXcL50CN/AAvkdgIm2fBldkKmKYcJRyvmfxqkhQ/8mJb2VVQrH4D6wPIOK+XW+6kvRBVK5xMOHds3OBqhK/bt1nz8MYIBuTCCAbUCAQEwdzBjMQswCQYDVQQGEwJVUzEXMBUGA1UEChMORGlnaUNlcnQsIEluYy4xOzA5BgNVBAMTMkRpZ2lDZXJ0IFRydXN0ZWQgRzQgUlNBNDA5NiBTSEEyNTYgVGltZVN0YW1waW5nIENBAhAMCy/HenjPuu1lVlTBmiQDMA0GCWCGSAFlAwQCAQUAoIHRMBoGCSqGSIb3DQEJAzENBgsqhkiG9w0BCRABBDAcBgkqhkiG9w0BCQUxDxcNMjUwMjI4MjAwNTQ4WjArBgsqhkiG9w0BCRACDDEcMBowGDAWBBT3EwJUZBucztJRLWLFv58phIz8+DAvBgkqhkiG9w0BCQQxIgQgoEW6KaC9SdRIP/2ApIIVOQTVzFAsOmiucrVz4PrsSR4wNwYLKoZIhvcNAQkQAi8xKDAmMCQwIgQguXomaB0Y6bl8Yz74SDlkVXWXltpQQ0Qsj4zN5SfgAKkwCgYIKoZIzj0EAwIESDBGAiEApqnE9YaPRaolIyxL3ZdIIpr3YR616UctNAI2KkTRbkYCIQClOmaKUfK7UTuX4KcHeK6HG+YHAmJVKIm/PHjhYzdbPWNwYWRZE4IAAAAAAAAAAAAAAAAAAAAAAAAAAAAAAAAAAAAAAAAAAAAAAAAAAAAAAAAAAAAAAAAAAAAAAAAAAAAAAAAAAAAAAAAAAAAAAAAAAAAAAAAAAAAAAAAAAAAAAAAAAAAAAAAAAAAAAAAAAAAAAAAAAAAAAAAAAAAAAAAAAAAAAAAAAAAAAAAAAAAAAAAAAAAAAAAAAAAAAAAAAAAAAAAAAAAAAAAAAAAAAAAAAAAAAAAAAAAAAAAAAAAAAAAAAAAAAAAAAAAAAAAAAAAAAAAAAAAAAAAAAAAAAAAAAAAAAAAAAAAAAAAAAAAAAAAAAAAAAAAAAAAAAAAAAAAAAAAAAAAAAAAAAAAAAAAAAAAAAAAAAAAAAAAAAAAAAAAAAAAAAAAAAAAAAAAAAAAAAAAAAAAAAAAAAAAAAAAAAAAAAAAAAAAAAAAAAAAAAAAAAAAAAAAAAAAAAAAAAAAAAAAAAAAAAAAAAAAAAAAAAAAAAAAAAAAAAAAAAAAAAAAAAAAAAAAAAAAAAAAAAAAAAAAAAAAAAAAAAAAAAAAAAAAAAAAAAAAAAAAAAAAAAAAAAAAAAAAAAAAAAAAAAAAAAAAAAAAAAAAAAAAAAAAAAAAAAAAAAAAAAAAAAAAAAAAAAAAAAAAAAAAAAAAAAAAAAAAAAAAAAAAAAAAAAAAAAAAAAAAAAAAAAAAAAAAAAAAAAAAAAAAAAAAAAAAAAAAAAAAAAAAAAAAAAAAAAAAAAAAAAAAAAAAAAAAAAAAAAAAAAAAAAAAAAAAAAAAAAAAAAAAAAAAAAAAAAAAAAAAAAAAAAAAAAAAAAAAAAAAAAAAAAAAAAAAAAAAAAAAAAAAAAAAAAAAAAAAAAAAAAAAAAAAAAAAAAAAAAAAAAAAAAAAAAAAAAAAAAAAAAAAAAAAAAAAAAAAAAAAAAAAAAAAAAAAAAAAAAAAAAAAAAAAAAAAAAAAAAAAAAAAAAAAAAAAAAAAAAAAAAAAAAAAAAAAAAAAAAAAAAAAAAAAAAAAAAAAAAAAAAAAAAAAAAAAAAAAAAAAAAAAAAAAAAAAAAAAAAAAAAAAAAAAAAAAAAAAAAAAAAAAAAAAAAAAAAAAAAAAAAAAAAAAAAAAAAAAAAAAAAAAAAAAAAAAAAAAAAAAAAAAAAAAAAAAAAAAAAAAAAAAAAAAAAAAAAAAAAAAAAAAAAAAAAAAAAAAAAAAAAAAAAAAAAAAAAAAAAAAAAAAAAAAAAAAAAAAAAAAAAAAAAAAAAAAAAAAAAAAAAAAAAAAAAAAAAAAAAAAAAAAAAAAAAAAAAAAAAAAAAAAAAAAAAAAAAAAAAAAAAAAAAAAAAAAAAAAAAAAAAAAAAAAAAAAAAAAAAAAAAAAAAAAAAAAAAAAAAAAAAAAAAAAAAAAAAAAAAAAAAAAAAAAAAAAAAAAAAAAAAAAAAAAAAAAAAAAAAAAAAAAAAAAAAAAAAAAAAAAAAAAAAAAAAAAAAAAAAAAAAAAAAAAAAAAAAAAAAAAAAAAAAAAAAAAAAAAAAAAAAAAAAAAAAAAAAAAAAAAAAAAAAAAAAAAAAAAAAAAAAAAAAAAAAAAAAAAAAAAAAAAAAAAAAAAAAAAAAAAAAAAAAAAAAAAAAAAAAAAAAAAAAAAAAAAAAAAAAAAAAAAAAAAAAAAAAAAAAAAAAAAAAAAAAAAAAAAAAAAAAAAAAAAAAAAAAAAAAAAAAAAAAAAAAAAAAAAAAAAAAAAAAAAAAAAAAAAAAAAAAAAAAAAAAAAAAAAAAAAAAAAAAAAAAAAAAAAAAAAAAAAAAAAAAAAAAAAAAAAAAAAAAAAAAAAAAAAAAAAAAAAAAAAAAAAAAAAAAAAAAAAAAAAAAAAAAAAAAAAAAAAAAAAAAAAAAAAAAAAAAAAAAAAAAAAAAAAAAAAAAAAAAAAAAAAAAAAAAAAAAAAAAAAAAAAAAAAAAAAAAAAAAAAAAAAAAAAAAAAAAAAAAAAAAAAAAAAAAAAAAAAAAAAAAAAAAAAAAAAAAAAAAAAAAAAAAAAAAAAAAAAAAAAAAAAAAAAAAAAAAAAAAAAAAAAAAAAAAAAAAAAAAAAAAAAAAAAAAAAAAAAAAAAAAAAAAAAAAAAAAAAAAAAAAAAAAAAAAAAAAAAAAAAAAAAAAAAAAAAAAAAAAAAAAAAAAAAAAAAAAAAAAAAAAAAAAAAAAAAAAAAAAAAAAAAAAAAAAAAAAAAAAAAAAAAAAAAAAAAAAAAAAAAAAAAAAAAAAAAAAAAAAAAAAAAAAAAAAAAAAAAAAAAAAAAAAAAAAAAAAAAAAAAAAAAAAAAAAAAAAAAAAAAAAAAAAAAAAAAAAAAAAAAAAAAAAAAAAAAAAAAAAAAAAAAAAAAAAAAAAAAAAAAAAAAAAAAAAAAAAAAAAAAAAAAAAAAAAAAAAAAAAAAAAAAAAAAAAAAAAAAAAAAAAAAAAAAAAAAAAAAAAAAAAAAAAAAAAAAAAAAAAAAAAAAAAAAAAAAAAAAAAAAAAAAAAAAAAAAAAAAAAAAAAAAAAAAAAAAAAAAAAAAAAAAAAAAAAAAAAAAAAAAAAAAAAAAAAAAAAAAAAAAAAAAAAAAAAAAAAAAAAAAAAAAAAAAAAAAAAAAAAAAAAAAAAAAAAAAAAAAAAAAAAAAAAAAAAAAAAAAAAAAAAAAAAAAAAAAAAAAAAAAAAAAAAAAAAAAAAAAAAAAAAAAAAAAAAAAAAAAAAAAAAAAAAAAAAAAAAAAAAAAAAAAAAAAAAAAAAAAAAAAAAAAAAAAAAAAAAAAAAAAAAAAAAAAAAAAAAAAAAAAAAAAAAAAAAAAAAAAAAAAAAAAAAAAAAAAAAAAAAAAAAAAAAAAAAAAAAAAAAAAAAAAAAAAAAAAAAAAAAAAAAAAAAAAAAAAAAAAAAAAAAAAAAAAAAAAAAAAAAAAAAAAAAAAAAAAAAAAAAAAAAAAAAAAAAAAAAAAAAAAAAAAAAAAAAAAAAAAAAAAAAAAAAAAAAAAAAAAAAAAAAAAAAAAAAAAAAAAAAAAAAAAAAAAAAAAAAAAAAAAAAAAAAAAAAAAAAAAAAAAAAAAAAAAAAAAAAAAAAAAAAAAAAAAAAAAAAAAAAAAAAAAAAAAAAAAAAAAAAAAAAAAAAAAAAAAAAAAAAAAAAAAAAAAAAAAAAAAAAAAAAAAAAAAAAAAAAAAAAAAAAAAAAAAAAAAAAAAAAAAAAAAAAAAAAAAAAAAAAAAAAAAAAAAAAAAAAAAAAAAAAAAAAAAAAAAAAAAAAAAAAAAAAAAAAAAAAAAAAAAAAAAAAAAAAAAAAAAAAAAAAAAAAAAAAAAAAAAAAAAAAAAAAAAAAAAAAAAAAAAAAAAAAAAAAAAAAAAAAAAAAAAAAAAAAAAAAAAAAAAAAAAAAAAAAAAAAAAAAAAAAAAAAAAAAAAAAAAAAAAAAAAAAAAAAAAAAAAAAAAAAAAAAAAAAAAAAAAAAAAAAAAAAAAAAAAAAAAAAAAAAAAAAAAAAAAAAAAAAAAAAAAAAAAAAAAAAAAAAAAAAAAAAAAAAAAAAAAAAAAAAAAAAAAAAAAAAAAAAAAAAAAAAAAAAAAAAAAAAAAAAAAAAAAAAAAAAAAAAAAAAAAAAAAAAAAAAAAAAAAAAAAAAAAAAAAAAAAAAAAAAAAAAAAAAAAAAAAAAAAAAAAAAAAAAAAAAAAAAAAAAAAAAAAAAAAAAAAAAAAAAAAAAAAAAAAAAAAAAAAAAAAAAAAAAAAAAAAAAAAAAAAAAAAAAAAAAAAAAAAAAAAAAAAAAAAAAAAAAAAAAAAAAAAAAAAAAAAAAAAAAAAAAAAAAAAAAAAAAAAAAAAAAAAAAAAAAAAAAAAAAAAAAAAAAAAAAAAAAAAAAAAAAAAAAAAAAAAAAAAAAAAAAAAAAAAAAAAAAAAAAAAAAAAAAAAAAAAAAAAAAAAAAAAAAAAAAAAAAAAAAAAAAAAAAAAAAAAAAAAAAAAAAAAAAAAAAAAAAAAAAAAAAAAAAAAAAAAAAAAAAAAAAAAAAAAAAAAAAAAAAAAAAAAAAAAAAAAAAAAAAAAAAAAAAAAAAAAAAAAAAAAAAAAAAAAAAAAAAAAAAAAAAAAAAAAAAAAAAAAAAAAAAAAAAAAAAAAAAAAAAAAAAAAAAAAAAAAAAAAAAAAAAAAAAAAAAAAAAAAAAAAAAAAAAAAAAAAAAAAAAAAAAAAAAAAAAAAAAAAAAAAAAAAAAAAAAAAAAAAAAAAAAAAAAAAAAAAAAAAAAAAAAAAAAAAAAAAAAAAAAAAAAAAAAAAAAAAAAAAAAAAAAAAAAAAAAAAAAAAAAAAAAAAAAAAAAAAAAAAAAAAAAAAAAAAAAAAAAAAAAAAAAAAAAAAAAAAAAAAAAAAAAAAAAAAAAAAAAAAAAAAAAAAAAAAAAAAAAAAAAAAAAAAAAAAAAAAAAAAAAAAAAAAAAAAAAAAAAAAAAAAAAAAAAAAAAAAAAAAAAAAAAAAAAAAAAAAAAAAAAAAAAAAAAAAAAAAAAAAAAAAAAAAAAAAAAAAAAAAAAAAAAAAAAAAAAAAAAAAAAAAAAAAAAAAAAAAAAAAAAAAAAAAAAAAAAAAAAAAAAAAAAAAAAAAAAAAAAAAAAAAAAAAAAAAAAAAAAAAAAAAAAAAAAAAAAAAAAAAAAAAAAAAAAAAAAAAAAAAAAAAAAAAAAAAAAAAAAAAAAAAAAAAAAAAAAAAAAAAAAAAAAAAAAAAAAAAAAAAAAAAAAAAAAAAAAAAAAAAAAAAAAAAAAAAAAAAAAAAAAAAAAAAAAAAAAAAAAAAAAAAAAAAAAAAAAAAAAAAAAAAAAAAAAAAAAAAAAAAAAAAAAAAAAAAAAAAAAAAAAAAAAAAAAAAAAAAAAAAAAAAAAAAAAAAAAAAAAAAAAAAAAAAAAAAAAAAAAAAAAAAAAAAAAAAAAAAAAAAAAAAAAAAAAAAAAAAAAAAAAAAAAAAAAAAAAAAAAAAAAAAAAAAAAAAAAAAAAAAAAAAAAAAAAAAAAAAAAAAAAAAAAAAAAAAAAAAAAAAAAAAAAAAAAAAAAAAAAAAAAAAAAAAAAAAAAAAAAAAAAAAAAAAAAAAAAAAAAAAAAAAAAAAAAAAAAAAAAAAAAAAAAAAAAAAAAAAAAAAAAAAAAAAAAAAAAAAAAAAAAAAAAAAAAAAAAAAAAAAAAAAAAAAAAAAAAAAAAAAAAAAAAAAAAAAAAAAAAAAAAAAAAAAAAAAAAAAAAAAAAAAAAAAAAAAAAAAAAAAAAAAAAAAAAAAAAAAAAAAAAAAAAAAAAAAAAAAAAAAAAAAAAAAAAAAAAAAAAAAAAAAAAAAAAAAAAAAAAAAAAAAAAAAAAAAAAAAAAAAAAAAAAAAAAAAAAAAAAAAAAAAAAAAAAAAAAAAAAAAAAAAAAAAAAAAAAAAAAAAAAAAAAAAAAAAAAAAAAAAAAAAAAAAAAAAAAAAAAAAAAAAAAAAAAAAAAAAAAAAAAAAAAAAAAAAAAAAAAAAAAAAAAAAAAAAAAAAAAAAAAAAAAAAAAAAAAAAAAAAAAAAAAAAAAAAAAAAAAAAAAAAAAAAAAAAAAAAAAAAAAAAAAAAAAAAAAAAAAAAAAAAAAAAAAAAAAAAAAAAAAAAAAAAAAAAAAAAAAAAAAAAAAAAAAAAAAAAAAAAAAAAAAAAAAAAAAAAAAAAAAAAAAAAAAAAAAAAAAAAAAAAAAAAAAAAAAAAAAAAAAAAAAAAAAAAAAAAAAAAAAAAAAAAAAAAAAAAAAAAAAAAAAAAAAAAAAAAAAAAAAAAAAAAAAAAAAAAAAAAAAAAAAAAAAAAAAAAAAAAAAAAAAAAAAAAAAAAAAAAAAAAAAAAAAAAAAAAAAAAAAAAAAAAAAAAAAAAAAAAAAAAAAAAAAAAAAAAAAAAAAAAAAAAAAAAAAAAAAAAAAAAAAAAAAAAAAAAAAAAAAAAAAAAAAAAAAAAAAAAAAAAAAAAAAAAAAAAAAAAAAAAAAAAAAAAAAAAAAAAAAAAAAAAAAAAAAAAAAAAAAAAAAAAAAAAAAAAAAAAAAAAAAAAAAAAAAAAAAAAAAAAAAAAAAAAAAAAAAAAAAAAAAAAAAAAAAAAAAAAAAAAAAAAAAAAAAAAAAAAAAAAAAAAAAAAAAAAAAAAAAAAAAAAAAAAAAAAAAAAAAAAAAAAAAAAAAAAAAAAAAAAAAAAAAAAAAAAAAAAAAAAAAAAAAAAAAAAAAAAAAAAAAAAAAAAAAAAAAAAAAAAAAAAAAAAAAAAAAAAAAAAAAAAAAAAAAAAAAAAAAAAAAAAAAAAAAAAAAAAAAAAAAAAAAAAAAAAAAAAAAAAAAAAAAAAAAAAAAAAAAAAAAAAAAAAAAAAAAAAAAAAAAAAAAAAAAAAAAAAAAAAAAAAAAAAAAAAAAAAAAAAAAAAAAAAAAAAAAAAAAAAAAAAAAAAAAAAAAAAAAAAAAAAAAAAAAAAAAAAAAAAAAAAAAAAAAAAAAAAAAAAAAAAAAAAAAAAAAAAAAAAAAAAAAAAAAAAAAAAAAAAAAAAAAAAAAAAAAAAAAAAAAAAAAAAAAAAAAAAAAAAAAAAAAAAAAAAAAAAAAAAAAAAAAAAAAAAAAAAAAAAAAAAAAAAAAAAAAAAAAAAAAAAAAAAAAAAAAAAAAAAAAAAAAAAAAAAAAAAAAAAAAAAAAAAAAAAAAAAAAAAAAAAAAPZZAQCasia09Ucs8ZxpaNah7WgoYS64233ZJ2nH7K51VQg/8pQ8/nK5Pf4NKKqX1SMV2VF8eN4JxkxX1EW+4yR7sF81VsdP+dSxhz6LZVcwuoE1jK6uWymrIN8HfmLrdpus2LW7pr8SWY5J6NPtHylmQdOvhvdZ8MHjPuYyJAVm+iJi8WdnXJPOX/+sZmSxNf4WTjnXHbutalCK5EwNDrQAVhbIAyWte1DfM6hpcz2zDBsHwk8bRnADIRljXeNRZkb0XLcyfMjVZ5k0SWpiFzDMoFl3Xwf7BfU9Poj/K+eYr3uVxdjl1KzqeG+jt7yEReRrKNh47GtEdz4zFvdZAGBUOG01</c2pa:manifest></metadata>
  <!-- Generator: Adobe Illustrator 29.3.1, SVG Export Plug-In . SVG Version: 2.1.0 Build 151)  -->
  <defs>
    <style>
      .st0 {
        fill: #fff;
      }
    </style>
  </defs>
  <path class="st0" d="M45.4,36c-.2-.3-.4-.5-.7-.7,0-.3,0-.6-.2-.9l-.9-1.6c-.4-.6-1-1-1.7-1s0,0-.1,0h-.3c.1-.1.2-.3.3-.4.3-.6.3-1.3,0-1.9l-1.3-2.4c-.4-.6-1-1-1.7-1s-.3,0-.4,0c-2.9.7-5.4,1.2-7.6,1.7,0,0,0,0,0-.1,2-.9,4.1-1.9,6.1-2.8.5-.2.9-.7,1.1-1.2s.1-1.1-.2-1.6l-1.1-2c-.3-.5-.7-.8-1.2-.9-.2,0-.3,0-.5,0,.4-.6.4-1.4,0-2l-1.8-3.2c-.3-.5-.8-.9-1.3-1,.2-.5.2-1.1-.1-1.6l-.9-1.6c-.3-.6-.9-1-1.6-1,0,0-.1,0-.2,0-.6,0-1.2.3-1.6.8l-1,1.2c-.1,0-.2-.1-.3-.2.9-1.5,1.6-2.7,2-3.3.4-.6.4-1.4,0-2l-2.4-4.1c-.4-.6-1-1-1.7-1s0,0,0,0c-.8,0-1.4.5-1.7,1.2-1.3,2.8-2.5,5.4-3.5,7.7,0,0,0,0,0,0-.2,0-.4,0-.5,0s-.5,0-.7.1c-.2,0-.4-.1-.8-.1s-.5,0-.8.2c.2-.8.3-1.5.4-1.7.2-1-.3-1.9-1.2-2.3-.2,0-.5-.1-.7-.1-.7,0-1.4.4-1.7,1l-3.6,6.4c-.1.2-.2.5-.2.8,0,0,0,0,0,.1-.2.2-.4.4-.6.6l-1.8,3.1s0,0,0,.1c0,0,0,0,0,0l-1.8,3.2c0,0,0,.2,0,.2,0,0-.1.1-.1.2l-.7,1.2c-.2.4-.3.9-.2,1.3-.4.2-.8.5-1,.9l-.9,1.6c-.3.6-.3,1.3,0,2,0,0,0,.2.1.3-.1.2-.2.4-.2.6-.1.6,0,1.2.3,1.8,0,.1.2.2.2.3-.3.5-.7,1.2-.3,2.3,0,0,0,0,0,0-.8,1.1-1.2,2.4-1.2,3.8,0,3.7,3,6.6,6.6,6.6s2-.2,2.9-.7c0,0,0,0,.1.1.2.2.6.5,1.1.5.2.2.5.4.9.5.3,0,.6.1.8.1.5,0,1-.2,1.4-.4,0,0,.1-.1.2-.2.9.5,2,1.1,3.4,1.9.3.2.6.3,1,.3h4.9s0,0,0,0c.2,0,.5,0,.7-.1.2,0,.4.1.7.1h4.7s0,0,0,0c.5,0,1-.2,1.3-.5.7.2,1.4.3,2.1.5.1,0,.3,0,.4,0h6.5s0,0,0,0c1,0,1.9-.8,2-1.8.1-1-.6-2-1.6-2.2-1.3-.3-2.5-.5-3.7-.7,2.6.3,5.5.7,8.7,1,0,0,.2,0,.2,0,.7,0,1.3-.3,1.7-.9.4-.6.4-1.4,0-2.1l-1.6-2.9Z"/>
  <g>
    <path d="M28.6,43.2s-.8-.4-1.7-.7c-1-.3-1.4-.3-2.1-.5-.8-.2-.6-.2-.9-.2-.3,0,0,.1-.2.3-.1.2-.3.3-.4.4,0,.1-.1,0,0,.1.2.1.3.1.7.4.2.1.4.3.6.4h4.7c-.3-.1-.7-.3-.8-.3Z"/>
    <path d="M25.3,12.4c-.2-.1-.4-.1-.6-.1s-.2,0-.3.1c-.1.1-.2.2-.3.3s-.3.1-.5.2c-.2,0-.3,0-.4,0s-.2,0-.3,0-.3,0-.4,0c0,0-.2.2-.3.2,0,0-.3.3-.3.3,0,0-.1.3-.2.4,0,.2,0,.2-.2.3s-.1.3-.1.4,0,.3,0,.3c0,0,0,.4.1.4,0,0,.2.2.2.3,0,0,.3,0,.4,0s.2,0,.3.1.4,0,.5,0,.2,0,.4-.2c.2-.1.3-.3.4-.4,0,0,.4-.3.5-.3s.3-.3.4-.3,0-.2.2-.4.3-.3.3-.4c0,0,.3-.2.3-.4,0-.2-.1-.2-.2-.3,0-.2,0-.1,0-.3,0-.2,0-.3,0-.4Z"/>
    <path d="M10.5,31.8c0,.2.3-.3.8-1.1,0,0,0,0,0,0,0,0,0,0,0,0,.1,0,.1,0,.3,0,.2,0,.2,0,.4,0s.3,0,.4,0,.2,0,.3.2,0,0,.2.1.3,0,.4,0c0,0,.2-.2.2-.3s.1-.1.2-.3c0-.1.1-.2.2-.3,0,0,.3-.2.4-.2s.2,0,.2,0,.3-.2.3-.3.2-.3.2-.3,0-.2,0-.3,0-.2,0-.3c0,0-.2-.2-.2-.2s-.3,0-.4,0-.2.2-.3.2,0,.2-.1.3,0,.2,0,.3-.2.3-.2.4-.2,0-.3.1-.2-.1-.2-.2,0-.2,0-.4c0-.2-.1-.4-.2-.5,0,0-.1,0-.3-.2,0,0-.1-.1-.1-.2,4-6.4,12.1-20,13.5-22.4l-2.4-4.1c-1.6,3.5-13.3,29-13.4,29.8Z"/>
    <path d="M12.1,38.1s.1,0,.2.2c0,0-.1.1-.1.1s-.2.2-.3.2-.2.1-.3.3-.2.1-.2.2c0,0,0,0,0,0-.4-.1-.7-.2-.8-.2.1.3,5.1,3.1,7.6,4.5h4.9c-1.2-.5-3-1.1-4.8-1.8,0,0,0-.1.2-.2,0,0,.2,0,.2,0,0,0,.2,0,.2,0s0,0,0-.1,0,0,0-.2c0,0-.1-.2-.2-.2,0,0-.2,0-.2,0s-.2,0-.3,0-.3,0-.4,0c0,0-.2.1-.2.2s0,.1-.1.3c0,0,0,0,0,0-1.1-.4-2.3-.9-3.3-1.2.2,0,.3-.2.4-.2.1,0,.1,0,.1-.2,0-.1,0-.4,0-.4s-.2-.2-.3-.2-.7-.3-.7-.3c0,0,0,0-.1,0,4,1.2,14.4,3.6,19.5,4.8h6.5c-8.4-1.7-26.7-5.4-27.6-5.4Z"/>
    <path d="M9.6,34c.2-.1.5,0,.5-.2,0-.1-.2-.2-.4-.4-.2-.1-.3,0-.5-.2-.3-.1-.2-.2-.5-.3-.3,0-.5,0-.7.1h0c-.3,0-.1,0-.4,0-.2.1-.4.1-.6.3-.2.2-.2.3,0,.5s0,.1.3.2c.2,0,.5,0,.7,0s.3.2.4.3c.2.1.1.2.3.2.1,0,.2-.1.3-.2s.2,0,.4-.1c.2-.1.2-.2.4-.3Z"/>
    <path d="M11.7,32c.1,0,.1,0,.4,0s.4,0,.5-.1c0,0,.1,0,.1-.2s0-.2-.2-.3-.3,0-.5,0c-.2,0-.1,0-.3.1s0,0-.2.2,0,0,0,.2c0,.1,0,0,.1.1Z"/>
    <polygon points="17.2 25.4 29.7 12.3 28.8 10.7 17.2 25.4"/>
    <path d="M11.5,25s0,.3,0,.4c0,.1,0,.2,0,.3s.3,0,.4,0,.3,0,.4,0c.1,0,.2-.3.2-.3,0,0,0-.4-.2-.5h0c-.2-.1-.3,0-.5,0-.2,0-.3.1-.3.2Z"/>
    <path d="M17.2,22.4c0,0-.2,0-.2.1,0,0,0,.1-.1.3s0,.2.2.3,0,0,.1.2c0,0,0,0,.1.1s.1,0,.2,0c0,0,.2-.2.2-.2s0-.1.2-.2c0,0,.1,0,.2-.1,0,0,.2-.3.2-.3s.2-.1.2-.1,0-.1,0-.3,0-.2-.1-.3c0-.1,0,0-.1-.2s-.2-.1-.2-.2-.2,0-.4.2-.3.3-.5.4c-.1.1,0,0-.1,0Z"/>
    <path d="M3.8,31.6c-.2-.1-.5,0-.7,0-.2.1-.1.3,0,.5s0,.2.3.2c.2,0,.6,0,.7-.2.1-.2,0-.5-.2-.6Z"/>
    <path d="M6.6,41.3c1.6,0,2.9-.8,3.8-2-.1,0-.2-.2-.3-.3,0-.2,0-.3-.1-.4,0,0-.2-.2-.3-.3-.1,0-.4,0-.5,0-.1,0-.4.2-.4,0s0-.2,0-.3c0-.1-.4,0-.4,0,0-.2.2-.2.3-.3,0,0-.1-.2,0,0,.2,0,0-.4,0-.5.1-.1.6-.3.6-.4s0-.2,0-.4c0-.2,0-.2-.3,0,0,0,0-.1-.1,0-.1,0-.4.1-.6,0-.2,0-.2-.2-.3-.3-.1,0-.2,0-.3,0s-.3-.2-.4-.3c-.2-.2-.3-.2-.5-.2s-.5,0-.8,0-.5,0-.6,0c-.1-.1-.1-.3,0-.4,0-.2.2-.2.3-.3,0-.2.4-.2.5-.4,0-.1,0-.3,0-.5s-.1-.4-.2-.6c0-.1-.3-.2-.3-.2,0,0-.1-.3-.2-.4,0,0,0,0,0,0-2,.5-3.5,2.3-3.5,4.5,0,2.6,2.1,4.6,4.6,4.6Z"/>
    <path d="M11,41.3c.1.1.2,0,.4,0,.2,0,.3.1.5.3.2.1.1.2.4.3s.4,0,.5,0c.1,0,0,0,0-.3,0-.2,0-.4-.2-.6-.2-.2-.4-.2-.7-.3-.3,0-.2,0-.4,0s-.4,0-.5,0c-.1,0,0,.1,0,.3s0,.3,0,.4Z"/>
    <path d="M18.1,10.8c-.2,0-.2,0-.4.1-.2,0-.3,0-.4,0-.2,0-.1,0-.3,0-.2,0-.4-.1-.5-.1s-.3.1-.4.3c-.1.1,0,0-.1.3s-.3.5-.3.6,0,.3-.3.5c-.2.3-.3.3-.5.5,0,0-.3.3-.3.4,0,0,0,.4,0,.5s.2.4.2.4c0,0,.2.3.3.4,0,0,.3.3.4.3s.3.1.5,0,0-.2.3-.4c.2-.2.2-.2.4-.4.2-.2.2-.2.3-.4.1-.2,0-.2.1-.4.1-.2.3-.4.4-.4,0,0,.2-.3.4-.4.2-.2.1,0,.2-.2,0-.2.1-.4.1-.5,0,0,.2-.2.2-.4,0-.2.1-.2,0-.4-.1-.2-.3-.2-.5-.3Z"/>
    <path d="M3.8,28.2c0,0-.2.1-.2.2,0,0-.3.2-.3.2s-.2.2-.3.3c0,.1,0,.2,0,.3s.2.3.3.3.2.3.2.4c0,.1,0,.2.2.3s.2,0,.3,0,.2,0,.3,0,.2-.1.4-.3c0,0,.1,0,.2,0,.7.8,1.3,1.5,1.7,1.4,0-.1-2-4.4-2.9-6.2l-.9,1.6c.3.5.6,1,.9,1.6Z"/>
    <path d="M4.5,31.2c-.1,0,0,.1,0,.3s0,.2.2.2c.1,0,.3,0,.4-.1,0-.1,0-.3-.2-.4s-.3,0-.4,0Z"/>
    <path d="M13.6,22.2c0-.1,0-.2,0-.4s0-.2-.2-.3c-.1,0-.2-.1-.4,0-.2,0-.1.1-.3.3s-.3.2-.5.4c-.2.2-.2.2-.3.5s.1.5.1.5h0s.1.3.2.4.2.2.3.2c0,0,.5,0,.6,0,0,0,.2,0,.3-.1s0-.2,0-.4-.1-.2,0-.4c0-.2.1-.4.2-.4,0,0,.1,0,.2-.2Z"/>
    <path d="M43.7,37c-7.2-.4-29.3-1.5-29.9-1.4.6.6,25.6,3.6,31.6,4.3l-1.6-2.9Z"/>
    <path d="M23.6,39.3c.2.1.4,0,.4,0s.6,0,.7,0,1,0,1.1,0,.9.1,1.1.2.4,0,.5,0,0-.2.1-.3c0-.2.1-.2,0-.3-.1-.2-.2-.2-.4-.3s-.3-.1-.5-.3-.2-.3-.3-.3c0,0-.9,0-1,0s-.3,0-.7,0-.7,0-1,0c0,0-.2.2-.2.3,0,0,0,.3,0,.4s-.1.2,0,.3c0,.2,0,.2.2.3Z"/>
    <path d="M16.3,37.3c0,.1.1.1.2.2,0,0,0,0,.2.1.1,0,.2,0,.3.1.2,0,.1,0,.2.2,0,0,.1.1.2.2,0,0,.2,0,.2,0s0,0,0-.2,0-.1,0-.3-.2-.2-.2-.2-.2-.2-.4-.3,0,0-.2,0-.2,0-.3,0,0,0-.3,0,0,0-.1.1c0,0,0,0,0,.2Z"/>
    <path d="M20.3,39.2c.2.1.6.2.7.2s.6,0,.9,0,.2-.2,0-.3-.1,0-.3-.2-.4-.2-.6-.3c-.2-.1-.2,0-.4,0-.2,0-.4,0-.5,0s0,.3,0,.4c0,0,0,.2.1.4Z"/>
    <path d="M7.2,31.4s0,0,0-.3c0,0,0,0,0,.1,0,.3.4.1.6.2.2,0,.7.2.9.2,0,0,0,0,0,0,0,0,0,0,0,0,0,0,0,0,0,0,0,0,0-.3.2-.8,1-4.1,5-22.9,5.3-24.1l-3.6,6.4c-.2,2.2-.6,4.9-.8,7.5,0,.1-.1.2-.2.2-.2,0-.4-.2-.6-.3-.2,0-.3,0-.3.1,0,0,0,0,0,.1-.1,0-.3,0-.5,0-.2,0-.3.2-.3.3s0,.3.1.4.1.6.1.7,0,.2-.2.4-.2.2-.4.3-.2,0-.3.3,0,.5,0,.6,0,.5,0,.6.2.3.3.3c0,0,.4.3.4.3,0,0,.4.2.7.2.2,0,.3.5.4.3-.1,1-.2,2-.3,2.9-.3,0-.6,0-1.1,0s-.8,0-1,0c-.3-2.1-.8-4.7-1.1-6.7l-.7,1.2c.6,2.8,2,8.4,2.1,8.6Z"/>
    <path d="M8.1,17.7c.2,0,.3.2.4.2s.2,0,.4,0,.1,0,.2-.3c.1-.4,0-.3.1-.4,0-.2-.2-.1,0-.3.2-.2,0,0,.2-.2.1-.1.3-.2.3-.3s0-.2,0-.4,0-.2,0-.4,0-.3,0-.4,0-.2,0-.3,0-.1,0-.2c0,0,0,0,0,0l-1.8,3.1s0,0,.2,0Z"/>
    <path d="M6.3,21.2c0,0,.6,0,.6,0,0,0,.1-.1.2-.2s0-.3,0-.4-.3-.3-.3-.4c0-.1-.2,0,0-.3s.2-.4.4-.6,0,0,.3-.4.2-.3.3-.5c0-.2.1-.2.1-.3s0,0,0,0l-1.8,3.2c.2,0,.3,0,.4,0Z"/>
    <path d="M15.3,33.6c.7,0,19.8-2.5,24.6-3.1l-1.3-2.4c-4.6,1-22.9,5.2-23.3,5.5Z"/>
    <path d="M16.9,31.6c1-.3,15.3-6.8,18.9-8.4l-1.1-2c-3.8,2.2-17,9.8-17.8,10.4Z"/>
    <path d="M11.7,33.9c.6-.2,17.5-12.9,21.3-15.8l-1.8-3.2c-3.2,3.1-20,19.2-19.5,19Z"/>
    <path d="M28.7,28.5c-.1-.2-.2-.3-.4-.4-.2-.2-.4-.2-.5-.2s-.3.1-.8.3c-.5.2-.7.4-1.1.5-.3.2-.2,0-.3.2-.1.1-.3.3-.3.4,0,0,0,.2.2.4s.3.3.5.3.4-.1.5-.1.5-.1.5-.1c0,0,0,.1.3.2s.4.1.6,0c.2,0,.2-.3.3-.4,0,0,.3-.1.4-.3.1-.2,0-.3,0-.5,0-.2.1,0,0-.3Z"/>
    <polygon points="21.8 34.8 42.8 35.3 41.9 33.8 21.8 34.8"/>
    <path d="M15.4,32.6c0,.1.2,0,.3.1.1,0,.3,0,.3.1s.4,0,.5,0c0,0,.3,0,.4,0s.2,0,.3-.1,0-.1,0-.3-.1,0-.3-.2c-.2-.1-.2-.1-.4-.2-.2,0-.2,0-.4-.1s-.2,0-.3,0-.2,0-.3.1c-.2,0,0,.2,0,.2s0,.2,0,.3Z"/>
    <path d="M12.4,35.4c.1,0,.2-.1.2-.3,0-.2,0-.2,0-.3,0-.1,0-.1-.3-.1-.3,0-.5,0-.9,0s-.6,0-.9,0-.1,0-.2.2,0,.4-.2.7-.3.2-.4.4c-.2.2-.2.2-.2.4,0,.2,0,.3,0,.4.1.2.1.1.4.2.2,0,.5,0,.6,0s.3,0,.6,0c.3,0,.4,0,.7-.1.3,0,.3,0,.4-.2s.2-.1.2-.3-.1-.3-.2-.4-.2,0-.3,0,0-.3,0-.4c0-.1.2,0,.3,0Z"/>
  </g>
</svg>