<?xml version="1.0" encoding="UTF-8"?>
<svg id="Layer_1" xmlns="http://www.w3.org/2000/svg" version="1.1" xmlns:xlink="http://www.w3.org/1999/xlink" viewBox="0 0 66.6 66.5">
  <!-- Generator: Adobe Illustrator 29.3.1, SVG Export Plug-In . SVG Version: 2.1.0 Build 151)  -->
  <defs>
    <style>
      .st0 {
        fill: none;
        stroke: #000;
        stroke-linecap: round;
        stroke-miterlimit: 10;
        stroke-width: 2px;
      }

      .st1 {
        fill: #fff;
      }

      .st2 {
        fill: red;
      }
    </style>
  </defs>
  <g>
    <polygon class="st1" points="4 39.9 14.1 3.5 52.5 3.5 62.6 40 33.3 62.1 4 39.9"/>
    <path d="M51.3,5l9.5,34.4-27.6,20.9L5.7,39.3,15.3,5h36.1M53.6,2H13L2.3,40.5l31,23.5,31-23.5L53.6,2h0Z"/>
    <path class="st1" d="M53.6,2l10.7,38.5-31,23.5L2.3,40.5,13,2h40.6M55.1,0H11.5l-.4,1.5L.4,39.9l-.4,1.3,1.1.8,31,23.5,1.2.9,1.2-.9,31-23.5,1.1-.8-.4-1.3L55.5,1.5l-.4-1.5h0Z"/>
  </g>
  <g>
    <line class="st0" x1="14.3" y1="18.9" x2="14.3" y2="40.9"/>
    <line class="st0" x1="14.3" y1="18.9" x2="24.7" y2="29.5"/>
    <line class="st0" x1="14.3" y1="18.9" x2="29.4" y2="17.3"/>
    <g>
      <circle class="st2" cx="29.7" cy="24.5" r="7.2"/>
      <circle class="st1" cx="33.8" cy="25.9" r="6.6"/>
      <circle class="st2" cx="37.9" cy="27.3" r="5.9"/>
      <circle class="st1" cx="42" cy="28.8" r="5.3"/>
      <circle class="st2" cx="46.1" cy="30.2" r="4.7"/>
      <circle class="st1" cx="50.2" cy="31.6" r="4.1"/>
      <path class="st0" d="M27.3,31.2c-3.7-1.3-5.7-5.4-4.4-9.2,1.3-3.7,5.4-5.7,9.2-4.4l19.5,10.1c2.1.7,3.2,3,2.5,5.2-.7,2.1-3,3.2-5.2,2.5l-21.6-4.2Z"/>
    </g>
  </g>
</svg>