<?xml version="1.0" encoding="UTF-8"?>
<svg id="Layer_1" xmlns="http://www.w3.org/2000/svg" version="1.1" xmlns:xlink="http://www.w3.org/1999/xlink" viewBox="0 0 66.6 66.5">
  <!-- Generator: Adobe Illustrator 29.3.1, SVG Export Plug-In . SVG Version: 2.1.0 Build 151)  -->
  <defs>
    <style>
      .st0 {
        fill: #004682;
      }

      .st1 {
        fill: #fff;
      }
    </style>
  </defs>
  <g>
    <polygon class="st1" points="4 39.9 14.1 3.5 52.5 3.5 62.6 40 33.3 62.1 4 39.9"/>
    <path d="M15.3,5h36.1l9.5,34.4-27.6,20.9L5.7,39.3,15.3,5M13,2L2.3,40.5l31,23.5,31-23.5L53.6,2H13Z"/>
    <path class="st1" d="M53.6,2l10.7,38.5-31,23.5L2.3,40.5,13,2h40.6M55.1,0H11.5l-.4,1.5L.4,39.9l-.4,1.3,1.1.8,31,23.5,1.2.9,1.2-.9,31-23.5,1.1-.8-.4-1.3L55.5,1.5l-.4-1.5h0Z"/>
  </g>
  <path class="st0" d="M32.8,39c-.3-.9-.4-1.2-.4-2.3,0-2.2,2.3-3.9,2.3-3.9,1.6-1.4,2.6-2.6,2.8-3.9.2-1.2-.3-2.7-.3-2.7.6.2.9.4,1.1.7.3.3.5.7.5.7.3-1,.3-1.8,0-2.6-.2-.8-.5-1.5-1.3-2.2-.9-.8-1.6-1-1.6-1,.2.4.3,1,.3,2.2-.1,1.2-.4,1.9-1.2,2.9-.7,1-2.3,2.2-3.1,3.5-.9,1.1-1.2,2.2-1.2,3.1,0,1.4.5,2.8.5,2.8-.5-.3-1.2-.9-1.6-1.6-.5-.9-.7-1.6-.7-3.1,0-1.2.5-3.1,1.4-4.3.7-.9,2.4-2.6,3.1-3.9.7-1.3.5-2,.5-2.6s-.3-1.3-.3-1.3c.4,0,.9.3,1,.5.3.3.5.5.5.5,0-.4.1-1.1,0-2-.3-1.4-.9-2.2-1.8-2.8-1-.8-1.8-.7-1.8-.7.4.5.7,1,.8,1.8.1.8.1,1.6-.3,2.6-.5,1.1-1.8,2.1-2.7,3.1s-1.8,2-2.5,3.3c-.8,1.6-.9,2.9-.6,4.5.3,1.9,1.4,3.1,1.4,3.1-.8-.3-1.4-.8-1.9-1.2-.5-.5-.7-1-.9-1.5l-5.1,3.5v5.2l13.7,11.6,13.8-11.6v-1.8l-13.7,11.5v-1.8l13.7-11.5v-1.6l-7.5-5c.1.5.3,1.8-.5,3.3-.9,1.9-3.1,3.5-3.9,3.9-.9.5-1.3,1-1.4,1.6,0,.3-.2.7,0,1.1h0c.9.2,1.6,1,1.6,2s-.9,2.1-2.1,2.1-2.1-.9-2.1-2.1c0-1.1.7-2,1.6-2.2h0Z"/>
</svg>