<?xml version="1.0" encoding="UTF-8"?>
<svg id="Layer_1" xmlns="http://www.w3.org/2000/svg" version="1.1" xmlns:xlink="http://www.w3.org/1999/xlink" viewBox="0 0 36 37.4">
  <!-- Generator: Adobe Illustrator 29.3.1, SVG Export Plug-In . SVG Version: 2.1.0 Build 151)  -->
  <defs>
    <style>
      .st0 {
        fill: #fff;
      }

      .st1 {
        fill: none;
      }

      .st2 {
        fill: #f6bd16;
      }
    </style>
  </defs>
  <path class="st0" d="M34.9,5.7l-.5-.7c-.6-.8-1.1-1.5-1.7-2.3-.6-.8-1.4-1.2-2.4-1.2-3.4,0-7,0-10.5,0,0,0,0,0-.1,0v-.4c0-.4-.4-.8-.8-.9-.4,0-.9.1-1.1.5l-.2.3c-.3.1-.5.3-.7.5-3.8,0-7.6,0-11.4,0h0c-1,0-1.8.4-2.4,1.2-.4.5-.7,1-1.1,1.6-.5.7-.9,1.3-1.4,2C.2,6.7,0,7.3,0,7.9c0,.4,0,.9,0,1.3,0,.4,0,.8,0,1.2,0,.8.2,2,1.1,3.1,0,2.6,0,5.2,0,7.8v.7C.4,22.5,0,23.3,0,24.2c0,.6,0,1.2,0,1.8,0,.9.4,1.7,1.1,2.1v6.4c0,1.7,1,2.8,2.8,2.8h28c1.7,0,2.8-1,2.8-2.8v-6.4c.7-.5,1.1-1.2,1.1-2.2,0-.6,0-1.2,0-1.7,0-1-.4-1.7-1.1-2.2,0-2.8,0-5.5,0-8.3.8-.9,1.3-2,1.3-3.3v-.6c0-.5,0-1.1,0-1.6h0c0-1.2-.3-2-1.1-2.6Z"/>
  <g>
    <path class="st1" d="M22.4,13.2c0,.3.2.6.2.9,0-.3.1-.6.2-1-.1,0-.2,0-.4,0Z"/>
    <path class="st1" d="M14.9,11.3c0-.1.1-.2.1-.4,0-.9,0-1.8,0-2.7h-3.2c0,.5,0,.9,0,1.4h.6c1.3,0,2,.8,2.5,1.6Z"/>
    <path class="st1" d="M21.6,11.2c.2.3.3.7.4,1,.3,0,.6,0,.9-.2,0-.3,0-.6.1-.9l.3-2.5.4.5c0-.1,0-.3,0-.4,0-.1,0-.3,0-.4h-3.2s0,0,0,.1c0,.1,0,.3,0,.4.2.4.4.8.5,1.1.2.4.4.9.6,1.3Z"/>
    <path class="st1" d="M4.2,23.6h1.1v-.7c0-.3-.1-.7-.2-1.1l-.6-3.2.8.8v-6.2h-1.1v10.4Z"/>
    <path class="st1" d="M15.3,12.4c.1.4.2.9.3,1.2,0,0,0,0,0,0,.1-.4.2-.8.3-1.2-.1-.1-.2-.2-.3-.3,0,.1-.2.2-.3.3Z"/>
    <path class="st1" d="M6.8,21c.9,1,1.5,1.6,2.1,2-.7-2.1-.7-4.1-.7-5.7,0-.7,0-1.4,0-1.8l-.5-2.5,2,1.5c.6.4,1,.9,1.3,1.3,0-.7.2-1.5.3-2.1,0-.2,0-.5.1-.7h0s0,0,0,0c0,0,0-.1,0-.2,0,0,0-.2,0-.2,0,0-.1-.1-.2-.2-1.1,1.3-2.9,1.6-4.3,0-.4.3-.5.6-.5,1.1,0,2.4,0,4.9,0,7.3l.4.4Z"/>
    <path class="st1" d="M19.8,7.2h12.4c0,0,0-.1,0-.1-.6-.8-1.2-1.7-1.8-2.5,0,0-.2-.1-.4-.1-3.6,0-7.3,0-11,0,0,.9.4,1.8.8,2.8Z"/>
    <path class="st1" d="M26.1,13.2c.4,1.5.4,2.9.3,3.2,0,.2,0,.5,0,.9,0,0,.1-.2.2-.3.3-.5.5-.8.8-1.1l1-.8.6,1.1c.2.5.4,1,.5,1.5,0-1.7,0-3.3,0-5,0-.3-.1-.5-.4-.7-.7.8-1.9,1.2-3,1Z"/>
    <path class="st1" d="M30.7,26.6c-.4,2.6-1.3,4.6-2.8,6.1-.6.6-1.3,1.2-2.1,1.6h5.9v-7.7c-.1,0-.2,0-.3,0h-.6Z"/>
    <path class="st1" d="M6.1,26.6c-.5,0-1.1,0-1.6,0-.3,0-.4,0-.4.4,0,2.3,0,4.7,0,7,0,0,0,.2,0,.3h7.4c-2.7-1-4.2-2.9-5.5-7.7Z"/>
    <path class="st1" d="M29.6,8.3c0,.8,0,1.5,0,2.2,0,.9.6,1.6,1.5,1.6.8,0,1.6-.5,1.7-1.4,0-.8,0-1.7,0-2.5-1.1,0-2.1,0-3.2,0Z"/>
    <path class="st1" d="M31.6,23.6v-10.3c-.4,0-.7,0-1.1,0v4.8l.3-1v6c0,.2,0,.4,0,.6h.7Z"/>
    <path class="st1" d="M6.3,10.8c0-.8,0-1.6,0-2.5h-3.2c0,.8,0,1.5,0,2.2,0,.9.7,1.5,1.6,1.6.8,0,1.6-.5,1.7-1.4Z"/>
    <path class="st1" d="M16.9,4.5c-3.7,0-7.4,0-11.1,0-.1,0-.3,0-.4.2-.6.8-1.1,1.5-1.7,2.3,0,0,0,.1-.1.2h12.5c0-.9.3-1.8.8-2.8Z"/>
    <path d="M33.6,7.2c0,0-.1-.2-.2-.2-.8-1.1-1.5-2.1-2.3-3.2-.2-.3-.4-.4-.8-.4-3.7,0-7.6,0-11.4,0l-.2-2.4-1.2,2.4c-4,0-8,0-11.9,0-.3,0-.6.1-.8.4-.8,1.2-1.7,2.3-2.5,3.5-.1.2-.2.4-.2.6,0,.9,0,1.7,0,2.6,0,.8.3,1.5.9,2,.2.2.2.3.2.5,0,3.4,0,6.8,0,10.2v.4c-.2,0-.3,0-.5,0-.4,0-.6.2-.6.6,0,.6,0,1.2,0,1.8,0,.4.2.5.6.6.2,0,.3,0,.5,0v8c0,.6.2.8.8.8h28c.6,0,.8-.2.8-.8v-8c.2,0,.3,0,.4,0,.5,0,.7-.2.7-.7,0-.6,0-1.1,0-1.7,0-.4-.2-.6-.6-.6-.2,0-.3,0-.4,0,0,0,0-.1,0-.2,0-3.5,0-6.9,0-10.4,0-.1,0-.3.2-.3.7-.6,1.1-1.3,1.1-2.3s0-1.5,0-2.2c0-.4,0-.8-.4-1ZM30.3,4.6c.6.8,1.2,1.7,1.8,2.5,0,0,0,0,0,.1h-12.4c-.4-1-.7-1.9-.8-2.8,3.7,0,7.4,0,11,0,.1,0,.3,0,.4.1ZM6.4,13.3c0-.5.1-.8.5-1.1,1.4,1.6,3.3,1.2,4.3,0,0,0,.1.1.2.2,0,0,0,.2,0,.2,0,0,0,.1,0,.2h0s0,0,0,0c0,.2,0,.5-.1.7-.1.7-.3,1.4-.3,2.1-.3-.4-.7-.9-1.3-1.3l-2-1.5.5,2.5c0,.4,0,1.1,0,1.8,0,1.6,0,3.6.7,5.7-.5-.4-1.1-1-2.1-2l-.4-.4c0-2.4,0-4.9,0-7.3ZM11.8,8.3h3.2c0,.9,0,1.8,0,2.7,0,.1,0,.2-.1.4-.5-.9-1.2-1.5-2.5-1.6h-.6c0-.5,0-.9,0-1.4ZM20.5,8.4s0,0,0-.1h3.2c0,.1,0,.3,0,.4,0,.1,0,.3,0,.4l-.4-.5-.3,2.5c0,.3,0,.6-.1.9-.3.1-.6.2-.9.2-.1-.3-.3-.6-.4-1-.2-.4-.4-.8-.6-1.3-.2-.4-.4-.8-.5-1.1,0-.1,0-.3,0-.4ZM22.4,13.2c.1,0,.2,0,.4,0,0,.4-.1.7-.2,1,0-.3-.1-.6-.2-.9ZM20.7,11.7c1.1,2.3,1,3.4.7,5.3,2.2-.5,2.2-2.3,2.6-5.8,1.7,2.3,1.4,5.2,1.4,5.2,0,0,.2,2.1-.7,3.7,1.9-.6,2.7-2.9,3.3-3.4,1.5,3,.5,6.9-1.4,8.7,3-.3,3.1-1.7,3.3-2.4.1,7.7-3.4,11.3-8.8,11.3s-.2,0-.3,0h-2.8c-8.1-.7-9.8-1-11.9-12.7,2,2.1,2.7,2.8,4.7,3-2.2-3.7-1.4-7.5-1.7-9.4,1.6,1.2,1.7,2.9,3.6,3.8-1.3-2.4-.7-4.1-.3-6,.1-.5.3-.9,0-2.3,2.7.1,1.9,4.4,3.4,5.6,2.6-5.7.2-7.9,2.3-11.8.2,2.3,1.6,4.8,2.7,7.2ZM15.6,13.6s0,0,0,0c0-.4-.2-.8-.3-1.2,0,0,.2-.2.3-.3.1.1.2.2.3.3,0,.4-.1.8-.3,1.2ZM5.3,19.4l-.8-.8.6,3.2c0,.4.1.7.2,1.1v.7h-1.1v-10.4h1.1v6.2ZM30.9,17l-.3,1v-4.8c.4,0,.7,0,1.1,0v10.3h-.7c0-.2,0-.4,0-.6v-6ZM29.4,17.9c-.1-.5-.3-1-.5-1.5l-.6-1.1-1,.8c-.3.2-.5.6-.8,1.1,0,0-.1.2-.2.3,0-.4,0-.7,0-.9,0-.4,0-1.7-.3-3.2,1.1.2,2.3-.2,3-1,.2.2.4.4.4.7,0,1.7,0,3.3,0,5ZM3.8,7c.6-.8,1.1-1.6,1.7-2.3,0-.1.3-.2.4-.2,3.6,0,7.3,0,11.1,0-.5,1-.7,1.9-.8,2.8H3.6c0,0,0-.2.1-.2ZM3.1,10.6c0-.7,0-1.5,0-2.2h3.2c0,.8,0,1.7,0,2.5,0,.8-.9,1.4-1.7,1.4-.9,0-1.5-.7-1.6-1.6ZM4.2,34c0-2.3,0-4.7,0-7,0-.3,0-.4.4-.4.5,0,1.1,0,1.6,0,1.3,4.7,2.8,6.7,5.5,7.7h-7.4c0,0,0-.2,0-.3ZM31.6,34.3h-5.9c.8-.4,1.5-.9,2.1-1.6,1.5-1.5,2.4-3.5,2.8-6.1h.6c0,0,.2,0,.3,0v7.7ZM32.9,10.8c0,.8-.9,1.4-1.7,1.4-.9,0-1.5-.8-1.5-1.6,0-.7,0-1.5,0-2.2h3.2c0,.8,0,1.7,0,2.5Z"/>
    <path class="st2" d="M15.7,16.3c-1.5-1.2-.7-5.5-3.4-5.6.3,1.4.1,1.9,0,2.3-.3,2-.9,3.6.3,6-1.9-.9-2-2.7-3.6-3.8.3,1.9-.5,5.7,1.7,9.4-1.9-.2-2.6-.9-4.7-3,2.2,11.6,3.9,12,11.9,12.7-.7-.1-4.8-.8-6.3-5.6,0-1.2-.1,1,3.9,1.2-2.5-4.1-1.8-3.3-1.6-5.6,1.1,1.5.2,1.7,3.1,2.9-.9-3,1.5-5,.9-8.5.7,1.5,3,1.3,2.8,8.5,1.9-2.2,2-.7,3-3,.1,1.3.7,2.9-1.9,5.7.7.2,1.8.3,3.5-.9-1.7,2.1-.1,2.1-4.5,5.3h0c0,0,.2,0,.3,0,5.4,0,9-3.6,8.8-11.3-.2.7-.3,2.1-3.3,2.4,1.8-1.9,2.8-5.7,1.4-8.7-.6.5-1.4,2.8-3.3,3.4.9-1.6.7-3.7.7-3.7,0,0,.3-2.9-1.4-5.2-.5,3.5-.5,5.3-2.6,5.8.3-2,.5-3-.7-5.3-1.1-2.4-2.5-4.9-2.7-7.2-2,3.9.3,6.2-2.3,11.8Z"/>
    <path class="st0" d="M25.4,29c-1.7,1.3-2.8,1.2-3.5.9,2.6-2.8,2-4.4,1.9-5.7-.9,2.3-1,.8-3,3,.1-7.2-2.2-7-2.8-8.5.6,3.5-1.8,5.5-.9,8.5-2.8-1.2-1.9-1.4-3.1-2.9-.2,2.3-.9,1.5,1.6,5.6-4-.1-3.9-2.3-3.9-1.2,1.5,4.8,5.6,5.5,6.3,5.6h2.8c4.4-3.3,2.8-3.3,4.5-5.3Z"/>
  </g>
</svg>