<?xml version="1.0" encoding="UTF-8"?>
<svg id="Layer_1" xmlns="http://www.w3.org/2000/svg" version="1.1" xmlns:xlink="http://www.w3.org/1999/xlink" viewBox="0 0 44.8 44.8">
  <!-- Generator: Adobe Illustrator 29.3.1, SVG Export Plug-In . SVG Version: 2.1.0 Build 151)  -->
  <defs>
    <style>
      .st0 {
        fill: #00af6b;
      }

      .st1 {
        fill: #fff;
      }

      .st2 {
        fill: none;
      }
    </style>
  </defs>
  <path class="st1" d="M22.4,0C10,0,0,10,0,22.4s10,22.4,22.4,22.4,22.4-10,22.4-22.4S34.8,0,22.4,0Z"/>
  <g>
    <circle cx="22.4" cy="22.4" r="3.6"/>
    <path class="st0" d="M22.4,34.4c-6.6,0-12-5.4-12-12s5.4-12,12-12,12,5.4,12,12-5.4,12-12,12ZM22.4,15.2c-4,0-7.2,3.2-7.2,7.2s3.2,7.2,7.2,7.2,7.2-3.2,7.2-7.2-3.2-7.2-7.2-7.2Z"/>
    <path class="st0" d="M22.4,42.8c-11.2,0-20.4-9.2-20.4-20.4S11.2,2,22.4,2s20.4,9.2,20.4,20.4-9.2,20.4-20.4,20.4ZM22.4,6.8c-8.6,0-15.6,7-15.6,15.6s7,15.6,15.6,15.6,15.6-7,15.6-15.6-7-15.6-15.6-15.6Z"/>
  </g>
  <g>
    <circle cx="22.4" cy="22.4" r="3.6"/>
    <circle class="st2" cx="22.4" cy="22.4" r="9.6"/>
    <circle class="st2" cx="22.4" cy="22.4" r="18"/>
  </g>
</svg>