<?xml version="1.0" encoding="UTF-8"?>
<svg id="Layer_1" xmlns="http://www.w3.org/2000/svg" version="1.1" xmlns:xlink="http://www.w3.org/1999/xlink" viewBox="0 0 62 62">
  <!-- Generator: Adobe Illustrator 29.3.1, SVG Export Plug-In . SVG Version: 2.1.0 Build 151)  -->
  <defs>
    <style>
      .st0 {
        stroke-miterlimit: 10;
      }

      .st0, .st1, .st2 {
        fill: none;
        stroke: #0056a4;
      }

      .st1, .st2 {
        stroke-linecap: round;
        stroke-linejoin: round;
      }

      .st2 {
        stroke-width: 3px;
      }
    </style>
  </defs>
  <path d="M13,3h36.1l9.5,34.4-27.6,20.9L3.4,37.3,13,3M10.7,0L0,38.5l31,23.5,31-23.5L51.3,0H10.7Z"/>
  <g>
    <polyline class="st0" points="26.1 15.8 31 13.5 36.1 15.9"/>
    <path class="st1" d="M29,9.5c0-1.1.9-2,2-2s2,.9,2,2-.9,2-2,2v2"/>
    <path class="st2" d="M36,15.5h0c-.3,2.5-2.4,4.5-5,4.5s-4.7-2-5-4.5h0c-5.2,0-9.4,3.9-10,8.9,0,.6.4,1.1,1,1.1h2.4c.6,0,1,.4,1,1v17c0,.6.4,1,1,1h19.1c.6,0,1-.4,1-1v-17c0-.6.4-1,1-1h2.4c.6,0,1.1-.5,1-1.1-.6-5-4.8-8.9-10-8.9Z"/>
  </g>
</svg>