<?xml version="1.0" encoding="UTF-8"?>
<svg id="Layer_1" xmlns="http://www.w3.org/2000/svg" version="1.1" xmlns:xlink="http://www.w3.org/1999/xlink" viewBox="0 0 66.6 66.5">
  <!-- Generator: Adobe Illustrator 29.3.1, SVG Export Plug-In . SVG Version: 2.1.0 Build 151)  -->
  <defs>
    <style>
      .st0 {
        fill: #fff;
      }

      .st1 {
        fill: #ff0;
      }
    </style>
  </defs>
  <g>
    <polygon class="st0" points="4 39.9 14.1 3.5 52.5 3.5 62.6 40 33.3 62.1 4 39.9"/>
    <path d="M51.3,5l9.5,34.4-27.6,20.9L5.7,39.3,15.3,5h36.1M53.6,2H13L2.3,40.5l31,23.5,31-23.5L53.6,2h0Z"/>
    <path class="st0" d="M53.6,2l10.7,38.5-31,23.5L2.3,40.5,13,2h40.6M55.1,0H11.5l-.4,1.5L.4,39.9l-.4,1.3,1.1.8,31,23.5,1.2.9,1.2-.9,31-23.5,1.1-.8-.4-1.3L55.5,1.5l-.4-1.5h0Z"/>
  </g>
  <path d="M18.4,35.3c-.2,0-.4,0-.5,0-.4,0-.5-.2-.6-.6,0-.6,0-1.2,0-1.8,0-.4.2-.6.6-.6.1,0,.3,0,.5,0v-.4c0-3.4,0-6.8,0-10.2,0-.2,0-.4-.2-.5-.6-.5-.9-1.2-.9-2,0-.9,0-1.7,0-2.6,0-.2,0-.5.2-.6.8-1.2,1.7-2.3,2.5-3.5.2-.3.4-.4.7-.4,8.1,0,16.7,0,24.9,0,.3,0,.6.1.8.4.8,1.1,1.5,2.1,2.3,3.2,0,0,.1.2.2.2.5.2.4.6.4,1,0,.7,0,1.5,0,2.2s-.4,1.7-1.1,2.3c0,0-.2.2-.2.3,0,3.5,0,6.9,0,10.4s0,0,0,.2c.1,0,.3,0,.4,0,.4,0,.6.2.6.6,0,.6,0,1.1,0,1.7,0,.5-.2.7-.7.7-.1,0-.2,0-.4,0v8c0,.6-.2.8-.8.8h-28c-.6,0-.8-.2-.8-.8,0-2.5,0-5,0-7.5,0-.1,0-.3,0-.4ZM39.6,20.9c-1.4,1.4-2.7,1.4-4.4,0-.6.7-1.3,1.1-2.2,1.1-.9,0-1.6-.4-2.2-1.1-.6.7-1.3,1.1-2.2,1.1-.9,0-1.6-.4-2.2-1.1-1.1,1.3-2.9,1.6-4.3,0-.4.3-.5.6-.5,1.1,0,3.3,0,6.6,0,9.9v.4h23.1v-.4c0-3.4,0-6.9,0-10.3,0-.3-.1-.5-.4-.7-1.1,1.3-3.5,1.5-4.8,0ZM46.9,35.3c-.1,0-.2,0-.3,0-8.8,0-18,0-26.8,0-.3,0-.4,0-.4.4,0,2.3,0,4.7,0,7,0,0,0,.2,0,.3h27.4v-7.7ZM47.5,15.9c0,0,0-.1,0-.1-.6-.8-1.2-1.7-1.8-2.5,0,0-.2-.1-.4-.1-7.9,0-16.3,0-24.1,0-.1,0-.3,0-.4.2-.6.8-1.1,1.5-1.7,2.3,0,0,0,.1-.1.2,9.4,0,19.2,0,28.6,0ZM45.8,21.9v10.4h1.1v-10.3c-.4,0-.7,0-1.1,0ZM19.5,21.9v10.4h1.1v-10.4h-1.1ZM35.8,17s0,0,0,.1c0,.7,0,1.4,0,2.2,0,.8.7,1.5,1.5,1.6.8,0,1.6-.5,1.7-1.3,0-.7,0-1.4,0-2.2,0-.1,0-.3,0-.4-1.1,0-2.2,0-3.2,0ZM27.1,17c0,.8,0,1.6,0,2.3,0,.8.7,1.4,1.5,1.5.8,0,1.6-.5,1.7-1.2,0-.9,0-1.8,0-2.7-1,0-2.1,0-3.2,0ZM44.9,17c0,.8,0,1.5,0,2.2,0,.9.6,1.6,1.5,1.6.8,0,1.6-.5,1.7-1.4,0-.8,0-1.7,0-2.5h-3.2ZM21.6,17h-3.2c0,.8,0,1.5,0,2.2,0,.9.7,1.5,1.6,1.6.8,0,1.6-.5,1.7-1.4,0-.8,0-1.6,0-2.5Z"/>
  <g>
    <polygon class="st1" points="31.7 24.8 27.3 24.8 33.8 9.5 42.2 9.5 36 20 41 20 23 45.1 31.7 24.8"/>
    <path d="M41.3,10l-6.2,10.6h4.9l-14.8,20.6,7.2-16.7h-4.4l6.1-14.4h7.2M43.1,9h-9.6l-.3.6-6.1,14.4-.6,1.4h4.4l-6.6,15.3-3.6,8.4,5.3-7.4,14.8-20.6,1.1-1.6h-5.1l5.3-9,.9-1.5h0Z"/>
  </g>
</svg>