<?xml version="1.0" encoding="UTF-8"?>
<svg id="Layer_1" xmlns="http://www.w3.org/2000/svg" version="1.1" xmlns:xlink="http://www.w3.org/1999/xlink" viewBox="0 0 43 42.5">
  <!-- Generator: Adobe Illustrator 29.3.1, SVG Export Plug-In . SVG Version: 2.1.0 Build 151)  -->
  <defs>
    <style>
      .st0 {
        fill: #fff;
      }

      .st1 {
        fill: none;
      }

      .st2 {
        fill: #0056a4;
      }
    </style>
  </defs>
  <path class="st0" d="M40.2,14.4l-13.3-7.4h.6c1.1,0,2-.9,2-2v-3c0-1.1-.9-2-2-2h-7.5c-1.1,0-2,.9-2,2v3.9L2.8,14.4c-1.7,1-2.8,2.8-2.8,4.8v17.8c0,3,2.5,5.5,5.5,5.5h32c3,0,5.5-2.5,5.5-5.5v-17.8c0-2-1.1-3.8-2.8-4.8Z"/>
  <g>
    <path class="st1" d="M25.5,28.5h-8c-.3,0-.5.2-.5.5v8.5h9v-8.5c0-.3-.2-.5-.5-.5Z"/>
    <path class="st1" d="M9.6,19.2c.4.2.6.3,1.1.3s.7,0,1.1-.3c.5-.3,1.2-.7,2.5-.7s2,.4,2.5.7c.4.2.6.3,1.1.3s.7,0,1.1-.3c.5-.3,1.2-.7,2.5-.7s2,.4,2.5.7c.4.2.6.3,1.1.3s.7,0,1.1-.3c.5-.3,1.2-.7,2.5-.7s2,.4,2.5.7c.4.2.6.3,1.1.3s.7,0,1.1-.3c.5-.3,1.2-.7,2.5-.7s1.6.2,2,.4c0,0-.1-.1-.2-.2l-16.2-9L5.3,18.7c0,0-.1.1-.2.2.5-.2,1.1-.4,2-.4s2,.4,2.5.7Z"/>
    <path class="st1" d="M37,21.8c-.4-.2-.6-.3-1.1-.3s-.7,0-1.1.3c-.5.3-1.2.7-2.5.7s-2-.4-2.5-.7c-.4-.2-.6-.3-1.1-.3s-.7,0-1.1.3c-.5.3-1.2.7-2.5.7s-2-.4-2.5-.7c-.4-.2-.6-.3-1.1-.3s-.7,0-1.1.3c-.5.3-1.2.7-2.5.7s-2-.4-2.5-.7c-.4-.2-.6-.3-1.1-.3s-.7,0-1.1.3c-.5.3-1.2.7-2.5.7s-2-.4-2.5-.7c-.4-.2-.6-.3-1.1-.3s-.7,0-1.1.3c-.3.2-.6.3-1,.5v14.7c0,.3.2.5.5.5h8.5v-8.5c0-1.9,1.6-3.5,3.5-3.5h8c1.9,0,3.5,1.6,3.5,3.5v8.5h8.5c.3,0,.5-.2.5-.5v-14.7c-.4-.1-.8-.3-1-.5Z"/>
    <path class="st2" d="M39.2,16.1L23,7.1v-2.1h4.5v-3h-7.5v5.1L3.8,16.1c-1.1.6-1.8,1.8-1.8,3.1v17.8c0,1.9,1.6,3.5,3.5,3.5h32c1.9,0,3.5-1.6,3.5-3.5v-17.8c0-1.3-.7-2.4-1.8-3.1ZM5.3,18.7l16.2-9,16.2,9c0,0,.1.1.2.2-.5-.2-1.1-.4-2-.4s-2,.4-2.5.7c-.4.2-.6.3-1.1.3s-.7,0-1.1-.3c-.5-.3-1.2-.7-2.5-.7s-2,.4-2.5.7c-.4.2-.6.3-1.1.3s-.7,0-1.1-.3c-.5-.3-1.2-.7-2.5-.7s-2,.4-2.5.7c-.4.2-.6.3-1.1.3s-.7,0-1.1-.3c-.5-.3-1.2-.7-2.5-.7s-2,.4-2.5.7c-.4.2-.6.3-1.1.3s-.7,0-1.1-.3c-.5-.3-1.2-.7-2.5-.7s-1.6.2-2,.4c0,0,.1-.1.2-.2ZM17,37.5v-8.5c0-.3.2-.5.5-.5h8c.3,0,.5.2.5.5v8.5h-9ZM37.5,37.5h-8.5v-8.5c0-1.9-1.6-3.5-3.5-3.5h-8c-1.9,0-3.5,1.6-3.5,3.5v8.5H5.5c-.3,0-.5-.2-.5-.5v-14.7c.4-.1.8-.3,1-.5.4-.2.6-.3,1.1-.3s.7,0,1.1.3c.5.3,1.2.7,2.5.7s2-.4,2.5-.7c.4-.2.6-.3,1.1-.3s.7,0,1.1.3c.5.3,1.2.7,2.5.7s2-.4,2.5-.7c.4-.2.6-.3,1.1-.3s.7,0,1.1.3c.5.3,1.2.7,2.5.7s2-.4,2.5-.7c.4-.2.6-.3,1.1-.3s.7,0,1.1.3c.5.3,1.2.7,2.5.7s2-.4,2.5-.7c.4-.2.6-.3,1.1-.3s.7,0,1.1.3c.3.2.6.3,1,.5v14.7c0,.3-.2.5-.5.5Z"/>
  </g>
  <g>
    <path class="st1" d="M39.5,21v16c0,1.1-.9,2-2,2H5.5c-1.1,0-2-.9-2-2v-16"/>
    <path class="st1" d="M39.5,21c-1.8,0-1.8-1-3.6-1s-1.8,1-3.6,1-1.8-1-3.6-1-1.8,1-3.6,1-1.8-1-3.6-1-1.8,1-3.6,1-1.8-1-3.6-1-1.8,1-3.6,1-1.8-1-3.6-1-1.8,1-3.6,1v-1.8c0-.7.4-1.4,1-1.7l17-9.4,17,9.4c.6.4,1,1,1,1.7v1.8Z"/>
    <path class="st1" d="M27.5,39h-12v-10c0-1.1.9-2,2-2h8c1.1,0,2,.9,2,2v10Z"/>
    <line class="st1" x1="21.5" y1="8" x2="21.5" y2="2"/>
  </g>
</svg>