<?xml version="1.0" encoding="UTF-8"?>
<svg id="Layer_1" xmlns="http://www.w3.org/2000/svg" version="1.1" xmlns:xlink="http://www.w3.org/1999/xlink" viewBox="0 0 66.6 66.5">
  <!-- Generator: Adobe Illustrator 29.3.1, SVG Export Plug-In . SVG Version: 2.1.0 Build 151)  -->
  <defs>
    <style>
      .st0 {
        fill: none;
        stroke: #000;
        stroke-linecap: round;
        stroke-miterlimit: 10;
        stroke-width: 2px;
      }

      .st1 {
        fill: #fff;
      }
    </style>
  </defs>
  <g>
    <polygon class="st1" points="4 39.9 14.1 3.5 52.5 3.5 62.6 40 33.3 62.1 4 39.9"/>
    <path d="M51.3,5l9.5,34.4-27.6,20.9L5.7,39.3,15.3,5h36.1M53.6,2H13L2.3,40.5l31,23.5,31-23.5L53.6,2h0Z"/>
    <path class="st1" d="M53.6,2l10.7,38.5-31,23.5L2.3,40.5,13,2h40.6M55.1,0H11.5l-.4,1.5L.4,39.9l-.4,1.3,1.1.8,31,23.5,1.2.9,1.2-.9,31-23.5,1.1-.8-.4-1.3L55.5,1.5l-.4-1.5h0Z"/>
  </g>
  <path d="M34.3,13.5l3.4,1.4c.3,0,.6,0,.7-.4,0-.2,0-.3,0-.5l-4.4-6.5c-.2-.3-.6-.4-.9-.2,0,0-.1,0-.2.2l-4.5,6.5c-.2.3-.1.6.1.8.1,0,.3.1.5,0h0l3.4-1.4h1.9Z"/>
  <path class="st0" d="M33.3,51.7c0-.8,0-1.9-.7-3-.7-1.2-1.7-1.6-3.1-2.6-1.8-1.3-3.9-2.7-3.9-4.3-.1-2.3,4.2-5,8.3-5.2,3.1-.2,6.6,1,6.6,2.1,0,1.2-3.5,2.5-6.5,2.5-.8,0-4.9,0-7.5-3.2-.6-.7-1.8-2.2-1.7-4.1.2-3.7,5.1-6.4,9.1-6.8,4.1-.5,8.7,1.3,8.7,2.7,0,1.4-4.7,2.6-8.9,2.5-1.7,0-9.6-.8-9.6-6.8s3.6-4.2,6.7-5.4c3.3-1.3,2.6-6.2,2.5-8.8"/>
</svg>