<?xml version="1.0" encoding="UTF-8"?>
<svg id="Layer_1" xmlns="http://www.w3.org/2000/svg" version="1.1" xmlns:xlink="http://www.w3.org/1999/xlink" viewBox="0 0 45.2 40.7">
  <!-- Generator: Adobe Illustrator 29.3.1, SVG Export Plug-In . SVG Version: 2.1.0 Build 151)  -->
  <defs>
    <style>
      .st0 {
        fill: #e4151c;
      }

      .st1 {
        fill: #fff;
      }
    </style>
  </defs>
  <path class="st1" d="M44,9.4L23.4.2c-.3-.1-.5-.2-.8-.2s-.6,0-.8.2L1.2,9.4c-.5.2-.9.6-1.1,1.1-.2.5-.2,1,0,1.5l.9,1.9c.3.7,1.1,1.2,1.8,1.2s.5,0,.8-.2v23.7c0,1.1.9,2,2,2h34c1.1,0,2-.9,2-2V15c.2.1.5.2.8.2.8,0,1.5-.4,1.8-1.2l.9-1.9c.2-.5.2-1,0-1.5-.2-.5-.6-.9-1.1-1.1Z"/>
  <g>
    <polygon class="st0" points="22.6 4.3 7.7 11 7.7 36.6 37.5 36.6 37.5 11 22.6 4.3"/>
    <path d="M43.2,11.2L22.6,2,2,11.2l.9,1.9,2.8-1.2v26.8h34V11.9l2.8,1.2.9-1.9ZM7.7,36.6V11l14.9-6.6,14.9,6.6v25.6s-29.7,0-29.7,0Z"/>
  </g>
</svg>