<?xml version="1.0" encoding="UTF-8"?>
<svg id="Layer_1" xmlns="http://www.w3.org/2000/svg" version="1.1" xmlns:xlink="http://www.w3.org/1999/xlink" viewBox="0 0 62 62">
  <!-- Generator: Adobe Illustrator 29.3.1, SVG Export Plug-In . SVG Version: 2.1.0 Build 151)  -->
  <defs>
    <style>
      .st0 {
        fill: #0056a4;
      }
    </style>
  </defs>
  <path d="M13,3h36.1l9.5,34.4-27.6,20.9L3.4,37.3,13,3M10.7,0L0,38.5l31,23.5,31-23.5L51.3,0H10.7Z"/>
  <g>
    <path class="st0" d="M23.4,16.6c0,3.2-2.6,5.7-5.7,5.7s-5.7-2.6-5.7-5.7,2.6-5.7,5.7-5.7,5.7,2.6,5.7,5.7h0Z"/>
    <path class="st0" d="M23.4,33.9c0,3.2-2.6,5.7-5.7,5.7s-5.7-2.6-5.7-5.7,2.6-5.7,5.7-5.7,5.7,2.6,5.7,5.7h0Z"/>
    <path class="st0" d="M27.3,9.4v35c0,.3.2.5.5.6.1,0,.3,0,.4-.1l23.6-20.7c.2-.2.3-.5,0-.8,0,0,0,0-.1-.1l-23.6-14.4c-.3-.2-.6,0-.7.2,0,0,0,.2,0,.3h0Z"/>
  </g>
</svg>