<?xml version="1.0" encoding="UTF-8"?>
<svg id="Layer_1" xmlns="http://www.w3.org/2000/svg" version="1.1" xmlns:xlink="http://www.w3.org/1999/xlink" viewBox="0 0 62 62">
  <!-- Generator: Adobe Illustrator 29.3.1, SVG Export Plug-In . SVG Version: 2.1.0 Build 151)  -->
  <defs>
    <style>
      .st0 {
        fill: #0056a4;
      }

      .st1 {
        fill: none;
        stroke: #0056a4;
        stroke-miterlimit: 10;
        stroke-width: 3px;
      }
    </style>
  </defs>
  <path d="M13,3h36.1l9.5,34.4-27.6,20.9L3.4,37.3,13,3M10.7,0L0,38.5l31,23.5,31-23.5L51.3,0H10.7Z"/>
  <path class="st1" d="M32.5,35.8c.9.9,2,1.6,3.4,2,2.3.6,4.4,0,6.3-1.4,2.4-1.7,4.2-4,5.5-6.6,2-3.8,3-7.8,3.2-12.1,0-1.3-.6-1.9-1.9-1.7-5.5.9-10.6-.2-15.4-3.1-.4-.2-.7-.5-1.1-.7-.9-.6-1.8-.3-2.2.7-.4,1-.7,1.9-.9,2.9"/>
  <path class="st0" d="M32.2,31c.1-.3.2-.4.2-.5,1.2-2,3.7-3.1,5.9-2.5,2.3.6,3.9,2.8,4,5.2,0,.2,0,.3-.1.5-.1,0-.3-.2-.4-.3-2.2-2.3-4.9-3.2-8-2.8-.5,0-.9.2-1.5.3Z"/>
  <path class="st0" d="M32.3,20.4c0,0-.2,0-.3-.1-.2,0-.5-.4-.7,0-.1.2,0,.6.1.8,1.4,2.5,4.7,2.4,6.2,0,.1-.2.2-.5.1-.6-.1-.3-.4-.1-.7,0-1.6.7-3.2.7-4.8,0Z"/>
  <path class="st0" d="M47.4,24.1c0,0,0-.3,0-.4,0-.1-.3-.2-.4-.2-2,0-3.6-.8-4.9-2.2,0-.1-.4-.2-.5-.2-.1,0-.2.3-.2.5,0,1.5.7,2.6,2,3.2,1.3.6,2.6.4,3.9-.5,0,0,0,0,.2-.2Z"/>
  <path class="st0" d="M46.3,26.6s0,0-.1,0c-.4.3-.8.5-1,.8-.2.2-.2.6-.1.8,0,.2.4.4.6.4.2,0,.5-.3.6-.5.1-.4,0-.9.1-1.3Z"/>
  <path class="st1" d="M33.8,27.8c0,3.8-.5,6.8-2,9.6-1.1,2.1-2.6,3.7-4.8,4.3-2.3.7-4.4.1-6.4-1.1-2.5-1.5-4.3-3.8-5.8-6.4-2.1-3.7-3.4-7.7-3.8-11.9-.1-1.3.5-1.9,1.8-1.7,5.5.6,10.6-.7,15.2-3.8.4-.2.7-.5,1-.8.9-.7,1.8-.4,2.2.6,1,2.4,1.8,4.8,2.1,7.4.2,1.4.3,2.9.4,3.7Z"/>
  <path class="st0" d="M19.5,34c.1.3.1.4.2.5,1.2,2.1,3.6,3.1,5.9,2.5,2.3-.6,4-2.7,4.1-5.2,0-.2,0-.3-.1-.5-.1,0-.3.2-.4.3-2.3,2.3-5,3.1-8.1,2.7-.5,0-.9-.2-1.5-.3Z"/>
  <path class="st0" d="M30.1,24.6c0,0,.2,0,.3,0,.3,0,.7.1.7-.3,0-.2-.2-.5-.4-.7-2.3-1.7-5.3-.4-5.7,2.5,0,.2,0,.5.2.6.3.2.4,0,.6-.2,1.2-1.2,2.7-1.9,4.4-1.9Z"/>
  <path class="st0" d="M14.6,28.6c0,0,0,.3.2.3.1,0,.3,0,.5,0,1.7-1.1,3.5-1.3,5.4-.8.1,0,.4,0,.5-.1,0-.1,0-.4,0-.5-.9-1.2-2-1.8-3.4-1.6-1.5.2-2.4,1.1-3,2.5,0,0,0,.1,0,.3Z"/>
</svg>