<?xml version="1.0" encoding="UTF-8"?>
<svg id="Layer_1" xmlns="http://www.w3.org/2000/svg" version="1.1" xmlns:xlink="http://www.w3.org/1999/xlink" viewBox="0 0 62 62">
  <!-- Generator: Adobe Illustrator 29.3.1, SVG Export Plug-In . SVG Version: 2.1.0 Build 151)  -->
  <defs>
    <style>
      .st0 {
        fill: none;
        stroke: #000;
        stroke-linecap: round;
        stroke-miterlimit: 10;
        stroke-width: 2px;
      }

      .st1 {
        fill: #ff0;
      }
    </style>
  </defs>
  <path d="M49,3l9.5,34.4-27.6,20.9L3.4,37.3,13,3h36.1M51.3,0H10.7L0,38.5l31,23.5,31-23.5L51.3,0h0Z"/>
  <g>
    <path class="st1" d="M21.4,40c-1.3,0-2.4-1.1-2.4-2.4V14.4c0-1.3,1.1-2.4,2.4-2.4h19.2c1.3,0,2.4,1.1,2.4,2.4v23.2c0,1.3-1.1,2.4-2.4,2.4h-19.2Z"/>
    <path d="M40.6,13c.8,0,1.4.6,1.4,1.4v23.2c0,.8-.6,1.4-1.4,1.4h-19.2c-.8,0-1.4-.6-1.4-1.4V14.4c0-.8.6-1.4,1.4-1.4h19.2M40.6,11h-19.2c-1.9,0-3.4,1.5-3.4,3.4v23.2c0,1.9,1.5,3.4,3.4,3.4h19.2c1.9,0,3.4-1.5,3.4-3.4V14.4c0-1.9-1.5-3.4-3.4-3.4h0Z"/>
  </g>
  <g>
    <g>
      <line class="st0" x1="43" y1="19" x2="47" y2="19"/>
      <line class="st0" x1="43" y1="33" x2="47" y2="33"/>
    </g>
    <g>
      <line class="st0" x1="15" y1="19" x2="19" y2="19"/>
      <line class="st0" x1="15" y1="33" x2="19" y2="33"/>
    </g>
  </g>
  <polygon points="30.5 22.6 28 22.6 31.5 14.3 35.7 14.3 32.1 20.4 34.9 20.4 26.3 32.3 30.5 22.6"/>
  <path d="M33.5,37.5h-5c-.8,0-1.5-.7-1.5-1.5h0c0-.8.7-1.5,1.5-1.5h5c.8,0,1.5.7,1.5,1.5h0c0,.8-.7,1.5-1.5,1.5Z"/>
</svg>