<?xml version="1.0" encoding="UTF-8"?>
<svg id="Layer_1" xmlns="http://www.w3.org/2000/svg" version="1.1" xmlns:xlink="http://www.w3.org/1999/xlink" viewBox="0 0 62 62">
  <!-- Generator: Adobe Illustrator 29.3.1, SVG Export Plug-In . SVG Version: 2.1.0 Build 151)  -->
  <defs>
    <style>
      .st0 {
        fill: #0056a4;
      }
    </style>
  </defs>
  <path d="M13,3h36.1l9.5,34.4-27.6,20.9L3.4,37.3,13,3M10.7,0L0,38.5l31,23.5,31-23.5L51.3,0H10.7Z"/>
  <g>
    <path class="st0" d="M50,22.7h-1.5c-.5,0-1,.4-1,1h0v7.7h-28.1c-2.6,0-4.8-2.1-4.9-4.7v-11.8c0-.5-.4-1-1-1h-1.6c-.5,0-1,.4-1,1h0v25.2h3.5v-3.7h33v3.7h3.5v-16.4c0-.5-.4-1-.9-1,0,0,0,0,0,0h0Z"/>
    <path class="st0" d="M21.1,24.9c2,1.8,2.8,4.2,1.8,5.3-1,1.1-3.4.4-5.4-1.4-2-1.8-2.8-4.2-1.8-5.3,1-1.1,3.4-.4,5.4,1.4h0Z"/>
    <path class="st0" d="M45.8,30.5c.2-.3.3-.7.3-1,0-2.5-5-4.5-11.1-4.5s-11.1,2-11.1,4.5c0,.4.1.7.3,1h21.6Z"/>
  </g>
</svg>