<?xml version="1.0" encoding="UTF-8"?>
<svg id="Layer_1" xmlns="http://www.w3.org/2000/svg" version="1.1" xmlns:xlink="http://www.w3.org/1999/xlink" viewBox="0 0 48 48">
  <!-- Generator: Adobe Illustrator 29.3.1, SVG Export Plug-In . SVG Version: 2.1.0 Build 151)  -->
  <defs>
    <style>
      .st0 {
        fill: #fff;
      }

      .st1 {
        fill: none;
      }

      .st2 {
        fill: red;
      }
    </style>
  </defs>
  <path class="st0" d="M24,0C10.8,0,0,10.8,0,24s10.8,24,24,24,24-10.8,24-24S37.2,0,24,0Z"/>
  <g>
    <path class="st1" d="M29.4,7.8l-5.4,6.5-5.4-6.5c-6.8,2.3-11.7,8.7-11.7,16.2s4.9,14,11.7,16.2l5.4-6.5,5.4,6.5c6.8-2.3,11.7-8.7,11.7-16.2s-4.9-14-11.7-16.2Z"/>
    <path d="M29.4,7.8c-1.7-.6-3.5-.9-5.4-.9s-3.7.3-5.4.9l5.4,6.5,5.4-6.5Z"/>
    <path d="M18.6,40.2c1.7.6,3.5.9,5.4.9s3.7-.3,5.4-.9l-5.4-6.5-5.4,6.5Z"/>
    <path class="st2" d="M24,2C11.9,2,2,11.9,2,24s9.9,22,22,22,22-9.9,22-22S36.2,2,24,2ZM29.4,40.2c-1.7.6-3.5.9-5.4.9s-3.7-.3-5.4-.9c-6.8-2.3-11.7-8.7-11.7-16.2s4.9-14,11.7-16.2c1.7-.6,3.5-.9,5.4-.9s3.7.3,5.4.9c6.8,2.3,11.7,8.7,11.7,16.2s-4.9,14-11.7,16.2Z"/>
  </g>
</svg>