<?xml version="1.0" encoding="UTF-8"?>
<svg id="Layer_1" xmlns="http://www.w3.org/2000/svg" version="1.1" xmlns:xlink="http://www.w3.org/1999/xlink" viewBox="0 0 44 40.1">
  <!-- Generator: Adobe Illustrator 29.3.1, SVG Export Plug-In . SVG Version: 2.1.0 Build 151)  -->
  <defs>
    <style>
      .st0 {
        fill: #fff;
      }

      .st1 {
        fill: #0056a4;
      }
    </style>
  </defs>
  <path class="st0" d="M42.8,14.7L19.1.4c-.4-.2-.9-.4-1.3-.4-.9,0-1.7.5-2.2,1.2-.2.4-.4.8-.4,1.3v5.8c-.7-3.6-3.8-6.3-7.6-6.3S0,5.5,0,9.7s3.5,7.7,7.7,7.7,6.9-2.7,7.6-6.3v14.5c-.7-3.6-3.8-6.3-7.6-6.3S0,22.8,0,27s3.5,7.7,7.7,7.7,6.9-2.7,7.6-6.3v9.1c0,.7.3,1.3.7,1.8.5.5,1.1.8,1.8.8h0c.7,0,1.3-.2,1.7-.7l23.6-20.6c1.1-.9,1.2-2.5.2-3.6-.2-.2-.4-.4-.6-.5Z"/>
  <g>
    <path class="st1" d="M13.4,9.7c0,3.2-2.6,5.7-5.7,5.7S2,12.9,2,9.7s2.6-5.7,5.7-5.7,5.7,2.6,5.7,5.7h0Z"/>
    <path class="st1" d="M13.4,27c0,3.2-2.6,5.7-5.7,5.7s-5.7-2.6-5.7-5.7,2.6-5.7,5.7-5.7,5.7,2.6,5.7,5.7h0Z"/>
    <path class="st1" d="M17.3,2.5v35c0,.3.2.5.5.6.1,0,.3,0,.4-.1l23.6-20.7c.2-.2.3-.5,0-.8,0,0,0,0-.1-.1L18.1,2.1c-.3-.2-.6,0-.7.2,0,0,0,.2,0,.3h0Z"/>
  </g>
  <g>
    <path class="st1" d="M13.4,9.7c0,3.2-2.6,5.7-5.7,5.7S2,12.9,2,9.7s2.6-5.7,5.7-5.7,5.7,2.6,5.7,5.7h0Z"/>
    <path class="st1" d="M13.4,27c0,3.2-2.6,5.7-5.7,5.7s-5.7-2.6-5.7-5.7,2.6-5.7,5.7-5.7,5.7,2.6,5.7,5.7h0Z"/>
    <path class="st1" d="M17.3,2.5v35c0,.3.2.5.5.6.1,0,.3,0,.4-.1l23.6-20.7c.2-.2.3-.5,0-.8,0,0,0,0-.1-.1L18.1,2.1c-.3-.2-.6,0-.7.2,0,0,0,.2,0,.3h0Z"/>
  </g>
</svg>