<?xml version="1.0" encoding="UTF-8"?>
<svg id="Layer_1" xmlns="http://www.w3.org/2000/svg" version="1.1" xmlns:xlink="http://www.w3.org/1999/xlink" viewBox="0 0 40 39.1">
  <!-- Generator: Adobe Illustrator 29.3.1, SVG Export Plug-In . SVG Version: 2.1.0 Build 151)  -->
  <defs>
    <style>
      .st0 {
        fill: #fff;
      }

      .st1 {
        fill: #93572b;
      }
    </style>
  </defs>
  <path class="st0" d="M37.5,33.3c-.1,0-.3,0-.4,0h-1.8l-2-3.8c-.4-.8-1.2-1.4-2.1-1.5-.1,0-.3,0-.4,0-.8,0-1.5.3-2,.8l-1.6,1.6-1.7-2.1c-.3-.4-.7-.7-1.1-.9,0-.2,0-.5,0-.8,0-2.3-1.7-4.1-4-4.3,1-1.1,1.5-2.5,1.4-4.1,0-.6-.2-1.1-.4-1.7,1.4-1.9,1.5-4.5.1-6.5-.3-.4-.6-.8-1-1.1.6-2,0-4.2-1.5-5.7-1-.9-2.4-1.5-3.7-1.5s-.4,0-.5,0c-1-1.1-2.4-1.8-4-1.8s-1.3.1-1.9.4c-.9.4-1.7.9-2.3,1.7,0,0-.1,0-.2,0-1.9,0-3.6,1.1-4.4,2.8-.6,1.3-.6,2.8,0,4C.6,10.1-.2,12,0,13.9c.1.8.4,1.6.8,2.3-1.2,1.9-1.2,4.4.2,6.3.8,1.1,1.9,1.9,3.2,2.2.8,1.1,2,1.8,3.3,2.1l-.4,9.9c0,.6.2,1.2.6,1.6.4.5,1,.7,1.6.8,0,0,0,0,.1,0h3.4c.9,0,1.6-.5,2-1.2.2.3.5.6.9.8.4.2.9.4,1.4.4h3c.8,0,1.6-.3,2.1-.9.5.6,1.2.9,1.9.9,0,0,.2,0,.3,0h12.7c1.6,0,2.9-1.3,2.9-2.9,0-1.4-1.1-2.7-2.5-2.9Z"/>
  <g>
    <path class="st1" d="M18.9,16.3c1.7-1.1,2.1-3.4,1-5.1-.5-.7-1.2-1.2-2-1.5,1.3-1.4,1.2-3.6-.2-4.9-1-1-2.5-1.2-3.8-.6-.7-1.7-2.6-2.5-4.3-1.9-.9.4-1.7,1.1-2,2.1-1.4-.7-3.2,0-3.8,1.4-.7,1.4,0,3.2,1.4,3.8-2,.3-3.4,2.1-3.2,4.1.1,1,.7,1.9,1.5,2.5-1.7,1.2-2,3.5-.9,5.1.6.9,1.7,1.5,2.8,1.5.6,1.3,1.9,2,3.3,2,.3,0,.6,0,.9-.1l-.5,11.9c0,.2.1.3.3.3,0,0,0,0,0,0h3.4c.2,0,.3-.1.3-.3,0,0,0,0,0,0l-.5-12.4c.4.2.8.2,1.2.2,1.5,0,2.7-1,3-2.5,1.9-.2,3.3-1.8,3.1-3.7,0-.8-.4-1.5-1-2.1h0Z"/>
    <path class="st1" d="M22.4,26.6c0,1.3-1,2.3-2.3,2.3s-2.3-1-2.3-2.3,1-2.3,2.3-2.3,2.3,1,2.3,2.3h0Z"/>
    <path class="st1" d="M37.1,35.3h-3l-2.5-4.9c-.1-.3-.4-.4-.7-.5-.3,0-.6,0-.8.2l-3.2,3.1-3.1-3.9c-.4-.5-1-.7-1.6-.4,0,0-2.2.9-2.3.9-.4.1-.7.4-.9.8l-2.8,4.9c-.2.4,0,1,.3,1.2.1,0,.3.1.4.1h3c.5,0,.9-.4.9-.9s-.4-.9-.9-.9h-1.5s1.7-3,1.7-3l3.4,4.6c.1.2.4.3.6.3,0,0,.1,0,.2,0h12.7c.5,0,.9-.4.9-.9s-.4-.9-.9-.9h0ZM30.5,32.3l1.5,2.9h-4.5l3-2.9h0Z"/>
  </g>
  <g>
    <path class="st1" d="M18.9,16.3c1.7-1.1,2.1-3.4,1-5.1-.5-.7-1.2-1.2-2-1.5,1.3-1.4,1.2-3.6-.2-4.9-1-1-2.5-1.2-3.8-.6-.7-1.7-2.6-2.5-4.3-1.9-.9.4-1.7,1.1-2,2.1-1.4-.7-3.2,0-3.8,1.4-.7,1.4,0,3.2,1.4,3.8-2,.3-3.4,2.1-3.2,4.1.1,1,.7,1.9,1.5,2.5-1.7,1.2-2,3.5-.9,5.1.6.9,1.7,1.5,2.8,1.5.6,1.3,1.9,2,3.3,2,.3,0,.6,0,.9-.1l-.5,11.9c0,.2.1.3.3.3,0,0,0,0,0,0h3.4c.2,0,.3-.1.3-.3,0,0,0,0,0,0l-.5-12.4c.4.2.8.2,1.2.2,1.5,0,2.7-1,3-2.5,1.9-.2,3.3-1.8,3.1-3.7,0-.8-.4-1.5-1-2.1h0Z"/>
    <path class="st1" d="M22.4,26.6c0,1.3-1,2.3-2.3,2.3s-2.3-1-2.3-2.3,1-2.3,2.3-2.3,2.3,1,2.3,2.3h0Z"/>
    <path class="st1" d="M37.1,35.3h-3l-2.5-4.9c-.1-.3-.4-.4-.7-.5-.3,0-.6,0-.8.2l-3.2,3.1-3.1-3.9c-.4-.5-1-.7-1.6-.4,0,0-2.2.9-2.3.9-.4.1-.7.4-.9.8l-2.8,4.9c-.2.4,0,1,.3,1.2.1,0,.3.1.4.1h3c.5,0,.9-.4.9-.9s-.4-.9-.9-.9h-1.5s1.7-3,1.7-3l3.4,4.6c.1.2.4.3.6.3,0,0,.1,0,.2,0h12.7c.5,0,.9-.4.9-.9s-.4-.9-.9-.9h0ZM30.5,32.3l1.5,2.9h-4.5l3-2.9h0Z"/>
  </g>
</svg>