<?xml version="1.0" encoding="UTF-8"?>
<svg id="Layer_1" xmlns="http://www.w3.org/2000/svg" version="1.1" xmlns:xlink="http://www.w3.org/1999/xlink" viewBox="0 0 62 62">
  <!-- Generator: Adobe Illustrator 29.3.1, SVG Export Plug-In . SVG Version: 2.1.0 Build 151)  -->
  <defs>
    <style>
      .st0 {
        fill: #fbe943;
      }

      .st1 {
        fill: #fff;
      }

      .st2 {
        fill: #f6bd16;
      }

      .st3 {
        fill: #f7931e;
      }

      .st4 {
        fill: #fefefe;
      }

      .st5 {
        fill: #ff0;
      }
    </style>
  </defs>
  <path d="M13,3h36.1l9.5,34.4-27.6,20.9L3.4,37.3,13,3M10.7,0L0,38.5l31,23.5,31-23.5L51.3,0H10.7Z"/>
  <g>
    <g>
      <g>
        <path d="M41.4,41.6c-.5,0-1.1-.1-1.5-.4l-20.8-12c-1.5-.9-2-2.8-1.1-4.2.6-1,1.6-1.6,2.7-1.6s1.1.1,1.5.4l20.8,12c1.5.9,2,2.8,1.1,4.2-.6,1-1.6,1.6-2.7,1.6Z"/>
        <path d="M20.7,23.8h0c.5,0,.9.1,1.3.4l20.8,12c1.3.7,1.7,2.4,1,3.6-.5.8-1.4,1.3-2.3,1.3s-.9-.1-1.3-.4l-20.8-12c-1.3-.7-1.7-2.4-1-3.6.5-.8,1.4-1.3,2.3-1.3M20.7,22.9c-1.2,0-2.4.6-3.1,1.8h0c-1,1.7-.4,3.9,1.3,4.9l20.8,12c.6.3,1.2.5,1.8.5,1.2,0,2.4-.6,3.1-1.8h0c1-1.7.4-3.9-1.3-4.9l-20.8-12c-.6-.3-1.2-.5-1.8-.5h0Z"/>
      </g>
      <g>
        <path class="st1" d="M41.4,41.6c-.5,0-1.1-.1-1.5-.4-.7-.4-1.2-1.1-1.4-1.9-.2-.8-.1-1.6.3-2.4.6-1,1.6-1.6,2.7-1.6s1.1.1,1.5.4c1.5.9,2,2.8,1.1,4.2-.6,1-1.6,1.6-2.7,1.6Z"/>
        <path d="M41.4,35.8h0c.5,0,.9.1,1.3.4,1.3.7,1.7,2.4,1,3.6-.5.8-1.4,1.3-2.3,1.3s-.9-.1-1.3-.4c-1.3-.7-1.7-2.4-1-3.6.5-.8,1.4-1.3,2.3-1.3M41.4,34.9c-1.2,0-2.4.6-3.1,1.8-1,1.7-.4,3.9,1.3,4.9.6.3,1.2.5,1.8.5,1.2,0,2.4-.6,3.1-1.8,1-1.7.4-3.9-1.3-4.9-.6-.3-1.2-.5-1.8-.5h0Z"/>
      </g>
    </g>
    <g>
      <g>
        <path d="M20.7,41.6c-1.1,0-2.1-.6-2.7-1.6-.9-1.5-.3-3.4,1.1-4.2l20.8-12c.5-.3,1-.4,1.5-.4,1.1,0,2.1.6,2.7,1.6.9,1.5.3,3.4-1.1,4.2l-20.8,12c-.5.3-1,.4-1.5.4h0Z"/>
        <path d="M41.4,23.8c.9,0,1.8.5,2.3,1.3.7,1.3.3,2.9-1,3.6l-20.8,12c-.4.2-.9.4-1.3.4-.9,0-1.8-.5-2.3-1.3-.7-1.3-.3-2.9,1-3.6l20.8-12c.4-.2.9-.4,1.3-.4M41.4,22.9c-.6,0-1.2.2-1.8.5l-20.8,12c-1.7,1-2.3,3.2-1.3,4.9h0c.7,1.1,1.9,1.8,3.1,1.8s1.2-.2,1.8-.5l20.8-12c1.7-1,2.3-3.2,1.3-4.9h0c-.7-1.1-1.9-1.8-3.1-1.8h0Z"/>
      </g>
      <g>
        <path class="st1" d="M20.7,41.6c-1.1,0-2.1-.6-2.7-1.6-.9-1.5-.3-3.4,1.1-4.2.5-.3,1-.4,1.5-.4,1.1,0,2.1.6,2.7,1.6.4.7.5,1.6.3,2.4-.2.8-.7,1.5-1.4,1.9-.5.3-1,.4-1.5.4h0Z"/>
        <path d="M20.7,35.8c.9,0,1.8.5,2.3,1.3.7,1.3.3,2.9-1,3.6-.4.2-.9.4-1.3.4-.9,0-1.8-.5-2.3-1.3-.7-1.3-.3-2.9,1-3.6.4-.2.9-.4,1.3-.4M20.7,34.9c-.6,0-1.2.2-1.8.5-1.7,1-2.3,3.2-1.3,4.9.7,1.1,1.9,1.8,3.1,1.8s1.2-.2,1.8-.5c1.7-1,2.3-3.2,1.3-4.9-.7-1.1-1.9-1.8-3.1-1.8h0Z"/>
      </g>
    </g>
    <g>
      <g>
        <path d="M31,47.6c-1.7,0-3.1-1.4-3.1-3.1v-24c0-1.7,1.4-3.1,3.1-3.1s3.1,1.4,3.1,3.1v24c0,1.7-1.4,3.1-3.1,3.1Z"/>
        <path d="M31,17.8c1.5,0,2.7,1.2,2.7,2.7v24c0,1.5-1.2,2.7-2.7,2.7s-2.7-1.2-2.7-2.7v-24c0-1.5,1.2-2.7,2.7-2.7M31,16.9c-2,0-3.6,1.6-3.6,3.6v24c0,2,1.6,3.6,3.6,3.6s3.6-1.6,3.6-3.6v-24c0-2-1.6-3.6-3.6-3.6h0Z"/>
      </g>
      <g>
        <path class="st1" d="M31,47.6c-1.7,0-3.1-1.4-3.1-3.1s1.4-3.1,3.1-3.1,3.1,1.4,3.1,3.1-1.4,3.1-3.1,3.1Z"/>
        <path d="M31,41.8c1.5,0,2.7,1.2,2.7,2.7s-1.2,2.7-2.7,2.7-2.7-1.2-2.7-2.7c0-1.5,1.2-2.7,2.7-2.7M31,40.9h0c-2,0-3.6,1.6-3.6,3.6s1.6,3.6,3.6,3.6,3.6-1.6,3.6-3.6c0-2-1.6-3.6-3.6-3.6h0Z"/>
      </g>
    </g>
    <g>
      <g>
        <path class="st5" d="M40.8,11.4c-.6-.5-.8-1.1-.7-1.8,0-.2.1-.4.2-.7,0,0-.1.1-.1.2-.4.6-.9,1.2-1.3,1.8-.5.7-.4,1.4.2,2,.4.4.6.8.5,1.3,0,.2-.1.3-.1.6.5-.5,1.1-.8,1.5-1.3.5-.6.4-1.5-.2-2Z"/>
        <path class="st5" d="M25.2,11.1c-.4-.3-.9-.6-1.4-1,0,.2,0,.2.1.3.3.7,0,1.2-.5,1.7-.6.4-.6,1.3,0,1.7.4.3.9.6,1.3.9,0,0,0,0,.1,0,0,0,0,0,0-.1-.3-.7,0-1.3.6-1.8.6-.4.5-1.2,0-1.7Z"/>
      </g>
      <path class="st0" d="M35.4,8s0,0,0,0c0,0,0,0,0,0,0,0,0,0,0,0Z"/>
      <path class="st2" d="M40.3,34.8c1.6,0,3.1-1.3,3.6-2.9.4-1.3,0-2.7.2-4-.5.7-1,1.3-1.5,1.8-.6.6-1.7,1.2-2,1.2,0,0,0-.1.1-.2,1.8-2.8,2-5.7.8-8.7-.6-1.3-1.2-2.6-1.8-4-.2-.5-.4-.9-.6-1.4-.1.7-.2,1.3-.2,2-.1,1.8-.9,3.2-2.5,4.2-.5.3-.9.6-1.5.6.1-.4.4-.8.6-1.2.4-.8.7-1.7.7-2.6,0-1.5-.4-2.9-1.1-4.2-1-1.8-1.2-3.7-.5-5.6.2-.7.6-1.3,1-1.9,0,0,0,0,0,0,0,0-.2.1-.3.2-.9.6-1.8,1.3-2.7,1.9-1.3.9-2.5,1.9-3.4,3.2-1.7,2.4-2.4,5.1-2,8.1,0,.4.1.8.2,1.3,0,0,0,0,0,0,0,0,0,0,0,0,0,0,0,0-.1,0-1.4-.5-2.4-2.1-2.1-3.6,0-.5.2-.9.2-1.4,0-.3.1-.5.1-.9,0,0-.1.1-.1.1-.8,1.3-1.7,2.5-2.5,3.8-.7,1.1-1.1,2.3-1.3,3.6,0,.5,0,1,0,1.6-1.1-1.8-1.4-3.6-1.1-5.6-.3.3-.6.6-1,.9-1,1-1.7,2.1-2.1,3.5-.3,1.2-.3,2.4,0,3.6.5,3.4,3.5,6.2,7,6.4,1.5,0,14.1,0,16.2,0Z"/>
      <path class="st4" d="M27.2,22.7s0,0,0,0c0,0,0,0,0,0,0,0,0,0,0,0Z"/>
      <path class="st4" d="M34.8,23.6s0,0,0,0c0,0,0,0,0,0,0,0,0,0,0,0Z"/>
      <path class="st3" d="M37.7,30.1c-.7-.9-.7-1.7,0-2.7.1-.1.2-.3.3-.5-.9.1-1.6.6-2.1,1.3-.5.7-.7,1.5-.6,2.4-.7-.4-1.3-.7-1.7-1.4-.3-.6-.3-1.3-.2-2,.2-1-.6-2.2-1.5-2.5-.8-.3-1.5-.3-2.3-.5,0,0-.2,0-.3,0,.3.4.5.9.7,1.3.3,1.3,0,2.4-.8,3.4-.3.4-.7.8-1,1.3,0,.2-.2,0-.2,0-.4-.5-.7-1.1-.9-1.7,0-.3-.1-.6-.2-.9-.2.1-.2.3-.3.5-.4.6-.8,1.2-.9,1.9-.3,1.3,0,2.5.8,3.5.6.7,1.4,1.2,2.3,1.4,1.8.1,3.5,0,5.3,0,2.1-.3,3.4-1.8,3.7-2.5.3-.7.4-1.6,0-2.3Z"/>
    </g>
  </g>
</svg>