<?xml version="1.0" encoding="UTF-8"?>
<svg id="Layer_1" xmlns="http://www.w3.org/2000/svg" version="1.1" xmlns:xlink="http://www.w3.org/1999/xlink" viewBox="0 0 41.5 40.3">
  <!-- Generator: Adobe Illustrator 29.3.1, SVG Export Plug-In . SVG Version: 2.1.0 Build 151)  -->
  <defs>
    <style>
      .st0 {
        fill: #fff;
      }

      .st1 {
        fill: none;
      }
    </style>
  </defs>
  <path class="st0" d="M38.8,5.5c1.5,0,2.8-1.2,2.8-2.8s-1.2-2.8-2.8-2.8H2.8C1.2,0,0,1.2,0,2.8s1.2,2.8,2.8,2.8h.1v6.1h-.1c-1.5,0-2.8,1.2-2.8,2.8s1.2,2.8,2.8,2.8h.1v6.1h-.1c-1.5,0-2.8,1.2-2.8,2.8s1.2,2.8,2.8,2.8h.1v6.1h-.1c-1.5,0-2.8,1.2-2.8,2.8s1.2,2.8,2.8,2.8h36c1.5,0,2.8-1.2,2.8-2.8s-1.2-2.8-2.8-2.8h-.1v-6.1h.1c1.5,0,2.8-1.2,2.8-2.8s-1.2-2.8-2.8-2.8h-.1v-6.1h.1c1.5,0,2.8-1.2,2.8-2.8s-1.2-2.8-2.8-2.8h-.1v-6.1h.1Z"/>
  <path d="M38.8,15.1c.4,0,.8-.3.8-.8s-.3-.8-.8-.8h-2.1V3.5h2.1c.4,0,.8-.3.8-.8s-.3-.8-.8-.8H2.8c-.4,0-.8.3-.8.8s.3.8.8.8h2.1v10.1h-2.1c-.4,0-.8.3-.8.8s.3.8.8.8h2.1v10.1h-2.1c-.4,0-.8.3-.8.8s.3.8.8.8h2.1v10.1h-2.1c-.4,0-.8.3-.8.8s.3.8.8.8h36c.4,0,.8-.3.8-.8s-.3-.8-.8-.8h-2.1v-10.1h2.1c.4,0,.8-.3.8-.8s-.3-.8-.8-.8h-2.1v-10.1h2.1ZM35.1,13.6h-3.5V3.5h3.5v10.1ZM21.5,15.1h3.5v10.1h-3.5v-10.1ZM20,25.2h-3.5v-10.1h3.5v10.1ZM21.5,13.6V3.5h3.5v10.1h-3.5ZM20,13.6h-3.5V3.5h3.5v10.1ZM15,13.6h-3.5V3.5h3.5v10.1ZM15,15.1v10.1h-3.5v-10.1h3.5ZM15,26.7v10.1h-3.5v-10.1h3.5ZM16.5,26.7h3.5v10.1h-3.5v-10.1ZM21.5,26.7h3.5v10.1h-3.5v-10.1ZM26.6,26.7h3.5v10.1h-3.5v-10.1ZM26.6,25.2v-10.1h3.5v10.1h-3.5ZM26.6,13.6V3.5h3.5v10.1h-3.5ZM6.4,3.5h3.5v10.1h-3.5V3.5ZM6.4,15.1h3.5v10.1h-3.5v-10.1ZM6.4,26.7h3.5v10.1h-3.5v-10.1ZM35.1,36.8h-3.5v-10.1h3.5v10.1ZM35.1,25.2h-3.5v-10.1h3.5v10.1Z"/>
  <g>
    <line class="st1" x1="2.8" y1="2.8" x2="38.8" y2="2.8"/>
    <line class="st1" x1="2.8" y1="14.3" x2="38.8" y2="14.3"/>
    <line class="st1" x1="2.8" y1="25.9" x2="38.8" y2="25.9"/>
    <line class="st1" x1="2.8" y1="37.5" x2="38.8" y2="37.5"/>
    <line class="st1" x1="5.6" y1="2.9" x2="5.6" y2="37.4"/>
    <line class="st1" x1="10.7" y1="2.9" x2="10.7" y2="37.4"/>
    <line class="st1" x1="15.7" y1="2.9" x2="15.7" y2="37.4"/>
    <line class="st1" x1="20.8" y1="2.9" x2="20.8" y2="37.4"/>
    <line class="st1" x1="25.8" y1="2.9" x2="25.8" y2="37.4"/>
    <line class="st1" x1="30.9" y1="2.9" x2="30.9" y2="37.4"/>
    <line class="st1" x1="35.9" y1="2.9" x2="35.9" y2="37.4"/>
  </g>
</svg>