<?xml version="1.0" encoding="UTF-8"?>
<svg id="Layer_1" xmlns="http://www.w3.org/2000/svg" version="1.1" xmlns:xlink="http://www.w3.org/1999/xlink" viewBox="0 0 44 32.4">
  <!-- Generator: Adobe Illustrator 29.3.1, SVG Export Plug-In . SVG Version: 2.1.0 Build 151)  -->
  <defs>
    <style>
      .st0 {
        fill: #fff;
      }

      .st1 {
        fill: #93572b;
      }
    </style>
  </defs>
  <path class="st0" d="M42,24.4h-2.9L26,7.9l2.6-3.2c.7-.9.5-2.1-.3-2.8l-1.8-1.4C26.1.2,25.7,0,25.2,0s-.2,0-.2,0c-.5,0-1,.3-1.3.7l-1.7,2.1-1.7-2.1c-.3-.4-.8-.7-1.3-.7,0,0-.2,0-.2,0-.5,0-.9.2-1.2.4l-1.8,1.4c-.9.7-1,1.9-.3,2.8l2.6,3.2L4.9,24.4h-2.9c-1.1,0-2,.9-2,2v4c0,1.1.9,2,2,2h40c1.1,0,2-.9,2-2v-4c0-1.1-.9-2-2-2Z"/>
  <g>
    <rect class="st1" x="2" y="26.4" width="40" height="4"/>
    <polygon class="st1" points="22 17 30.4 27.6 38.6 27.6 38.9 27.4 23.4 7.9 27 3.4 25.2 2 22 6.1 22 6.1 22 6.1 18.8 2 17 3.4 20.6 7.9 5.1 27.4 5.4 27.6 13.6 27.6 22 17"/>
  </g>
  <path class="st1" d="M38.2,26.4L23.4,7.9l3.6-4.5-1.8-1.4-3.2,4.1h0s0,0,0,0l-3.2-4.1-1.8,1.4,3.6,4.5L5.8,26.4h-3.8v4h40v-4h-3.8ZM22,17l7.5,9.4h-14.9l7.5-9.4Z"/>
</svg>