<?xml version="1.0" encoding="UTF-8"?>
<svg id="Layer_1" xmlns="http://www.w3.org/2000/svg" version="1.1" xmlns:xlink="http://www.w3.org/1999/xlink" viewBox="0 0 33.9 47.9">
  <!-- Generator: Adobe Illustrator 29.3.1, SVG Export Plug-In . SVG Version: 2.1.0 Build 151)  -->
  <defs>
    <style>
      .st0 {
        fill: #e4151c;
      }

      .st1 {
        fill: #fff;
      }
    </style>
  </defs>
  <path class="st1" d="M25.4,6.5c-1.2,0-2.4.3-3.5.7-1.2.5-2.2,1.3-3,2.3V3.4c0-.2,0-.3,0-.5-.4-1.8-2.6-2.9-6.1-2.9s-5.7,1.1-6.1,2.9c0,.2,0,.3,0,.5v33.6c-3.4.7-6.7,2.1-6.7,5.2,0,5.2,9,5.7,12.8,5.7s12.8-.6,12.8-5.7-.2-1.3-.4-1.8c.1,0,.3,0,.4,0,.6,0,1.1-.2,1.6-.6,0,0,0,0,.1-.1,0,0,0,0,.1-.1l2-2.4c.4-.5.7-1.1.7-1.7v-13.4c3.4-2.3,4.8-6.7,3.1-10.6-1.4-3.1-4.4-5-7.8-5Z"/>
  <path d="M25.9,38.3s0,0,0,0l2-2.4c0,0,.2-.2.2-.4v-14.5c3.3-1.5,4.7-5.3,3.3-8.6s-5.3-4.8-8.6-3.3c-3.3,1.5-4.7,5.3-3.3,8.6.8,1.7,2.2,3,4,3.6v.8s-1.6.4-1.6.4v.7l1.1.8s0,0,0,.1c0,0,0,0,0,0l-1.1.7s0,0,0,.1c0,0,0,0,0,0l1.1.6s0,0,0,.1c0,0,0,0,0,0l-1.1.7s0,0,0,.1c0,0,0,0,0,0l1.1.7s0,0,0,.1c0,0,0,0,0,0l-1,1s0,0,0,.1c0,0,0,0,0,0l1.7,1.6v1.1l-1.2,1c0,0,0,.2,0,.2,0,0,0,0,0,0l.5.9c0,0,0,.1,0,.2l-1,1c0,.1,0,.3,0,.4,0,0,0,0,0,0l3.4,3.2c.1.1.4.2.5,0ZM24,12.8c0-.8.6-1.4,1.4-1.4s1.4.6,1.4,1.4-.6,1.4-1.4,1.4-1.4-.6-1.4-1.4Z"/>
  <g>
    <path class="st1" d="M17,40.7v1h0c0,.8-1.9,1.4-4.1,1.4s-4.1-.6-4.1-1.4h0v-1c-2.8.4-4.3,1.1-4.7,1.5.5.6,3.3,1.7,8.8,1.7s8.3-1.2,8.8-1.7c-.3-.4-1.9-1.1-4.7-1.5Z"/>
    <path class="st0" d="M17,38.7v-2.5h-8.3v2.5c-3.4.4-6.7,1.4-6.7,3.5,0,2.9,6.8,3.7,10.8,3.7s10.8-.8,10.8-3.7c0-2.1-3.3-3.1-6.7-3.5ZM4,42.2c.3-.4,1.9-1.1,4.7-1.5v1h0c0,.8,1.9,1.4,4.1,1.4s4.1-.6,4.1-1.4h0v-1c2.8.4,4.3,1.1,4.7,1.5-.5.6-3.3,1.7-8.8,1.7s-8.3-1.2-8.8-1.7Z"/>
    <rect class="st1" x="8.7" y="8.9" width="8.3" height="5.5"/>
    <rect class="st0" x="8.7" y="14.4" width="8.3" height="5.5"/>
    <path class="st0" d="M17,3.4c0-.8-1.9-1.4-4.1-1.4s-4.1.6-4.1,1.4v5.5h8.3V3.4h0Z"/>
    <rect class="st1" x="8.7" y="19.8" width="8.3" height="5.5"/>
    <rect class="st0" x="8.7" y="25.3" width="8.3" height="5.5"/>
    <rect class="st1" x="8.7" y="30.8" width="8.3" height="5.5"/>
  </g>
</svg>