<?xml version="1.0" encoding="UTF-8"?>
<svg id="Layer_1" xmlns="http://www.w3.org/2000/svg" version="1.1" xmlns:xlink="http://www.w3.org/1999/xlink" viewBox="0 0 66.6 66.5">
  <!-- Generator: Adobe Illustrator 29.3.1, SVG Export Plug-In . SVG Version: 2.1.0 Build 151)  -->
  <defs>
    <style>
      .st0 {
        fill: none;
        stroke: #000;
        stroke-linecap: round;
        stroke-miterlimit: 10;
        stroke-width: 2px;
      }

      .st1 {
        fill: #fff;
      }

      .st2 {
        fill: #ff0;
      }
    </style>
  </defs>
  <g>
    <polygon class="st1" points="4 39.9 14.1 3.5 52.5 3.5 62.6 40 33.3 62.1 4 39.9"/>
    <path d="M15.3,5h36.1l9.5,34.4-27.6,20.9L5.7,39.3,15.3,5M13,2L2.3,40.5l31,23.5,31-23.5L53.6,2H13Z"/>
    <path class="st1" d="M53.6,2l10.7,38.5-31,23.5L2.3,40.5,13,2h40.6M55.1,0H11.5l-.4,1.5L.4,39.9l-.4,1.3,1.1.8,31,23.5,1.2.9,1.2-.9,31-23.5,1.1-.8-.4-1.3L55.5,1.5l-.4-1.5h0Z"/>
  </g>
  <g>
    <path class="st2" d="M23.7,42c-1.3,0-2.4-1.1-2.4-2.4v-23.2c0-1.3,1.1-2.4,2.4-2.4h19.2c1.3,0,2.4,1.1,2.4,2.4v23.2c0,1.3-1.1,2.4-2.4,2.4h-19.2Z"/>
    <path d="M42.9,15c.8,0,1.4.6,1.4,1.4v23.2c0,.8-.6,1.4-1.4,1.4h-19.2c-.8,0-1.4-.6-1.4-1.4v-23.2c0-.8.6-1.4,1.4-1.4h19.2M42.9,13h-19.2c-1.9,0-3.4,1.5-3.4,3.4v23.2c0,1.9,1.5,3.4,3.4,3.4h19.2c1.9,0,3.4-1.5,3.4-3.4v-23.2c0-1.9-1.5-3.4-3.4-3.4h0Z"/>
  </g>
  <g>
    <g>
      <line class="st0" x1="45.3" y1="21" x2="49.3" y2="21"/>
      <line class="st0" x1="45.3" y1="35" x2="49.3" y2="35"/>
    </g>
    <g>
      <line class="st0" x1="17.3" y1="21" x2="21.3" y2="21"/>
      <line class="st0" x1="17.3" y1="35" x2="21.3" y2="35"/>
    </g>
  </g>
  <polygon points="32.8 24.6 30.2 24.6 33.8 16.3 37.9 16.3 34.4 22.4 37.2 22.4 28.6 34.3 32.8 24.6"/>
  <path d="M35.8,39.5h-5c-.8,0-1.5-.7-1.5-1.5h0c0-.8.7-1.5,1.5-1.5h5c.8,0,1.5.7,1.5,1.5h0c0,.8-.7,1.5-1.5,1.5Z"/>
</svg>