<?xml version="1.0" encoding="UTF-8"?>
<svg id="Layer_1" xmlns="http://www.w3.org/2000/svg" version="1.1" xmlns:xlink="http://www.w3.org/1999/xlink" viewBox="0 0 42 42.5">
  <!-- Generator: Adobe Illustrator 29.3.1, SVG Export Plug-In . SVG Version: 2.1.0 Build 151)  -->
  <defs>
    <style>
      .st0 {
        fill: #fff;
      }

      .st1 {
        fill: none;
      }

      .st2 {
        fill: #0056a4;
      }
    </style>
  </defs>
  <path class="st0" d="M40,15h-3c-.7-2.8-2.1-5.3-4-7.3.6-.3,1-1,1-1.7V2c0-1.1-.9-2-2-2h-4c-1.1,0-2,.9-2,2v1.3c-1.6-.5-3.3-.8-5-.8s-3.4.3-5,.8v-1.3c0-1.1-.9-2-2-2h-4c-1.1,0-2,.9-2,2v4c0,.7.4,1.4,1,1.7-1.9,2-3.3,4.5-4,7.3h-3c-1.1,0-2,.9-2,2v4c0,1.1.9,2,2,2h3c.7,2.8,2.1,5.3,4,7.3-.6.3-1,1-1,1.7v2.5l-.6,1H2c-1.1,0-2,.9-2,2v3c0,1.1.9,2,2,2h38c1.1,0,2-.9,2-2v-3c0-1.1-.9-2-2-2h-5.4l-.6-1v-2.5c0-.7-.4-1.4-1-1.7,1.9-2,3.3-4.5,4-7.3h3c1.1,0,2-.9,2-2v-4c0-1.1-.9-2-2-2Z"/>
  <g>
    <path class="st2" d="M21,33.5c-8,0-14.5-6.5-14.5-14.5s6.5-14.5,14.5-14.5,14.5,6.5,14.5,14.5-6.5,14.5-14.5,14.5ZM21,7.5c-6.3,0-11.5,5.2-11.5,11.5s5.2,11.5,11.5,11.5,11.5-5.2,11.5-11.5-5.2-11.5-11.5-11.5Z"/>
    <rect class="st2" x="2" y="37.5" width="38" height="3"/>
    <g>
      <rect class="st2" x="9" y="18" width="24" height="2"/>
      <rect class="st2" x="9" y="17.5" width="24" height="3" transform="translate(-6 27.7) rotate(-60)"/>
      <rect class="st2" x="19.5" y="7" width="3" height="24" transform="translate(-6.7 13) rotate(-30)"/>
    </g>
    <rect class="st2" x="2" y="17" width="4" height="4"/>
    <rect class="st2" x="36" y="17" width="4" height="4"/>
    <rect class="st2" x="10" y="2" width="4" height="4"/>
    <rect class="st2" x="28" y="32" width="4" height="4"/>
    <rect class="st2" x="28" y="2" width="4" height="4"/>
    <rect class="st2" x="10" y="32" width="4" height="4"/>
    <path class="st2" d="M35.1,40.5H6.9l14.1-24.5,14.1,24.5ZM12.1,37.5h17.9l-8.9-15.5-8.9,15.5Z"/>
  </g>
  <g>
    <circle class="st1" cx="21" cy="19" r="13"/>
    <line class="st1" x1="40" y1="39" x2="2" y2="39"/>
    <g>
      <line class="st1" x1="9" y1="19" x2="33" y2="19"/>
      <line class="st1" x1="27" y1="8.6" x2="15" y2="29.4"/>
      <line class="st1" x1="15" y1="8.6" x2="27" y2="29.4"/>
    </g>
    <rect class="st2" x="2" y="17" width="4" height="4"/>
    <rect class="st2" x="36" y="17" width="4" height="4"/>
    <rect class="st2" x="10" y="2" width="4" height="4"/>
    <rect class="st2" x="28" y="32" width="4" height="4"/>
    <rect class="st2" x="28" y="2" width="4" height="4"/>
    <rect class="st2" x="10" y="32" width="4" height="4"/>
    <polygon class="st1" points="9.5 39 32.5 39 21 19 9.5 39"/>
  </g>
</svg>