<?xml version="1.0" encoding="UTF-8"?>
<svg id="Layer_1" xmlns="http://www.w3.org/2000/svg" version="1.1" xmlns:xlink="http://www.w3.org/1999/xlink" viewBox="0 0 66.6 66.5">
  <!-- Generator: Adobe Illustrator 29.3.1, SVG Export Plug-In . SVG Version: 2.1.0 Build 151)  -->
  <defs>
    <style>
      .st0 {
        stroke-miterlimit: 10;
      }

      .st0, .st1, .st2 {
        stroke: #0056a4;
      }

      .st0, .st2 {
        fill: none;
      }

      .st1 {
        stroke-width: 3px;
      }

      .st1, .st3 {
        fill: #fff;
      }

      .st1, .st2 {
        stroke-linecap: round;
        stroke-linejoin: round;
      }
    </style>
  </defs>
  <g>
    <polygon class="st3" points="4 39.9 14.1 3.5 52.5 3.5 62.6 40 33.3 62.1 4 39.9"/>
    <path d="M51.3,5l9.5,34.4-27.6,20.9L5.7,39.3,15.3,5h36.1M53.6,2H13L2.3,40.5l31,23.5,31-23.5L53.6,2h0Z"/>
    <path class="st3" d="M53.6,2l10.7,38.5-31,23.5L2.3,40.5,13,2h40.6M55.1,0H11.5l-.4,1.5L.4,39.9l-.4,1.3,1.1.8,31,23.5,1.2.9,1.2-.9,31-23.5,1.1-.8-.4-1.3L55.5,1.5l-.4-1.5h0Z"/>
  </g>
  <g>
    <path class="st0" d="M41.8,22.5h-17.1c-1.6,0-2.1-2-.7-2.7l9.2-4.3,9.2,4.3c1.4.7.9,2.7-.7,2.7Z"/>
    <path class="st2" d="M31.3,11.5c0-1.1.9-2,2-2s2,.9,2,2-.9,2-2,2v2"/>
    <path class="st1" d="M38.3,17.5h0c-.3,2.5-2.4,4.5-5,4.5s-4.7-2-5-4.5h0c-5.2,0-9.4,3.9-10,8.9,0,.6.4,1.1,1,1.1h2.4c.6,0,1,.4,1,1v17c0,.6.4,1,1,1h19.1c.6,0,1-.4,1-1v-17c0-.6.4-1,1-1h2.4c.6,0,1.1-.5,1-1.1-.6-5-4.8-8.9-10-8.9Z"/>
  </g>
</svg>