<?xml version="1.0" encoding="UTF-8"?>
<svg id="Layer_1" xmlns="http://www.w3.org/2000/svg" version="1.1" xmlns:xlink="http://www.w3.org/1999/xlink" viewBox="0 0 62 62">
  <!-- Generator: Adobe Illustrator 29.3.1, SVG Export Plug-In . SVG Version: 2.1.0 Build 151)  -->
  <defs>
    <style>
      .st0 {
        stroke-width: 2px;
      }

      .st0, .st1 {
        fill: none;
        stroke: #0056a4;
        stroke-miterlimit: 10;
      }

      .st2 {
        fill: #0056a4;
      }

      .st1 {
        stroke-width: 3px;
      }
    </style>
  </defs>
  <path d="M13,3h36.1l9.5,34.4-27.6,20.9L3.4,37.3,13,3M10.7,0L0,38.5l31,23.5,31-23.5L51.3,0H10.7Z"/>
  <g>
    <circle class="st1" cx="31" cy="22.1" r="13"/>
    <line class="st1" x1="50" y1="42.1" x2="12" y2="42.1"/>
    <g>
      <line class="st0" x1="19" y1="22.1" x2="43" y2="22.1"/>
      <line class="st1" x1="37" y1="11.7" x2="25" y2="32.5"/>
      <line class="st1" x1="25" y1="11.7" x2="37" y2="32.5"/>
    </g>
    <rect class="st2" x="12" y="20.1" width="4" height="4"/>
    <rect class="st2" x="46" y="20.1" width="4" height="4"/>
    <rect class="st2" x="20" y="5.1" width="4" height="4"/>
    <rect class="st2" x="38" y="35.1" width="4" height="4"/>
    <rect class="st2" x="38" y="5.1" width="4" height="4"/>
    <rect class="st2" x="20" y="35.1" width="4" height="4"/>
    <polygon class="st1" points="19.5 42.1 42.5 42.1 31 22.1 19.5 42.1"/>
  </g>
</svg>