<?xml version="1.0" encoding="UTF-8"?>
<svg id="Layer_1" xmlns="http://www.w3.org/2000/svg" version="1.1" xmlns:xlink="http://www.w3.org/1999/xlink" viewBox="0 0 62 62">
  <!-- Generator: Adobe Illustrator 29.3.1, SVG Export Plug-In . SVG Version: 2.1.0 Build 151)  -->
  <defs>
    <style>
      .st0 {
        fill: none;
        stroke: #000;
        stroke-linecap: round;
        stroke-miterlimit: 10;
        stroke-width: 2px;
      }
    </style>
  </defs>
  <path d="M13,3h36.1l9.5,34.4-27.6,20.9L3.4,37.3,13,3M10.7,0L0,38.5l31,23.5,31-23.5L51.3,0H10.7Z"/>
  <path d="M32,11.5l3.4,1.4c.3,0,.6,0,.7-.4,0-.2,0-.3,0-.5l-4.4-6.5c-.2-.3-.6-.4-.9-.2,0,0-.1,0-.2.2l-4.5,6.5c-.2.3-.1.6.1.8.1,0,.3.1.5,0h0l3.4-1.4h1.9Z"/>
  <path class="st0" d="M31,49.7c0-.8,0-1.9-.7-3-.7-1.2-1.7-1.6-3.1-2.6-1.8-1.3-3.9-2.7-3.9-4.3-.1-2.3,4.2-5,8.3-5.2,3.1-.2,6.6,1,6.6,2.1,0,1.2-3.5,2.5-6.5,2.5-.8,0-4.9,0-7.5-3.2-.6-.7-1.8-2.2-1.7-4.1.2-3.7,5.1-6.4,9.1-6.8,4.1-.5,8.7,1.3,8.7,2.7,0,1.4-4.7,2.6-8.9,2.5-1.7,0-9.6-.8-9.6-6.8s3.6-4.2,6.7-5.4c3.3-1.3,2.6-6.2,2.5-8.8"/>
</svg>