<?xml version="1.0" encoding="UTF-8"?>
<svg id="Layer_1" xmlns="http://www.w3.org/2000/svg" version="1.1" xmlns:xlink="http://www.w3.org/1999/xlink" viewBox="0 0 66.6 66.5">
  <!-- Generator: Adobe Illustrator 29.3.1, SVG Export Plug-In . SVG Version: 2.1.0 Build 151)  -->
  <defs>
    <style>
      .st0 {
        fill: #fff;
      }

      .st1 {
        fill: none;
        stroke-width: 2.1px;
      }

      .st1, .st2 {
        stroke: #000;
        stroke-miterlimit: 10;
      }

      .st3 {
        isolation: isolate;
      }

      .st2 {
        fill: #ff0;
      }
    </style>
  </defs>
  <g>
    <polygon class="st0" points="4 39.9 14.1 3.5 52.5 3.5 62.6 40 33.3 62.1 4 39.9"/>
    <path d="M51.3,5l9.5,34.4-27.6,20.9L5.7,39.3,15.3,5h36.1M53.6,2H13L2.3,40.5l31,23.5,31-23.5L53.6,2h0Z"/>
    <path class="st0" d="M53.6,2l10.7,38.5-31,23.5L2.3,40.5,13,2h40.6M55.1,0H11.5l-.4,1.5L.4,39.9l-.4,1.3,1.1.8,31,23.5,1.2.9,1.2-.9,31-23.5,1.1-.8-.4-1.3L55.5,1.5l-.4-1.5h0Z"/>
  </g>
  <g>
    <polygon class="st2" points="49.2 15.9 49.2 43 17.4 43 17.4 15.9 33.3 8.5 49.2 15.9"/>
    <polyline class="st1" points="49.2 15.9 49.2 43 17.4 43 17.4 15.9"/>
    <polyline class="st1" points="13.1 17.5 33.3 8.5 53.5 17.5"/>
  </g>
  <g class="st3">
    <path d="M29.7,35l-5.6-14.6h2.1l4.6,12.3,4.6-12.3h2.1l-5.6,14.6h-2.2Z"/>
    <path d="M39.6,20.4h2v14.6h-2v-14.6Z"/>
  </g>
</svg>