<?xml version="1.0" encoding="UTF-8"?>
<svg id="Layer_1" xmlns="http://www.w3.org/2000/svg" version="1.1" xmlns:xlink="http://www.w3.org/1999/xlink" viewBox="0 0 62 62">
  <!-- Generator: Adobe Illustrator 29.3.1, SVG Export Plug-In . SVG Version: 2.1.0 Build 151)  -->
  <defs>
    <style>
      .st0 {
        fill: #0056a4;
      }

      .st1 {
        fill: none;
        stroke: #0056a4;
        stroke-miterlimit: 10;
        stroke-width: 3px;
      }
    </style>
  </defs>
  <path d="M13,3h36.1l9.5,34.4-27.6,20.9L3.4,37.3,13,3M10.7,0L0,38.5l31,23.5,31-23.5L51.3,0H10.7Z"/>
  <g>
    <path class="st1" d="M49,23.5v16c0,1.1-.9,2-2,2H15c-1.1,0-2-.9-2-2v-16"/>
    <path class="st1" d="M49,23.5c-1.8,0-1.8-1-3.6-1s-1.8,1-3.6,1-1.8-1-3.6-1-1.8,1-3.6,1-1.8-1-3.6-1-1.8,1-3.6,1-1.8-1-3.6-1-1.8,1-3.6,1-1.8-1-3.6-1-1.8,1-3.6,1v-1.8c0-.7.4-1.4,1-1.7l17-9.4,17,9.4c.6.4,1,1,1,1.7v1.8Z"/>
    <path class="st1" d="M37,41.5h-12v-10c0-1.1.9-2,2-2h8c1.1,0,2,.9,2,2v10Z"/>
    <line class="st1" x1="31" y1="10.5" x2="31" y2="4.5"/>
    <rect class="st0" x="31" y="4.5" width="6" height="3"/>
  </g>
</svg>