<?xml version="1.0" encoding="UTF-8"?>
<svg id="Layer_1" xmlns="http://www.w3.org/2000/svg" version="1.1" xmlns:xlink="http://www.w3.org/1999/xlink" viewBox="0 0 54.3 33.7">
  <!-- Generator: Adobe Illustrator 29.3.1, SVG Export Plug-In . SVG Version: 2.1.0 Build 151)  -->
  <defs>
    <style>
      .st0 {
        fill: #fff;
      }

      .st1 {
        fill: #f6bd16;
      }
    </style>
  </defs>
  <path class="st0" d="M45.2,16c-.4-.6-1-1-1.7-1h-5.7c-1.1,0-2,.9-2,2v7.3c-.4,0-.9-.2-1.5-.2-1.6,0-2.6.6-3.2.9h-.2q0,0,0,0h0s0,0-.2,0c-.6-.3-1.5-.9-3.2-.9s-2.6.6-3.2.9h-.2q0,0-.1,0h-.1s-.1,0-.2,0c-.6-.3-1.5-.9-3.2-.9s-1.1,0-1.5.2v-2.6c.3.2.7.3,1,.3.5,0,1-.2,1.4-.6l14.9-15c.8-.8.8-2,0-2.8l-3-3c-.4-.4-.9-.6-1.4-.6h0c-.5,0-1,.2-1.4.6l-14.4,14.4h-4.9c-.7,0-1.3.4-1.7,1L.3,30.7c-.4.6-.4,1.4,0,2s1,1,1.7,1h14.7c1.6,0,2.6-.6,3.2-.9h.2q0,0,.1,0h.1s.1,0,.2,0c.6.3,1.5.9,3.2.9s2.6-.6,3.2-.9h.2q0,0,0,0h0s0,0,.2,0c.6.3,1.5.9,3.2.9s2.6-.6,3.2-.9h.2q0,0,0,0h0s0,0,.2,0c.6.3,1.5.9,3.2.9h14.7c.7,0,1.4-.4,1.7-1s.3-1.4,0-2l-9-14.7h.1Z"/>
  <g>
    <path class="st1" d="M52.5,31.8l-9-14.7h-5.7v10.2c-.7,0-1-.2-1.4-.4-.5-.3-1.1-.6-2.2-.6s-1.7.3-2.2.6c-.4.2-.7.4-1.4.4s-1-.2-1.4-.4c-.5-.3-1.1-.6-2.2-.6s-1.7.3-2.2.6c-.4.2-.7.4-1.4.4s-1-.2-1.4-.4c-.5-.3-1.1-.6-2.2-.6s-1.7.3-2.2.6c-.4.2-.7.4-1.4.4v-10.2h-5.7L1.5,31.8h14.7c1.1,0,1.7-.3,2.2-.6.4-.2.7-.4,1.4-.4s1,.2,1.4.4c.5.3,1.1.6,2.2.6s1.7-.3,2.2-.6c.4-.2.7-.4,1.4-.4s1,.2,1.4.4c.5.3,1.1.6,2.2.6s1.7-.3,2.2-.6c.4-.2.7-.4,1.4-.4s1,.2,1.4.4c.5.3,1.1.6,2.2.6,0,0,14.7,0,14.7,0ZM36.4,29.8c-.5-.3-1.1-.6-2.2-.6s-1.7.3-2.2.6c-.4.2-.7.4-1.4.4s-1-.2-1.4-.4c-.5-.3-1.1-.6-2.2-.6s-1.7.3-2.2.6c-.4.2-.7.4-1.4.4s-1-.2-1.4-.4c-.5-.3-1.1-.6-2.2-.6s-1.7.3-2.2.6c-.4.2-.7.4-1.4.4v-1.4c1.1,0,1.7-.3,2.2-.6.4-.2.7-.4,1.4-.4s1,.2,1.4.4c.5.3,1.1.6,2.2.6s1.7-.3,2.2-.6c.4-.2.7-.4,1.4-.4s1,.2,1.4.4c.5.3,1.1.6,2.2.6s1.7-.3,2.2-.6c.4-.2.7-.4,1.4-.4s1,.2,1.4.4c.5.3,1.1.6,2.2.6v1.4c-.7,0-1-.2-1.4-.4Z"/>
    <rect class="st1" x="15" y="8.9" width="21.2" height="4.2" transform="translate(-.3 21.4) rotate(-45.2)"/>
  </g>
</svg>