<?xml version="1.0" encoding="UTF-8"?>
<svg id="Layer_1" xmlns="http://www.w3.org/2000/svg" version="1.1" xmlns:xlink="http://www.w3.org/1999/xlink" viewBox="0 0 50 32">
  <!-- Generator: Adobe Illustrator 29.3.1, SVG Export Plug-In . SVG Version: 2.1.0 Build 151)  -->
  <defs>
    <style>
      .st0 {
        fill: #fff;
      }

      .st1 {
        fill: #607c33;
      }
    </style>
  </defs>
  <path class="st0" d="M25,0C11,0,0,7,0,16s11,16,25,16,25-7,25-16S39,0,25,0Z"/>
  <g>
    <path class="st1" d="M25,5c-10.8,0-20,5-20,11s9.2,11,20,11,20-5,20-11-9.2-11-20-11Z"/>
    <path d="M25,2C12.3,2,2,8.3,2,16s10.3,14,23,14,23-6.3,23-14S37.7,2,25,2ZM25,27c-10.8,0-20-5-20-11S14.2,5,25,5s20,5,20,11-9.2,11-20,11Z"/>
  </g>
</svg>