<?xml version="1.0" encoding="UTF-8"?>
<svg id="Layer_1" xmlns="http://www.w3.org/2000/svg" version="1.1" xmlns:xlink="http://www.w3.org/1999/xlink" viewBox="0 0 36 42.6">
  <!-- Generator: Adobe Illustrator 29.3.1, SVG Export Plug-In . SVG Version: 2.1.0 Build 151)  -->
  <defs>
    <style>
      .st0 {
        fill: #fff;
      }

      .st1 {
        fill: none;
      }

      .st2 {
        fill: #ff0;
      }
    </style>
  </defs>
  <path class="st0" d="M34.9,4.4l-.5-.7c-.6-.8-1.1-1.5-1.7-2.3-.6-.8-1.4-1.2-2.4-1.2-1,0-2,0-2.9,0-.1,0-.3,0-.5,0h-8.4c-.1,0-.3,0-.4,0h-.2c-4.2,0-8.4,0-12.4,0h0c-1,0-1.8.4-2.4,1.2-.4.5-.7,1-1.1,1.6-.5.7-.9,1.3-1.4,2C.2,5.3,0,6,0,6.6c0,.4,0,.9,0,1.3,0,.4,0,.8,0,1.2,0,.8.2,2,1.1,3.1,0,2.6,0,5.2,0,7.8v.7C.4,21.2,0,21.9,0,22.9c0,.6,0,1.2,0,1.8,0,.9.4,1.7,1.1,2.1v6.4c0,1.7,1,2.8,2.8,2.8h2.3l-.3.8c-.2.5-.2,1,0,1.4l-1.3,3c-.2.5,0,1,.4,1.3.2,0,.3.1.5.1.3,0,.6-.1.8-.4l1.9-2.6c.5-.1.9-.4,1.2-.8l2-2.7h20.7c1.7,0,2.8-1,2.8-2.8v-6.4c.7-.5,1.1-1.2,1.1-2.2,0-.6,0-1.2,0-1.7,0-1-.4-1.7-1.1-2.2,0-2.8,0-5.5,0-8.3.8-.9,1.3-2,1.3-3.3v-.6c0-.5,0-1.1,0-1.6h0c0-1.2-.3-2-1.1-2.6Z"/>
  <g>
    <path class="st1" d="M23.7,9.5c0-.4,0-.8,0-1.1l-1.4,2.4c.7,0,1.3-.6,1.4-1.3Z"/>
    <path class="st1" d="M17.5,3.1c-3.9,0-7.9,0-11.7,0-.1,0-.3,0-.4.2-.6.8-1.1,1.5-1.7,2.3,0,0,0,.1-.1.2h12.7l1.2-2.8Z"/>
    <path class="st1" d="M11.8,7c0,.8,0,1.6,0,2.3,0,.8.7,1.4,1.5,1.5.4,0,.7,0,1.1-.3l.7-1.6c0-.7,0-1.3,0-2-1,0-2.1,0-3.2,0Z"/>
    <path class="st1" d="M6.4,22.2h7.4l1.9-4.4h-4.4l.6-1.4,2-4.6c-.1,0-.2,0-.4,0-.9,0-1.6-.4-2.2-1.1-1.1,1.3-2.9,1.6-4.3,0-.4.3-.5.6-.5,1.1,0,3.3,0,6.6,0,9.9,0,.1,0,.3,0,.4Z"/>
    <path class="st1" d="M6.3,9.5c0-.8,0-1.6,0-2.5h-3.2c0,.8,0,1.5,0,2.2,0,.9.7,1.5,1.6,1.6.8,0,1.6-.5,1.7-1.4Z"/>
    <path class="st1" d="M25.2,5.9h7c0,0,0-.1,0-.1-.6-.8-1.2-1.7-1.8-2.5,0,0-.2-.1-.4-.1-1,0-2.1,0-3.1,0l-1.6,2.8Z"/>
    <path class="st1" d="M29.4,21.9c0-3.4,0-6.9,0-10.3,0-.3-.1-.5-.4-.7-1.1,1.3-3.5,1.5-4.8,0-.9.9-1.7,1.2-2.6,1v.2c-.1,0,3,0,3,0h2l-1.1,1.6-6.2,8.6h10.1c0-.1,0-.3,0-.4Z"/>
    <path class="st1" d="M31.6,11.9c-.4,0-.7,0-1.1,0v10.4h1.1v-10.3Z"/>
    <path class="st1" d="M4.2,22.3h1.1v-10.4h-1.1v10.4Z"/>
    <path class="st1" d="M17.2,25.3l-5.5,7.7h20v-7.7c-.1,0-.2,0-.3,0-4.6,0-9.4,0-14.1,0Z"/>
    <path class="st1" d="M29.6,7c0,.8,0,1.5,0,2.2,0,.9.6,1.6,1.5,1.6.8,0,1.6-.5,1.7-1.4,0-.8,0-1.7,0-2.5-1.1,0-2.1,0-3.2,0Z"/>
    <path class="st1" d="M12.4,25.3c-2.7,0-5.3,0-7.9,0-.3,0-.4,0-.4.4,0,2.3,0,4.7,0,7,0,0,0,.2,0,.3h4.9l3.3-7.7Z"/>
    <path d="M33.6,5.9c0,0-.1-.2-.2-.2-.8-1.1-1.5-2.1-2.3-3.2-.2-.3-.4-.4-.8-.4-.9,0-1.9,0-2.9,0l.3-.6h-9.6l-.2.6c-4.2,0-8.4,0-12.5,0-.3,0-.6.1-.8.4-.8,1.2-1.7,2.3-2.5,3.5-.1.2-.2.4-.2.6,0,.9,0,1.7,0,2.6,0,.8.3,1.5.9,2,.2.2.2.3.2.5,0,3.4,0,6.8,0,10.2v.4c-.2,0-.3,0-.5,0-.4,0-.6.2-.6.6,0,.6,0,1.2,0,1.8,0,.4.2.5.6.6.2,0,.3,0,.5,0v8c0,.6.2.8.8.8h4.8l-3.3,7.6,5.3-7.4h.1c7-.1,14.2-.1,21.1-.1s.8-.2.8-.8v-8c.2,0,.3,0,.4,0,.5,0,.7-.2.7-.7,0-.6,0-1.1,0-1.7,0-.4-.2-.6-.6-.6-.2,0-.3,0-.4,0,0,0,0-.1,0-.2,0-3.5,0-6.9,0-10.4,0-.1,0-.3.2-.3.7-.6,1.1-1.3,1.1-2.3s0-1.5,0-2.2c0-.4,0-.8-.4-1ZM30.4,3.3c.6.8,1.2,1.7,1.8,2.5,0,0,0,0,0,.1h-7l1.6-2.8c1,0,2.1,0,3.1,0,.1,0,.3,0,.4.1ZM6.4,11.9c0-.5.1-.8.5-1.1,1.4,1.6,3.3,1.2,4.3,0,.6.7,1.3,1.1,2.2,1.1.1,0,.3,0,.4,0l-2,4.6-.6,1.4h4.4l-1.9,4.4h-7.4v-.4c0-3.3,0-6.6,0-9.9ZM15,9l-.7,1.6c-.3.2-.7.3-1.1.3-.8,0-1.5-.7-1.5-1.5,0-.8,0-1.5,0-2.3h3.2c0,.7,0,1.3,0,2ZM17.2,16.9h-4.4l6.1-14.4h7.2l-6.2,10.6h4.9l-14.8,20.6,7.2-16.7ZM23.8,8.4c0,.4,0,.8,0,1.1,0,.7-.7,1.2-1.4,1.3l1.4-2.4ZM25.6,13.6l1.1-1.6h-5.1v-.2c1,.2,1.8-.1,2.7-1,1.3,1.5,3.7,1.3,4.8,0,.2.2.4.4.4.7,0,3.4,0,6.9,0,10.3v.4h-10.1l6.2-8.6ZM3.8,5.7c.6-.8,1.1-1.6,1.7-2.3,0-.1.3-.2.4-.2,3.8,0,7.7,0,11.7,0l-1.2,2.8H3.6c0,0,0-.2.1-.2ZM3.1,9.2c0-.7,0-1.5,0-2.2h3.2c0,.8,0,1.7,0,2.5,0,.8-.9,1.4-1.7,1.4-.9,0-1.5-.7-1.6-1.6ZM5.3,11.9v10.4h-1.1v-10.4c.4,0,.7,0,1.1,0ZM4.2,32.7c0-2.3,0-4.7,0-7,0-.3,0-.4.4-.4,2.6,0,5.2,0,7.9,0l-3.3,7.7h-4.9c0,0,0-.2,0-.3ZM31.6,33H11.6l5.5-7.7c4.7,0,9.5,0,14.1,0s.2,0,.3,0v7.7ZM30.5,22.3v-10.4c.4,0,.7,0,1.1,0v10.3h-1.1ZM32.9,9.5c0,.8-.9,1.4-1.7,1.4-.9,0-1.5-.8-1.5-1.6,0-.7,0-1.5,0-2.2h3.2c0,.8,0,1.7,0,2.5Z"/>
    <polygon class="st2" points="24.8 13.1 19.9 13.1 26.1 2.5 18.9 2.5 12.7 16.9 17.2 16.9 9.9 33.6 24.8 13.1"/>
  </g>
</svg>