<?xml version="1.0" encoding="UTF-8"?>
<svg id="Layer_1" xmlns="http://www.w3.org/2000/svg" version="1.1" xmlns:xlink="http://www.w3.org/1999/xlink" viewBox="0 0 66.6 66.5">
  <!-- Generator: Adobe Illustrator 29.3.1, SVG Export Plug-In . SVG Version: 2.1.0 Build 151)  -->
  <defs>
    <style>
      .st0 {
        fill: #e4151c;
      }

      .st1 {
        fill: #fff;
      }

      .st2 {
        isolation: isolate;
      }
    </style>
  </defs>
  <g>
    <g>
      <polygon class="st0" points="2 40.6 12.8 1.8 53.8 1.8 64.6 40.6 33.3 64.3 2 40.6"/>
      <path class="st1" d="M52.5,3.5l10.1,36.5-29.3,22.2L4,39.9,14.1,3.5h38.3M55.1,0H11.5l-.7,2.6L.6,39l-.6,2.3,1.9,1.4,29.3,22.2,2.1,1.6,2.1-1.6,29.3-22.2,1.9-1.4-.6-2.3L55.8,2.6l-.7-2.6h0Z"/>
    </g>
    <path d="M51.3,5l9.5,34.4-27.6,20.9L5.7,39.3,15.3,5h36.1M53.6,2H13L2.3,40.5l31,23.5,31-23.5L53.6,2h0Z"/>
  </g>
  <g class="st2">
    <path class="st1" d="M26.3,21.6v2.1c-.7-.6-1.4-1.1-2.1-1.4s-1.6-.5-2.4-.5c-1.7,0-2.9.5-3.8,1.5s-1.3,2.5-1.3,4.4.4,3.4,1.3,4.4,2.2,1.5,3.8,1.5,1.6-.2,2.4-.5,1.5-.8,2.1-1.4v2.1c-.7.5-1.4.8-2.2,1.1s-1.6.4-2.4.4c-2.2,0-3.9-.7-5.2-2-1.3-1.4-1.9-3.2-1.9-5.5s.6-4.2,1.9-5.5c1.3-1.4,3-2,5.2-2s1.7.1,2.5.3,1.5.6,2.2,1Z"/>
    <path class="st1" d="M40.2,21.6v2.1c-.7-.6-1.4-1.1-2.1-1.4s-1.6-.5-2.4-.5c-1.7,0-2.9.5-3.8,1.5s-1.3,2.5-1.3,4.4.4,3.4,1.3,4.4,2.2,1.5,3.8,1.5,1.6-.2,2.4-.5,1.5-.8,2.1-1.4v2.1c-.7.5-1.4.8-2.2,1.1s-1.6.4-2.4.4c-2.2,0-3.9-.7-5.2-2-1.3-1.4-1.9-3.2-1.9-5.5s.6-4.2,1.9-5.5c1.3-1.4,3-2,5.2-2s1.7.1,2.5.3,1.5.6,2.2,1Z"/>
    <path class="st1" d="M50.2,28.3c.4.1.8.4,1.2.9s.8,1.1,1.2,1.9l2,4h-2.1l-1.9-3.7c-.5-1-.9-1.6-1.4-1.9s-1.1-.5-1.9-.5h-2.1v6.2h-2v-14.6h4.5c1.7,0,2.9.3,3.7,1s1.2,1.7,1.2,3.2-.2,1.7-.6,2.3-1,1-1.9,1.3ZM45.2,22.1v5.2h2.5c1,0,1.7-.2,2.2-.7s.7-1.1.7-1.9-.2-1.5-.7-1.9-1.2-.6-2.2-.6h-2.5Z"/>
  </g>
</svg>