<?xml version="1.0" encoding="UTF-8"?>
<svg id="Layer_1" xmlns="http://www.w3.org/2000/svg" version="1.1" xmlns:xlink="http://www.w3.org/1999/xlink" viewBox="0 0 62 62">
  <!-- Generator: Adobe Illustrator 29.3.1, SVG Export Plug-In . SVG Version: 2.1.0 Build 151)  -->
  <path d="M13,3h36.1l9.5,34.4-27.6,20.9L3.4,37.3,13,3M10.7,0L0,38.5l31,23.5,31-23.5L51.3,0H10.7Z"/>
  <path d="M40.9,23.2h0s-2.8,0-2.8,0v-4.1h-2.1v4.1h-5.5v-4.1h-2.1v4.1h-5.5v-4.1h-2.1v4.1h-3.5v4.1h3.5v6.2s0,0,0,0c-.9,0-1.3-.2-1.9-.6-.7-.4-1.5-.9-3-.9s-2.3.5-3,.9c-.6.3-1,.6-1.9.6h-1.1v2.2h1.1c1.5,0,2.3-.5,3-.9.6-.3,1-.6,1.9-.6s1.3.2,1.9.6c.7.4,1.5.9,3,.9s2.3-.5,3-.9c.6-.3,1-.6,1.9-.6s1.3.2,1.9.6c.7.4,1.5.9,3,.9s2.3-.5,3-.9c.6-.3,1-.6,1.9-.6s1.3.2,1.9.6c.7.4,1.5.9,3,.9h.3v1.9h-.3c-.9,0-1.3-.2-1.9-.6-.7-.4-1.5-.9-3-.9s-2.3.5-3,.9c-.6.3-1,.6-1.9.6s-1.3-.2-1.9-.6c-.7-.4-1.5-.9-3-.9s-2.3.5-3,.9c-.6.3-1,.6-1.9.6s-1.3-.2-1.9-.6c-.7-.4-1.5-.9-3-.9s-2.3.5-3,.9c-.6.3-1,.6-1.9.6h-1.1v2.2h1.1c1.5,0,2.3-.5,3-.9.6-.3,1-.6,1.9-.6s1.3.2,1.9.6c.7.4,1.5.9,3,.9s2.3-.5,3-.9c.6-.3,1-.6,1.9-.6s1.3.2,1.9.6c.7.4,1.5.9,3,.9s2.3-.5,3-.9c.6-.3,1-.6,1.9-.6s1.3.2,1.9.6c.7.4,1.5.9,3,.9h.3s11.3,0,11.3,0v-16.6h-11.1ZM25.7,32.1c-1.3,0-2.1.4-2.8.7v-5.5h5.5v5.5c-.6-.4-1.4-.7-2.8-.7ZM32.5,33c-.6.3-1,.6-1.9.6s0,0,0,0v-6.2h5.5v4.8c-.2,0-.4,0-.6,0-1.5,0-2.3.5-3,.9ZM40.4,33.5c-.9,0-1.3-.2-1.9-.6,0,0-.2-.1-.3-.2v-5.5h2.5v6.2s-.3,0-.3,0Z"/>
</svg>