<?xml version="1.0" encoding="UTF-8"?>
<svg id="Layer_1" xmlns="http://www.w3.org/2000/svg" version="1.1" xmlns:xlink="http://www.w3.org/1999/xlink" viewBox="0 0 46 23.2">
  <!-- Generator: Adobe Illustrator 29.3.1, SVG Export Plug-In . SVG Version: 2.1.0 Build 151)  -->
  <defs>
    <style>
      .st0 {
        fill: #fff;
      }

      .st1 {
        fill: #e2710d;
      }
    </style>
  </defs>
  <path class="st0" d="M36.2,1.3c-4.8-1.3-10.2-1.3-13.2-1.3s-8.4,0-13.2,1.3C1.7,3.5,0,8.3,0,11.9v9.3c0,1.1.9,2,2,2h4.4c1.1,0,2-.9,2-2v-9.3c0-.3,0-1.2,2.6-2,2.6-.9,6.5-1.3,12-1.3s9.4.4,12,1.3c2.3.7,2.6,1.5,2.6,2v9.3c0,1.1.9,2,2,2h4.4c.5,0,1-.2,1.4-.6s.6-.9.6-1.4v-9.3c0-3.6-1.7-8.3-9.8-10.6Z"/>
  <path class="st1" d="M44,21.2h-4.4v-9.3c0-2.6-2.8-3.5-4-3.9-2.8-1-7-1.4-12.7-1.4s-9.8.5-12.7,1.4c-4,1.3-4,3.1-4,3.9v9.3H2v-9.3C2,2,17.3,2,23,2s21,0,21,9.9v9.3Z"/>
  <path class="st1" d="M44,21.2h-4.4v-9.3c0-2.6-2.8-3.5-4-3.9-2.8-1-7-1.4-12.7-1.4s-9.8.5-12.7,1.4c-4,1.3-4,3.1-4,3.9v9.3H2v-9.3C2,2,17.3,2,23,2s21,0,21,9.9v9.3Z"/>
</svg>