<?xml version="1.0" encoding="UTF-8"?>
<svg id="Layer_1" xmlns="http://www.w3.org/2000/svg" version="1.1" xmlns:xlink="http://www.w3.org/1999/xlink" viewBox="0 0 43.2 41.7">
  <!-- Generator: Adobe Illustrator 29.3.1, SVG Export Plug-In . SVG Version: 2.1.0 Build 151)  -->
  <defs>
    <style>
      .st0 {
        fill: #e4151c;
      }

      .st1 {
        fill: #fff;
      }

      .st2 {
        fill: none;
      }
    </style>
  </defs>
  <path class="st1" d="M41.2,0h0s0,0,0,0c0,0-.2,0-.3,0l-15,2.3c-.7.1-1.4.6-1.6,1.4s0,1.5.5,2l.7.7-2.8,2.8-1.4,1.4h0l-4.9,4.9h0l-2.1,2.1h0l-2.8,2.8h0l-.4.4h-.5c0,0,.3-2.1.3-2.1.2-1.1-.6-2.1-1.7-2.3l-2-.3c-.1,0-.2,0-.3,0-.4,0-.8.1-1.2.4-.4.3-.7.8-.8,1.3l-.3,2-2-.3c-.1,0-.2,0-.3,0-1,0-1.8.7-2,1.7l-.3,2c0,.5,0,1.1.4,1.5.3.4.8.7,1.3.8l2.4.4c.3,1.9,1.1,3.7,2.5,5s3.7,2.5,5.9,2.6l-3.3,3.3c-.8.8-.8,2,0,2.8l1.4,1.4c.4.4.9.6,1.4.6s1-.2,1.4-.6l9.2-9.2s0,0,0,0l2.8-2.8h0l2.1-2.1h0l5.7-5.7,1.3-1.3h0l1.4-1.4h0l.4-.4.3-.3.7.7c.4.4.9.6,1.4.6s.4,0,.6,0c.7-.2,1.2-.9,1.4-1.6l.7-4.3.2-.2c.5-.5.7-1.2.5-1.8,0-.3-.2-.5-.3-.7l1.2-7.8c0-.1,0-.3,0-.4,0-1.1-.9-2-2-2Z"/>
  <g>
    <polygon class="st2" points="31.3 17.6 32.7 16.2 24.7 12.9 23.3 14.3 31.3 17.6"/>
    <polygon class="st2" points="26.8 10.7 34.8 14 35.4 13.5 33.4 11.5 28.2 9.3 26.8 10.7"/>
    <polygon class="st2" points="25.6 23.2 17.6 19.9 16.2 21.3 24.2 24.6 25.6 23.2"/>
    <polygon class="st2" points="19.7 17.8 27.8 21.1 29.2 19.7 21.2 16.4 19.7 17.8"/>
    <polygon class="st2" points="22.1 26.8 19.3 25.6 21.3 27.6 22.1 26.8"/>
    <path d="M16.5,28.1c-.9.9-2.2,1.5-3.5,1.5s-2.6-.5-3.5-1.5-1.7-2.9-1.4-4.5l-2-.4c-.5,2.3.2,4.7,1.9,6.3,1.3,1.3,3.1,2,4.9,2s3.6-.7,5-2l1.2-1.2-1.4-1.4-1.2,1.2Z"/>
    <path class="st0" d="M35.4,13.5l-.6.6-8-3.3,1.4-1.4,5.2,2.1-5.1-5.1-15.6,15.6,1.7,1.7h0l3.3,3.3,1.4,1.4,2.1,2.1,15.6-15.6-1.4-1.4ZM32.7,16.2l-1.4,1.4-8-3.3,1.4-1.4,8,3.3ZM17.6,19.9l8,3.3-1.4,1.4-8-3.3,1.4-1.4ZM27.8,21.1l-8-3.3,1.4-1.4,8,3.3-1.4,1.4ZM22.1,26.8l-.8.8-2-2,2.8,1.2Z"/>
    <rect x="9.4" y="33.3" width="13.1" height="2" transform="translate(-19.6 21.3) rotate(-45)"/>
    <rect x="9.6" y="22.4" width="2" height="3" transform="translate(-14.6 30.7) rotate(-81.3)"/>
    <rect x="2.6" y="21.3" width="2" height="3" transform="translate(-19.5 22.9) rotate(-81.3)"/>
    <rect x="6.1" y="18.9" width="3" height="2" transform="translate(-13.2 24.4) rotate(-81.3)"/>
    <polygon points="41.2 2 26.2 4.3 28.3 6.4 33.4 11.5 35.4 13.5 36.8 14.9 38.9 17 41.2 2"/>
  </g>
</svg>