<?xml version="1.0" encoding="UTF-8"?>
<svg id="Layer_1" xmlns="http://www.w3.org/2000/svg" version="1.1" xmlns:xlink="http://www.w3.org/1999/xlink" viewBox="0 0 66.6 66.5">
  <!-- Generator: Adobe Illustrator 29.3.1, SVG Export Plug-In . SVG Version: 2.1.0 Build 151)  -->
  <defs>
    <style>
      .st0 {
        fill: #e4151c;
      }

      .st1 {
        fill: #fff;
      }
    </style>
  </defs>
  <g>
    <g>
      <polygon class="st1" points="2 40.6 12.8 1.8 53.8 1.8 64.6 40.6 33.3 64.3 2 40.6"/>
      <path class="st1" d="M52.5,3.5l10.1,36.5-29.3,22.2L4,39.9,14.1,3.5h38.3M55.1,0H11.5l-.7,2.6L.6,39l-.6,2.3,1.9,1.4,29.3,22.2,2.1,1.6,2.1-1.6,29.3-22.2,1.9-1.4-.6-2.3L55.8,2.6l-.7-2.6h0Z"/>
    </g>
    <path d="M51.3,5l9.5,34.4-27.6,20.9L5.7,39.3,15.3,5h36.1M53.6,2H13L2.3,40.5l31,23.5,31-23.5L53.6,2h0Z"/>
  </g>
  <g>
    <polygon points="39.4 11.9 33.3 19.2 27.2 11.9 39.4 11.9"/>
    <polygon points="27.2 46.1 33.3 38.8 39.4 46.1 27.2 46.1"/>
  </g>
  <path class="st0" d="M33.3,7c-12.1,0-22,9.9-22,22s9.9,22,22,22,22-9.9,22-22S45.4,7,33.3,7ZM33.3,46.1c-9.4,0-17.1-7.7-17.1-17.1s7.7-17.1,17.1-17.1,17.1,7.7,17.1,17.1c0,9.4-7.7,17.1-17.1,17.1Z"/>
</svg>