<?xml version="1.0" encoding="UTF-8"?>
<svg id="Layer_1" xmlns="http://www.w3.org/2000/svg" version="1.1" xmlns:xlink="http://www.w3.org/1999/xlink" viewBox="0 0 66.6 66.5">
  <!-- Generator: Adobe Illustrator 29.3.1, SVG Export Plug-In . SVG Version: 2.1.0 Build 151)  -->
  <defs>
    <style>
      .st0 {
        fill: #e4151c;
      }

      .st1 {
        fill: #fff;
      }
    </style>
  </defs>
  <g>
    <polygon class="st1" points="4 39.9 14.1 3.5 52.5 3.5 62.6 40 33.3 62.1 4 39.9"/>
    <path d="M51.3,5l9.5,34.4-27.6,20.9L5.7,39.3,15.3,5h36.1M53.6,2H13L2.3,40.5l31,23.5,31-23.5L53.6,2h0Z"/>
    <path class="st1" d="M53.6,2l10.7,38.5-31,23.5L2.3,40.5,13,2h40.6M55.1,0H11.5l-.4,1.5L.4,39.9l-.4,1.3,1.1.8,31,23.5,1.2.9,1.2-.9,31-23.5,1.1-.8-.4-1.3L55.5,1.5l-.4-1.5h0Z"/>
  </g>
  <g>
    <path class="st0" d="M33.3,7c-12.1,0-22,9.8-22,22s9.9,22,22,22,22-9.8,22-22S45.4,7,33.3,7ZM33.3,46.1c-9.4,0-17.1-7.6-17.1-17.1s7.7-17.1,17.1-17.1,17.1,7.6,17.1,17.1-7.7,17.1-17.1,17.1Z"/>
    <path d="M46.7,28.4s0,0,0,0l-2.1-1.8c0,0-.2-.1-.3-.1h-12.8c-1.3-2.9-4.7-4.2-7.6-2.9-2.9,1.3-4.2,4.7-2.9,7.6,1.3,2.9,4.7,4.2,7.6,2.9,1.5-.7,2.6-1.9,3.1-3.5h.7s.4,1.4.4,1.4h.6l.7-1s0,0,.1,0c0,0,0,0,0,0l.7,1s0,0,.1,0c0,0,0,0,0,0l.5-1s0,0,.1,0c0,0,0,0,0,0l.6,1s0,0,.1,0c0,0,0,0,0,0l.6-1s0,0,.1,0c0,0,0,0,0,0l.9.9s0,0,.1,0c0,0,0,0,0,0l1.4-1.5h1l.9,1.1c0,0,.1,0,.2,0,0,0,0,0,0,0l.8-.5s.1,0,.2,0l.9.9c0,0,.2,0,.3,0h0s2.8-3,2.8-3c.1-.1.1-.3,0-.4ZM24.3,30.1c-.7,0-1.2-.5-1.2-1.2s.5-1.2,1.2-1.2,1.2.5,1.2,1.2c0,.7-.5,1.2-1.2,1.2Z"/>
  </g>
</svg>