<?xml version="1.0" encoding="UTF-8"?>
<svg id="Layer_1" xmlns="http://www.w3.org/2000/svg" version="1.1" xmlns:xlink="http://www.w3.org/1999/xlink" viewBox="0 0 62 62">
  <!-- Generator: Adobe Illustrator 29.3.1, SVG Export Plug-In . SVG Version: 2.1.0 Build 151)  -->
  <defs>
    <style>
      .st0 {
        fill: none;
        stroke: #e4151c;
        stroke-linecap: square;
        stroke-miterlimit: 10;
        stroke-width: 1.6px;
      }

      .st1 {
        fill: #e4151c;
      }
    </style>
  </defs>
  <path d="M13,3h36.1l9.5,34.4-27.6,20.9L3.4,37.3,13,3M10.7,0L0,38.5l31,23.5,31-23.5L51.3,0H10.7Z"/>
  <g>
    <polygon class="st1" points="20.4 22.6 14.7 22.6 5.7 37.3 20.4 37.3 20.4 22.6"/>
    <polygon class="st1" points="41.6 22.6 47.3 22.6 56.3 37.3 41.6 37.3 41.6 22.6"/>
  </g>
  <rect class="st1" x="18.8" y="14.5" width="21.2" height="4.2" transform="translate(-3.1 25.7) rotate(-45.2)"/>
  <g>
    <path class="st0" d="M20.4,33.6c1.8,0,1.8-1,3.5-1s1.8,1,3.5,1,1.8-1,3.5-1,1.8,1,3.5,1,1.8-1,3.5-1,1.8,1,3.5,1"/>
    <path class="st0" d="M20.4,36.5c1.8,0,1.8-1,3.5-1s1.8,1,3.5,1,1.8-1,3.5-1,1.8,1,3.5,1,1.8-1,3.5-1,1.8,1,3.5,1"/>
  </g>
</svg>