<?xml version="1.0" encoding="UTF-8"?>
<svg id="Layer_1" xmlns="http://www.w3.org/2000/svg" version="1.1" xmlns:xlink="http://www.w3.org/1999/xlink" viewBox="0 0 48 48">
  <!-- Generator: Adobe Illustrator 29.3.1, SVG Export Plug-In . SVG Version: 2.1.0 Build 151)  -->
  <defs>
    <style>
      .st0 {
        fill: #e4151c;
      }

      .st1 {
        fill: #fff;
      }
    </style>
  </defs>
  <path class="st1" d="M24,0C10.8,0,0,10.8,0,24s10.8,24,24,24,24-10.8,24-24S37.2,0,24,0Z"/>
  <g>
    <ellipse class="st0" cx="24" cy="24" rx="22" ry="22"/>
    <ellipse class="st1" cx="24" cy="24" rx="17.1" ry="17.1" transform="translate(0 48) rotate(-89.9)"/>
    <rect class="st0" x="21.5" y="3.5" width="5" height="41" transform="translate(-10 24) rotate(-45)"/>
    <polygon points="29.4 12 29.4 21.2 18.6 21.2 18.6 12 13 12 13 21.2 13 26.8 13 36 18.6 36 18.6 26.8 29.4 26.8 29.4 36 35 36 35 12 29.4 12"/>
  </g>
  <g>
    <ellipse class="st0" cx="24" cy="24" rx="22" ry="22"/>
    <ellipse class="st1" cx="24" cy="24" rx="17.1" ry="17.1" transform="translate(0 48) rotate(-89.9)"/>
    <rect class="st0" x="21.5" y="3.5" width="5" height="41" transform="translate(-10 24) rotate(-45)"/>
    <polygon points="29.4 12 29.4 21.2 18.6 21.2 18.6 12 13 12 13 21.2 13 26.8 13 36 18.6 36 18.6 26.8 29.4 26.8 29.4 36 35 36 35 12 29.4 12"/>
  </g>
</svg>