<?xml version="1.0" encoding="UTF-8"?>
<svg id="Layer_1" xmlns="http://www.w3.org/2000/svg" version="1.1" xmlns:xlink="http://www.w3.org/1999/xlink" viewBox="0 0 62 62">
  <!-- Generator: Adobe Illustrator 29.3.1, SVG Export Plug-In . SVG Version: 2.1.0 Build 151)  -->
  <defs>
    <style>
      .st0 {
        fill: #93572b;
      }
    </style>
  </defs>
  <path d="M13,3h36.1l9.5,34.4-27.6,20.9L3.4,37.3,13,3M10.7,0L0,38.5l31,23.5,31-23.5L51.3,0H10.7Z"/>
  <g>
    <rect class="st0" x="11" y="33.4" width="40" height="4"/>
    <polygon class="st0" points="31 24 39.4 34.6 47.6 34.6 47.9 34.4 32.4 14.9 36 10.4 34.2 9 31 13.1 31 13.1 31 13.1 27.8 9 26 10.4 29.6 14.9 14.1 34.4 14.4 34.6 22.6 34.6 31 24"/>
  </g>
</svg>