<?xml version="1.0" encoding="UTF-8"?>
<svg id="Layer_1" xmlns="http://www.w3.org/2000/svg" version="1.1" xmlns:xlink="http://www.w3.org/1999/xlink" viewBox="0 0 62 62">
  <!-- Generator: Adobe Illustrator 29.3.1, SVG Export Plug-In . SVG Version: 2.1.0 Build 151)  -->
  <defs>
    <style>
      .st0 {
        fill: #ff0;
      }
    </style>
  </defs>
  <path d="M13,3h36.1l9.5,34.4-27.6,20.9L3.4,37.3,13,3M10.7,0L0,38.5l31,23.5,31-23.5L51.3,0H10.7Z"/>
  <g>
    <path class="st0" d="M50.5,26c-.9-1.7-5.7-11.9-5.8-12,0-.1-.5-1-1.5-1.3-.7-.2-1.5,0-2.3.5-.8.5-1.3,1.2-1.4,1.9-.2.9.2,1.6.4,1.8,0,.1.2.5.5,1.1-.8.2-1.7.2-2.5,0-.3-.1-.5-.3-.8-.5-.4-.3-.9-.7-1.7-.8-2.6-.6-6.2-.3-7,0-.9.3-1.3.8-2.3,2.2,0,.1-.2.3-.3.4-.6-.2-1.8-.5-2.3-.6-.2,0-.9-.6-1.5-1.2.1-.3.2-.4.2-.5.1-.2.5-.9.4-1.8-.1-.7-.6-1.4-1.4-1.9s-1.6-.7-2.3-.5c-1,.3-1.5,1.2-1.5,1.3s-4.8,10.2-5.8,12c-1,1.9-.5,2.5.6,3.4.1,0,.2.2.3.3.6.6,1.4,1.2,2.3,1.2s.2,0,.2,0c.5,0,.9-.4,1.3-.9,0,0,.2-.3.3-.6.1.3.2.5.3.8,0,.8.6,1.3,1,1.7-.5,1.1-.7,2.7,0,3.5.3.3.7.6,1.1.7-.1.3-.2.7-.1,1.2,0,.4.3,1,1.1,1.4.4.2.7.3,1.1.3s0,0,.1,0c0,.8.3,1.7,1.2,2.3.4.3.8.4,1.2.4s.6,0,.9-.2c.2.5.6.9.8,1,.3.3.8.4,1.3.4.8,0,1.7-.3,2.5-1.1.5.4,1.3,1.1,2.5,1.7.5.2.9.3,1.3.3s.7,0,1-.2c1-.5,1.5-1.6,1.8-2.3h.5c.6,0,1,0,1.3-.3,1.1-.5,1.3-1.6,1.3-2.3h.5c.5,0,.9,0,1.2-.4.7-.6.8-1.7.9-2.4h0c.7,0,1.3-.2,1.7-.6.8-.9.3-2.5-.3-3.5.7-.3,1.7-1,2.6-2.2,0,.3.2.5.3.6.3.5.8.9,1.3.9h.2c.8,0,1.6-.6,2.3-1.2l.3-.3c1.1-.9,1.6-1.5.6-3.4v-.3Z"/>
    <path d="M50.5,26c-.9-1.7-5.7-11.9-5.8-12,0-.1-.5-1-1.5-1.3-.7-.2-1.5,0-2.3.5-.8.5-1.3,1.2-1.4,1.9-.2.9.2,1.6.4,1.8,0,.1.2.5.5,1.1-.8.2-1.7.2-2.5,0-.3-.1-.5-.3-.8-.5-.4-.3-.9-.7-1.7-.8-2.6-.6-6.2-.3-7,0-.9.3-1.3.8-2.3,2.2,0,.1-.2.3-.3.4-.6-.2-1.8-.5-2.3-.6-.2,0-.9-.6-1.5-1.2.1-.3.2-.4.2-.5.1-.2.5-.9.4-1.8-.1-.7-.6-1.4-1.4-1.9s-1.6-.7-2.3-.5c-1,.3-1.5,1.2-1.5,1.3s-4.8,10.2-5.8,12c-1,1.9-.5,2.5.6,3.4.1,0,.2.2.3.3.6.6,1.4,1.2,2.3,1.2s.2,0,.2,0c.5,0,.9-.4,1.3-.9,0,0,.2-.3.3-.6.1.3.2.5.3.8,0,.8.6,1.3,1,1.7-.5,1.1-.7,2.7,0,3.5.3.3.7.6,1.1.7-.1.3-.2.7-.1,1.2,0,.4.3,1,1.1,1.4.4.2.7.3,1.1.3s0,0,.1,0c0,.8.3,1.7,1.2,2.3.4.3.8.4,1.2.4s.6,0,.9-.2c.2.5.6.9.8,1,.3.3.8.4,1.3.4.8,0,1.7-.3,2.5-1.1.5.4,1.3,1.1,2.5,1.7.5.2.9.3,1.3.3s.7,0,1-.2c1-.5,1.5-1.6,1.8-2.3h.5c.6,0,1,0,1.3-.3,1.1-.5,1.3-1.6,1.3-2.3h.5c.5,0,.9,0,1.2-.4.7-.6.8-1.7.9-2.4h0c.7,0,1.3-.2,1.7-.6.8-.9.3-2.5-.3-3.5.7-.3,1.7-1,2.6-2.2,0,.3.2.5.3.6.3.5.8.9,1.3.9h.2c.8,0,1.6-.6,2.3-1.2l.3-.3c1.1-.9,1.6-1.5.6-3.4v-.3ZM15.2,29.3c-.2.4-.4.4-.5.4-.3,0-.9-.3-1.6-.9-.1-.1-.2-.2-.3-.3q-.9-.8-.3-2c.9-1.8,5.6-11.6,5.8-12,0,0,.3-.5.8-.7h.3c.3,0,.7.1,1,.4.5.3.8.7.9,1.1,0,.5-.2.9-.2.9h0c-.1.3-.2.6-.4.9,0,0,0,.1-.1.2-1.7,3.8-4.9,11.1-5.5,12h.1ZM19,32c.8-1.1,1.3-1.1,1.9-.8s.3,1.2.2,1.4c-.6.8-1.1,1.6-1.5,2.1h-.1s-.2,0-.3,0c-.2,0-.4,0-.6-.3-.3-.3-.3-1.7.4-2.6h0ZM20.5,37.5c-.3-.2-.5-.4-.5-.6,0-.4.2-.8.3-.9h0s2.2-3.3,3.2-4.4c.3-.3.6-.5.9-.5h0c.4,0,.8.3,1,.5.2.3.1,2-1.4,3.5s-.6.7-.9,1c-1.3,1.4-1.8,1.9-2.6,1.5h0ZM22.9,40.1c-.8-.5-.7-1.3-.6-1.7.6-.4,1.1-1,1.6-1.6.3-.3.6-.6.9-.9.7-.8,1.2-1.6,1.5-2.5.6.2,1.6.6,1.5,1.6-.2,1.3-.7,1.8-1.3,2.4-.2.2-.4.4-.6.6-.2.2-.4.5-.6.8-1,1.4-1.6,1.9-2.3,1.4h-.1ZM25.9,41.4c-.6-.5-.6-.7-.4-1.1.3-.3.5-.6.7-.9.2-.3.4-.5.5-.7l.5-.5c.2-.2.4-.4.6-.6s.5-.3.8-.3c0,0,.2,0,.4.3.8,1.1,0,2.4-.6,3-1,1-2.1,1.1-2.5.8ZM42.2,34.4c-.4.4-1.9.2-2.2,0-.5-.4-.9-.7-1.3-1-1.7-1.3-2.9-2.3-3.9-3.5-.2-.2-.6-.3-.8,0s-.3.6,0,.8c1.1,1.3,2.4,2.3,4.1,3.6.4.3.8.7,1.3,1,.2.2.5.3.9.4,0,.6,0,1.4-.5,1.7-.6.5-2.2-.4-3.4-1.1-1.7-1-3.3-2.8-3.3-2.8-.2-.2-.6-.3-.8,0-.2.2-.2.6,0,.8,0,0,1.7,1.9,3.5,3,.6.4,1.3.7,1.9,1,0,.5,0,1.3-.6,1.7-.6.3-2.5.6-5.2-2.9-.2-.3-.6-.3-.8,0-.3.2-.3.6,0,.8,1.4,1.8,2.6,2.8,3.7,3.2-.2.5-.6,1.3-1.2,1.5-.4.2-.8,0-1.3,0-1.1-.5-1.8-1.2-2.2-1.5.9-1.3,1-2.7,0-3.8-.3-.4-.7-.7-1.2-.7h0c0-.3.2-.7.2-1.1.2-1.7-1.3-2.6-2.4-2.8,0-.6,0-1.2-.4-1.5-.5-.6-1.2-.9-1.9-.9h0c-.5,0-1.1.2-1.8.9,0,0-.1.2-.2.3-.1-.3-.4-.7-.8-.9-1.1-.6-2.1-.4-3.1.7-.2-.2-.5-.5-.5-.8,0-.8-.5-1.5-.8-1.9,1.2-2.6,3.2-7.1,4.3-9.6.5.5,1.2,1.2,1.8,1.2s1.2.3,1.8.4c-.9,1.4-1.7,2.9-1.8,3.4-.1.7-.3,2,.4,2.6,1.1.9,3.2-.4,3.8-.8,1-.7,1.5-1.4,1.8-1.9.3-.4.4-.6.7-.7.7-.3,1.7.5,5.7,3.4,3.2,2.4,4.2,3.6,5.3,5,0,.2.3.4.5.5.6.7,1.1,2.2.7,2.6ZM42.1,30.7l-.2-.2c-1.1-1.4-2.2-2.6-5.5-5.1-4.4-3.3-5.5-4.1-6.8-3.6-.7.3-1,.7-1.3,1.2s-.7,1-1.5,1.6c-1.2.8-2.2,1.1-2.4.9-.1-.1-.3-.6,0-1.5,0-.4,1-2.1,2.1-3.7h0c.2-.2.3-.5.5-.7,1-1.4,1.2-1.6,1.8-1.8.5-.2,3.9-.5,6.3,0,.5.1.8.4,1.2.6.3.2.6.5,1.1.6,1.1.4,2.4.4,3.4,0,1.1,2.6,3,6.8,4.1,9.2-1,1.4-2.2,2.1-2.8,2.4h0ZM49.1,28.6c0,0-.2.2-.3.3-.7.6-1.2.9-1.6.9,0,0-.2,0-.5-.4-.6-.9-4.5-9.7-5.9-13h0c0-.1-.3-.5-.2-1,0-.4.4-.8.9-1.1.4-.2.7-.4,1-.4h.3c.5.1.8.7.8.7h0c.2.4,4.8,10.3,5.8,12q.6,1.2-.3,2Z"/>
  </g>
</svg>