<?xml version="1.0" encoding="UTF-8"?>
<svg id="Layer_1" xmlns="http://www.w3.org/2000/svg" version="1.1" xmlns:xlink="http://www.w3.org/1999/xlink" viewBox="0 0 36 38.6">
  <!-- Generator: Adobe Illustrator 29.3.1, SVG Export Plug-In . SVG Version: 2.1.0 Build 151)  -->
  <defs>
    <style>
      .st0 {
        fill: #fff;
      }

      .st1 {
        fill: #0056a4;
      }
    </style>
  </defs>
  <path class="st0" d="M35.1,5l-.4-.3c-.4-.3-.8-.5-1.2-.5-.1-.4-.4-.8-.7-1.1l-.5-.4c-.3-.3-.8-.5-1.2-.5-.1-.4-.4-.8-.7-1.1,0,0,0,0,0,0l-.5-.4c-.4-.3-1-.5-1.5-.5h0c-.7,0-1.4.3-1.9.9l-8.1,9.6c0,0,0,.1-.1.2-.7,1.1-.8,2.5-.3,3.7l.4.9-.4.4-.9-1c1.2-3,.3-6.9-2.2-9.9C12.6,2.4,9.6.8,6.8.8c-1.7,0-3.2.5-4.4,1.5-3.3,2.8-3.2,8.3.3,12.5,2.1,2.5,5.1,4.1,7.9,4.1s1,0,1.5-.2l1.3,1.7L2.7,31.9c-1.1,1.2-1,3.1.2,4.2,0,0,0,0,0,0l1.9,1.7c.5.5,1.2.7,1.9.7s1.7-.4,2.2-1c0,0,0,0,.1-.1l8.7-11.3,8.7,11.3c.6.7,1.4,1.2,2.3,1.2s1.3-.2,1.8-.6c0,0,0,0,.1-.1l1.9-1.7c1.2-1,1.4-2.9.3-4.1,0,0,0,0-.1-.1l-10.7-11.5.9-1.1.9.2c.3,0,.6.1,1,.1,1.1,0,2.1-.4,2.7-1.2l7.9-10c.8-1,.7-2.6-.4-3.4,0,0,0,0,0,0Z"/>
  <path class="st1" d="M24.4,17.6c.6.1,1.3,0,1.7-.4l7.8-10c.2-.2.1-.5,0-.6,0,0,0,0,0,0l-.4-.4c-.2-.2-.5-.1-.7,0l-5.7,6.9c-.2.2-.6.3-.8,0l-.4-.3c-.2-.2-.3-.6,0-.8,0,0,0,0,0,0l5.7-6.9c.2-.2.1-.5,0-.7,0,0,0,0,0,0l-.4-.4c-.2-.2-.5-.1-.6,0l-5.7,6.9c-.2.2-.6.3-.8,0l-.4-.3c-.2-.2-.3-.6,0-.8,0,0,0,0,0,0l5.7-6.9c.2-.2.1-.5,0-.7,0,0,0,0,0,0l-.6-.5c-.2-.2-.5-.1-.7,0l-8.1,9.6c-.4.5-.4,1.2-.1,1.8l1,2.1-2.7,3-2.5-2.7c-.5-.5-.6-1.2-.3-1.9.9-2.2.3-5.4-1.8-7.9C10.4,2.9,6.2,1.8,3.7,3.9s-2.2,6.4.5,9.7c2.1,2.6,5.1,3.8,7.5,3.2.7-.2,1.4,0,1.8.6l2.4,3.2-11.9,12.7c-.4.4-.3,1,0,1.4,0,0,0,0,0,0l1.9,1.7c.4.3,1,.3,1.3,0,0,0,0,0,0,0l10.3-13.4,10.2,13.4c.3.4.9.5,1.3.2,0,0,0,0,0,0l1.9-1.7c.4-.3.4-.9.1-1.3,0,0,0,0,0,0l-11.9-12.7,2.7-3.5,2.1.5h0Z"/>
  <path class="st1" d="M24.4,17.6c.6.1,1.3,0,1.7-.4l7.8-10c.2-.2.1-.5,0-.6,0,0,0,0,0,0l-.4-.4c-.2-.2-.5-.1-.7,0l-5.7,6.9c-.2.2-.6.3-.8,0l-.4-.3c-.2-.2-.3-.6,0-.8,0,0,0,0,0,0l5.7-6.9c.2-.2.1-.5,0-.7,0,0,0,0,0,0l-.4-.4c-.2-.2-.5-.1-.6,0l-5.7,6.9c-.2.2-.6.3-.8,0l-.4-.3c-.2-.2-.3-.6,0-.8,0,0,0,0,0,0l5.7-6.9c.2-.2.1-.5,0-.7,0,0,0,0,0,0l-.6-.5c-.2-.2-.5-.1-.7,0l-8.1,9.6c-.4.5-.4,1.2-.1,1.8l1,2.1-2.7,3-2.5-2.7c-.5-.5-.6-1.2-.3-1.9.9-2.2.3-5.4-1.8-7.9C10.4,2.9,6.2,1.8,3.7,3.9s-2.2,6.4.5,9.7c2.1,2.6,5.1,3.8,7.5,3.2.7-.2,1.4,0,1.8.6l2.4,3.2-11.9,12.7c-.4.4-.3,1,0,1.4,0,0,0,0,0,0l1.9,1.7c.4.3,1,.3,1.3,0,0,0,0,0,0,0l10.3-13.4,10.2,13.4c.3.4.9.5,1.3.2,0,0,0,0,0,0l1.9-1.7c.4-.3.4-.9.1-1.3,0,0,0,0,0,0l-11.9-12.7,2.7-3.5,2.1.5h0Z"/>
</svg>