<?xml version="1.0" encoding="UTF-8"?>
<svg id="Layer_1" xmlns="http://www.w3.org/2000/svg" version="1.1" xmlns:xlink="http://www.w3.org/1999/xlink" viewBox="0 0 25.6 47.9">
  <!-- Generator: Adobe Illustrator 29.3.1, SVG Export Plug-In . SVG Version: 2.1.0 Build 151)  -->
  <defs>
    <style>
      .st0 {
        fill: #e4151c;
      }

      .st1 {
        fill: #fff;
      }
    </style>
  </defs>
  <path class="st1" d="M19,37V3.4c0-.2,0-.3,0-.5-.4-1.8-2.6-2.9-6.1-2.9s-5.7,1.1-6.1,2.9c0,.2,0,.3,0,.5v33.6c-3.4.7-6.7,2.1-6.7,5.2,0,5.2,9,5.7,12.8,5.7s12.8-.6,12.8-5.7c0-3.1-3.3-4.5-6.7-5.2Z"/>
  <g>
    <g>
      <ellipse class="st1" cx="12.8" cy="42.2" rx="9.8" ry="2.7"/>
      <path class="st0" d="M12.8,45.9c-4,0-10.8-.8-10.8-3.7s6.8-3.7,10.8-3.7,10.8.8,10.8,3.7-6.8,3.7-10.8,3.7ZM4,42.2c.5.6,3.3,1.7,8.8,1.7s8.3-1.2,8.8-1.7c-.5-.6-3.3-1.7-8.8-1.7s-8.3,1.2-8.8,1.7Z"/>
    </g>
    <g>
      <rect class="st1" x="8.7" y="8.9" width="8.3" height="5.5"/>
      <rect class="st0" x="8.7" y="14.4" width="8.3" height="5.5"/>
      <rect class="st0" x="8.7" y="3.4" width="8.3" height="5.5"/>
      <rect class="st1" x="8.7" y="19.8" width="8.3" height="5.5"/>
      <rect class="st0" x="8.7" y="25.3" width="8.3" height="5.5"/>
      <rect class="st1" x="8.7" y="30.8" width="8.3" height="5.5"/>
      <rect class="st0" x="8.7" y="36.2" width="8.3" height="5.5"/>
    </g>
    <ellipse class="st0" cx="12.8" cy="3.4" rx="4.1" ry="1.4"/>
    <ellipse class="st0" cx="12.8" cy="41.7" rx="4.1" ry="1.4"/>
  </g>
  <g>
    <path class="st1" d="M17,39.7v2h0c0,.8-1.9,1.4-4.1,1.4s-4.1-.6-4.1-1.4h0v-2c-3.4.4-5.7,1.4-5.7,2.5s4.4,2.7,9.8,2.7,9.8-1.2,9.8-2.7-2.3-2-5.7-2.5Z"/>
    <rect class="st1" x="8.7" y="8.9" width="8.3" height="5.5"/>
    <rect class="st0" x="8.7" y="14.4" width="8.3" height="5.5"/>
    <path class="st0" d="M17,3.4c0-.8-1.9-1.4-4.1-1.4s-4.1.6-4.1,1.4v5.5h8.3V3.4h0Z"/>
    <rect class="st1" x="8.7" y="19.8" width="8.3" height="5.5"/>
    <rect class="st0" x="8.7" y="25.3" width="8.3" height="5.5"/>
    <rect class="st1" x="8.7" y="30.8" width="8.3" height="5.5"/>
    <path class="st0" d="M8.7,41.7h0c0,.8,1.9,1.4,4.1,1.4s4.1-.6,4.1-1.4h0v-5.5h-8.3v5.5h0Z"/>
  </g>
</svg>