<?xml version="1.0" encoding="UTF-8"?>
<svg id="Layer_1" xmlns="http://www.w3.org/2000/svg" version="1.1" xmlns:xlink="http://www.w3.org/1999/xlink" viewBox="0 0 66.6 66.5">
  <!-- Generator: Adobe Illustrator 29.3.1, SVG Export Plug-In . SVG Version: 2.1.0 Build 151)  -->
  <defs>
    <style>
      .st0 {
        fill: #fff;
      }

      .st1 {
        fill: red;
      }
    </style>
  </defs>
  <g>
    <polygon class="st0" points="4 39.9 14.1 3.5 52.5 3.5 62.6 40 33.3 62.1 4 39.9"/>
    <path d="M51.3,5l9.5,34.4-27.6,20.9L5.7,39.3,15.3,5h36.1M53.6,2H13L2.3,40.5l31,23.5,31-23.5L53.6,2h0Z"/>
    <path class="st0" d="M53.6,2l10.7,38.5-31,23.5L2.3,40.5,13,2h40.6M55.1,0H11.5l-.4,1.5L.4,39.9l-.4,1.3,1.1.8,31,23.5,1.2.9,1.2-.9,31-23.5,1.1-.8-.4-1.3L55.5,1.5l-.4-1.5h0Z"/>
  </g>
  <g>
    <path class="st1" d="M47.5,21.7v-.3s-.3-.2-.3-.2c-9.3-4.9-18.8-4.9-28.1,0l-.3.2v.4c-.3,10.5,4.4,18.2,14.1,22.7h.2c0,.1.3,0,.3,0,10.1-4.4,14.8-12.1,14.1-22.8ZM33.1,43.3c-8.9-4.3-13.4-11.4-13.2-21.1,8.8-4.5,17.7-4.5,26.4,0,.5,9.8-3.9,17-13.2,21.1Z"/>
    <path class="st1" d="M33.1,31.6c-2.6,0-4.7,2.1-4.7,4.6s2.1,4.7,4.7,4.7,4.7-2.1,4.7-4.7-2.1-4.6-4.7-4.6Z"/>
    <path class="st1" d="M40,21.7c-2.6,0-4.6,2.1-4.6,4.7s2.1,4.6,4.6,4.6,4.7-2.1,4.7-4.6c0-2.6-2.1-4.7-4.7-4.7Z"/>
    <path class="st1" d="M30.8,26.3c0-2.6-2.1-4.7-4.7-4.7s-4.6,2.1-4.6,4.7,2.1,4.6,4.6,4.6c2.6,0,4.7-2.1,4.7-4.6Z"/>
  </g>
</svg>