<?xml version="1.0" encoding="UTF-8"?>
<svg id="Layer_1" xmlns="http://www.w3.org/2000/svg" version="1.1" xmlns:xlink="http://www.w3.org/1999/xlink" viewBox="0 0 66.6 66.5">
  <!-- Generator: Adobe Illustrator 29.3.1, SVG Export Plug-In . SVG Version: 2.1.0 Build 151)  -->
  <defs>
    <style>
      .st0, .st1 {
        fill: #fff;
      }

      .st1, .st2 {
        stroke: #0056a4;
        stroke-miterlimit: 10;
        stroke-width: 3px;
      }

      .st3 {
        fill: #0056a4;
      }

      .st2 {
        fill: none;
      }
    </style>
  </defs>
  <g>
    <polygon class="st0" points="4 39.9 14.1 3.5 52.5 3.5 62.6 40 33.3 62.1 4 39.9"/>
    <path d="M51.3,5l9.5,34.4-27.6,20.9L5.7,39.3,15.3,5h36.1M53.6,2H13L2.3,40.5l31,23.5,31-23.5L53.6,2h0Z"/>
    <path class="st0" d="M53.6,2l10.7,38.5-31,23.5L2.3,40.5,13,2h40.6M55.1,0H11.5l-.4,1.5L.4,39.9l-.4,1.3,1.1.8,31,23.5,1.2.9,1.2-.9,31-23.5,1.1-.8-.4-1.3L55.5,1.5l-.4-1.5h0Z"/>
  </g>
  <g>
    <path class="st2" d="M51.3,25.5v16c0,1.1-.9,2-2,2H17.3c-1.1,0-2-.9-2-2v-16"/>
    <path class="st1" d="M51.3,25.5c-1.8,0-1.8-1-3.6-1s-1.8,1-3.6,1-1.8-1-3.6-1-1.8,1-3.6,1-1.8-1-3.6-1-1.8,1-3.6,1-1.8-1-3.6-1-1.8,1-3.6,1-1.8-1-3.6-1-1.8,1-3.6,1v-1.8c0-.7.4-1.4,1-1.7l17-9.4,17,9.4c.6.4,1,1,1,1.7v1.8Z"/>
    <path class="st2" d="M39.3,43.5h-12v-10c0-1.1.9-2,2-2h8c1.1,0,2,.9,2,2v10Z"/>
    <line class="st2" x1="33.3" y1="12.5" x2="33.3" y2="6.5"/>
    <rect class="st3" x="33.3" y="6.5" width="6" height="3"/>
  </g>
</svg>