<?xml version="1.0" encoding="UTF-8"?>
<svg id="Layer_1" xmlns="http://www.w3.org/2000/svg" version="1.1" xmlns:xlink="http://www.w3.org/1999/xlink" viewBox="0 0 62 62">
  <!-- Generator: Adobe Illustrator 29.3.1, SVG Export Plug-In . SVG Version: 2.1.0 Build 151)  -->
  <defs>
    <style>
      .st0 {
        fill: #0056a4;
      }
    </style>
  </defs>
  <path d="M13,3h36.1l9.5,34.4-27.6,20.9L3.4,37.3,13,3M10.7,0L0,38.5l31,23.5,31-23.5L51.3,0H10.7Z"/>
  <path class="st0" d="M37.3,23.6c.6.1,1.3,0,1.7-.4l7.8-10c.2-.2.1-.5,0-.6,0,0,0,0,0,0l-.4-.4c-.2-.2-.5-.1-.7,0l-5.7,6.9c-.2.2-.6.3-.8,0l-.4-.3c-.2-.2-.3-.6,0-.8,0,0,0,0,0,0l5.7-6.9c.2-.2.1-.5,0-.7,0,0,0,0,0,0l-.4-.4c-.2-.2-.5-.1-.6,0l-5.7,6.9c-.2.2-.6.3-.8,0l-.4-.3c-.2-.2-.3-.6,0-.8,0,0,0,0,0,0l5.7-6.9c.2-.2.1-.5,0-.7,0,0,0,0,0,0l-.6-.4c-.2-.2-.5-.1-.7,0l-8.1,9.6c-.4.5-.4,1.2-.1,1.8l1,2.1-2.7,3-2.5-2.7c-.5-.5-.6-1.2-.3-1.9.9-2.2.3-5.4-1.8-7.9-2.8-3.3-7-4.3-9.4-2.3s-2.2,6.4.5,9.7c2.1,2.6,5.1,3.8,7.5,3.2.7-.2,1.4,0,1.8.6l2.4,3.2-11.9,12.7c-.4.4-.3,1,0,1.4,0,0,0,0,0,0l1.9,1.7c.4.3,1,.3,1.3,0,0,0,0,0,0,0l10.3-13.4,10.2,13.4c.3.4.9.5,1.3.2,0,0,0,0,0,0l1.9-1.7c.4-.3.4-.9.1-1.3,0,0,0,0,0,0l-11.9-12.7,2.7-3.5,2.1.5h0Z"/>
</svg>