<?xml version="1.0" encoding="UTF-8"?>
<svg id="Layer_1" xmlns="http://www.w3.org/2000/svg" version="1.1" xmlns:xlink="http://www.w3.org/1999/xlink" viewBox="0 0 45.2 40.7">
  <!-- Generator: Adobe Illustrator 29.3.1, SVG Export Plug-In . SVG Version: 2.1.0 Build 151)  -->
  <defs>
    <style>
      .st0 {
        fill: #fff;
      }
    </style>
  </defs>
  <path class="st0" d="M44,9.4L23.4.2c-.3-.1-.5-.2-.8-.2s-.6,0-.8.2L1.2,9.4c-.5.2-.9.6-1.1,1.1-.2.5-.2,1,0,1.5l.9,1.9c.3.7,1.1,1.2,1.8,1.2s.5,0,.8-.2v23.7c0,1.1.9,2,2,2h34c1.1,0,2-.9,2-2V15c.2.1.5.2.8.2.8,0,1.5-.4,1.8-1.2l.9-1.9c.2-.5.2-1,0-1.5-.2-.5-.6-.9-1.1-1.1Z"/>
  <polygon points="43.2 11.2 22.6 2 2 11.2 2.9 13.2 5.6 11.9 5.6 38.7 39.6 38.7 39.6 11.9 42.3 13.2 43.2 11.2"/>
</svg>