<?xml version="1.0" encoding="UTF-8"?>
<svg id="Layer_1" xmlns="http://www.w3.org/2000/svg" version="1.1" xmlns:xlink="http://www.w3.org/1999/xlink" viewBox="0 0 62 62">
  <!-- Generator: Adobe Illustrator 29.3.1, SVG Export Plug-In . SVG Version: 2.1.0 Build 151)  -->
  <defs>
    <style>
      .st0 {
        fill: #0056a4;
      }
    </style>
  </defs>
  <path d="M13,3h36.1l9.5,34.4-27.6,20.9L3.4,37.3,13,3M10.7,0L0,38.5l31,23.5,31-23.5L51.3,0H10.7Z"/>
  <path class="st0" d="M21.6,8.6h10.2c3.8,0,6.6.9,8.5,2.5,1.9,1.7,2.9,4.2,2.9,7.5s-1,5.8-2.9,7.5c-1.9,1.7-4.8,2.5-8.5,2.5h-5.7v13.5h-4.5s0-33.5,0-33.5ZM26.1,12.3v12.6h5.7c2.1,0,3.7-.5,4.9-1.6,1.2-1.1,1.7-2.6,1.7-4.7s-.6-3.6-1.7-4.6-2.8-1.6-4.9-1.6c0,0-5.7,0-5.7,0Z"/>
</svg>