<?xml version="1.0" encoding="UTF-8"?>
<svg id="Layer_1" xmlns="http://www.w3.org/2000/svg" version="1.1" xmlns:xlink="http://www.w3.org/1999/xlink" viewBox="0 0 46 24.7">
  <!-- Generator: Adobe Illustrator 29.3.1, SVG Export Plug-In . SVG Version: 2.1.0 Build 151)  -->
  <defs>
    <style>
      .st0 {
        fill: #fff;
      }
    </style>
  </defs>
  <path class="st0" d="M44,4.1h-11s0,0,0,0h-.8v-2.1c0-1.1-.9-2-2-2h-2.1c-1.1,0-2,.9-2,2v2.1h-1.5v-2.1c0-1.1-.9-2-2-2h-2.1c-1.1,0-2,.9-2,2v2.1h-1.5v-2.1c0-1.1-.9-2-2-2h-2.1c-1.1,0-2,.9-2,2v2.1h-1.5c-1.1,0-2,.9-2,2v4.1c0,1.1.9,2,2,2h1.5v1.4c-.7-.3-1.7-.6-2.9-.6-2.1,0-3.3.7-4,1.1-.5.3-.5.3-.9.3h-1.1c-1.1,0-2,.9-2,2v2.2c0,.3,0,.7.2.9-.2.3-.2.6-.2.9v2.2c0,1.1.9,2,2,2h1.1c2.1,0,3.3-.7,4-1.1.5-.3.5-.3.9-.3s.4,0,.9.3c.7.4,1.9,1.1,4,1.1s3.3-.7,4-1.1c.5-.3.5-.3.9-.3s.4,0,.9.3c.7.4,1.9,1.1,4,1.1s3.3-.7,4-1.1c.5-.3.5-.3.9-.3s.4,0,.9.3c.7.4,1.9,1.1,4,1.1h11.6c.5,0,1-.2,1.4-.6s.6-.9.6-1.4V6.1c0-1.1-.9-2-2-2Z"/>
  <path d="M32.9,6.1h0s-2.8,0-2.8,0V2h-2.1v4.1h-5.5V2h-2.1v4.1h-5.5V2h-2.1v4.1h-3.5v4.1h3.5v6.2s0,0,0,0c-.9,0-1.3-.2-1.9-.6-.7-.4-1.5-.9-3-.9s-2.3.5-3,.9c-.6.3-1,.6-1.9.6h-1.1v2.2h1.1c1.5,0,2.3-.5,3-.9.6-.3,1-.6,1.9-.6s1.3.2,1.9.6c.7.4,1.5.9,3,.9s2.3-.5,3-.9c.6-.3,1-.6,1.9-.6s1.3.2,1.9.6c.7.4,1.5.9,3,.9s2.3-.5,3-.9c.6-.3,1-.6,1.9-.6s1.3.2,1.9.6c.7.4,1.5.9,3,.9h.3v1.9h-.3c-.9,0-1.3-.2-1.9-.6-.7-.4-1.5-.9-3-.9s-2.3.5-3,.9c-.6.3-1,.6-1.9.6s-1.3-.2-1.9-.6c-.7-.4-1.5-.9-3-.9s-2.3.5-3,.9c-.6.3-1,.6-1.9.6s-1.3-.2-1.9-.6c-.7-.4-1.5-.9-3-.9s-2.3.5-3,.9c-.6.3-1,.6-1.9.6h-1.1v2.2h1.1c1.5,0,2.3-.5,3-.9.6-.3,1-.6,1.9-.6s1.3.2,1.9.6c.7.4,1.5.9,3,.9s2.3-.5,3-.9c.6-.3,1-.6,1.9-.6s1.3.2,1.9.6c.7.4,1.5.9,3,.9s2.3-.5,3-.9c.6-.3,1-.6,1.9-.6s1.3.2,1.9.6c.7.4,1.5.9,3,.9h.3s11.3,0,11.3,0V6.1h-11.1ZM17.7,15.1c-1.3,0-2.1.4-2.8.7v-5.5h5.5v5.5c-.6-.4-1.4-.7-2.8-.7ZM24.5,16c-.6.3-1,.6-1.9.6s0,0,0,0v-6.2h5.5v4.8c-.2,0-.4,0-.6,0-1.5,0-2.3.5-3,.9ZM32.4,16.5c-.9,0-1.3-.2-1.9-.6,0,0-.2-.1-.3-.2v-5.5h2.5v6.2h-.3Z"/>
</svg>