<?xml version="1.0" encoding="UTF-8"?>
<svg id="Layer_1" xmlns="http://www.w3.org/2000/svg" version="1.1" xmlns:xlink="http://www.w3.org/1999/xlink" viewBox="0 0 62 62">
  <!-- Generator: Adobe Illustrator 29.3.1, SVG Export Plug-In . SVG Version: 2.1.0 Build 151)  -->
  <defs>
    <style>
      .st0 {
        fill: #93572b;
      }
    </style>
  </defs>
  <path d="M13,3h36.1l9.5,34.4-27.6,20.9L3.4,37.3,13,3M10.7,0L0,38.5l31,23.5,31-23.5L51.3,0H10.7Z"/>
  <g>
    <polygon class="st0" points="22.8 26.6 25.2 26.6 25.2 39.6 46.6 39.6 46.6 26.1 49 26.6 49 42 22.8 42 22.8 26.6"/>
    <polygon class="st0" points="21.1 29 20.5 26.7 41.7 20.7 51.5 27.2 50.2 29.2 41.2 23.3 21.1 29"/>
    <polygon class="st0" points="39.9 8.6 18.7 14.6 19.3 16.9 21 16.5 21 18.1 23.4 17.4 23.4 15.8 39.5 11.2 44.8 14.7 44.8 21.4 47.2 22.9 47.2 16.3 48.4 17.1 49.7 15.1 39.9 8.6"/>
    <polygon class="st0" points="12.8 24.3 12.8 37.8 21.1 37.8 21.1 35.4 15.2 35.4 15.2 23.6 31.3 19.1 34.9 21.4 37.9 20.5 31.7 16.4 10.5 22.5 11.2 24.8 12.8 24.3"/>
    <polygon class="st0" points="28.3 29.6 33.5 29.6 33.5 34.8 28.3 34.8 28.3 29.6"/>
    <polygon class="st0" points="37.6 29.6 42.8 29.6 42.8 40.4 37.6 40.4 37.6 29.6"/>
  </g>
</svg>