<?xml version="1.0" encoding="UTF-8"?>
<svg id="Layer_1" xmlns="http://www.w3.org/2000/svg" version="1.1" xmlns:xlink="http://www.w3.org/1999/xlink" viewBox="0 0 66.6 66.5">
  <!-- Generator: Adobe Illustrator 29.3.1, SVG Export Plug-In . SVG Version: 2.1.0 Build 151)  -->
  <defs>
    <style>
      .st0 {
        fill: #e4151c;
      }

      .st1 {
        fill: #fff;
      }
    </style>
  </defs>
  <g>
    <polygon class="st1" points="4 39.9 14.1 3.5 52.5 3.5 62.6 40 33.3 62.1 4 39.9"/>
    <path d="M51.3,5l9.5,34.4-27.6,20.9L5.7,39.3,15.3,5h36.1M53.6,2H13L2.3,40.5l31,23.5,31-23.5L53.6,2h0Z"/>
    <path class="st1" d="M53.6,2l10.7,38.5-31,23.5L2.3,40.5,13,2h40.6M55.1,0H11.5l-.4,1.5L.4,39.9l-.4,1.3,1.1.8,31,23.5,1.2.9,1.2-.9,31-23.5,1.1-.8-.4-1.3L55.5,1.5l-.4-1.5h0Z"/>
  </g>
  <path class="st0" d="M33.3,7c-12.1,0-22,9.9-22,22s9.9,22,22,22,22-9.9,22-22S45.4,7,33.3,7ZM33.3,46.1c-9.4,0-17.1-7.7-17.1-17.1s7.7-17.1,17.1-17.1,17.1,7.7,17.1,17.1c0,9.4-7.7,17.1-17.1,17.1Z"/>
  <rect class="st0" x="30.8" y="8.5" width="5" height="41" transform="translate(-10.8 32) rotate(-45)"/>
  <g>
    <rect x="22.3" y="17" width="5.6" height="24"/>
    <rect x="38.6" y="17" width="5.6" height="24"/>
    <rect x="22.3" y="26.2" width="21.8" height="5.6"/>
  </g>
</svg>