<?xml version="1.0" encoding="UTF-8"?>
<svg id="Layer_1" xmlns="http://www.w3.org/2000/svg" version="1.1" xmlns:xlink="http://www.w3.org/1999/xlink" viewBox="0 0 66.6 66.5">
  <!-- Generator: Adobe Illustrator 29.3.1, SVG Export Plug-In . SVG Version: 2.1.0 Build 151)  -->
  <defs>
    <style>
      .st0 {
        fill: #fff;
      }

      .st1 {
        fill: #0056a4;
      }
    </style>
  </defs>
  <g>
    <polygon class="st0" points="4 39.9 14.1 3.5 52.5 3.5 62.6 40 33.3 62.1 4 39.9"/>
    <path d="M51.3,5l9.5,34.4-27.6,20.9L5.7,39.3,15.3,5h36.1M53.6,2H13L2.3,40.5l31,23.5,31-23.5L53.6,2h0Z"/>
    <path class="st0" d="M53.6,2l10.7,38.5-31,23.5L2.3,40.5,13,2h40.6M55.1,0H11.5l-.4,1.5L.4,39.9l-.4,1.3,1.1.8,31,23.5,1.2.9,1.2-.9,31-23.5,1.1-.8-.4-1.3L55.5,1.5l-.4-1.5h0Z"/>
  </g>
  <path class="st1" d="M39.6,25.6c.6.1,1.3,0,1.7-.4l7.8-10c.2-.2.1-.5,0-.6,0,0,0,0,0,0l-.4-.4c-.2-.2-.5-.1-.7,0l-5.7,6.9c-.2.2-.6.3-.8,0l-.4-.3c-.2-.2-.3-.6,0-.8,0,0,0,0,0,0l5.7-6.9c.2-.2.1-.5,0-.7,0,0,0,0,0,0l-.4-.4c-.2-.2-.5-.1-.6,0l-5.7,6.9c-.2.2-.6.3-.8,0l-.4-.3c-.2-.2-.3-.6,0-.8,0,0,0,0,0,0l5.7-6.9c.2-.2.1-.5,0-.7,0,0,0,0,0,0l-.6-.4c-.2-.2-.5-.1-.7,0l-8.1,9.6c-.4.5-.4,1.2-.1,1.8l1,2.1-2.7,3-2.5-2.7c-.5-.5-.6-1.2-.3-1.9.9-2.2.3-5.4-1.8-7.9-2.8-3.3-7-4.3-9.4-2.3s-2.2,6.4.5,9.7c2.1,2.6,5.1,3.8,7.5,3.2.7-.2,1.4,0,1.8.6l2.4,3.2-11.9,12.7c-.4.4-.3,1,0,1.4,0,0,0,0,0,0l1.9,1.7c.4.3,1,.3,1.3,0,0,0,0,0,0,0l10.3-13.4,10.2,13.4c.3.4.9.5,1.3.2,0,0,0,0,0,0l1.9-1.7c.4-.3.4-.9.1-1.3,0,0,0,0,0,0l-11.9-12.7,2.7-3.5,2.1.5h0Z"/>
</svg>