<?xml version="1.0" encoding="UTF-8"?>
<svg id="Layer_1" xmlns="http://www.w3.org/2000/svg" version="1.1" xmlns:xlink="http://www.w3.org/1999/xlink" viewBox="0 0 62 62">
  <!-- Generator: Adobe Illustrator 29.3.1, SVG Export Plug-In . SVG Version: 2.1.0 Build 151)  -->
  <defs>
    <style>
      .st0 {
        fill: none;
        stroke: #000;
        stroke-linecap: round;
        stroke-miterlimit: 10;
        stroke-width: 2px;
      }

      .st1 {
        fill: #fff;
      }

      .st2 {
        fill: red;
      }
    </style>
  </defs>
  <path d="M13,3h36.1l9.5,34.4-27.6,20.9L3.4,37.3,13,3M10.7,0L0,38.5l31,23.5,31-23.5L51.3,0H10.7Z"/>
  <g>
    <line class="st0" x1="12" y1="16.9" x2="12" y2="38.9"/>
    <line class="st0" x1="12" y1="16.9" x2="22.4" y2="27.5"/>
    <line class="st0" x1="12" y1="16.9" x2="27.1" y2="15.3"/>
    <g>
      <circle class="st2" cx="27.4" cy="22.5" r="7.2"/>
      <circle class="st1" cx="31.5" cy="23.9" r="6.6"/>
      <circle class="st2" cx="35.6" cy="25.3" r="5.9"/>
      <circle class="st1" cx="39.7" cy="26.8" r="5.3"/>
      <circle class="st2" cx="43.8" cy="28.2" r="4.7"/>
      <circle class="st1" cx="47.9" cy="29.6" r="4.1"/>
      <path class="st0" d="M25,29.2c-3.7-1.3-5.7-5.4-4.4-9.2,1.3-3.7,5.4-5.7,9.2-4.4l19.5,10.1c2.1.7,3.2,3,2.5,5.2-.7,2.1-3,3.2-5.2,2.5l-21.6-4.2Z"/>
    </g>
  </g>
</svg>