<?xml version="1.0" encoding="UTF-8"?>
<svg id="Layer_1" xmlns="http://www.w3.org/2000/svg" version="1.1" xmlns:xlink="http://www.w3.org/1999/xlink" viewBox="0 0 62 62">
  <!-- Generator: Adobe Illustrator 29.3.1, SVG Export Plug-In . SVG Version: 2.1.0 Build 151)  -->
  <defs>
    <style>
      .st0 {
        fill: #e2710d;
      }
    </style>
  </defs>
  <path d="M13,3h36.1l9.5,34.4-27.6,20.9L3.4,37.3,13,3M10.7,0L0,38.5l31,23.5,31-23.5L51.3,0H10.7Z"/>
  <path class="st0" d="M52,35.4h-4.4v-9.3c0-2.6-2.8-3.5-4-3.9-2.8-1-7-1.4-12.7-1.4s-9.8.5-12.7,1.4c-4,1.3-4,3.1-4,3.9v9.3h-4.4v-9.3c0-9.9,15.3-9.9,21-9.9s21,0,21,9.9v9.3Z"/>
</svg>