<?xml version="1.0" encoding="UTF-8"?>
<svg id="Layer_1" xmlns="http://www.w3.org/2000/svg" version="1.1" xmlns:xlink="http://www.w3.org/1999/xlink" viewBox="0 0 66.6 66.5">
  <!-- Generator: Adobe Illustrator 29.3.1, SVG Export Plug-In . SVG Version: 2.1.0 Build 151)  -->
  <defs>
    <style>
      .st0 {
        stroke-width: 2px;
      }

      .st0, .st1 {
        fill: none;
        stroke: #0056a4;
        stroke-miterlimit: 10;
      }

      .st2 {
        fill: #fff;
      }

      .st3 {
        fill: #0056a4;
      }

      .st1 {
        stroke-width: 3px;
      }
    </style>
  </defs>
  <g>
    <polygon class="st2" points="4 39.9 14.1 3.5 52.5 3.5 62.6 40 33.3 62.1 4 39.9"/>
    <path d="M51.3,5l9.5,34.4-27.6,20.9L5.7,39.3,15.3,5h36.1M53.6,2H13L2.3,40.5l31,23.5,31-23.5L53.6,2h0Z"/>
    <path class="st2" d="M53.6,2l10.7,38.5-31,23.5L2.3,40.5,13,2h40.6M55.1,0H11.5l-.4,1.5L.4,39.9l-.4,1.3,1.1.8,31,23.5,1.2.9,1.2-.9,31-23.5,1.1-.8-.4-1.3L55.5,1.5l-.4-1.5h0Z"/>
  </g>
  <g>
    <circle class="st1" cx="33.3" cy="24.1" r="13"/>
    <line class="st1" x1="52.3" y1="44.1" x2="14.3" y2="44.1"/>
    <g>
      <line class="st0" x1="21.3" y1="24.1" x2="45.3" y2="24.1"/>
      <line class="st1" x1="39.3" y1="13.7" x2="27.3" y2="34.5"/>
      <line class="st1" x1="27.3" y1="13.7" x2="39.3" y2="34.5"/>
    </g>
    <rect class="st3" x="14.3" y="22.1" width="4" height="4"/>
    <rect class="st3" x="48.3" y="22.1" width="4" height="4"/>
    <rect class="st3" x="22.3" y="7.1" width="4" height="4"/>
    <rect class="st3" x="40.3" y="37.1" width="4" height="4"/>
    <rect class="st3" x="40.3" y="7.1" width="4" height="4"/>
    <rect class="st3" x="22.3" y="37.1" width="4" height="4"/>
    <polygon class="st1" points="21.7 44.1 44.8 44.1 33.3 24.1 21.7 44.1"/>
  </g>
</svg>