<?xml version="1.0" encoding="UTF-8"?>
<svg id="Layer_1" xmlns="http://www.w3.org/2000/svg" version="1.1" xmlns:xlink="http://www.w3.org/1999/xlink" viewBox="0 0 62 62">
  <!-- Generator: Adobe Illustrator 29.3.1, SVG Export Plug-In . SVG Version: 2.1.0 Build 151)  -->
  <defs>
    <style>
      .st0 {
        fill: #91562b;
      }
    </style>
  </defs>
  <path d="M13,3h36.1l9.5,34.4-27.6,20.9L3.4,37.3,13,3M10.7,0L0,38.5l31,23.5,31-23.5L51.3,0H10.7Z"/>
  <path class="st0" d="M53,23.6h-8.1v1.7h3.5v1.4h-8.8l-2.8-10.7h6.8v-3h-24.5v3h6.2l-2.8,10.7h-8.8v-1.4h3.5v-1.7h-8.1v1.7h3.5v4.4h0s9.2,0,9.2,0l-2.8,10.7h3l2.8-10.7h12.6l2.8,10.7h3l-2.8-10.7h9.2v-4.4h3.5v-1.7h0ZM25.5,26.7l2.8-10.7h5.5l2.8,10.7h-11.1Z"/>
</svg>