<?xml version="1.0" encoding="UTF-8"?>
<svg id="Layer_1" xmlns="http://www.w3.org/2000/svg" version="1.1" xmlns:xlink="http://www.w3.org/1999/xlink" viewBox="0 0 62 62">
  <!-- Generator: Adobe Illustrator 29.3.1, SVG Export Plug-In . SVG Version: 2.1.0 Build 151)  -->
  <defs>
    <style>
      .st0 {
        fill: #e4151c;
      }

      .st1, .st2 {
        fill: #fff;
      }

      .st2 {
        stroke: #e4151c;
        stroke-miterlimit: 10;
        stroke-width: 2px;
      }
    </style>
  </defs>
  <path d="M13,3h36.1l9.5,34.4-27.6,20.9L3.4,37.3,13,3M10.7,0L0,38.5l31,23.5,31-23.5L51.3,0H10.7Z"/>
  <path d="M40.5,39.5s0,0,0,0l2-2.4c0,0,.2-.2.2-.4v-14.5c3.3-1.5,4.7-5.3,3.3-8.6-1.5-3.3-5.3-4.8-8.6-3.3-3.3,1.5-4.7,5.3-3.3,8.6.8,1.7,2.2,3,4,3.6v.8s-1.6.4-1.6.4v.7l1.1.8s0,0,0,.1c0,0,0,0,0,0l-1.1.7s0,0,0,.1c0,0,0,0,0,0l1.1.6s0,0,0,.1c0,0,0,0,0,0l-1.1.7s0,0,0,.1c0,0,0,0,0,0l1.1.7s0,0,0,.1c0,0,0,0,0,0l-1,1s0,0,0,.1c0,0,0,0,0,0l1.7,1.6v1.1l-1.2,1c0,0,0,.2,0,.2,0,0,0,0,0,0l.5.9c0,0,0,.1,0,.2l-1,1c0,.1,0,.3,0,.4,0,0,0,0,0,0l3.4,3.2c.1.1.4.2.5,0ZM38.6,14c0-.8.6-1.4,1.4-1.4s1.4.6,1.4,1.4-.6,1.4-1.4,1.4-1.4-.6-1.4-1.4Z"/>
  <g>
    <ellipse class="st2" cx="27.4" cy="44.6" rx="9.8" ry="2.7"/>
    <g>
      <rect class="st1" x="23.3" y="11.3" width="8.3" height="5.5"/>
      <rect class="st0" x="23.3" y="16.8" width="8.3" height="5.5"/>
      <rect class="st0" x="23.3" y="5.9" width="8.3" height="5.5"/>
      <rect class="st1" x="23.3" y="22.3" width="8.3" height="5.5"/>
      <rect class="st0" x="23.3" y="27.8" width="8.3" height="5.5"/>
      <rect class="st1" x="23.3" y="33.2" width="8.3" height="5.5"/>
      <rect class="st0" x="23.3" y="38.7" width="8.3" height="5.5"/>
    </g>
    <ellipse class="st0" cx="27.4" cy="5.9" rx="4.1" ry="1.4"/>
    <ellipse class="st0" cx="27.4" cy="44.2" rx="4.1" ry="1.4"/>
  </g>
</svg>