<?xml version="1.0" encoding="UTF-8"?>
<svg id="Layer_1" xmlns="http://www.w3.org/2000/svg" version="1.1" xmlns:xlink="http://www.w3.org/1999/xlink" viewBox="0 0 62 62">
  <!-- Generator: Adobe Illustrator 29.3.1, SVG Export Plug-In . SVG Version: 2.1.0 Build 151)  -->
  <defs>
    <style>
      .st0 {
        fill: #fff;
      }

      .st1 {
        fill: none;
      }

      .st2 {
        fill: red;
      }
    </style>
  </defs>
  <g>
    <polygon class="st1" points="30.5 40.5 30.5 31.5 21.5 31.5 20.5 31.5 11.5 31.5 11.5 40.5 20.5 40.5 21.5 40.5 30.5 40.5"/>
    <polygon class="st1" points="30.5 20.5 30.5 11.5 21.5 11.5 20.5 11.5 11.5 11.5 11.5 20.5 20.5 20.5 21.5 20.5 30.5 20.5"/>
    <polygon class="st1" points="31.5 31.5 31.5 40.5 40.5 40.5 41.5 40.5 50.5 40.5 50.5 31.5 41.5 31.5 40.5 31.5 31.5 31.5"/>
    <polygon class="st1" points="30.5 10.5 31.5 10.5 40.5 10.5 40.5 1.5 31.5 1.5 30.5 1.5 21.5 1.5 21.5 10.5 30.5 10.5"/>
    <polygon class="st1" points="30.5 21.5 21.5 21.5 21.5 30.5 30.5 30.5 31.5 30.5 40.5 30.5 40.5 21.5 31.5 21.5 30.5 21.5"/>
    <polygon class="st1" points="30.5 41.5 21.5 41.5 21.5 50.5 30.5 50.5 31.5 50.5 40.5 50.5 40.5 41.5 31.5 41.5 30.5 41.5"/>
    <polygon class="st1" points="31.5 11.5 31.5 20.5 40.5 20.5 41.5 20.5 50.5 20.5 50.5 11.5 41.5 11.5 40.5 11.5 31.5 11.5"/>
    <path d="M10.3,1.5h10.2v9H7.8l-.3,1h3v9h-5.5l-.3,1h15.8v9H2.2l-.3,1h8.6v9H2.7l1.3,1h16.5v9h-4.7l1.3,1h13.3v9h-1.5l1.3,1h1.3l1.3-1h-1.5v-9h13.4l1.3-1h-4.7v-9h16.6l1.3-1h-7.9v-9h8.5l-.3-1h-18.3v-9h15.8l-.3-1h-5.5v-9h3l-.3-1h-12.7V1.5h10.2l-.4-1.5h-.8v.5h-19v-.5h-1v.5H11.5v-.5h-.8l-.4,1.5ZM11.5,20.5v-9h19v9H11.5ZM11.5,40.5v-9h19v9H11.5ZM40.5,50.5h-19v-9h19v9ZM50.5,31.5v9h-19v-9h19ZM40.5,30.5h-19v-9h19v9ZM50.5,11.5v9h-19v-9h19ZM30.5,1.5h10v9h-19V1.5h9Z"/>
  </g>
  <path d="M49,3l9.5,34.4-27.6,20.9L3.4,37.3,13,3h36.1M51.3,0H10.7L0,38.5l31,23.5,31-23.5L51.3,0h0Z"/>
  <g>
    <polygon class="st0" points="34.4 43.9 31 43.9 25.3 43 22.2 35.3 30.6 23.9 34.6 24.8 38.9 30.9 41.8 36.6 37.8 43 34.4 43.9"/>
    <path class="st2" d="M31,7.9c-2.5,4.8.4,7.4-2.7,14.3-1.8-1.4-.8-6.6-4.1-6.7.4,1.7.1,2.2,0,2.8-.4,2.4-1.1,4.3.4,7.3-2.3-1.1-2.5-3.2-4.4-4.6.4,2.2-.5,6.9,2.1,11.3-2.3-.3-3.2-1.1-5.6-3.6,2.6,14,4.7,14.4,14.4,15.3-.8-.1-5.8-1-7.5-6.7,0-1.4-.1,1.3,4.7,1.4-3-4.9-2.2-3.9-1.9-6.7,1.4,1.8.3,2.1,3.7,3.5-1.1-3.6,1.8-6,1.1-10.2.8,1.8,3.6,1.5,3.4,10.2,2.3-2.7,2.5-.8,3.6-3.6.1,1.5.8,3.5-2.3,6.9.8.3,2.2.4,4.3-1.1-2.1,2.5-.1,2.5-5.5,6.4,6.7.1,11.1-4.2,11-13.6-.3.8-.4,2.5-4,2.9,2.2-2.2,3.4-6.9,1.6-10.5-.7.6-1.6,3.4-4,4.1,1.1-2,.8-4.5.8-4.5,0,0,.4-3.5-1.6-6.3-.5,4.2-.5,6.4-3.2,7,.4-2.4.5-3.6-.8-6.4-1.4-2.9-3-5.9-3.3-8.7Z"/>
  </g>
</svg>