<?xml version="1.0" encoding="UTF-8"?>
<svg id="Layer_1" xmlns="http://www.w3.org/2000/svg" version="1.1" xmlns:xlink="http://www.w3.org/1999/xlink" viewBox="0 0 45 37.4">
  <!-- Generator: Adobe Illustrator 29.3.1, SVG Export Plug-In . SVG Version: 2.1.0 Build 151)  -->
  <defs>
    <style>
      .st0 {
        fill: #fff;
      }

      .st1 {
        fill: #93572b;
      }
    </style>
  </defs>
  <path class="st0" d="M44.1,18.9l-3.4-2.3c0-.1,0-.2,0-.3v-4c.3-.2.6-.4.9-.7l1.3-2c.6-.9.4-2.2-.6-2.8L32.5.3c-.3-.2-.7-.3-1.1-.3s-.4,0-.5,0L9.6,6.1c-1.1.3-1.7,1.4-1.4,2.5l.7,2.3c0,.3.3.6.5.8l-7.9,2.3c-1.1.3-1.7,1.4-1.4,2.5l.7,2.3c.2.8.8,1.3,1.6,1.4v11.1c0,1.1.9,2,2,2h8v2.2c0,1.1.9,2,2,2h26.2c1.1,0,2-.9,2-2v-11c.3-.2.6-.4.9-.7l1.3-2c.6-.9.4-2.2-.6-2.8Z"/>
  <g>
    <polygon class="st1" points="14.3 20 16.7 20 16.7 33 38.1 33 38.1 19.5 40.5 20 40.5 35.4 14.3 35.4 14.3 20"/>
    <polygon class="st1" points="12.6 22.4 12 20.1 33.2 14.1 43 20.6 41.7 22.6 32.8 16.7 12.6 22.4"/>
    <polygon class="st1" points="31.4 2 10.2 8 10.8 10.3 12.5 9.9 12.5 11.5 14.9 10.8 14.9 9.2 31 4.6 36.3 8.2 36.3 14.8 38.7 16.3 38.7 9.7 39.9 10.5 41.2 8.5 31.4 2"/>
    <polygon class="st1" points="4.3 17.7 4.3 31.2 12.6 31.2 12.6 28.8 6.7 28.8 6.7 17 22.8 12.5 26.4 14.8 29.4 13.9 23.2 9.8 2 15.9 2.7 18.2 4.3 17.7"/>
    <polygon class="st1" points="19.8 23 25 23 25 28.2 19.8 28.2 19.8 23"/>
    <polygon class="st1" points="29.1 23 34.3 23 34.3 33.8 29.1 33.8 29.1 23"/>
  </g>
  <g>
    <path class="st1" d="M43,20.6l-9.8-6.5-21.2,6,.7,2.3,1.6-.5v13.5h26.2v-13.6l1.2.8,1.3-2ZM38.1,33h-3.8v-10h-5.2v10h-12.4v-11.8l16.1-4.6,5.3,3.5v12.8Z"/>
    <polygon class="st1" points="12.5 9.9 12.5 11.5 14.9 10.8 14.9 9.2 31 4.6 36.3 8.2 36.3 14.8 38.7 16.3 38.7 9.7 39.9 10.5 41.2 8.5 31.4 2 10.2 8 10.8 10.3 12.5 9.9"/>
    <polygon class="st1" points="6.7 17 22.8 12.5 26.4 14.8 29.4 13.9 23.2 9.8 2 15.9 2.7 18.2 4.3 17.7 4.3 31.2 12.6 31.2 12.6 28.8 6.7 28.8 6.7 17"/>
    <rect class="st1" x="19.8" y="23" width="5.2" height="5.2"/>
  </g>
</svg>