<?xml version="1.0" encoding="UTF-8"?>
<svg id="Layer_1" xmlns="http://www.w3.org/2000/svg" version="1.1" xmlns:xlink="http://www.w3.org/1999/xlink" viewBox="0 0 66.6 66.5">
  <!-- Generator: Adobe Illustrator 29.3.1, SVG Export Plug-In . SVG Version: 2.1.0 Build 151)  -->
  <defs>
    <style>
      .st0 {
        fill: #fff;
      }

      .st1 {
        fill: none;
        stroke: #000;
        stroke-linecap: square;
        stroke-miterlimit: 10;
        stroke-width: 1.6px;
      }
    </style>
  </defs>
  <g>
    <polygon class="st0" points="4 39.9 14.1 3.5 52.5 3.5 62.6 40 33.3 62.1 4 39.9"/>
    <path d="M51.3,5l9.5,34.4-27.6,20.9L5.7,39.3,15.3,5h36.1M53.6,2H13L2.3,40.5l31,23.5,31-23.5L53.6,2h0Z"/>
    <path class="st0" d="M53.6,2l10.7,38.5-31,23.5L2.3,40.5,13,2h40.6M55.1,0H11.5l-.4,1.5L.4,39.9l-.4,1.3,1.1.8,31,23.5,1.2.9,1.2-.9,31-23.5,1.1-.8-.4-1.3L55.5,1.5l-.4-1.5h0Z"/>
  </g>
  <g>
    <polygon points="22.7 24.6 17 24.6 8 39.3 22.7 39.3 22.7 24.6"/>
    <polygon points="43.9 24.6 49.6 24.6 58.6 39.3 43.9 39.3 43.9 24.6"/>
  </g>
  <rect x="21.1" y="16.5" width="21.2" height="4.2" transform="translate(-3.8 27.9) rotate(-45.2)"/>
  <g>
    <path class="st1" d="M22.7,35.6c1.8,0,1.8-1,3.5-1s1.8,1,3.5,1,1.8-1,3.5-1,1.8,1,3.5,1,1.8-1,3.5-1,1.8,1,3.5,1"/>
    <path class="st1" d="M22.7,38.5c1.8,0,1.8-1,3.5-1s1.8,1,3.5,1,1.8-1,3.5-1,1.8,1,3.5,1,1.8-1,3.5-1,1.8,1,3.5,1"/>
  </g>
</svg>