<?xml version="1.0" encoding="UTF-8"?>
<svg id="Layer_1" xmlns="http://www.w3.org/2000/svg" version="1.1" xmlns:xlink="http://www.w3.org/1999/xlink" viewBox="0 0 47 36.7">
  <!-- Generator: Adobe Illustrator 29.3.1, SVG Export Plug-In . SVG Version: 2.1.0 Build 151)  -->
  <defs>
    <style>
      .st0 {
        fill: #fff;
      }

      .st1 {
        fill: none;
      }

      .st2 {
        fill: #0056a4;
      }
    </style>
  </defs>
  <path class="st0" d="M45.4,5.3c-.6-.6-1.7-1.2-3.3-1.2s-.7,0-1,0c-1.1.2-2.1.3-3.1.3-3.4,0-6.6-.9-9.9-2.9-.2-.1-.4-.2-.5-.4l-.3-.2c-.9-.6-1.9-1-2.9-1s-.9,0-1.4.2c-1.4.4-2.6,1.6-3.2,3.1-.1.4-.3.8-.4,1.2h-.2c0,.1,0,.1,0,.1h0c-.2.2-.3.3-.5.4-3.4,2.3-6.9,3.4-10.6,3.4s-1.5,0-2.3-.1c-.3,0-.5,0-.7,0-1.8,0-2.9.7-3.5,1.4C.4,10.7-.1,12.2,0,13.9c.5,4.8,1.9,9.3,4.2,13.3,2,3.4,4.3,5.9,7,7.6,2.1,1.3,4.2,1.9,6.3,1.9s2-.2,3-.4c2.2-.7,4.1-2,5.6-4,.5.2,1,.4,1.5.5.8.2,1.7.3,2.5.3,2.2,0,4.5-.7,6.6-2.2,2.7-1.8,4.9-4.4,6.7-7.9,2.1-4.1,3.4-8.7,3.6-13.5,0-1.7-.5-3.2-1.6-4.2Z"/>
  <path class="st2" d="M24.7,21.7c.1-.3.2-.4.2-.5,1.2-2,3.7-3.1,5.9-2.5,2.3.6,3.9,2.8,4,5.2,0,.2,0,.3-.1.5-.1,0-.3-.2-.4-.3-2.2-2.3-4.9-3.2-8-2.8-.5,0-.9.2-1.5.3Z"/>
  <path class="st2" d="M25.5,12.5c0,0-.2,0-.3-.1-.2,0-.5-.4-.7,0-.1.2,0,.6.1.8,1.4,2.5,4.7,2.4,6.2,0,.1-.2.2-.5.1-.6-.1-.3-.4-.1-.7,0-1.6.7-3.2.7-4.8,0Z"/>
  <path class="st2" d="M39.9,15.6c0,0,0-.3,0-.4,0-.1-.3-.2-.4-.2-2,0-3.6-.8-4.9-2.2,0-.1-.4-.2-.5-.2-.1,0-.2.3-.2.5,0,1.5.7,2.6,2,3.2,1.3.6,2.6.4,3.9-.5,0,0,0,0,.2-.2Z"/>
  <path class="st2" d="M44.1,6.8c-.5-.4-1.3-.9-2.7-.6-5,.8-9.7-.1-14.3-2.9-.2-.1-.5-.3-.7-.5l-.3-.2c-.8-.6-1.7-.7-2.6-.5-.9.3-1.5.9-1.9,1.9-.2.6-.4,1.2-.6,1.8-.1,0-.3.1-.4.2l-.3.2c-.2.2-.4.3-.7.5-4.5,3-9.1,4.1-14.2,3.5-1.4-.2-2.2.3-2.6.8-.4.4-.9,1.2-.8,2.6.5,4.5,1.8,8.8,4,12.5,1.8,3.1,3.9,5.4,6.3,6.9,1.8,1.1,3.5,1.6,5.2,1.6s1.6-.1,2.4-.4c2.3-.7,4.1-2.2,5.5-4.7.8.5,1.7.9,2.6,1.2.7.2,1.4.3,2,.3,1.8,0,3.7-.6,5.5-1.9,2.4-1.6,4.4-4,6-7.2,2-3.9,3.2-8.1,3.4-12.7,0-1.4-.5-2.2-.9-2.6ZM23,27.9c-1,2-2.3,3.1-3.9,3.6-1.7.5-3.3.2-5.2-.9-2-1.3-3.8-3.2-5.3-5.8-2-3.4-3.2-7.2-3.6-11.3,0,0,0,0,0-.1,0,0,0,0,.1,0,5.7.7,11.2-.7,16.2-4,.3-.2.6-.4.9-.6l.2-.2c1,2.3,1.7,4.7,2,7,.1,1,.2,2,.3,2.9v.7c0,4-.5,6.6-1.7,8.9ZM42,9.2c-.2,4.1-1.3,8-3.1,11.5-1.4,2.7-3.1,4.7-5.1,6.1-1.8,1.2-3.4,1.6-5.1,1.2-.8-.2-1.5-.6-2.1-1.1.7-2.2,1.1-4.6,1.1-7.9h0c0,0,0-.9,0-.9,0-.8-.2-1.9-.3-3-.4-2.6-1.1-5.2-2.2-7.8-.2-.6-.6-1-1-1.3,0-.3.2-.6.3-.9h.2c.3.3.6.6.9.7,5.2,3.1,10.7,4.2,16.4,3.3,0,0,0,0,.1,0,0,0,0,0,0,.1Z"/>
  <path class="st2" d="M22.2,16.9c0,0,.2,0,.3,0,.3,0,.7.1.7-.3,0-.2-.2-.5-.4-.7-2.3-1.7-5.3-.4-5.7,2.5,0,.2,0,.5.2.6.3.2.4,0,.6-.2,1.2-1.2,2.7-1.9,4.4-1.9Z"/>
  <path class="st2" d="M8,20.8c0,0,0,.3.2.3.1,0,.3,0,.5,0,1.7-1.1,3.5-1.3,5.4-.8.1,0,.4,0,.5-.1,0-.1,0-.4,0-.5-.9-1.2-2-1.8-3.4-1.6-1.5.2-2.4,1.1-3,2.5,0,0,0,.1,0,.3Z"/>
  <path class="st1" d="M25,30.9c.9.9,2,1.6,3.4,2,2.3.6,4.4,0,6.3-1.4,2.4-1.7,4.2-4,5.5-6.6,2-3.8,3-7.8,3.2-12.1,0-1.3-.6-1.9-1.9-1.7-5.5.9-10.6-.2-15.4-3.1-.4-.2-.7-.5-1.1-.7-.9-.6-1.8-.3-2.2.7-.4,1-.7,1.9-.9,2.9"/>
  <path class="st1" d="M26.2,18.9c0,3.8-.5,6.8-2,9.6-1.1,2.1-2.6,3.7-4.8,4.3-2.3.7-4.4.1-6.4-1.1-2.5-1.5-4.3-3.8-5.8-6.4-2.1-3.7-3.4-7.7-3.8-11.9-.1-1.3.5-1.9,1.8-1.7,5.5.6,10.6-.7,15.2-3.8.4-.2.7-.5,1-.8.9-.7,1.8-.4,2.2.6,1,2.4,1.8,4.8,2.1,7.4.2,1.4.3,2.9.4,3.7Z"/>
  <path class="st2" d="M12,24.9c.1.3.1.4.2.5,1.2,2.1,3.6,3.1,5.9,2.5,2.3-.6,4-2.7,4.1-5.2,0-.2,0-.3-.1-.5-.1,0-.3.2-.4.3-2.3,2.3-5,3.1-8.1,2.7-.5,0-.9-.2-1.5-.3Z"/>
</svg>