<?xml version="1.0" encoding="UTF-8"?>
<svg id="Layer_1" xmlns="http://www.w3.org/2000/svg" version="1.1" xmlns:xlink="http://www.w3.org/1999/xlink" viewBox="0 0 37 37">
  <!-- Generator: Adobe Illustrator 29.3.1, SVG Export Plug-In . SVG Version: 2.1.0 Build 151)  -->
  <defs>
    <style>
      .st0 {
        fill: #fff;
      }

      .st1 {
        fill: #bd5639;
      }
    </style>
  </defs>
  <path class="st0" d="M35,0H2C.9,0,0,.9,0,2v33c0,1.1.9,2,2,2h33c1.1,0,2-.9,2-2V2c0-1.1-.9-2-2-2Z"/>
  <path class="st1" d="M28.9,8.1v20.8H8.1V8.1h20.8M35,2H2v33h33V2h0Z"/>
  <rect class="st1" x="14.2" y="14.2" width="8.7" height="8.7"/>
  <path class="st1" d="M28.9,8.1v20.8H8.1V8.1h20.8M35,2H2v33h33V2h0Z"/>
  <rect class="st1" x="14.2" y="14.2" width="8.7" height="8.7"/>
</svg>