<?xml version="1.0" encoding="UTF-8"?>
<svg id="Layer_1" xmlns="http://www.w3.org/2000/svg" version="1.1" xmlns:xlink="http://www.w3.org/1999/xlink" viewBox="0 0 62 62">
  <!-- Generator: Adobe Illustrator 29.3.1, SVG Export Plug-In . SVG Version: 2.1.0 Build 151)  -->
  <defs>
    <style>
      .st0 {
        fill: #f6bd16;
      }
    </style>
  </defs>
  <path d="M13,3h36.1l9.5,34.4-27.6,20.9L3.4,37.3,13,3M10.7,0L0,38.5l31,23.5,31-23.5L51.3,0H10.7Z"/>
  <g>
    <path class="st0" d="M56.5,36.9l-9-14.7h-5.7v10.2c-.7,0-1-.2-1.4-.4-.5-.3-1.1-.6-2.2-.6s-1.7.3-2.2.6c-.4.2-.7.4-1.4.4s-1-.2-1.4-.4c-.5-.3-1.1-.6-2.2-.6s-1.7.3-2.2.6c-.4.2-.7.4-1.4.4s-1-.2-1.4-.4c-.5-.3-1.1-.6-2.2-.6s-1.7.3-2.2.6c-.4.2-.7.4-1.4.4v-10.2h-5.7l-9,14.7h14.7c1.1,0,1.7-.3,2.2-.6.4-.2.7-.4,1.4-.4s1,.2,1.4.4c.5.3,1.1.6,2.2.6s1.7-.3,2.2-.6c.4-.2.7-.4,1.4-.4s1,.2,1.4.4c.5.3,1.1.6,2.2.6s1.7-.3,2.2-.6c.4-.2.7-.4,1.4-.4s1,.2,1.4.4c.5.3,1.1.6,2.2.6,0,0,14.7,0,14.7,0ZM40.5,35c-.5-.3-1.1-.6-2.2-.6s-1.7.3-2.2.6c-.4.2-.7.4-1.4.4s-1-.2-1.4-.4c-.5-.3-1.1-.6-2.2-.6s-1.7.3-2.2.6c-.4.2-.7.4-1.4.4s-1-.2-1.4-.4c-.5-.3-1.1-.6-2.2-.6s-1.7.3-2.2.6c-.4.2-.7.4-1.4.4v-1.4c1.1,0,1.7-.3,2.2-.6.4-.2.7-.4,1.4-.4s1,.2,1.4.4c.5.3,1.1.6,2.2.6s1.7-.3,2.2-.6c.4-.2.7-.4,1.4-.4s1,.2,1.4.4c.5.3,1.1.6,2.2.6s1.7-.3,2.2-.6c.4-.2.7-.4,1.4-.4s1,.2,1.4.4c.5.3,1.1.6,2.2.6v1.4c-.7,0-1-.2-1.4-.4Z"/>
    <rect class="st0" x="19.1" y="14" width="21.2" height="4.2" transform="translate(-2.7 25.8) rotate(-45.2)"/>
  </g>
</svg>