<?xml version="1.0" encoding="UTF-8"?>
<svg id="Layer_1" xmlns="http://www.w3.org/2000/svg" version="1.1" xmlns:xlink="http://www.w3.org/1999/xlink" viewBox="0 0 44 30.1">
  <!-- Generator: Adobe Illustrator 29.3.1, SVG Export Plug-In . SVG Version: 2.1.0 Build 151)  -->
  <defs>
    <style>
      .st0 {
        fill: #fff;
      }

      .st1 {
        fill: #0056a4;
      }
    </style>
  </defs>
  <path class="st0" d="M41.1,8.7s0,0,0,0h-1.5c-.8,0-1.5.3-2.1.9-.6.6-.9,1.3-.9,2.1h0v1.8c-2.5-1.7-6.5-2.5-10.6-2.5s-8.2.9-10.7,2.6c-.5-.7-1-1.5-1.8-2.2-1.7-1.6-3.7-2.5-5.4-2.5h0c-.2,0-.4,0-.6,0V3c0-1.6-1.3-3-3-3h-1.6v1h0V0C1.4,0,0,1.3,0,2.9v25.2c0,1.1.9,2,2,2h3.5c1.1,0,2-.9,2-2v-1.7h29v1.7c0,1.1.9,2,2,2h3.5c1.1,0,2-.9,2-2V11.8c0-.8-.3-1.5-.8-2.1-.5-.6-1.3-.9-2.1-.9Z"/>
  <g>
    <path class="st1" d="M41,10.7h-1.5c-.5,0-1,.4-1,1h0v7.7H10.4c-2.6,0-4.8-2.1-4.9-4.7V3c0-.5-.4-1-1-1h-1.6c-.5,0-1,.4-1,1h0v25.2h3.5v-3.7h33v3.7h3.5V11.7c0-.5-.4-1-.9-1,0,0,0,0,0,0h0Z"/>
    <path class="st1" d="M12.1,12.9c2,1.8,2.8,4.2,1.8,5.3s-3.4.4-5.4-1.4-2.8-4.2-1.8-5.3c1-1.1,3.4-.4,5.4,1.4h0Z"/>
    <path class="st1" d="M36.8,18.5c.2-.3.3-.7.3-1,0-2.5-5-4.5-11.1-4.5s-11.1,2-11.1,4.5c0,.4.1.7.3,1h21.6Z"/>
  </g>
  <g>
    <path class="st1" d="M41,10.7h-1.5c-.5,0-1,.4-1,1h0v7.7H10.4c-2.6,0-4.8-2.1-4.9-4.7V3c0-.5-.4-1-1-1h-1.6c-.5,0-1,.4-1,1h0v25.2h3.5v-3.7h33v3.7h3.5V11.7c0-.5-.4-1-.9-1,0,0,0,0,0,0h0Z"/>
    <path class="st1" d="M12.1,12.9c2,1.8,2.8,4.2,1.8,5.3s-3.4.4-5.4-1.4-2.8-4.2-1.8-5.3c1-1.1,3.4-.4,5.4,1.4h0Z"/>
    <path class="st1" d="M36.8,18.5c.2-.3.3-.7.3-1,0-2.5-5-4.5-11.1-4.5s-11.1,2-11.1,4.5c0,.4.1.7.3,1h21.6Z"/>
  </g>
</svg>