<?xml version="1.0" encoding="UTF-8"?>
<svg id="Layer_1" xmlns="http://www.w3.org/2000/svg" version="1.1" xmlns:xlink="http://www.w3.org/1999/xlink" viewBox="0 0 66.6 66.5">
  <!-- Generator: Adobe Illustrator 29.3.1, SVG Export Plug-In . SVG Version: 2.1.0 Build 151)  -->
  <defs>
    <style>
      .st0 {
        fill: #e4151c;
      }

      .st1, .st2 {
        fill: #fff;
      }

      .st2 {
        stroke: #e4151c;
        stroke-miterlimit: 10;
        stroke-width: 2px;
      }
    </style>
  </defs>
  <g>
    <polygon class="st1" points="4 39.9 14.1 3.5 52.5 3.5 62.6 40 33.3 62.1 4 39.9"/>
    <path d="M51.3,5l9.5,34.4-27.6,20.9L5.7,39.3,15.3,5h36.1M53.6,2H13L2.3,40.5l31,23.5,31-23.5L53.6,2h0Z"/>
    <path class="st1" d="M53.6,2l10.7,38.5-31,23.5L2.3,40.5,13,2h40.6M55.1,0H11.5l-.4,1.5L.4,39.9l-.4,1.3,1.1.8,31,23.5,1.2.9,1.2-.9,31-23.5,1.1-.8-.4-1.3L55.5,1.5l-.4-1.5h0Z"/>
  </g>
  <path d="M42.8,41.5s0,0,0,0l2-2.4c0,0,.2-.2.2-.4v-14.5c3.3-1.5,4.7-5.3,3.3-8.6-1.5-3.3-5.3-4.8-8.6-3.3-3.3,1.5-4.7,5.3-3.3,8.6.8,1.7,2.2,3,4,3.6v.8s-1.6.4-1.6.4v.7l1.1.8s0,0,0,.1c0,0,0,0,0,0l-1.1.7s0,0,0,.1c0,0,0,0,0,0l1.1.6s0,0,0,.1c0,0,0,0,0,0l-1.1.7s0,0,0,.1c0,0,0,0,0,0l1.1.7s0,0,0,.1c0,0,0,0,0,0l-1,1s0,0,0,.1c0,0,0,0,0,0l1.7,1.6v1.1l-1.2,1c0,0,0,.2,0,.2,0,0,0,0,0,0l.5.9c0,0,0,.1,0,.2l-1,1c0,.1,0,.3,0,.4,0,0,0,0,0,0l3.4,3.2c.1.1.4.2.5,0ZM40.9,16c0-.8.6-1.4,1.4-1.4s1.4.6,1.4,1.4-.6,1.4-1.4,1.4-1.4-.6-1.4-1.4Z"/>
  <g>
    <ellipse class="st2" cx="29.7" cy="46.6" rx="9.8" ry="2.7"/>
    <g>
      <rect class="st1" x="25.6" y="13.3" width="8.3" height="5.5"/>
      <rect class="st0" x="25.6" y="18.8" width="8.3" height="5.5"/>
      <rect class="st0" x="25.6" y="7.9" width="8.3" height="5.5"/>
      <rect class="st1" x="25.6" y="24.3" width="8.3" height="5.5"/>
      <rect class="st0" x="25.6" y="29.8" width="8.3" height="5.5"/>
      <rect class="st1" x="25.6" y="35.2" width="8.3" height="5.5"/>
      <rect class="st0" x="25.6" y="40.7" width="8.3" height="5.5"/>
    </g>
    <ellipse class="st0" cx="29.7" cy="7.9" rx="4.1" ry="1.4"/>
    <ellipse class="st0" cx="29.7" cy="46.2" rx="4.1" ry="1.4"/>
  </g>
</svg>