<?xml version="1.0" encoding="UTF-8"?>
<svg id="Layer_1" xmlns="http://www.w3.org/2000/svg" version="1.1" xmlns:xlink="http://www.w3.org/1999/xlink" viewBox="0 0 62 62">
  <!-- Generator: Adobe Illustrator 29.3.1, SVG Export Plug-In . SVG Version: 2.1.0 Build 151)  -->
  <defs>
    <style>
      .st0 {
        fill: #607c33;
      }
    </style>
  </defs>
  <path d="M13,3h36.1l9.5,34.4-27.6,20.9L3.4,37.3,13,3M10.7,0L0,38.5l31,23.5,31-23.5L51.3,0H10.7Z"/>
  <g>
    <path class="st0" d="M31,42.3c-11.7,0-21.5-5.7-21.5-12.5s9.8-12.5,21.5-12.5,21.5,5.7,21.5,12.5-9.8,12.5-21.5,12.5Z"/>
    <path d="M31,18.8c10.8,0,20,5,20,11s-9.2,11-20,11-20-5-20-11,9.2-11,20-11M31,15.8c-12.7,0-23,6.3-23,14s10.3,14,23,14,23-6.3,23-14-10.3-14-23-14h0Z"/>
  </g>
</svg>