<?xml version="1.0" encoding="UTF-8"?>
<svg id="Layer_1" xmlns="http://www.w3.org/2000/svg" version="1.1" xmlns:xlink="http://www.w3.org/1999/xlink" viewBox="0 0 62 62">
  <!-- Generator: Adobe Illustrator 29.3.1, SVG Export Plug-In . SVG Version: 2.1.0 Build 151)  -->
  <path d="M13,3h36.1l9.5,34.4-27.6,20.9L3.4,37.3,13,3M10.7,0L0,38.5l31,23.5,31-23.5L51.3,0H10.7Z"/>
  <g>
    <circle cx="47" cy="26.9" r="3.8"/>
    <path d="M40.6,26.9s-24.6,3-26.3,3-3-1.4-3-3,1.4-3,3-3,26.3,3,26.3,3Z"/>
    <path d="M41,24.8s-21.9-5-23.3-5.5c-1.4-.5-2.2-2.1-1.6-3.5s2.1-2.2,3.5-1.6,21.4,10.7,21.4,10.7Z"/>
    <path d="M42.1,22.9s-15.3-9.9-16.3-10.6-1.1-2.2-.3-3.1,2.2-1.1,3.1-.3c.9.8,13.4,14.1,13.4,14.1Z"/>
    <path d="M41,29.1s-21.9,5-23.3,5.5c-1.4.5-2.2,2.1-1.6,3.5.5,1.4,2.1,2.2,3.5,1.6,1.4-.5,21.4-10.7,21.4-10.7Z"/>
    <path d="M42.1,31s-15.3,9.9-16.3,10.6-1.1,2.2-.3,3.1,2.2,1.1,3.1.3c.9-.8,13.4-14.1,13.4-14.1Z"/>
  </g>
</svg>