<?xml version="1.0" encoding="UTF-8"?>
<svg id="Layer_1" xmlns="http://www.w3.org/2000/svg" version="1.1" xmlns:xlink="http://www.w3.org/1999/xlink" viewBox="0 0 66.6 66.5">
  <!-- Generator: Adobe Illustrator 29.3.1, SVG Export Plug-In . SVG Version: 2.1.0 Build 151)  -->
  <defs>
    <style>
      .st0 {
        fill: #fff;
      }

      .st1 {
        fill: #0056a4;
      }
    </style>
  </defs>
  <g>
    <polygon class="st0" points="4 39.9 14.1 3.5 52.5 3.5 62.6 40 33.3 62.1 4 39.9"/>
    <path d="M15.3,5h36.1l9.5,34.4-27.6,20.9L5.7,39.3,15.3,5M13,2L2.3,40.5l31,23.5,31-23.5L53.6,2H13Z"/>
    <path class="st0" d="M13,2h40.6l10.7,38.5-31,23.5L2.3,40.5,13,2M13,0h-1.5l-.4,1.5L.4,39.9l-.4,1.3,1.1.8,31,23.5,1.2.9,1.2-.9,31-23.5,1.1-.8-.4-1.3L55.5,1.5l-.4-1.5H13Z"/>
  </g>
  <g>
    <path class="st1" d="M52.3,24.7h-1.5c-.5,0-1,.4-1,1h0v7.7h-28.1c-2.6,0-4.8-2.1-4.9-4.7v-11.8c0-.5-.4-1-1-1h-1.6c-.5,0-1,.4-1,1h0v25.2h3.5v-3.7h33v3.7h3.5v-16.4c0-.5-.4-1-.9-1,0,0,0,0,0,0h0Z"/>
    <path class="st1" d="M23.4,26.9c2,1.8,2.8,4.2,1.8,5.3-1,1.1-3.4.4-5.4-1.4-2-1.8-2.8-4.2-1.8-5.3,1-1.1,3.4-.4,5.4,1.4h0Z"/>
    <path class="st1" d="M48.1,32.5c.2-.3.3-.7.3-1,0-2.5-5-4.5-11.1-4.5s-11.1,2-11.1,4.5c0,.4.1.7.3,1h21.6Z"/>
  </g>
</svg>