<?xml version="1.0" encoding="UTF-8"?>
<svg id="Layer_1" xmlns="http://www.w3.org/2000/svg" version="1.1" xmlns:xlink="http://www.w3.org/1999/xlink" viewBox="0 0 66.6 66.5">
  <!-- Generator: Adobe Illustrator 29.3.1, SVG Export Plug-In . SVG Version: 2.1.0 Build 151)  -->
  <defs>
    <style>
      .st0 {
        fill: #fff;
      }

      .st1 {
        fill: none;
        stroke: #000;
        stroke-linecap: round;
        stroke-miterlimit: 10;
        stroke-width: 1.5px;
      }
    </style>
  </defs>
  <g>
    <polygon class="st0" points="4 39.9 14.1 3.5 52.5 3.5 62.6 40 33.3 62.1 4 39.9"/>
    <path d="M15.3,5h36.1l9.5,34.4-27.6,20.9L5.7,39.3,15.3,5M13,2L2.3,40.5l31,23.5,31-23.5L53.6,2H13Z"/>
    <path class="st0" d="M13,2h40.6l10.7,38.5-31,23.5L2.3,40.5,13,2M13,0h-1.5l-.4,1.5L.4,39.9l-.4,1.3,1.1.8,31,23.5,1.2.9,1.2-.9,31-23.5,1.1-.8-.4-1.3L55.5,1.5l-.4-1.5H13Z"/>
  </g>
  <g>
    <line class="st1" x1="15.3" y1="10" x2="51.3" y2="10"/>
    <line class="st1" x1="15.3" y1="21.6" x2="51.3" y2="21.6"/>
    <line class="st1" x1="15.3" y1="33.2" x2="51.3" y2="33.2"/>
    <line class="st1" x1="15.3" y1="44.8" x2="51.3" y2="44.8"/>
    <line class="st1" x1="18.2" y1="10.1" x2="18.2" y2="44.6"/>
    <line class="st1" x1="23.2" y1="10.1" x2="23.2" y2="44.6"/>
    <line class="st1" x1="28.2" y1="10.1" x2="28.2" y2="44.6"/>
    <line class="st1" x1="33.3" y1="10.1" x2="33.3" y2="44.6"/>
    <line class="st1" x1="38.3" y1="10.1" x2="38.3" y2="44.6"/>
    <line class="st1" x1="43.4" y1="10.1" x2="43.4" y2="44.6"/>
    <line class="st1" x1="48.4" y1="10.1" x2="48.4" y2="44.6"/>
  </g>
</svg>