<?xml version="1.0" encoding="UTF-8"?>
<svg id="Layer_1" xmlns="http://www.w3.org/2000/svg" version="1.1" xmlns:xlink="http://www.w3.org/1999/xlink" viewBox="0 0 62 62">
  <!-- Generator: Adobe Illustrator 29.3.1, SVG Export Plug-In . SVG Version: 2.1.0 Build 151)  -->
  <defs>
    <style>
      .st0 {
        fill: none;
        stroke: #000;
        stroke-linecap: round;
        stroke-miterlimit: 10;
        stroke-width: 1.5px;
      }
    </style>
  </defs>
  <path d="M13,3h36.1l9.5,34.4-27.6,20.9L3.4,37.3,13,3M10.7,0L0,38.5l31,23.5,31-23.5L51.3,0H10.7Z"/>
  <g>
    <line class="st0" x1="13" y1="8" x2="49" y2="8"/>
    <line class="st0" x1="13" y1="19.6" x2="49" y2="19.6"/>
    <line class="st0" x1="13" y1="31.2" x2="49" y2="31.2"/>
    <line class="st0" x1="13" y1="42.8" x2="49" y2="42.8"/>
    <line class="st0" x1="15.9" y1="8.1" x2="15.9" y2="42.6"/>
    <line class="st0" x1="20.9" y1="8.1" x2="20.9" y2="42.6"/>
    <line class="st0" x1="26" y1="8.1" x2="26" y2="42.6"/>
    <line class="st0" x1="31" y1="8.1" x2="31" y2="42.6"/>
    <line class="st0" x1="36" y1="8.1" x2="36" y2="42.6"/>
    <line class="st0" x1="41.1" y1="8.1" x2="41.1" y2="42.6"/>
    <line class="st0" x1="46.1" y1="8.1" x2="46.1" y2="42.6"/>
  </g>
</svg>