<?xml version="1.0" encoding="UTF-8"?>
<svg id="Layer_1" xmlns="http://www.w3.org/2000/svg" version="1.1" xmlns:xlink="http://www.w3.org/1999/xlink" viewBox="0 0 62 62">
  <!-- Generator: Adobe Illustrator 29.3.1, SVG Export Plug-In . SVG Version: 2.1.0 Build 151)  -->
  <defs>
    <style>
      .st0 {
        fill: #0056a4;
      }
    </style>
  </defs>
  <path d="M13,3h36.1l9.5,34.4-27.6,20.9L3.4,37.3,13,3M10.7,0L0,38.5l31,23.5,31-23.5L51.3,0H10.7Z"/>
  <g>
    <path class="st0" d="M29.7,29.7l4.4-1.3v19.9h4v-19.9l4.3,1.3c.4.1.9-.1,1-.5,0-.2,0-.5-.1-.7l-6.4-9.5c-.3-.4-.9-.5-1.3-.2,0,0-.2.1-.2.2l-6.5,9.5c-.3.4-.2.9.2,1.1.2.1.5.2.7.1h0Z"/>
    <path class="st0" d="M33.4,5v4.1c0,.9-.5,1.8-1.4,2.2l-8.5,4.1c-3,1.5-4.9,4.5-4.9,7.8v11.8c0,1.8,1,3.4,2.6,4.1l1,.5h0l-2.9,3.4c-.3.3-.2.9,0,1.2.2.2.4.2.7.2l11.2-2.1c.5,0,.8-.6.8-1.1,0-.1,0-.2-.1-.3l-6.1-9.7c-.2-.4-.7-.5-1.1-.3-.2.1-.3.4-.4.6l-.5,4.5h0l-.8-.4c-.2-.1-.3-.3-.3-.6v-11.8c0-1.8,1-3.4,2.7-4.2l8.5-4.1c2.2-1.1,3.6-3.3,3.6-5.8v-4.1h-4Z"/>
  </g>
</svg>