<?xml version="1.0" encoding="UTF-8"?>
<svg id="Layer_1" xmlns="http://www.w3.org/2000/svg" version="1.1" xmlns:xlink="http://www.w3.org/1999/xlink" viewBox="0 0 62 62">
  <!-- Generator: Adobe Illustrator 29.3.1, SVG Export Plug-In . SVG Version: 2.1.0 Build 151)  -->
  <defs>
    <style>
      .st0 {
        fill: #e4151c;
      }

      .st1 {
        fill: #fff;
      }
    </style>
  </defs>
  <path d="M13,3h36.1l9.5,34.4-27.6,20.9L3.4,37.3,13,3M10.7,0L0,38.5l31,23.5,31-23.5L51.3,0H10.7Z"/>
  <g>
    <ellipse class="st0" cx="31" cy="27" rx="22" ry="22"/>
    <ellipse class="st1" cx="31" cy="27" rx="17.1" ry="17.1" transform="translate(3.9 57.9) rotate(-89.9)"/>
    <rect class="st0" x="28.5" y="6.5" width="5" height="41" transform="translate(-10 29.8) rotate(-45)"/>
    <polygon points="36.4 15 36.4 24.2 25.6 24.2 25.6 15 20 15 20 24.2 20 29.8 20 39 25.6 39 25.6 29.8 36.4 29.8 36.4 39 42 39 42 15 36.4 15"/>
  </g>
</svg>