<?xml version="1.0" encoding="UTF-8"?>
<svg id="Layer_1" xmlns="http://www.w3.org/2000/svg" version="1.1" xmlns:xlink="http://www.w3.org/1999/xlink" viewBox="0 0 28.7 47.2">
  <!-- Generator: Adobe Illustrator 29.3.1, SVG Export Plug-In . SVG Version: 2.1.0 Build 151)  -->
  <defs>
    <style>
      .st0 {
        fill: #fff;
      }

      .st1 {
        fill: #0056a4;
      }
    </style>
  </defs>
  <path class="st0" d="M21.8,14.8s0,0,0,0c-.6-.8-1.5-1.2-2.4-1.2s-1.2.2-1.7.6c-.3.2-.5.4-.7.7l-6.5,9.5c-.4.6-.5,1.3-.5,2-.5-.3-1-.5-1.5-.5s-.3,0-.5,0v-5.6c0-1,.6-2,1.5-2.4l8.5-4.1c2.9-1.4,4.7-4.4,4.7-7.6V2c0-1.1-.9-2-2-2h-4c-1.1,0-2,.9-2,2v4.1c0,.2,0,.3-.2.4l-8.5,4.1C2.3,12.4,0,16.1,0,20.3v11.8c0,2,.9,3.9,2.5,5.1l-1.3,1.5c-1,1.2-.9,3,.3,4,.5.4,1.2.7,1.8.7s.3,0,.5,0l11.2-2.1c.1,0,.2,0,.4-.1v4.1c0,1.1.9,2,2,2h4c1.1,0,2-.9,2-2v-17.2l1.7.5c.3,0,.5.1.8.1,1.2,0,2.3-.8,2.7-2,.3-.8.1-1.7-.4-2.4l-6.4-9.5Z"/>
  <g>
    <path class="st1" d="M13,26.7l4.4-1.3v19.9h4v-19.9l4.3,1.3c.4.1.9-.1,1-.5,0-.2,0-.5-.1-.7l-6.4-9.5c-.3-.4-.9-.5-1.3-.2,0,0-.2.1-.2.2l-6.5,9.5c-.3.4-.2.9.2,1.1.2.1.5.2.7.1h0Z"/>
    <path class="st1" d="M16.8,2v4.1c0,.9-.5,1.8-1.4,2.2l-8.5,4.1c-3,1.5-4.9,4.5-4.9,7.8v11.8c0,1.8,1,3.4,2.6,4.1l1,.5h0l-2.9,3.4c-.3.3-.2.9,0,1.2.2.2.4.2.7.2l11.2-2.1c.5,0,.8-.6.8-1.1,0-.1,0-.2-.1-.3l-6.1-9.7c-.2-.4-.7-.5-1.1-.3-.2.1-.3.4-.4.6l-.5,4.5h0l-.8-.4c-.2-.1-.3-.3-.3-.6v-11.8c0-1.8,1-3.4,2.7-4.2l8.5-4.1c2.2-1.1,3.6-3.3,3.6-5.8V2h-4Z"/>
  </g>
  <g>
    <path class="st1" d="M13,26.7l4.4-1.3v19.9h4v-19.9l4.3,1.3c.4.1.9-.1,1-.5,0-.2,0-.5-.1-.7l-6.4-9.5c-.3-.4-.9-.5-1.3-.2,0,0-.2.1-.2.2l-6.5,9.5c-.3.4-.2.9.2,1.1.2.1.5.2.7.1h0Z"/>
    <path class="st1" d="M16.8,2v4.1c0,.9-.5,1.8-1.4,2.2l-8.5,4.1c-3,1.5-4.9,4.5-4.9,7.8v11.8c0,1.8,1,3.4,2.6,4.1l1,.5h0l-2.9,3.4c-.3.3-.2.9,0,1.2.2.2.4.2.7.2l11.2-2.1c.5,0,.8-.6.8-1.1,0-.1,0-.2-.1-.3l-6.1-9.7c-.2-.4-.7-.5-1.1-.3-.2.1-.3.4-.4.6l-.5,4.5h0l-.8-.4c-.2-.1-.3-.3-.3-.6v-11.8c0-1.8,1-3.4,2.7-4.2l8.5-4.1c2.2-1.1,3.6-3.3,3.6-5.8V2h-4Z"/>
  </g>
</svg>