<?xml version="1.0" encoding="UTF-8"?>
<svg id="Layer_1" xmlns="http://www.w3.org/2000/svg" version="1.1" xmlns:xlink="http://www.w3.org/1999/xlink" viewBox="0 0 62 62">
  <!-- Generator: Adobe Illustrator 29.3.1, SVG Export Plug-In . SVG Version: 2.1.0 Build 151)  -->
  <defs>
    <style>
      .st0 {
        fill: #e4151c;
      }

      .st1 {
        fill: #fff;
      }
    </style>
  </defs>
  <path d="M13,3h36.1l9.5,34.4-27.6,20.9L3.4,37.3,13,3M10.7,0L0,38.5l31,23.5,31-23.5L51.3,0H10.7Z"/>
  <ellipse class="st0" cx="31" cy="27" rx="22" ry="22"/>
  <ellipse class="st1" cx="31" cy="27" rx="17.1" ry="17.1"/>
  <path d="M44.4,26.4s0,0,0,0l-2.1-1.8c0,0-.2-.1-.3-.1h-12.8c-1.3-2.9-4.7-4.2-7.6-2.9-2.9,1.3-4.2,4.7-2.9,7.6,1.3,2.9,4.7,4.2,7.6,2.9,1.5-.7,2.6-1.9,3.1-3.5h.7s.4,1.4.4,1.4h.6l.7-1s0,0,.1,0c0,0,0,0,0,0l.7,1s0,0,.1,0c0,0,0,0,0,0l.5-1s0,0,.1,0c0,0,0,0,0,0l.6,1s0,0,.1,0c0,0,0,0,0,0l.6-1s0,0,.1,0c0,0,0,0,0,0l.9.9s0,0,.1,0c0,0,0,0,0,0l1.4-1.5h1l.9,1.1c0,0,.1,0,.2,0,0,0,0,0,0,0l.8-.5s.1,0,.2,0l.9.9c0,0,.2,0,.3,0h0s2.8-3,2.8-3c.1-.1.1-.3,0-.4ZM22,28.1c-.7,0-1.2-.5-1.2-1.2s.5-1.2,1.2-1.2,1.2.5,1.2,1.2-.5,1.2-1.2,1.2Z"/>
</svg>