<?xml version="1.0" encoding="UTF-8"?>
<svg id="Layer_1" xmlns="http://www.w3.org/2000/svg" version="1.1" xmlns:xlink="http://www.w3.org/1999/xlink" viewBox="0 0 38 34">
  <!-- Generator: Adobe Illustrator 29.3.1, SVG Export Plug-In . SVG Version: 2.1.0 Build 151)  -->
  <defs>
    <style>
      .st0 {
        fill: #fff;
      }

      .st1 {
        fill: #ff0;
      }
    </style>
  </defs>
  <path class="st0" d="M35,13c1.7,0,3-1.3,3-3s-1.3-3-3-3h-1v-1.6c0-3-2.4-5.4-5.4-5.4H9.4c-3,0-5.4,2.4-5.4,5.4v1.6h-1c-1.7,0-3,1.3-3,3s1.3,3,3,3h1v8h-1c-1.7,0-3,1.3-3,3s1.3,3,3,3h1v1.6c0,3,2.4,5.4,5.4,5.4h19.2c3,0,5.4-2.4,5.4-5.4v-1.6h1c1.7,0,3-1.3,3-3s-1.3-3-3-3h-1v-8h1Z"/>
  <g>
    <path class="st1" d="M28.6,30c.8,0,1.4-.6,1.4-1.4V5.4c0-.8-.6-1.4-1.4-1.4H9.4c-.8,0-1.4.6-1.4,1.4v23.2c0,.8.6,1.4,1.4,1.4h19.2Z"/>
    <path d="M35,23h-3v-12h3c.6,0,1-.4,1-1s-.4-1-1-1h-3v-3.6c0-1.9-1.5-3.4-3.4-3.4H9.4c-1.9,0-3.4,1.5-3.4,3.4v3.6h-3c-.6,0-1,.4-1,1s.4,1,1,1h3v12h-3c-.6,0-1,.4-1,1s.4,1,1,1h3v3.6c0,1.9,1.5,3.4,3.4,3.4h19.2c1.9,0,3.4-1.5,3.4-3.4v-3.6h3c.6,0,1-.4,1-1s-.4-1-1-1ZM8,28.6V5.4c0-.8.6-1.4,1.4-1.4h19.2c.8,0,1.4.6,1.4,1.4v23.2c0,.8-.6,1.4-1.4,1.4H9.4c-.8,0-1.4-.6-1.4-1.4Z"/>
  </g>
  <polygon points="18.5 16.3 16 16.3 19.5 8 23.7 8 20.1 14.1 22.9 14.1 14.3 26 18.5 16.3"/>
</svg>