<?xml version="1.0" encoding="UTF-8"?>
<svg id="Layer_1" xmlns="http://www.w3.org/2000/svg" version="1.1" xmlns:xlink="http://www.w3.org/1999/xlink" viewBox="0 0 62 62">
  <!-- Generator: Adobe Illustrator 29.3.1, SVG Export Plug-In . SVG Version: 2.1.0 Build 151)  -->
  <defs>
    <style>
      .st0 {
        fill: red;
      }
    </style>
  </defs>
  <path d="M13,3h36.1l9.5,34.4-27.6,20.9L3.4,37.3,13,3M10.7,0L0,38.5l31,23.5,31-23.5L51.3,0H10.7Z"/>
  <g>
    <path class="st0" d="M45.2,19.7v-.3s-.3-.2-.3-.2c-9.3-4.9-18.8-4.9-28.1,0l-.3.2v.4c-.3,10.5,4.4,18.2,14.1,22.7h.2c0,.1.3,0,.3,0,10.1-4.4,14.8-12.1,14.1-22.8ZM30.8,41.3c-8.9-4.3-13.4-11.4-13.2-21.1,8.8-4.5,17.7-4.5,26.4,0,.5,9.8-3.9,17-13.2,21.1Z"/>
    <path class="st0" d="M30.8,29.6c-2.6,0-4.7,2.1-4.7,4.6s2.1,4.7,4.7,4.7,4.7-2.1,4.7-4.7-2.1-4.6-4.7-4.6Z"/>
    <path class="st0" d="M37.7,19.7c-2.6,0-4.6,2.1-4.6,4.7s2.1,4.6,4.6,4.6,4.7-2.1,4.7-4.6c0-2.6-2.1-4.7-4.7-4.7Z"/>
    <path class="st0" d="M28.5,24.3c0-2.6-2.1-4.7-4.7-4.7s-4.6,2.1-4.6,4.7,2.1,4.6,4.6,4.6c2.6,0,4.7-2.1,4.7-4.6Z"/>
  </g>
</svg>