<?xml version="1.0" encoding="UTF-8"?>
<svg id="Layer_1" xmlns="http://www.w3.org/2000/svg" version="1.1" xmlns:xlink="http://www.w3.org/1999/xlink" viewBox="0 0 66.6 66.5">
  <!-- Generator: Adobe Illustrator 29.3.1, SVG Export Plug-In . SVG Version: 2.1.0 Build 151)  -->
  <defs>
    <style>
      .st0 {
        fill: #fff;
      }

      .st1 {
        fill: #ff0;
      }
    </style>
  </defs>
  <g>
    <g>
      <polygon class="st1" points="2 40.6 12.8 1.8 53.8 1.8 64.6 40.6 33.3 64.3 2 40.6"/>
      <path class="st0" d="M52.5,3.5l10.1,36.5-29.3,22.2L4,39.9,14.1,3.5h38.3M55.1,0H11.5l-.7,2.6L.6,39l-.6,2.3,1.9,1.4,29.3,22.2,2.1,1.6,2.1-1.6,29.3-22.2,1.9-1.4-.6-2.3L55.8,2.6l-.7-2.6h0Z"/>
    </g>
    <path d="M51.3,5l9.5,34.4-27.6,20.9L5.7,39.3,15.3,5h36.1M53.6,2H13L2.3,40.5l31,23.5,31-23.5L53.6,2h0Z"/>
  </g>
  <g>
    <path class="st0" d="M52.7,28c-.9-1.7-5.7-11.9-5.8-12,0-.1-.5-1-1.5-1.3-.7-.2-1.5,0-2.3.5-.8.5-1.3,1.2-1.4,1.9-.2.9.2,1.6.4,1.8,0,.1.2.5.5,1.1-.8.2-1.7.2-2.5,0-.3-.1-.5-.3-.8-.5-.4-.3-.9-.7-1.7-.8-2.6-.6-6.2-.3-7,0-.9.3-1.3.8-2.3,2.2,0,.1-.2.3-.3.4-.6-.2-1.8-.5-2.3-.6-.2,0-.9-.6-1.5-1.2.1-.3.2-.4.2-.5.1-.2.5-.9.4-1.8-.1-.7-.6-1.4-1.4-1.9-.8-.5-1.6-.7-2.3-.5-1,.3-1.5,1.2-1.5,1.3,0,.1-4.8,10.2-5.8,12-1,1.9-.5,2.5.6,3.4.1,0,.2.2.3.3.6.6,1.4,1.2,2.3,1.2s.2,0,.2,0c.5,0,.9-.4,1.3-.9,0-.1.2-.3.3-.6.1.3.2.5.3.8,0,.8.6,1.3,1,1.7-.5,1.1-.7,2.7,0,3.5.3.3.7.6,1.1.7-.1.3-.2.7-.1,1.2,0,.4.3,1,1.1,1.4.4.2.7.3,1.1.3s0,0,.1,0c0,.8.3,1.7,1.2,2.3.4.3.8.4,1.2.4s.6,0,.9-.2c.2.5.6.9.8,1,.3.3.8.4,1.3.4.8,0,1.7-.3,2.5-1.1.5.4,1.3,1.1,2.5,1.7.5.2.9.3,1.3.3s.7,0,1-.2c1-.5,1.5-1.6,1.8-2.3.2,0,.3,0,.5,0,.6,0,1-.1,1.3-.3,1.1-.5,1.3-1.6,1.3-2.3.2,0,.3,0,.5,0,.5,0,.9-.1,1.2-.4.7-.6.8-1.7.9-2.4,0,0,0,0,.1,0,.7,0,1.3-.2,1.7-.6.8-.9.3-2.5-.3-3.5.7-.3,1.7-1,2.6-2.2.1.3.2.5.3.6.3.5.8.9,1.3.9,0,0,.2,0,.2,0,.8,0,1.6-.6,2.3-1.2.1-.1.2-.2.3-.3,1.1-.9,1.6-1.5.6-3.4Z"/>
    <path d="M52.7,28c-.9-1.7-5.7-11.9-5.8-12,0-.1-.5-1-1.5-1.3-.7-.2-1.5,0-2.3.5-.8.5-1.3,1.2-1.4,1.9-.2.9.2,1.6.4,1.8,0,.1.2.5.5,1.1-.8.2-1.7.2-2.5,0-.3-.1-.5-.3-.8-.5-.4-.3-.9-.7-1.7-.8-2.6-.6-6.2-.3-7,0-.9.3-1.3.8-2.3,2.2,0,.1-.2.3-.3.4-.6-.2-1.8-.5-2.3-.6-.2,0-.9-.6-1.5-1.2.1-.3.2-.4.2-.5.1-.2.5-.9.4-1.8-.1-.7-.6-1.4-1.4-1.9-.8-.5-1.6-.7-2.3-.5-1,.3-1.5,1.2-1.5,1.3,0,.1-4.8,10.2-5.8,12-1,1.9-.5,2.5.6,3.4.1,0,.2.2.3.3.6.6,1.4,1.2,2.3,1.2s.2,0,.2,0c.5,0,.9-.4,1.3-.9,0-.1.2-.3.3-.6.1.3.2.5.3.8,0,.8.6,1.3,1,1.7-.5,1.1-.7,2.7,0,3.5.3.3.7.6,1.1.7-.1.3-.2.7-.1,1.2,0,.4.3,1,1.1,1.4.4.2.7.3,1.1.3s0,0,.1,0c0,.8.3,1.7,1.2,2.3.4.3.8.4,1.2.4s.6,0,.9-.2c.2.5.6.9.8,1,.3.3.8.4,1.3.4.8,0,1.7-.3,2.5-1.1.5.4,1.3,1.1,2.5,1.7.5.2.9.3,1.3.3s.7,0,1-.2c1-.5,1.5-1.6,1.8-2.3.2,0,.3,0,.5,0,.6,0,1-.1,1.3-.3,1.1-.5,1.3-1.6,1.3-2.3.2,0,.3,0,.5,0,.5,0,.9-.1,1.2-.4.7-.6.8-1.7.9-2.4,0,0,0,0,.1,0,.7,0,1.3-.2,1.7-.6.8-.9.3-2.5-.3-3.5.7-.3,1.7-1,2.6-2.2.1.3.2.5.3.6.3.5.8.9,1.3.9,0,0,.2,0,.2,0,.8,0,1.6-.6,2.3-1.2.1-.1.2-.2.3-.3,1.1-.9,1.6-1.5.6-3.4ZM17.5,31.3c-.2.4-.4.4-.5.4-.3,0-.9-.3-1.6-.9-.1-.1-.2-.2-.3-.3-.9-.8-.9-.8-.3-2,.9-1.8,5.6-11.6,5.8-12,0,0,.3-.5.8-.7,0,0,.2,0,.3,0,.3,0,.7.1,1,.4.5.3.8.7.9,1.1,0,.5-.2.9-.2.9h0c-.1.3-.2.6-.4.9,0,0,0,.1-.1.2-1.7,3.8-4.9,11.1-5.5,12ZM21.3,34c.8-1.1,1.3-1.1,1.9-.8.6.3.3,1.2.2,1.4-.6.8-1.1,1.6-1.5,2.1,0,0,0,0-.1,0,0,0-.2.1-.3.1-.2,0-.4-.1-.6-.3-.3-.3-.3-1.7.4-2.6ZM22.8,39.5c-.3-.2-.5-.4-.5-.6,0-.4.2-.8.3-.9h0c0,0,2.2-3.3,3.2-4.4.3-.3.6-.5.9-.5h0c.4,0,.8.3,1,.5.2.3.1,2-1.4,3.5-.3.3-.6.7-.9,1-1.3,1.4-1.8,1.9-2.6,1.5ZM25.2,42.1c-.8-.5-.7-1.3-.6-1.7.6-.4,1.1-1,1.6-1.6.3-.3.6-.6.9-.9.7-.8,1.2-1.6,1.5-2.5.6.2,1.6.6,1.5,1.6-.2,1.3-.7,1.8-1.3,2.4-.2.2-.4.4-.6.6-.2.2-.4.5-.6.8-1,1.4-1.6,1.9-2.3,1.4ZM28.2,43.4c-.6-.5-.6-.7-.4-1.1.3-.3.5-.6.7-.9.2-.3.4-.5.5-.7.2-.2.3-.3.5-.5.2-.2.4-.4.6-.6.1-.1.5-.3.8-.3,0,0,.2,0,.4.3.8,1.1,0,2.4-.6,3-1,1-2.1,1.1-2.5.8ZM44.5,36.4c-.4.4-1.9.2-2.2-.1-.5-.4-.9-.7-1.3-1-1.7-1.3-2.9-2.3-3.9-3.5-.2-.2-.6-.3-.8,0s-.3.6,0,.8c1.1,1.3,2.4,2.3,4.1,3.6.4.3.8.7,1.3,1,.2.2.5.3.9.4,0,.6,0,1.4-.5,1.7-.6.5-2.2-.4-3.4-1.1-1.7-1-3.3-2.8-3.3-2.8-.2-.2-.6-.3-.8,0-.2.2-.2.6,0,.8,0,0,1.7,1.9,3.5,3,.6.4,1.3.7,1.9,1,0,.5,0,1.3-.6,1.7-.6.3-2.5.6-5.2-2.9-.2-.3-.6-.3-.8-.1-.3.2-.3.6-.1.8,1.4,1.8,2.6,2.8,3.7,3.2-.2.5-.6,1.3-1.2,1.5-.4.2-.8.1-1.3-.1-1.1-.5-1.8-1.2-2.2-1.5.9-1.3,1-2.7.1-3.8-.3-.4-.7-.7-1.2-.7,0,0,0,0,0,0,.1-.3.2-.7.2-1.1.2-1.7-1.3-2.6-2.4-2.8,0-.6,0-1.2-.4-1.5-.5-.6-1.2-.9-1.9-.9h0c-.5,0-1.1.2-1.8.9,0,0-.1.2-.2.3-.1-.3-.4-.7-.8-.9-1.1-.6-2.1-.4-3.1.7-.2-.2-.5-.5-.5-.8,0-.8-.5-1.5-.8-1.9,1.2-2.6,3.2-7.1,4.3-9.6.5.5,1.2,1.2,1.8,1.2.4,0,1.2.3,1.8.4-.9,1.4-1.7,2.9-1.8,3.4-.1.7-.3,2,.4,2.6,1.1.9,3.2-.4,3.8-.8,1-.7,1.5-1.4,1.8-1.9.3-.4.4-.6.7-.7.7-.3,1.7.5,5.7,3.4,3.2,2.4,4.2,3.6,5.3,5,.1.2.3.4.5.5.6.7,1.1,2.2.7,2.6ZM44.4,32.7c0,0-.1-.1-.2-.2-1.1-1.4-2.2-2.6-5.5-5.1-4.4-3.3-5.5-4.1-6.8-3.6-.7.3-1,.7-1.3,1.2-.3.5-.7,1-1.5,1.6-1.2.8-2.2,1.1-2.4.9-.1-.1-.3-.6,0-1.5,0-.4,1-2.1,2.1-3.7,0,0,0,0,0,0,.2-.2.3-.5.5-.7,1-1.4,1.2-1.6,1.8-1.8.5-.2,3.9-.5,6.3,0,.5.1.8.4,1.2.6.3.2.6.5,1.1.6,1.1.4,2.4.4,3.4,0,1.1,2.6,3,6.8,4.1,9.2-1,1.4-2.2,2.1-2.8,2.4ZM51.4,30.6c-.1,0-.2.2-.3.3-.7.6-1.2.9-1.6.9,0,0-.2,0-.5-.4-.6-.9-4.5-9.7-5.9-13h0c0-.1-.3-.5-.2-1,0-.4.4-.8.9-1.1.4-.2.7-.4,1-.4s.2,0,.3,0c.5.1.8.7.8.7h0c.2.4,4.8,10.3,5.8,12,.6,1.2.6,1.2-.3,2Z"/>
  </g>
</svg>