<?xml version="1.0" encoding="UTF-8"?>
<svg id="Layer_1" xmlns="http://www.w3.org/2000/svg" version="1.1" xmlns:xlink="http://www.w3.org/1999/xlink" viewBox="0 0 62 62">
  <!-- Generator: Adobe Illustrator 29.3.1, SVG Export Plug-In . SVG Version: 2.1.0 Build 151)  -->
  <defs>
    <style>
      .st0 {
        fill: #fff;
      }

      .st1 {
        fill: #f6bd16;
      }
    </style>
  </defs>
  <path d="M13,3h36.1l9.5,34.4-27.6,20.9L3.4,37.3,13,3M10.7,0L0,38.5l31,23.5,31-23.5L51.3,0H10.7Z"/>
  <path d="M16.1,33.3c-.2,0-.4,0-.5,0-.4,0-.5-.2-.6-.6,0-.6,0-1.2,0-1.8,0-.4.2-.6.6-.6.1,0,.3,0,.5,0v-.4c0-3.4,0-6.8,0-10.2,0-.2,0-.4-.2-.5-.6-.5-.9-1.2-.9-2,0-.9,0-1.7,0-2.6,0-.2,0-.5.2-.6.8-1.2,1.7-2.3,2.5-3.5.2-.3.4-.4.7-.4,8.1,0,16.7,0,24.9,0,.3,0,.6.1.8.4.8,1.1,1.5,2.1,2.3,3.2,0,0,.1.2.2.2.5.2.4.6.4,1,0,.7,0,1.5,0,2.2s-.4,1.7-1.1,2.3c0,0-.2.2-.2.3,0,3.5,0,6.9,0,10.4s0,0,0,.2c.1,0,.3,0,.4,0,.4,0,.6.2.6.6,0,.6,0,1.1,0,1.7,0,.5-.2.7-.7.7-.1,0-.2,0-.4,0v8c0,.6-.2.8-.8.8h-28c-.6,0-.8-.2-.8-.8,0-2.5,0-5,0-7.5,0-.1,0-.3,0-.4ZM37.3,18.9c-1.4,1.4-2.7,1.4-4.4,0-.6.7-1.3,1.1-2.2,1.1-.9,0-1.6-.4-2.2-1.1-.6.7-1.3,1.1-2.2,1.1-.9,0-1.6-.4-2.2-1.1-1.1,1.3-2.9,1.6-4.3,0-.4.3-.5.6-.5,1.1,0,3.3,0,6.6,0,9.9v.4h23.1v-.4c0-3.4,0-6.9,0-10.3,0-.3-.1-.5-.4-.7-1.1,1.3-3.5,1.5-4.8,0ZM44.6,33.3c-.1,0-.2,0-.3,0-8.8,0-18,0-26.8,0-.3,0-.4,0-.4.4,0,2.3,0,4.7,0,7,0,0,0,.2,0,.3h27.4v-7.7ZM45.2,13.9c0,0,0-.1,0-.1-.6-.8-1.2-1.7-1.8-2.5,0,0-.2-.1-.4-.1-7.9,0-16.3,0-24.1,0-.1,0-.3,0-.4.2-.6.8-1.1,1.5-1.7,2.3,0,0,0,.1-.1.2,9.4,0,19.2,0,28.6,0ZM43.5,19.9v10.4h1.1v-10.3c-.4,0-.7,0-1.1,0ZM17.2,19.9v10.4h1.1v-10.4h-1.1ZM33.5,15s0,0,0,.1c0,.7,0,1.4,0,2.2,0,.8.7,1.5,1.5,1.6.8,0,1.6-.5,1.7-1.3,0-.7,0-1.4,0-2.2,0-.1,0-.3,0-.4-1.1,0-2.2,0-3.2,0ZM24.8,15c0,.8,0,1.6,0,2.3,0,.8.7,1.4,1.5,1.5.8,0,1.6-.5,1.7-1.2,0-.9,0-1.8,0-2.7-1,0-2.1,0-3.2,0ZM42.6,15c0,.8,0,1.5,0,2.2,0,.9.6,1.6,1.5,1.6.8,0,1.6-.5,1.7-1.4,0-.8,0-1.7,0-2.5h-3.2ZM19.3,15h-3.2c0,.8,0,1.5,0,2.2,0,.9.7,1.5,1.6,1.6.8,0,1.6-.5,1.7-1.4,0-.8,0-1.6,0-2.5Z"/>
  <g>
    <polygon class="st0" points="33.8 41 31 41 26.3 40.2 23.7 33.9 30.7 24.5 34 25.2 37.5 30.2 40 35 36.7 40.3 33.8 41"/>
    <g>
      <path class="st1" d="M31,41.5c-8.4-.7-10.2-1.3-12.4-13.1l-.3-1.6,1.1,1.2c1.6,1.6,2.3,2.3,3.4,2.7-1.1-2.5-1.2-4.9-1.2-6.7,0-.8,0-1.4-.1-1.9l-.2-1.2,1,.7c.8.6,1.2,1.2,1.6,1.9.2.3.4.6.6.8-.3-1.4-.1-2.6.1-3.9,0-.2,0-.5.1-.7v-.2c.2-.4.3-.8,0-1.9l-.2-.6h.7c2,.1,2.5,2,2.8,3.6.1.6.3,1.1.5,1.5,1-2.5,1-4.2,1-5.9,0-1.7,0-3.2,1-5.2l.8-1.5.2,1.7c.2,1.8,1.1,3.7,2.1,5.8.2.4.4.9.6,1.3,1,2.1,1.1,3.2.9,4.8.9-.5,1.1-1.7,1.4-4.1l.3-2.2.7,1c1.7,2.3,1.5,5.1,1.5,5.5,0,.3,0,1.4-.2,2.6.6-.5,1-1.2,1.3-1.7.3-.4.5-.7.7-.9l.5-.4.3.6c1.3,2.7.8,6-.6,8.2,1.2-.4,1.4-1.1,1.5-1.6v-.2c0,0,1-2.9,1-2.9v3c.1,4.2-.9,7.3-2.9,9.3-1.6,1.6-3.8,2.4-6.4,2.4h-3.1Z"/>
      <path d="M31,11.2c.2,2.3,1.6,4.8,2.7,7.2,1.1,2.3,1,3.4.7,5.3,2.2-.5,2.2-2.3,2.6-5.8,1.7,2.3,1.4,5.2,1.4,5.2,0,0,.2,2.1-.7,3.7,1.9-.6,2.7-2.9,3.3-3.4,1.5,3,.5,6.9-1.4,8.7,3-.3,3.1-1.7,3.3-2.4.1,7.7-3.4,11.3-8.8,11.3s-.2,0-.3,0h-2.8c-8.1-.7-9.8-1-11.9-12.7,2,2.1,2.7,2.8,4.7,3-2.2-3.7-1.4-7.5-1.7-9.4,1.6,1.2,1.7,2.9,3.6,3.8-1.3-2.4-.7-4.1-.3-6,.1-.5.3-.9,0-2.3,2.7.1,1.9,4.4,3.4,5.6,2.6-5.7.2-7.9,2.3-11.8M31.7,7.7l-1.6,3c-1.1,2.1-1.1,3.8-1,5.4,0,1.3,0,2.6-.4,4.2,0,0,0,0,0,0-.4-1.5-.9-3.8-3.3-3.9h-1.3c0,0,.3,1.2.3,1.2.2,1,.1,1.3,0,1.6,0,0,0,.1,0,.2h0s0,0,0,0c0,.2,0,.5-.1.7-.1.7-.3,1.4-.3,2.1-.3-.4-.7-.9-1.3-1.3l-2-1.5.5,2.5c0,.4,0,1.1,0,1.8,0,1.6,0,3.6.7,5.7-.5-.4-1.1-1-2.1-2l-2.3-2.3.6,3.2c2.3,12.1,4.3,12.7,12.8,13.5h0s0,0,0,0h2.8c0,0,.2,0,.3,0,2.8,0,5.1-.9,6.8-2.6,2.1-2.1,3.1-5.4,3.1-9.7v-6c0,0-1.2,3.5-1.2,3.5,0-1.4-.1-2.9-.8-4.2l-.6-1.1-1,.8c-.3.2-.5.6-.8,1.1,0,0-.1.2-.2.3,0-.4,0-.7,0-.9,0-.6.2-3.5-1.6-5.8l-1.5-2-.3,2.5c0,.3,0,.7-.1,1-.1.9-.2,1.6-.3,2.1-.1-.8-.4-1.8-1-3-.2-.4-.4-.8-.6-1.3-1-2-1.9-3.9-2-5.6l-.3-3.4h0Z"/>
    </g>
    <path class="st0" d="M31,41c-.7-.1-4.8-.8-6.3-5.6,0-1.2-.1,1,3.9,1.2-2.5-4.1-1.8-3.3-1.6-5.6,1.1,1.5.2,1.7,3.1,2.9-.9-3,1.5-5,.9-8.5.7,1.5,3,1.3,2.8,8.5,1.9-2.2,2-.7,3-3,.1,1.3.7,2.9-1.9,5.7.7.2,1.8.3,3.5-.9-1.7,2.1-.1,2.1-4.5,5.3h-2.8Z"/>
  </g>
</svg>