<?xml version="1.0" encoding="UTF-8"?>
<svg id="Layer_1" xmlns="http://www.w3.org/2000/svg" version="1.1" xmlns:xlink="http://www.w3.org/1999/xlink" viewBox="0 0 25.7 37.5">
  <!-- Generator: Adobe Illustrator 29.3.1, SVG Export Plug-In . SVG Version: 2.1.0 Build 151)  -->
  <defs>
    <style>
      .st0 {
        fill: #fff;
      }

      .st1 {
        fill: #0056a4;
      }
    </style>
  </defs>
  <path class="st0" d="M22.1,3.1c-2.3-2-5.6-3.1-9.8-3.1H2C.9,0,0,.9,0,2v33.5c0,1.1.9,2,2,2h4.5c1.1,0,2-.9,2-2v-11.5h3.7c4.2,0,7.6-1,9.8-3,2.4-2.1,3.6-5.1,3.6-9s-1.2-6.9-3.6-9Z"/>
  <path class="st1" d="M2,2h10.2c3.8,0,6.6.9,8.5,2.5,1.9,1.7,2.9,4.2,2.9,7.5s-1,5.8-2.9,7.5c-1.9,1.7-4.8,2.5-8.5,2.5h-5.7v13.5H2s0-33.5,0-33.5ZM6.5,5.7v12.6h5.7c2.1,0,3.7-.5,4.9-1.6,1.2-1.1,1.7-2.6,1.7-4.7s-.6-3.6-1.7-4.6-2.8-1.6-4.9-1.6h-5.7Z"/>
  <path class="st1" d="M2,2h10.2c3.8,0,6.6.9,8.5,2.5,1.9,1.7,2.9,4.2,2.9,7.5s-1,5.8-2.9,7.5c-1.9,1.7-4.8,2.5-8.5,2.5h-5.7v13.5H2s0-33.5,0-33.5ZM6.5,5.7v12.6h5.7c2.1,0,3.7-.5,4.9-1.6,1.2-1.1,1.7-2.6,1.7-4.7s-.6-3.6-1.7-4.6-2.8-1.6-4.9-1.6h-5.7Z"/>
</svg>