<?xml version="1.0" encoding="UTF-8"?>
<svg id="Layer_1" xmlns="http://www.w3.org/2000/svg" version="1.1" xmlns:xlink="http://www.w3.org/1999/xlink" viewBox="0 0 66.6 66.5">
  <!-- Generator: Adobe Illustrator 29.3.1, SVG Export Plug-In . SVG Version: 2.1.0 Build 151)  -->
  <defs>
    <style>
      .st0 {
        fill: #fff;
      }

      .st1 {
        fill: #bd5639;
      }
    </style>
  </defs>
  <g>
    <polygon class="st0" points="4 39.9 14.1 3.5 52.5 3.5 62.6 40 33.3 62.1 4 39.9"/>
    <path d="M51.3,5l9.5,34.4-27.6,20.9L5.7,39.3,15.3,5h36.1M53.6,2H13L2.3,40.5l31,23.5,31-23.5L53.6,2h0Z"/>
    <path class="st0" d="M53.6,2l10.7,38.5-31,23.5L2.3,40.5,13,2h40.6M55.1,0H11.5l-.4,1.5L.4,39.9l-.4,1.3,1.1.8,31,23.5,1.2.9,1.2-.9,31-23.5,1.1-.8-.4-1.3L55.5,1.5l-.4-1.5h0Z"/>
  </g>
  <path class="st1" d="M43.7,16.1v20.8h-20.8v-20.8h20.8M49.8,10H16.8v33h33V10h0Z"/>
  <rect class="st1" x="28.9" y="22.2" width="8.7" height="8.7"/>
</svg>