<?xml version="1.0" encoding="UTF-8"?>
<svg id="Layer_1" xmlns="http://www.w3.org/2000/svg" version="1.1" xmlns:xlink="http://www.w3.org/1999/xlink" viewBox="0 0 62 62">
  <!-- Generator: Adobe Illustrator 29.3.1, SVG Export Plug-In . SVG Version: 2.1.0 Build 151)  -->
  <defs>
    <style>
      .st0 {
        fill: #e4151c;
      }

      .st1, .st2 {
        fill: #fff;
      }

      .st2 {
        stroke: #e4151c;
        stroke-miterlimit: 10;
        stroke-width: 2px;
      }
    </style>
  </defs>
  <path d="M13,3h36.1l9.5,34.4-27.6,20.9L3.4,37.3,13,3M10.7,0L0,38.5l31,23.5,31-23.5L51.3,0H10.7Z"/>
  <g>
    <ellipse class="st2" cx="31" cy="46.4" rx="9.8" ry="2.7"/>
    <g>
      <rect class="st1" x="26.9" y="13.1" width="8.3" height="5.5"/>
      <rect class="st0" x="26.9" y="18.6" width="8.3" height="5.5"/>
      <rect class="st0" x="26.9" y="7.7" width="8.3" height="5.5"/>
      <rect class="st1" x="26.9" y="24.1" width="8.3" height="5.5"/>
      <rect class="st0" x="26.9" y="29.6" width="8.3" height="5.5"/>
      <rect class="st1" x="26.9" y="35" width="8.3" height="5.5"/>
      <rect class="st0" x="26.9" y="40.5" width="8.3" height="5.5"/>
    </g>
    <ellipse class="st0" cx="31" cy="7.7" rx="4.1" ry="1.4"/>
    <ellipse class="st0" cx="31" cy="46" rx="4.1" ry="1.4"/>
  </g>
</svg>