<?xml version="1.0" encoding="UTF-8"?>
<svg id="Layer_1" xmlns="http://www.w3.org/2000/svg" version="1.1" xmlns:xlink="http://www.w3.org/1999/xlink" viewBox="0 0 66.6 66.5">
  <!-- Generator: Adobe Illustrator 29.3.1, SVG Export Plug-In . SVG Version: 2.1.0 Build 151)  -->
  <defs>
    <style>
      .st0 {
        fill: #fff;
      }

      .st1 {
        fill: #0056a4;
      }
    </style>
  </defs>
  <g>
    <g>
      <polygon class="st1" points="2 40.6 12.8 1.8 53.8 1.8 64.6 40.6 33.3 64.3 2 40.6"/>
      <path class="st0" d="M52.5,3.5l10.1,36.5-29.3,22.2L4,39.9,14.1,3.5h38.3M55.1,0H11.5l-.7,2.6L.6,39l-.6,2.3,1.9,1.4,29.3,22.2,2.1,1.6,2.1-1.6,29.3-22.2,1.9-1.4-.6-2.3L55.8,2.6l-.7-2.6h0Z"/>
    </g>
    <path d="M51.3,5l9.5,34.4-27.6,20.9L5.7,39.3,15.3,5h36.1M53.6,2H13L2.3,40.5l31,23.5,31-23.5L53.6,2h0Z"/>
  </g>
  <g>
    <path class="st0" d="M31.9,31.7l4.4-1.3v19.9h4v-19.9l4.3,1.3c.4.1.9-.1,1-.5,0-.2,0-.5-.1-.7l-6.4-9.5c-.3-.4-.9-.5-1.3-.2,0,0-.2.1-.2.2l-6.5,9.5c-.3.4-.2.9.2,1.1.2.1.5.2.7.1h0Z"/>
    <path class="st0" d="M35.7,7v4.1c0,.9-.5,1.8-1.4,2.2l-8.5,4.1c-3,1.5-4.9,4.5-4.9,7.8v11.8c0,1.8,1,3.4,2.6,4.1l1,.5h0l-2.9,3.4c-.3.3-.2.9,0,1.2.2.2.4.2.7.2l11.2-2.1c.5,0,.8-.6.8-1.1,0-.1,0-.2-.1-.3l-6.1-9.7c-.2-.4-.7-.5-1.1-.3-.2.1-.3.4-.4.6l-.5,4.5h0l-.8-.4c-.2-.1-.3-.3-.3-.6v-11.8c0-1.8,1-3.4,2.7-4.2l8.5-4.1c2.2-1.1,3.6-3.3,3.6-5.8v-4.1h-4Z"/>
  </g>
</svg>