<?xml version="1.0" encoding="UTF-8"?>
<svg id="Layer_1" xmlns="http://www.w3.org/2000/svg" version="1.1" xmlns:xlink="http://www.w3.org/1999/xlink" viewBox="0 0 43.5 41.3">
  <!-- Generator: Adobe Illustrator 29.3.1, SVG Export Plug-In . SVG Version: 2.1.0 Build 151)  -->
  <defs>
    <style>
      .st0 {
        fill: #fff;
      }
    </style>
  </defs>
  <path class="st0" d="M37.7,14.9c-1.1,0-2.2.3-3.1.9,0-.2-.2-.4-.4-.5-2.9-3.1-12.6-13.4-13.6-14.2-.8-.6-1.7-1-2.7-1h0c-1.3,0-2.4.6-3.3,1.5-.7.9-1.1,2-1,3.1s.6,2.1,1.5,2.9c.2.2,1.2.9,2.5,1.7-3.5-1.7-6.3-3.1-6.9-3.3-.5-.2-1.1-.3-1.6-.3h0c-2,0-3.8,1.3-4.5,3.1-.4,1.2-.4,2.5.2,3.6.5,1.1,1.5,2,2.7,2.5.6.2,3.6,1,7.4,1.9-5-.6-9.4-1.1-10.1-1.1-2.8,0-5,2.3-5,5s2.3,5,5,5,5.1-.5,10.1-1.1c-3.8.9-6.9,1.6-7.4,1.9-1.2.4-2.1,1.3-2.7,2.5s-.6,2.4-.2,3.6c.7,1.9,2.5,3.1,4.5,3.1s1.1,0,1.6-.3c.6-.2,3.4-1.6,6.9-3.3-1.3.9-2.3,1.5-2.5,1.7-.9.7-1.4,1.7-1.5,2.9s.2,2.2,1,3.1c.8,1,2,1.5,3.3,1.5s1.9-.3,2.7-1c1-.8,10.6-11,13.6-14.2.2-.2.3-.4.4-.6.9.6,1.9.9,3.1.9,3.2,0,5.8-2.6,5.8-5.8s-2.6-5.8-5.8-5.8Z"/>
  <g>
    <circle cx="37.7" cy="20.7" r="3.8"/>
    <path d="M31.4,20.7s-24.6,3-26.3,3-3-1.4-3-3,1.4-3,3-3,26.3,3,26.3,3Z"/>
    <path d="M31.7,18.5s-21.9-5-23.3-5.5c-1.4-.5-2.2-2.1-1.6-3.5s2.1-2.2,3.5-1.6c1.4.5,21.4,10.7,21.4,10.7Z"/>
    <path d="M32.8,16.6S17.5,6.7,16.6,5.9s-1.1-2.2-.3-3.1c.8-.9,2.2-1.1,3.1-.3.9.8,13.4,14.1,13.4,14.1Z"/>
    <path d="M31.7,22.8s-21.9,5-23.3,5.5c-1.4.5-2.2,2.1-1.6,3.5.5,1.4,2.1,2.2,3.5,1.6,1.4-.5,21.4-10.7,21.4-10.7Z"/>
    <path d="M32.8,24.7s-15.3,9.9-16.3,10.6-1.1,2.2-.3,3.1,2.2,1.1,3.1.3c.9-.8,13.4-14.1,13.4-14.1Z"/>
  </g>
  <g>
    <circle cx="37.7" cy="20.7" r="3.8"/>
    <path d="M31.4,20.7s-24.6,3-26.3,3-3-1.4-3-3,1.4-3,3-3,26.3,3,26.3,3Z"/>
    <path d="M31.7,18.5s-21.9-5-23.3-5.5c-1.4-.5-2.2-2.1-1.6-3.5s2.1-2.2,3.5-1.6c1.4.5,21.4,10.7,21.4,10.7Z"/>
    <path d="M32.8,16.6S17.5,6.7,16.6,5.9s-1.1-2.2-.3-3.1c.8-.9,2.2-1.1,3.1-.3.9.8,13.4,14.1,13.4,14.1Z"/>
    <path d="M31.7,22.8s-21.9,5-23.3,5.5c-1.4.5-2.2,2.1-1.6,3.5.5,1.4,2.1,2.2,3.5,1.6,1.4-.5,21.4-10.7,21.4-10.7Z"/>
    <path d="M32.8,24.7s-15.3,9.9-16.3,10.6-1.1,2.2-.3,3.1,2.2,1.1,3.1.3c.9-.8,13.4-14.1,13.4-14.1Z"/>
  </g>
</svg>