<?xml version="1.0" encoding="UTF-8"?>
<svg id="Layer_1" xmlns="http://www.w3.org/2000/svg" version="1.1" xmlns:xlink="http://www.w3.org/1999/xlink" viewBox="0 0 62 62">
  <!-- Generator: Adobe Illustrator 29.3.1, SVG Export Plug-In . SVG Version: 2.1.0 Build 151)  -->
  <defs>
    <style>
      .st0 {
        fill: #e4151c;
      }
    </style>
  </defs>
  <path d="M13,3h36.1l9.5,34.4-27.6,20.9L3.4,37.3,13,3M10.7,0L0,38.5l31,23.5,31-23.5L51.3,0H10.7Z"/>
  <g>
    <path class="st0" d="M24,19.6v2.1c-.7-.6-1.4-1.1-2.1-1.4s-1.6-.5-2.4-.5c-1.7,0-2.9.5-3.8,1.5s-1.3,2.5-1.3,4.4.4,3.4,1.3,4.4,2.2,1.5,3.8,1.5,1.6-.2,2.4-.5,1.5-.8,2.1-1.4v2.1c-.7.5-1.4.8-2.2,1.1s-1.6.4-2.4.4c-2.2,0-3.9-.7-5.2-2s-1.9-3.2-1.9-5.5.6-4.2,1.9-5.5c1.3-1.4,3-2,5.2-2s1.7.1,2.5.3,1.5.6,2.2,1Z"/>
    <path class="st0" d="M36.9,19.6v2.1c-.7-.6-1.4-1.1-2.1-1.4s-1.6-.5-2.4-.5c-1.7,0-2.9.5-3.8,1.5s-1.3,2.5-1.3,4.4.4,3.4,1.3,4.4c.9,1,2.2,1.5,3.8,1.5s1.6-.2,2.4-.5,1.5-.8,2.1-1.4v2.1c-.7.5-1.4.8-2.2,1.1s-1.6.4-2.4.4c-2.2,0-3.9-.7-5.2-2s-1.9-3.2-1.9-5.5.6-4.2,1.9-5.5,3-2,5.2-2,1.7.1,2.5.3,1.5.6,2.2,1Z"/>
    <path class="st0" d="M45.9,26.3c.4.1.8.4,1.2.9s.8,1.1,1.2,1.9l2,4h-2.1l-1.9-3.7c-.5-1-.9-1.6-1.4-1.9s-1.1-.5-1.9-.5h-2.1v6.2h-2v-14.6h4.5c1.7,0,2.9.3,3.7,1s1.2,1.7,1.2,3.2-.2,1.7-.6,2.3-1,1-1.9,1.3ZM41,20.1v5.2h2.5c1,0,1.7-.2,2.2-.7s.7-1.1.7-1.9-.2-1.5-.7-1.9-1.2-.6-2.2-.6h-2.5Z"/>
  </g>
</svg>