<?xml version="1.0" encoding="UTF-8"?>
<svg id="Layer_1" xmlns="http://www.w3.org/2000/svg" version="1.1" xmlns:xlink="http://www.w3.org/1999/xlink" viewBox="0 0 66.6 66.5">
  <!-- Generator: Adobe Illustrator 29.3.1, SVG Export Plug-In . SVG Version: 2.1.0 Build 151)  -->
  <defs>
    <style>
      .st0 {
        fill: #fff;
      }

      .st1 {
        fill: #93572b;
      }
    </style>
  </defs>
  <g>
    <polygon class="st0" points="4 39.9 14.1 3.5 52.5 3.5 62.6 40 33.3 62.1 4 39.9"/>
    <path d="M51.3,5l9.5,34.4-27.6,20.9L5.7,39.3,15.3,5h36.1M53.6,2H13L2.3,40.5l31,23.5,31-23.5L53.6,2h0Z"/>
    <path class="st0" d="M53.6,2l10.7,38.5-31,23.5L2.3,40.5,13,2h40.6M55.1,0H11.5l-.4,1.5L.4,39.9l-.4,1.3,1.1.8,31,23.5,1.2.9,1.2-.9,31-23.5,1.1-.8-.4-1.3L55.5,1.5l-.4-1.5h0Z"/>
  </g>
  <g>
    <polygon class="st1" points="25.1 28.6 27.5 28.6 27.5 41.6 48.9 41.6 48.9 28.1 51.3 28.6 51.3 44 25.1 44 25.1 28.6"/>
    <polygon class="st1" points="23.4 31 22.8 28.7 43.9 22.7 53.8 29.2 52.5 31.2 43.5 25.3 23.4 31"/>
    <polygon class="st1" points="42.2 10.6 21 16.6 21.6 18.9 23.3 18.5 23.3 20.1 25.7 19.4 25.7 17.8 41.8 13.2 47.1 16.7 47.1 23.4 49.5 24.9 49.5 18.3 50.7 19.1 52 17.1 42.2 10.6"/>
    <polygon class="st1" points="15.1 26.3 15.1 39.8 23.4 39.8 23.4 37.4 17.5 37.4 17.5 25.6 33.6 21.1 37.1 23.4 40.2 22.5 34 18.4 12.8 24.5 13.4 26.8 15.1 26.3"/>
    <polygon class="st1" points="30.6 31.6 35.8 31.6 35.8 36.8 30.6 36.8 30.6 31.6"/>
    <polygon class="st1" points="39.9 31.6 45.1 31.6 45.1 42.4 39.9 42.4 39.9 31.6"/>
  </g>
</svg>