<?xml version="1.0" encoding="UTF-8"?>
<svg id="Layer_1" xmlns="http://www.w3.org/2000/svg" version="1.1" xmlns:xlink="http://www.w3.org/1999/xlink" viewBox="0 0 32 44">
  <!-- Generator: Adobe Illustrator 29.3.1, SVG Export Plug-In . SVG Version: 2.1.0 Build 151)  -->
  <defs>
    <style>
      .st0 {
        fill: #fbe943;
      }

      .st1 {
        fill: #fff;
      }

      .st2 {
        fill: #f6bd16;
      }

      .st3 {
        fill: #f7931e;
      }

      .st4 {
        fill: #fefefe;
      }

      .st5 {
        fill: #ff0;
      }
    </style>
  </defs>
  <path class="st1" d="M30,28.2c.4-.5.6-1.1.8-1.7.3-1.1.3-2.1.2-3,1.1-1.7,1.2-3.9.2-5.8-.7-1.2-1.8-2-3-2.5-.4-.9-.8-1.8-1.2-2.7-.2-.4-.4-.8-.6-1.2l-.4-.9v-.2c0,0,.1-.2.2-.3.4-.3.9-.7,1.3-1.3,1.1-1.4.9-3.6-.5-4.8,0-.2.1-.5.1-.7,0,0,0-.2,0-.3,0-1.1-.9-2-2-2h0s0,0-.1,0c-.4,0-.8.2-1.1.4-.1,0-.2.2-.3.3,0,0,0,0,0,0h0c0,.1-.1.2-.2.3l-.3.5c-.3.5-.7.9-1,1.4-1,1.5-.9,3.2.3,4.4,0,.2,0,.5,0,.8,0,.1,0,.3,0,.4-.1.1-.2.2-.3.4-.2-.4-.4-.8-.6-1.2-.7-1.2-.8-2.5-.4-3.9.2-.5.4-.9.8-1.4.5-.7.5-1.6,0-2.3h0s0,0,0,0c0,0,0,0,0,0-.4-.5-1-.8-1.6-.8s-.7.1-1,.3c0,0,0,0,0,0h0c-.1,0-.2.2-.3.3-.3.2-.6.4-.9.7-.6.4-1.2.8-1.7,1.3-1.2.9-2.6,2-3.7,3.5,0-.9-.4-1.8-1.2-2.4-.4-.3-.7-.5-1.1-.8-.1,0-.3-.2-.5-.3-.3-.2-.7-.3-1.1-.3s-.9.1-1.2.4c-.7.5-.9,1.4-.7,2.2-.6.6-.9,1.3-1,2.1,0,1,.4,1.9,1.1,2.5.4.3.8.6,1.1.8,0,0,.1,0,.2.1-.2.2-.3.5-.5.7-.4.6-.9,1.3-1.3,1.9-.3-.3-.8-.5-1.3-.5h0s0,0,0,0h0c-.5,0-.9.2-1.3.5-.3.3-.6.6-.9.8l-.2.2c-1.3,1.3-2.1,2.7-2.6,4.4-.4,1.6-.3,3.2-.1,4.4.3,1.9,1.2,3.7,2.5,5.1-.6.4-1.2,1-1.6,1.6-1,1.6-1.3,3.6-.5,5.4,0,.2.2.3.3.5,1,1.7,2.8,2.8,4.8,2.8s1.9-.3,2.8-.7l2.1-1.2v2.4c0,3.1,2.5,5.6,5.6,5.6s5.6-2.5,5.6-5.6v-2.4l2.1,1.2c.8.5,1.8.7,2.8.7s1.5-.2,2.1-.4c1.1-.5,2.1-1.3,2.7-2.3.5-.8.7-1.7.7-2.6,0-.5,0-1.1-.2-1.6-.3-1.1-.9-2-1.8-2.8Z"/>
  <g>
    <g>
      <g>
        <path d="M26.4,35.6c-.5,0-1.1-.1-1.5-.4L4.1,23.2c-1.5-.9-2-2.8-1.1-4.2.6-1,1.6-1.6,2.7-1.6s1.1.1,1.5.4l20.8,12c1.5.9,2,2.8,1.1,4.2-.6,1-1.6,1.6-2.7,1.6Z"/>
        <path d="M5.6,17.8h0c.5,0,.9.1,1.3.4l20.8,12c1.3.7,1.7,2.4,1,3.6-.5.8-1.4,1.3-2.3,1.3s-.9-.1-1.3-.4L4.3,22.8c-1.3-.7-1.7-2.4-1-3.6.5-.8,1.4-1.3,2.3-1.3M5.6,16.9c-1.2,0-2.4.6-3.1,1.8h0c-1,1.7-.4,3.9,1.3,4.9l20.8,12c.6.3,1.2.5,1.8.5,1.2,0,2.4-.6,3.1-1.8h0c1-1.7.4-3.9-1.3-4.9L7.4,17.4c-.6-.3-1.2-.5-1.8-.5h0Z"/>
      </g>
      <g>
        <path class="st1" d="M26.4,35.6c-.5,0-1.1-.1-1.5-.4-.7-.4-1.2-1.1-1.4-1.9-.2-.8-.1-1.6.3-2.4.6-1,1.6-1.6,2.7-1.6s1.1.1,1.5.4c1.5.9,2,2.8,1.1,4.2-.6,1-1.6,1.6-2.7,1.6Z"/>
        <path d="M26.4,29.8h0c.5,0,.9.1,1.3.4,1.3.7,1.7,2.4,1,3.6-.5.8-1.4,1.3-2.3,1.3s-.9-.1-1.3-.4c-1.3-.7-1.7-2.4-1-3.6.5-.8,1.4-1.3,2.3-1.3M26.4,28.9c-1.2,0-2.4.6-3.1,1.8-1,1.7-.4,3.9,1.3,4.9.6.3,1.2.5,1.8.5,1.2,0,2.4-.6,3.1-1.8,1-1.7.4-3.9-1.3-4.9-.6-.3-1.2-.5-1.8-.5h0Z"/>
      </g>
    </g>
    <g>
      <g>
        <path d="M5.6,35.6c-1.1,0-2.1-.6-2.7-1.6-.9-1.5-.3-3.4,1.1-4.2l20.8-12c.5-.3,1-.4,1.5-.4,1.1,0,2.1.6,2.7,1.6.9,1.5.3,3.4-1.1,4.2l-20.8,12c-.5.3-1,.4-1.5.4h0Z"/>
        <path d="M26.4,17.8c.9,0,1.8.5,2.3,1.3.7,1.3.3,2.9-1,3.6l-20.8,12c-.4.2-.9.4-1.3.4-.9,0-1.8-.5-2.3-1.3-.7-1.3-.3-2.9,1-3.6l20.8-12c.4-.2.9-.4,1.3-.4M26.4,16.9c-.6,0-1.2.2-1.8.5L3.9,29.4c-1.7,1-2.3,3.2-1.3,4.9h0c.7,1.1,1.9,1.8,3.1,1.8s1.2-.2,1.8-.5l20.8-12c1.7-1,2.3-3.2,1.3-4.9h0c-.7-1.1-1.9-1.8-3.1-1.8h0Z"/>
      </g>
      <g>
        <path class="st1" d="M5.6,35.6c-1.1,0-2.1-.6-2.7-1.6-.9-1.5-.3-3.4,1.1-4.2.5-.3,1-.4,1.5-.4,1.1,0,2.1.6,2.7,1.6.4.7.5,1.6.3,2.4-.2.8-.7,1.5-1.4,1.9-.5.3-1,.4-1.5.4h0Z"/>
        <path d="M5.6,29.8c.9,0,1.8.5,2.3,1.3.7,1.3.3,2.9-1,3.6-.4.2-.9.4-1.3.4-.9,0-1.8-.5-2.3-1.3-.7-1.3-.3-2.9,1-3.6.4-.2.9-.4,1.3-.4M5.6,28.9c-.6,0-1.2.2-1.8.5-1.7,1-2.3,3.2-1.3,4.9.7,1.1,1.9,1.8,3.1,1.8s1.2-.2,1.8-.5c1.7-1,2.3-3.2,1.3-4.9-.7-1.1-1.9-1.8-3.1-1.8h0Z"/>
      </g>
    </g>
    <g>
      <g>
        <path d="M16,41.6c-1.7,0-3.1-1.4-3.1-3.1V14.5c0-1.7,1.4-3.1,3.1-3.1s3.1,1.4,3.1,3.1v24c0,1.7-1.4,3.1-3.1,3.1Z"/>
        <path d="M16,11.8c1.5,0,2.7,1.2,2.7,2.7v24c0,1.5-1.2,2.7-2.7,2.7s-2.7-1.2-2.7-2.7V14.5c0-1.5,1.2-2.7,2.7-2.7M16,10.9c-2,0-3.6,1.6-3.6,3.6v24c0,2,1.6,3.6,3.6,3.6s3.6-1.6,3.6-3.6V14.5c0-2-1.6-3.6-3.6-3.6h0Z"/>
      </g>
      <g>
        <path class="st1" d="M16,41.6c-1.7,0-3.1-1.4-3.1-3.1s1.4-3.1,3.1-3.1,3.1,1.4,3.1,3.1-1.4,3.1-3.1,3.1Z"/>
        <path d="M16,35.8c1.5,0,2.7,1.2,2.7,2.7s-1.2,2.7-2.7,2.7-2.7-1.2-2.7-2.7c0-1.5,1.2-2.7,2.7-2.7M16,34.9h0c-2,0-3.6,1.6-3.6,3.6s1.6,3.6,3.6,3.6,3.6-1.6,3.6-3.6c0-2-1.6-3.6-3.6-3.6h0Z"/>
      </g>
    </g>
    <g>
      <g>
        <path class="st5" d="M25.8,5.4c-.6-.5-.8-1.1-.7-1.8,0-.2.1-.4.2-.7,0,0-.1.1-.1.2-.4.6-.9,1.2-1.3,1.8-.5.7-.4,1.4.2,2,.4.4.6.8.5,1.3,0,.2-.1.3-.1.6.5-.5,1.1-.8,1.5-1.3.5-.6.4-1.5-.2-2Z"/>
        <path class="st5" d="M10.2,5.1c-.4-.3-.9-.6-1.4-1,0,.2,0,.2.1.3.3.7,0,1.2-.5,1.7-.6.4-.6,1.3,0,1.7.4.3.9.6,1.3.9,0,0,0,0,.1,0,0,0,0,0,0-.1-.3-.7,0-1.3.6-1.8.6-.4.5-1.2,0-1.7Z"/>
      </g>
      <path class="st0" d="M20.4,2s0,0,0,0c0,0,0,0,0,0,0,0,0,0,0,0Z"/>
      <path class="st2" d="M25.3,28.8c1.6,0,3.1-1.3,3.6-2.9.4-1.3,0-2.7.2-4-.5.7-1,1.3-1.5,1.8-.6.6-1.7,1.2-2,1.2,0,0,0-.1.1-.2,1.8-2.8,2-5.7.8-8.7-.6-1.3-1.2-2.6-1.8-4-.2-.5-.4-.9-.6-1.4-.1.7-.2,1.3-.2,2-.1,1.8-.9,3.2-2.5,4.2-.5.3-.9.6-1.5.6.1-.4.4-.8.6-1.2.4-.8.7-1.7.7-2.6,0-1.5-.4-2.9-1.1-4.2-1-1.8-1.2-3.7-.5-5.6.2-.7.6-1.3,1-1.9,0,0,0,0,0,0,0,0-.2.1-.3.2-.9.6-1.8,1.3-2.7,1.9-1.3.9-2.5,1.9-3.4,3.2-1.7,2.4-2.4,5.1-2,8.1,0,.4.1.8.2,1.3,0,0,0,0,0,0,0,0,0,0,0,0,0,0,0,0-.1,0-1.4-.5-2.4-2.1-2.1-3.6,0-.5.2-.9.2-1.4,0-.3.1-.5.1-.9,0,0-.1.1-.1.1-.8,1.3-1.7,2.5-2.5,3.8-.7,1.1-1.1,2.3-1.3,3.6,0,.5,0,1,0,1.6-1.1-1.8-1.4-3.6-1.1-5.6-.3.3-.6.6-1,.9-1,1-1.7,2.1-2.1,3.5-.3,1.2-.3,2.4,0,3.6.5,3.4,3.5,6.2,7,6.4,1.5,0,14.1,0,16.2,0Z"/>
      <path class="st4" d="M12.2,16.7s0,0,0,0c0,0,0,0,0,0,0,0,0,0,0,0Z"/>
      <path class="st4" d="M19.8,17.6s0,0,0,0c0,0,0,0,0,0,0,0,0,0,0,0Z"/>
      <path class="st3" d="M22.6,24.1c-.7-.9-.7-1.7,0-2.7.1-.1.2-.3.3-.5-.9.1-1.6.6-2.1,1.3-.5.7-.7,1.5-.6,2.4-.7-.4-1.3-.7-1.7-1.4-.3-.6-.3-1.3-.2-2,.2-1-.6-2.2-1.5-2.5-.8-.3-1.5-.3-2.3-.5,0,0-.2,0-.3,0,.3.4.5.9.7,1.3.3,1.3,0,2.4-.8,3.4-.3.4-.7.8-1,1.3,0,.2-.2,0-.2,0-.4-.5-.7-1.1-.9-1.7,0-.3-.1-.6-.2-.9-.2.1-.2.3-.3.5-.4.6-.8,1.2-.9,1.9-.3,1.3,0,2.5.8,3.5.6.7,1.4,1.2,2.3,1.4,1.8.1,3.5,0,5.3,0,2.1-.3,3.4-1.8,3.7-2.5.3-.7.4-1.6,0-2.3Z"/>
    </g>
  </g>
  <g>
    <path d="M28.2,29.4l-1.5-.9c-.4.2-.9.3-1.3.3-1,0-4.2,0-7.5,0-1.2,0-2.4,0-3.6,0-2.5,0-4.6,0-5.1,0-1,0-2-.3-2.9-.8l-2.3,1.3c-1.7,1-2.3,3.2-1.3,4.9s3.2,2.3,4.9,1.3l5.1-2.9v5.8c0,2,1.6,3.6,3.6,3.6s3.6-1.6,3.6-3.6v-5.8l5.1,2.9c1.7,1,3.9.4,4.9-1.3s.4-3.9-1.3-4.9ZM6.6,34.2c-1,.6-2.2.2-2.7-.7s-.2-2.2.7-2.7c1-.6,2.2-.2,2.7.7.6,1,.2,2.2-.7,2.7ZM16,40.4c-1.1,0-2-.9-2-2s.9-2,2-2,2,.9,2,2-.9,2-2,2ZM28.1,33.5c-.6,1-1.8,1.3-2.7.7-1-.6-1.3-1.8-.7-2.7.6-1,1.8-1.3,2.7-.7,1,.6,1.3,1.8.7,2.7Z"/>
    <path d="M6.4,18.4c0-.5.2-.9.3-1.4-.5-.1-1-.2-1.5-.1.1,1,.5,2.1,1.1,3.1,0-.6,0-1.1,0-1.6Z"/>
    <path class="st1" d="M27.4,30.7c-1-.6-2.2-.2-2.7.7-.6,1-.2,2.2.7,2.7,1,.6,2.2.2,2.7-.7s.2-2.2-.7-2.7Z"/>
    <path d="M25.6,24.8s0,0-.1.2c.3,0,1.4-.6,2-1.2.6-.5,1.1-1.1,1.5-1.8,0,.3,0,.6,0,.9,1-1.1,1.2-2.8.5-4.1-.6-1.1-1.7-1.7-2.8-1.8.9,2.7.5,5.4-1.1,7.9Z"/>
    <path class="st1" d="M4.6,30.7c-1,.6-1.3,1.8-.7,2.7s1.8,1.3,2.7.7c1-.6,1.3-1.8.7-2.7-.6-1-1.8-1.3-2.7-.7Z"/>
    <circle class="st1" cx="16" cy="38.4" r="2"/>
    <path class="st5" d="M24.6,8.2c0,.2-.1.3-.1.6.5-.5,1.1-.8,1.5-1.3.5-.6.4-1.5-.2-2-.6-.5-.8-1.1-.7-1.8,0-.2.1-.4.2-.7,0,0-.1.1-.1.2-.4.6-.9,1.2-1.3,1.8-.5.7-.4,1.4.2,2,.4.4.6.8.5,1.3Z"/>
    <path class="st5" d="M9.5,8.7s0,0,.1,0c0,0,0,0,0-.1-.3-.7,0-1.3.6-1.8.6-.4.5-1.2,0-1.7-.4-.3-.9-.6-1.4-1,0,.2,0,.2.1.3.3.7,0,1.2-.5,1.7-.6.4-.6,1.3,0,1.7.4.3.9.6,1.3.9Z"/>
    <path class="st0" d="M20.5,2s0,0,0,0c0,0,0,0,0,0,0,0,0,0,0,0Z"/>
    <path class="st2" d="M14.2,28.9c-.2,0-.4,0-.6,0-.9-.2-1.7-.7-2.3-1.4-.8-1-1.1-2.2-.8-3.5.2-.7.6-1.3.9-1.9.1-.2.2-.4.3-.5,0,.3,0,.6.2.9.2.6.4,1.2.9,1.7,0,0,.2.2.2,0,.2-.5.6-.9,1-1.3.8-1,1.1-2.1.8-3.4-.1-.5-.4-.9-.7-1.3.1,0,.2,0,.3,0,.8.2,1.6.3,2.3.5.9.3,1.7,1.5,1.5,2.5-.1.7-.1,1.3.2,2,.4.7,1,1,1.7,1.4-.1-.9,0-1.7.6-2.4.5-.7,1.2-1.1,2.1-1.3,0,.2-.2.3-.3.5-.7.9-.7,1.8,0,2.7.5.6.4,1.6,0,2.3-.3.7-1.6,2.2-3.7,2.5-.4,0-.7,0-1.1,0,3.3,0,6.5,0,7.5,0,.5,0,.9-.1,1.3-.3,1-.5,1.9-1.4,2.2-2.5.3-1,.2-2.1.2-3.1,0-.3,0-.6,0-.9-.5.7-1,1.3-1.5,1.8-.6.6-1.7,1.2-2,1.2,0,0,0-.1.1-.2,1.6-2.5,2-5.1,1.1-7.9,0-.3-.2-.6-.3-.8-.6-1.3-1.2-2.6-1.8-4-.2-.5-.4-.9-.6-1.4-.1.7-.2,1.3-.2,2-.1,1.8-.9,3.2-2.5,4.2-.5.3-.9.6-1.5.6.1-.4.4-.8.6-1.2.4-.8.7-1.7.7-2.6,0-1.5-.4-2.9-1.1-4.2-1-1.8-1.2-3.7-.5-5.6.2-.7.6-1.3,1-1.9,0,0,0,0,0,0,0,0-.2.1-.3.2-.9.6-1.8,1.3-2.7,1.9-1.3.9-2.5,1.9-3.4,3.2-1.7,2.4-2.4,5.1-2,8.1,0,.4.1.8.2,1.3,0,0,0,0,0,0,0,0,0,0,0,0,0,0,0,0-.1,0-1.4-.5-2.4-2.1-2.1-3.6,0-.5.2-.9.2-1.4,0-.3.1-.5.1-.9,0,0-.1.1-.1.1-.8,1.3-1.7,2.5-2.5,3.8-.5.7-.8,1.5-1,2.3-.1.4-.2.9-.3,1.4,0,.5,0,1,0,1.6-.6-1-1-2-1.1-3.1-.1-.8-.1-1.6,0-2.5-.3.3-.6.6-1,.9-1,1-1.7,2.1-2.1,3.5-.3,1.2-.3,2.4,0,3.6.3,2.4,1.9,4.5,4,5.6.9.5,1.9.7,2.9.8.6,0,2.6,0,5.1,0ZM19.8,17.6h0s0,0,0,0c0,0,0,0,0,0Z"/>
    <path class="st4" d="M12.2,16.7h0s0,0,0,0c0,0,0,0,0,0Z"/>
    <path class="st4" d="M19.8,17.6s0,0,0,0c0,0,0,0,0,0h0Z"/>
    <path class="st3" d="M22.7,26.4c.3-.7.4-1.6,0-2.3-.7-.9-.7-1.7,0-2.7.1-.1.2-.3.3-.5-.9.1-1.6.6-2.1,1.3-.5.7-.7,1.5-.6,2.4-.7-.4-1.4-.7-1.7-1.4-.3-.6-.3-1.3-.2-2,.2-1-.6-2.2-1.5-2.5-.8-.3-1.5-.3-2.3-.5,0,0-.2,0-.3,0,.3.4.5.9.7,1.3.3,1.3,0,2.4-.8,3.4-.3.4-.7.8-1,1.3,0,.2-.2,0-.2,0-.4-.5-.7-1.1-.9-1.7,0-.3-.1-.6-.2-.9-.2.1-.2.3-.3.5-.4.6-.8,1.2-.9,1.9-.3,1.3,0,2.5.8,3.5.6.7,1.4,1.2,2.3,1.4.2,0,.4,0,.6,0,1.2,0,2.4,0,3.6,0,.4,0,.7,0,1.1,0,2.1-.3,3.4-1.8,3.7-2.5Z"/>
  </g>
</svg>