<?xml version="1.0" encoding="UTF-8"?>
<svg id="Layer_1" xmlns="http://www.w3.org/2000/svg" version="1.1" xmlns:xlink="http://www.w3.org/1999/xlink" viewBox="0 0 66.6 66.5">
  <!-- Generator: Adobe Illustrator 29.3.1, SVG Export Plug-In . SVG Version: 2.1.0 Build 151)  -->
  <defs>
    <style>
      .st0 {
        fill: #fff;
      }

      .st1 {
        fill: red;
      }
    </style>
  </defs>
  <g>
    <polygon class="st0" points="42.8 2.5 43.8 2.5 52.8 2.5 52.8 2 33.8 2 33.8 2.5 42.8 2.5"/>
    <polygon class="st0" points="22.8 2.5 23.8 2.5 32.8 2.5 32.8 2 13.8 2 13.8 2.5 22.8 2.5"/>
    <path d="M13,2l-.4,1.5h10.2v9h-12.7l-.3,1h3v9h-5.5l-.3,1h15.8v9H4.5l-.3,1h8.6v9h-7.8l1.3,1h16.5v9h-4.7l1.3,1h13.3v9h-1.5l1.3,1h1.3l1.3-1h-1.5v-9h13.4l1.3-1h-4.7v-9h16.6l1.3-1h-7.9v-9h8.5l-.3-1h-18.3v-9h15.8l-.3-1h-5.5v-9h3l-.3-1h-12.7V3.5h10.2l-.4-1.5h-.8v.5h-19v-.5h-1v.5H13.8v-.5h-.8ZM33.8,3.5h9v9h-19V3.5h10ZM52.8,22.5h-19v-9h19v9ZM52.8,42.5h-19v-9h19v9ZM42.8,52.5h-19v-9h19v9ZM13.8,33.5h19v9H13.8v-9ZM42.8,32.5h-19v-9h19v9ZM13.8,13.5h19v9H13.8v-9Z"/>
    <polygon class="st0" points="13.8 12.5 22.8 12.5 22.8 3.5 13.8 3.5 12.8 3.5 12.6 3.5 10.1 12.5 12.8 12.5 13.8 12.5"/>
    <polygon class="st0" points="23.8 3.5 23.8 12.5 32.8 12.5 33.8 12.5 42.8 12.5 42.8 3.5 33.8 3.5 32.8 3.5 23.8 3.5"/>
    <polygon class="st0" points="52.8 3.5 43.8 3.5 43.8 12.5 52.8 12.5 53.8 12.5 56.5 12.5 54 3.5 53.8 3.5 52.8 3.5"/>
    <polygon class="st0" points="53.8 22.5 59.3 22.5 56.8 13.5 53.8 13.5 53.8 22.5"/>
    <polygon class="st0" points="42.8 13.5 33.8 13.5 33.8 22.5 42.8 22.5 43.8 22.5 52.8 22.5 52.8 13.5 43.8 13.5 42.8 13.5"/>
    <polygon class="st0" points="23.8 22.5 32.8 22.5 32.8 13.5 23.8 13.5 22.8 13.5 13.8 13.5 13.8 22.5 22.8 22.5 23.8 22.5"/>
    <polygon class="st0" points="12.8 13.5 9.8 13.5 7.3 22.5 12.8 22.5 12.8 13.5"/>
    <polygon class="st0" points="13.8 32.5 22.8 32.5 22.8 23.5 13.8 23.5 12.8 23.5 7 23.5 4.5 32.5 12.8 32.5 13.8 32.5"/>
    <polygon class="st0" points="32.8 23.5 23.8 23.5 23.8 32.5 32.8 32.5 33.8 32.5 42.8 32.5 42.8 23.5 33.8 23.5 32.8 23.5"/>
    <polygon class="st0" points="52.8 23.5 43.8 23.5 43.8 32.5 52.8 32.5 53.8 32.5 62.1 32.5 59.6 23.5 53.8 23.5 52.8 23.5"/>
    <polygon class="st0" points="53.8 42.5 61.7 42.5 64.3 40.5 62.3 33.5 53.8 33.5 53.8 42.5"/>
    <polygon class="st0" points="42.8 33.5 33.8 33.5 33.8 42.5 42.8 42.5 43.8 42.5 52.8 42.5 52.8 33.5 43.8 33.5 42.8 33.5"/>
    <polygon class="st0" points="23.8 42.5 32.8 42.5 32.8 33.5 23.8 33.5 22.8 33.5 13.8 33.5 13.8 42.5 22.8 42.5 23.8 42.5"/>
    <polygon class="st0" points="12.8 33.5 4.2 33.5 2.3 40.5 4.9 42.5 12.8 42.5 12.8 33.5"/>
    <polygon class="st0" points="22.8 43.5 13.8 43.5 12.8 43.5 6.3 43.5 18.1 52.5 22.8 52.5 22.8 43.5"/>
    <polygon class="st0" points="32.8 43.5 23.8 43.5 23.8 52.5 32.8 52.5 33.8 52.5 42.8 52.5 42.8 43.5 33.8 43.5 32.8 43.5"/>
    <polygon class="st0" points="52.8 43.5 43.8 43.5 43.8 52.5 48.5 52.5 60.4 43.5 53.8 43.5 52.8 43.5"/>
    <polygon class="st0" points="42.8 53.5 33.8 53.5 33.8 62.5 35.3 62.5 47.2 53.5 43.8 53.5 42.8 53.5"/>
    <polygon class="st0" points="32.8 53.5 23.8 53.5 22.8 53.5 19.4 53.5 31.3 62.5 32.8 62.5 32.8 53.5"/>
    <polygon class="st0" points="32.8 63.5 32.6 63.5 33.3 64 34 63.5 33.8 63.5 32.8 63.5"/>
  </g>
  <g>
    <path d="M15.3,5h36.1l9.5,34.4-27.6,20.9L5.7,39.3,15.3,5M13,2L2.3,40.5l31,23.5,31-23.5L53.6,2H13Z"/>
    <path class="st0" d="M53.6,2l10.7,38.5-31,23.5L2.3,40.5,13,2h40.6M55.1,0H11.5l-.4,1.5L.4,39.9l-.4,1.3,1.1.8,31,23.5,1.2.9,1.2-.9,31-23.5,1.1-.8-.4-1.3L55.5,1.5l-.4-1.5h0Z"/>
  </g>
  <g>
    <polygon class="st0" points="36.7 45.9 33.3 45.9 27.6 45 24.5 37.3 32.9 25.9 36.9 26.8 41.2 32.9 44.1 38.6 40.1 45 36.7 45.9"/>
    <path class="st1" d="M33.3,9.9c-2.5,4.8.4,7.4-2.7,14.3-1.8-1.4-.8-6.6-4.1-6.7.4,1.7.1,2.2,0,2.8-.4,2.4-1.1,4.3.4,7.3-2.3-1.1-2.5-3.2-4.4-4.6.4,2.2-.5,6.9,2.1,11.3-2.3-.3-3.2-1.1-5.6-3.6,2.6,14,4.7,14.4,14.4,15.3-.8-.1-5.8-1-7.5-6.7,0-1.4-.1,1.3,4.7,1.4-3-4.9-2.2-3.9-1.9-6.7,1.4,1.8.3,2.1,3.7,3.5-1.1-3.6,1.8-6,1.1-10.2.8,1.8,3.6,1.5,3.4,10.2,2.3-2.7,2.5-.8,3.6-3.6.1,1.5.8,3.5-2.3,6.9.8.3,2.2.4,4.3-1.1-2.1,2.5-.1,2.5-5.5,6.4,6.7.1,11.1-4.2,11-13.6-.3.8-.4,2.5-4,2.9,2.2-2.2,3.4-6.9,1.6-10.5-.7.6-1.6,3.4-4,4.1,1.1-2,.8-4.5.8-4.5,0,0,.4-3.5-1.6-6.3-.5,4.2-.5,6.4-3.2,7,.4-2.4.5-3.6-.8-6.4-1.4-2.9-3-5.9-3.3-8.7Z"/>
  </g>
</svg>