<?xml version="1.0" encoding="UTF-8"?>
<svg id="Layer_1" xmlns="http://www.w3.org/2000/svg" version="1.1" xmlns:xlink="http://www.w3.org/1999/xlink" viewBox="0 0 66.6 66.5">
  <!-- Generator: Adobe Illustrator 29.3.1, SVG Export Plug-In . SVG Version: 2.1.0 Build 151)  -->
  <defs>
    <style>
      .st0 {
        fill: #e4151c;
      }

      .st1 {
        fill: #fff;
      }

      .st2, .st3 {
        fill: none;
      }

      .st3 {
        stroke: #000;
        stroke-miterlimit: 10;
        stroke-width: 2px;
      }

      .st4 {
        clip-path: url(#clippath);
      }
    </style>
    <clipPath id="clippath">
      <rect class="st2" x="23.7" y="21.5" width="24" height="12" transform="translate(-9 33.3) rotate(-45)"/>
    </clipPath>
  </defs>
  <g>
    <polygon class="st1" points="4 39.9 14.1 3.5 52.5 3.5 62.6 40 33.3 62.1 4 39.9"/>
    <path d="M51.3,5l9.5,34.4-27.6,20.9L5.7,39.3,15.3,5h36.1M53.6,2H13L2.3,40.5l31,23.5,31-23.5L53.6,2h0Z"/>
    <path class="st1" d="M53.6,2l10.7,38.5-31,23.5L2.3,40.5,13,2h40.6M55.1,0H11.5l-.4,1.5L.4,39.9l-.4,1.3,1.1.8,31,23.5,1.2.9,1.2-.9,31-23.5,1.1-.8-.4-1.3L55.5,1.5l-.4-1.5h0Z"/>
  </g>
  <g>
    <path class="st3" d="M17.3,33.2c-.4,1.9.2,4,1.6,5.4,2.3,2.3,6.1,2.3,8.5,0l1.9-1.9"/>
    <g>
      <path class="st0" d="M40,17.6l5.7,5.7-14.1,14.1-5.7-5.7,14.1-14.1M40,14.8l-17,17,8.5,8.5,17-17-8.5-8.5h0Z"/>
      <g class="st4">
        <g>
          <polygon class="st0" points="32.9 21.9 44.9 26.8 47 24.7 35 19.8 32.9 21.9"/>
          <polygon class="st0" points="29.3 25.4 41.4 30.4 43.5 28.2 31.5 23.3 29.3 25.4"/>
          <polygon class="st0" points="25.8 28.9 37.8 33.9 40 31.8 27.9 26.8 25.8 28.9"/>
          <polygon class="st0" points="22.3 32.5 34.3 37.4 36.4 35.3 24.4 30.4 22.3 32.5"/>
          <polygon class="st0" points="36.4 18.3 48.4 23.3 50.6 21.2 38.5 16.2 36.4 18.3"/>
        </g>
      </g>
    </g>
    <line class="st3" x1="30.8" y1="39.6" x2="21.5" y2="48.8"/>
    <g>
      <line class="st3" x1="22.2" y1="33.9" x2="19.3" y2="33.5"/>
      <line class="st3" x1="12.3" y1="32.4" x2="15.3" y2="32.9"/>
      <line class="st3" x1="18" y1="28.2" x2="17.6" y2="31.2"/>
    </g>
    <polygon points="51.4 11.8 36.4 14.1 49.1 26.8 51.4 11.8"/>
  </g>
</svg>