<?xml version="1.0" encoding="UTF-8"?>
<svg id="Layer_1" xmlns="http://www.w3.org/2000/svg" version="1.1" xmlns:xlink="http://www.w3.org/1999/xlink" viewBox="0 0 66.6 66.5">
  <!-- Generator: Adobe Illustrator 29.3.1, SVG Export Plug-In . SVG Version: 2.1.0 Build 151)  -->
  <defs>
    <style>
      .st0 {
        fill: #fff;
      }

      .st1 {
        isolation: isolate;
      }

      .st2 {
        fill: #0056a4;
      }
    </style>
  </defs>
  <g>
    <g>
      <polygon class="st2" points="2 40.6 12.8 1.8 53.8 1.8 64.6 40.6 33.3 64.3 2 40.6"/>
      <path class="st0" d="M52.5,3.5l10.1,36.5-29.3,22.2L4,39.9,14.1,3.5h38.3M55.1,0H11.5l-.7,2.6L.6,39l-.6,2.3,1.9,1.4,29.3,22.2,2.1,1.6,2.1-1.6,29.3-22.2,1.9-1.4-.6-2.3L55.8,2.6l-.7-2.6h0Z"/>
    </g>
    <path d="M51.3,5l9.5,34.4-27.6,20.9L5.7,39.3,15.3,5h36.1M53.6,2H13L2.3,40.5l31,23.5,31-23.5L53.6,2h0Z"/>
  </g>
  <g class="st1">
    <path class="st0" d="M23.9,10.6h10.2c3.8,0,6.6.9,8.5,2.6,1.9,1.7,2.9,4.2,2.9,7.5s-1,5.8-2.9,7.5-4.8,2.5-8.5,2.5h-5.7v13.5h-4.5s0-33.5,0-33.5ZM28.4,14.3v12.6h5.7c2.1,0,3.7-.5,4.9-1.6,1.2-1.1,1.7-2.6,1.7-4.7s-.6-3.6-1.7-4.6c-1.2-1.1-2.8-1.6-4.9-1.6,0,0-5.7,0-5.7,0Z"/>
  </g>
</svg>