<?xml version="1.0" encoding="UTF-8"?>
<svg id="Layer_1" xmlns="http://www.w3.org/2000/svg" version="1.1" xmlns:xlink="http://www.w3.org/1999/xlink" viewBox="0 0 42.3 53.7"><metadata><c2pa:manifest xmlns:c2pa="http://c2pa.org/manifest">AAA0RGp1bWIAAAAeanVtZGMycGEAEQAQgAAAqgA4m3EDYzJwYQAAADQeanVtYgAAAEdqdW1kYzJtYQARABCAAACqADibcQN1cm46dXVpZDpjOGE5Y2VlMy1iNjUzLTQ0ZWItYjYwNS0xM2MxZjA3MzlhNmUAAAABtGp1bWIAAAApanVtZGMyYXMAEQAQgAAAqgA4m3EDYzJwYS5hc3NlcnRpb25zAAAAANdqdW1iAAAAJmp1bWRjYm9yABEAEIAAAKoAOJtxA2MycGEuYWN0aW9ucwAAAACpY2JvcqFnYWN0aW9uc4GjZmFjdGlvbmtjMnBhLmVkaXRlZG1zb2Z0d2FyZUFnZW50bUFkb2JlIEZpcmVmbHlxZGlnaXRhbFNvdXJjZVR5cGV4U2h0dHA6Ly9jdi5pcHRjLm9yZy9uZXdzY29kZXMvZGlnaXRhbHNvdXJjZXR5cGUvY29tcG9zaXRlV2l0aFRyYWluZWRBbGdvcml0aG1pY01lZGlhAAAArGp1bWIAAAAoanVtZGNib3IAEQAQgAAAqgA4m3EDYzJwYS5oYXNoLmRhdGEAAAAAfGNib3KlamV4Y2x1c2lvbnOBomVzdGFydBjsZmxlbmd0aBlFsGRuYW1lbmp1bWJmIG1hbmlmZXN0Y2FsZ2ZzaGEyNTZkaGFzaFggHtQ9vTer7pi+ETvSfRGjQtHBjfzli5SUMDmZbF8xNrpjcGFkSQAAAAAAAAAAAAAAAgtqdW1iAAAAJGp1bWRjMmNsABEAEIAAAKoAOJtxA2MycGEuY2xhaW0AAAAB32Nib3KoaGRjOnRpdGxlb0dlbmVyYXRlZCBJbWFnZWlkYzpmb3JtYXRtaW1hZ2Uvc3ZnK3htbGppbnN0YW5jZUlEeCx4bXA6aWlkOjA3YWFkNTk3LWJlZTUtNDkwNy04Y2YyLTJmNmUxMmNjNGE0ZW9jbGFpbV9nZW5lcmF0b3J4NkFkb2JlX0lsbHVzdHJhdG9yLzI5LjMgYWRvYmVfYzJwYS8wLjcuNiBjMnBhLXJzLzAuMjUuMnRjbGFpbV9nZW5lcmF0b3JfaW5mb4G/ZG5hbWVxQWRvYmUgSWxsdXN0cmF0b3JndmVyc2lvbmQyOS4z/2lzaWduYXR1cmV4GXNlbGYjanVtYmY9YzJwYS5zaWduYXR1cmVqYXNzZXJ0aW9uc4KiY3VybHgnc2VsZiNqdW1iZj1jMnBhLmFzc2VydGlvbnMvYzJwYS5hY3Rpb25zZGhhc2hYIEppwb3/qN5BMHi+JO3M+DE6wdFklTRWcaANawazN9SvomN1cmx4KXNlbGYjanVtYmY9YzJwYS5hc3NlcnRpb25zL2MycGEuaGFzaC5kYXRhZGhhc2hYIPBAklirUDb+4uvgoJk/2K/KK3TpxV1fBiIf+QoIAvL+Y2FsZ2ZzaGEyNTYAADAQanVtYgAAAChqdW1kYzJjcwARABCAAACqADibcQNjMnBhLnNpZ25hdHVyZQAAAC/gY2JvctKEWQzvogE4JBghglkGPTCCBjkwggQhoAMCAQICEBWN/yesI9K4JUtOYzceHZ4wDQYJKoZIhvcNAQELBQAwdTELMAkGA1UEBhMCVVMxIzAhBgNVBAoTGkFkb2JlIFN5c3RlbXMgSW5jb3Jwb3JhdGVkMR0wGwYDVQQLExRBZG9iZSBUcnVzdCBTZXJ2aWNlczEiMCAGA1UEAxMZQWRvYmUgUHJvZHVjdCBTZXJ2aWNlcyBHMzAeFw0yNDEwMTUwMDAwMDBaFw0yNTEwMTUyMzU5NTlaMIGrMRMwEQYDVQQDDApBZG9iZSBDMlBBMSgwJgYDVQQLDB9Db250ZW50IEF1dGhlbnRpY2l0eSBJbml0aWF0aXZlMRMwEQYDVQQKDApBZG9iZSBJbmMuMREwDwYDVQQHDAhTYW4gSm9zZTETMBEGA1UECAwKQ2FsaWZvcm5pYTELMAkGA1UEBhMCVVMxIDAeBgkqhkiG9w0BCQEWEWNhaS1vcHNAYWRvYmUuY29tMIIBIjANBgkqhkiG9w0BAQEFAAOCAQ8AMIIBCgKCAQEAwxDBgdB9PXLpMXPw5oNgYkFWDPP1aSfth9TZPINOtOQlhp1v4h+hMxZWFjkZ3RJRuoSBrsSSYBaEfiDMKisi/sOxuFHKBV//l1rv3SrjrixANXIlqjGdIYydaMaFa/5ovFz/m4+SUz0ccYzqw+vSAzuRySGnpgm8Gmj+SEJcL/GIHzqU9bUy3NsizY2oY28yj32rbkOqeADSM51OqIJKloEBFFexzMunzpU+K2sLqheoR8FJMaR0fGXa/gqRzhkiBFhwUhLPS9s6+TCnz09UZMlXbdG/iFKj3UPFUDjqh0wtFgcz24DrUlaWeiltKHouymBHuirzvmOG0VtSPepxOQIDAQABo4IBjDCCAYgwDAYDVR0TAQH/BAIwADAOBgNVHQ8BAf8EBAMCB4AwHgYDVR0lBBcwFQYJKoZIhvcvAQEMBggrBgEFBQcDBDCBjgYDVR0gBIGGMIGDMIGABgkqhkiG9y8BAgMwczBxBggrBgEFBQcCAjBlDGNZb3UgYXJlIG5vdCBwZXJtaXR0ZWQgdG8gdXNlIHRoaXMgTGljZW5zZSBDZXJ0aWZpY2F0ZSBleGNlcHQgYXMgcGVybWl0dGVkIGJ5IHRoZSBsaWNlbnNlIGFncmVlbWVudC4wXQYDVR0fBFYwVDBSoFCgToZMaHR0cDovL3BraS1jcmwuc3ltYXV0aC5jb20vY2FfN2E1YzNhMGM3MzExNzQwNmFkZDE5MzEyYmMxYmMyM2YvTGF0ZXN0Q1JMLmNybDA3BggrBgEFBQcBAQQrMCkwJwYIKwYBBQUHMAGGG2h0dHA6Ly9wa2ktb2NzcC5zeW1hdXRoLmNvbTAfBgNVHSMEGDAWgBRXKXoyTcz+5DVOwB8kc85zU6vfajANBgkqhkiG9w0BAQsFAAOCAgEAqrl6FLQ+c9LYaf0igyTgErNL9XmmieiT3ohKFevJ3BN7kWkZD1znbVw3XnX5tgQaKq+AiSCldNxYEKqU+Rq9Lr26GGglBSA0s/Ds2kw+2LlnTmojAHCH3CvVRbhGHHrashmnfgwmF1TSkaWk7NxEhbt9wQoiEMkLSQeM4S4Cu+176FzEdy+zzkDkRWqeSOQO/qG2WRto/vIq30ECf6v6FtazJI1CWIqhBK5oJioSNbLsCVJhar3Uca9D11ujeZW4k2jPCsnzriTmFqVftd3k2SXUQg7wQcQcXfKBItWZt8ztn0IYoZzJa1x9l9dvXKAJvNsDoz4uDerS8z9rzLsEQvzL1yPbTp4+/6mTTAWsoaDtmkZgm3X+sffPX3XzMFmfzIHiYfUja5nKK2bs4P71tit/1U/FD2xdlpzZSupRqCMGz+UTeXI8IrN5ZR/+F8rSsmRAStjnggz/wDucwcDlJbY4/RKq3BrAi4LamLMIfwo/dbL55TDlIOd7HCfmSgabc1WO0Kji3LW/VZnP9VG8WiUG+WqtN1OQIAZmFUOWdXQGLag+I1OaZ1BXJDNsJiXcg2TGNBSEPo44Akfn9MzFGKyB5UurMN4NH0qlamhrhKiV0+b73Fjx330P/frxBmzx5NpAQhNKksx+F4z1S8Ay1o2TBIkkeAFbDzy8f/FxuytZBqUwggahMIIEiaADAgECAhAMqLZUe4nm0gaJdc2Lm4niMA0GCSqGSIb3DQEBCwUAMGwxCzAJBgNVBAYTAlVTMSMwIQYDVQQKExpBZG9iZSBTeXN0ZW1zIEluY29ycG9yYXRlZDEdMBsGA1UECxMUQWRvYmUgVHJ1c3QgU2VydmljZXMxGTAXBgNVBAMTEEFkb2JlIFJvb3QgQ0EgRzIwHhcNMTYxMTI5MDAwMDAwWhcNNDExMTI4MjM1OTU5WjB1MQswCQYDVQQGEwJVUzEjMCEGA1UEChMaQWRvYmUgU3lzdGVtcyBJbmNvcnBvcmF0ZWQxHTAbBgNVBAsTFEFkb2JlIFRydXN0IFNlcnZpY2VzMSIwIAYDVQQDExlBZG9iZSBQcm9kdWN0IFNlcnZpY2VzIEczMIICIjANBgkqhkiG9w0BAQEFAAOCAg8AMIICCgKCAgEAtx8uvb0Js1xIbP4Mg65sAepReCWkgD6Jp7GyiGTa9ol2gfn5HfOV/HiYjZiOz+TuHFU+DXNad86xEqgVeGVMlvIHGe/EHcKBxvEDXdlTXB5zIEkfl0/SGn7J6vTX8MNybfSi95eQDUOZ9fjCaq+PBFjS5ZfeNmzi/yR+MsA0jKKoWarSRCFFFBpUFQWfAgLyXOyxOnXQOQudjxNj6Wu0X0IB13+IH11WcKcWEWXM4j4jh6hLy29Cd3EoVG3oxcVenMF/EMgD2tXjx4NUbTNB1/g9+MR6Nw5Mhp5k/g3atNExAxhtugC+T3SDShSEJfs2quiiRUHtX3RhOcK1s1OJgT5s2s9xGy5/uxVpcAIaK2KiDJXW3xxN8nXPmk1NSVu/mxtfapr4TvSJbhrU7UA3qhQY9n4On2sbH1X1Tw+7LTek8KCA5ZDghOERPiIp/Jt893qov1bE5rJkagcVg0Wqjh89NhCaBA8VyRt3ovlGyCKdNV2UL3bn5vdFsTk7qqmp9makz1/SuVXYxIf6L6+8RXOatXWaPkmucuLE1TPOeP7S1N5JToFCs80l2D2EtxoQXGCR48K/cTUR5zV/fQ+hdIOzoo0nFn77Y8Ydd2k7/x9BE78pmoeMnw6VXYfXCuWEgj6p7jpbLoxQMoWMCVzlg72WVNhJFlSw4aD8fc6ezeECAwEAAaOCATQwggEwMBIGA1UdEwEB/wQIMAYBAf8CAQAwNQYDVR0fBC4wLDAqoCigJoYkaHR0cDovL2NybC5hZG9iZS5jb20vYWRvYmVyb290ZzIuY3JsMA4GA1UdDwEB/wQEAwIBBjAUBgNVHSUEDTALBgkqhkiG9y8BAQcwVwYDVR0gBFAwTjBMBgkqhkiG9y8BAgMwPzA9BggrBgEFBQcCARYxaHR0cHM6Ly93d3cuYWRvYmUuY29tL21pc2MvcGtpL3Byb2Rfc3ZjZV9jcHMuaHRtbDAkBgNVHREEHTAbpBkwFzEVMBMGA1UEAxMMU1lNQy00MDk2LTMzMB0GA1UdDgQWBBRXKXoyTcz+5DVOwB8kc85zU6vfajAfBgNVHSMEGDAWgBSmHOFtVCRMqI9Icr9uqYzV5Owx1DANBgkqhkiG9w0BAQsFAAOCAgEAcc7lB4ym3C3cyOA7ZV4AkoGV65UgJK+faThdyXzxuNqlTQBlOyXBGFyevlm33BsGO1mDJfozuyLyT2+7IVxWFvW5yYMV+5S1NeChMXIZnCzWNXnuiIQSdmPD82TEVCkneQpFET4NDwSxo8/ykfw6Hx8fhuKz0wjhjkWMXmK3dNZXIuYVcbynHLyJOzA+vWU3sH2T0jPtFp7FN39GZne4YG0aVMlnHhtHhxaXVCiv2RVoR4w1QtvKHQpzfPObR53Cl74iLStGVFKPwCLYRSpYRF7J6vVS/XxW4LzvN2b6VEKOcvJmN3LhpxFRl3YYzW+dwnwtbuHW6WJlmjffbLm1MxLFGlG95aCz31X8wzqYNsvb9+5AXcv8Ll69tLXmO1OtsY/3wILNUEp4VLZTE3wqm3n8hMnClZiiKyZCS7L4E0mClbx+BRSMH3eVo6jgve41/fK3FQM4QCNIkpGs7FjjLy+ptC+JyyWqcfvORrFV/GOgB5hD+G5ghJcIpeigD/lHsCRYsOa5sFdqREhwIWLmSWtNwfLZdJ3dkCc7yRpm3gal6qRfTkYpxTNxxKyvKbkaJDoxR9vtWrC3iNrQd9VvxC3TXtuzoHbqumeqgcAqefWF9u6snQ4Q9FkXzeuJArNuSvPIhgBjVtggH0w0vm/lmCQYiC/Y12GeCxfgYlL33buiZnNpZ1RzdKFpdHN0VG9rZW5zgaFjdmFsWQ46MIIONjADAgEAMIIOLQYJKoZIhvcNAQcCoIIOHjCCDhoCAQMxDzANBglghkgBZQMEAgEFADCBgwYLKoZIhvcNAQkQAQSgdARyMHACAQEGCWCGSAGG/WwHATAxMA0GCWCGSAFlAwQCAQUABCBmSHbHURihnepmv7noQ0ZdvIMjE12HNa+R45APXrlhBQIRAJIizW/u/f1bXRMwOYHJkh8YDzIwMjUwMjI4MTkyNjUxWgIJAODxWIMdNo9eoIILwDCCBQowggLyoAMCAQICEAwLL8d6eM+67WVWVMGaJAMwDQYJKoZIhvcNAQELBQAwYzELMAkGA1UEBhMCVVMxFzAVBgNVBAoTDkRpZ2lDZXJ0LCBJbmMuMTswOQYDVQQDEzJEaWdpQ2VydCBUcnVzdGVkIEc0IFJTQTQwOTYgU0hBMjU2IFRpbWVTdGFtcGluZyBDQTAeFw0yNDExMjAwMDAwMDBaFw0zNjAyMTkyMzU5NTlaMFsxCzAJBgNVBAYTAlVTMREwDwYDVQQKEwhEaWdpQ2VydDE5MDcGA1UEAxMwRUNDMjU2X1NIQTI1Nl9UaW1lc3RhbXBfUmVzcG9uZGVyX0Fkb2JlX05PVl8yMDI0MFkwEwYHKoZIzj0CAQYIKoZIzj0DAQcDQgAE0PwehfiBmKYqkEC8Tn6pFJnk5kkVmc8UgrcDPNrIlv0m12s5LUchFpsCFbPvDyY4VfQuH1CdtyBkcbH8yTPJXqOCAYswggGHMA4GA1UdDwEB/wQEAwIHgDAMBgNVHRMBAf8EAjAAMBYGA1UdJQEB/wQMMAoGCCsGAQUFBwMIMCAGA1UdIAQZMBcwCAYGZ4EMAQQCMAsGCWCGSAGG/WwHATAfBgNVHSMEGDAWgBS6FtltTYUvcyl2mi91jGogj57IbzAdBgNVHQ4EFgQU7NEcb3znoE3kMT+HAAjUrdR9NrswWgYDVR0fBFMwUTBPoE2gS4ZJaHR0cDovL2NybDMuZGlnaWNlcnQuY29tL0RpZ2lDZXJ0VHJ1c3RlZEc0UlNBNDA5NlNIQTI1NlRpbWVTdGFtcGluZ0NBLmNybDCBkAYIKwYBBQUHAQEEgYMwgYAwJAYIKwYBBQUHMAGGGGh0dHA6Ly9vY3NwLmRpZ2ljZXJ0LmNvbTBYBggrBgEFBQcwAoZMaHR0cDovL2NhY2VydHMuZGlnaWNlcnQuY29tL0RpZ2lDZXJ0VHJ1c3RlZEc0UlNBNDA5NlNIQTI1NlRpbWVTdGFtcGluZ0NBLmNydDANBgkqhkiG9w0BAQsFAAOCAgEAouzBIPJ5Ly2riyO3AI9tQ4JzBK4dJp7QreHOLbFvciUGXWb9Z/BNXbnmsm+iImfJmGpmyJq03rlSsBqlEiE2U4lYbRUT980Q/Q6RZPhMeD9NdCErR/3g9ZYCum1X2mNIL83CEUD9wsCM6gWQBPNXOUCDYz7PNXLySzhSnf3F+8zoaEL684jQ8teVDU+X7lEXtn4qADULETWDplVwHYNkyuzpLWA/hB/w/IFq+5x0IUSTLg+eBjY4mZzT52F8+hd4+wbtmlZYq70BgALK1tuy6oYPZLFufmi/oPf5cqkaDK1i0suCg0Gs7TwfjyrJHnDtUe3WyW8O1ARVZfhmxmlHOMeh71SzTS+YR44i63/QOM8XudnvWaqUlO5A7u3bEV75vriyzF4xxUsf49LLSHMZ0B8Di+AOUUblB9V8NcM9gohryBzXKGK5Kn5G+k7CiVO57Q6jShSmd+PbARK03V8FaCHeM0v3FfwOaztSsOWjTv81EwrUJG3DIPPFxlqiJmmJiB4SLx2hNZ0XT1gmtEIa8b4qHj+OaeP86nfya1WzbKBLhAUkSDwd/lYi2qBZYpmUVHj88CmL8k63eoO9plbReD62278tZKglJrGQzBap99w0dDfEM6pM4q927nzciOZPeUatzV3G3zWA8famfIIwruDR7UsQHSSrMM2/YIuo8hUwggauMIIElqADAgECAhAHNje3JFR82Ees/ShmKl5bMA0GCSqGSIb3DQEBCwUAMGIxCzAJBgNVBAYTAlVTMRUwEwYDVQQKEwxEaWdpQ2VydCBJbmMxGTAXBgNVBAsTEHd3dy5kaWdpY2VydC5jb20xITAfBgNVBAMTGERpZ2lDZXJ0IFRydXN0ZWQgUm9vdCBHNDAeFw0yMjAzMjMwMDAwMDBaFw0zNzAzMjIyMzU5NTlaMGMxCzAJBgNVBAYTAlVTMRcwFQYDVQQKEw5EaWdpQ2VydCwgSW5jLjE7MDkGA1UEAxMyRGlnaUNlcnQgVHJ1c3RlZCBHNCBSU0E0MDk2IFNIQTI1NiBUaW1lU3RhbXBpbmcgQ0EwggIiMA0GCSqGSIb3DQEBAQUAA4ICDwAwggIKAoICAQDGhjUGSbPBPXJJUVXHJQPE8pE3qZdRodbSg9GeTKJtoLDMg/la9hGhRBVCX6SI82j6ffOciQt/nR+eDzMfUBMLJnOWbfhXqAJ9/UO0hNoR8XOxs+4rgISKIhjf69o9xBd/qxkrPkLcZ47qUT3w1lbU5ygt69OxtXXnHwZljZQp09nsad/ZkIdGAHvbREGJ3HxqV3rwN3mfXazL6IRktFLydkf3YYMZ3V+0VAshaG43IbtArF+y3kp9zvU5EmfvDqVjbOSmxR3NNg1c1eYbqMFkdECnwHLFuk4fsbVYTXn+149zk6wsOeKlSNbwsDETqVcplicu9Yemj052FVUmcJgmf6AaRyBD40NjgHt1biclkJg6OBGz9vae5jtb7IHeIhTZgirHkr+g3uM+onP65x9abJTyUpURK1h0QCirc0PO30qhHGs4xSnzyqqWc0Jon7ZGs506o9UD4L/wojzKQtwYSH8UNM/STKvvmz3+DrhkKvp1KCRB7UK/BZxmSVJQ9FHzNklNiyDSLFc1eSuo80VgvCONWPfcYd6T/jnA+bIwpUzX6ZhKWD7TA4j+s4/TXkt2ElGTyYwMO1uKIqjBJgj5FBASA31fI7tk42PgpuE+9sJ0sj8eCXbsq11GdeJgo1gJASgADoRU7s7pXcheMBK9Rp6103a50g5rmQzSM7TNsQIDAQABo4IBXTCCAVkwEgYDVR0TAQH/BAgwBgEB/wIBADAdBgNVHQ4EFgQUuhbZbU2FL3MpdpovdYxqII+eyG8wHwYDVR0jBBgwFoAU7NfjgtJxXWRM3y5nP+e6mK4cD08wDgYDVR0PAQH/BAQDAgGGMBMGA1UdJQQMMAoGCCsGAQUFBwMIMHcGCCsGAQUFBwEBBGswaTAkBggrBgEFBQcwAYYYaHR0cDovL29jc3AuZGlnaWNlcnQuY29tMEEGCCsGAQUFBzAChjVodHRwOi8vY2FjZXJ0cy5kaWdpY2VydC5jb20vRGlnaUNlcnRUcnVzdGVkUm9vdEc0LmNydDBDBgNVHR8EPDA6MDigNqA0hjJodHRwOi8vY3JsMy5kaWdpY2VydC5jb20vRGlnaUNlcnRUcnVzdGVkUm9vdEc0LmNybDAgBgNVHSAEGTAXMAgGBmeBDAEEAjALBglghkgBhv1sBwEwDQYJKoZIhvcNAQELBQADggIBAH1ZjsCTtm+YqUQiAX5m1tghQuGwGC4QTRPPMFPOvxj7x1Bd4ksp+3CKDaopafxpwc8dB+k+YMjYC+VcW9dth/qEICU0MWfNthKWb8RQTGIdDAiCqBa9qVbPFXONASIlzpVpP0d3+3J0FNf/q0+KLHqrhc1DX+1gtqpPkWaeLJ7giqzl/Yy8ZCaHbJK9nXzQcAp876i8dU+6WvepELJd6f8oVInw1YpxdmXazPByoyP6wCeCRK6ZJxurJB4mwbfeKuv2nrF5mYGjVoarCkXJ38SNoOeY+/umnXKvxMfBwWpx2cYTgAnEtp/Nh4cku0+jSbl3ZpHxcpzpSwJSpzd+k1OsOx0ISQ+UzTl63f8lY5knLD0/a6fxZsNBzU+2QJshIUDQtxMkzdwdeDrknq3lNHGS1yZr5Dhzq6YBT70/O3itTK37xJV77QpfMzmHQXh6OOmc4d0j/R0o08f56PGYX/sr2H7yRp11LB4nLCbbbxV7HhmLNriT1ObyF5lZynDwN7+YAN8gFk8n+2BnFqFmut1VwDophrCYoCvtlUG3OtUVmDG0YgkPCr2B2RP+v6TR81fZvAT6gt4y3wSJ8ADNXcL50CN/AAvkdgIm2fBldkKmKYcJRyvmfxqkhQ/8mJb2VVQrH4D6wPIOK+XW+6kvRBVK5xMOHds3OBqhK/bt1nz8MYIBuDCCAbQCAQEwdzBjMQswCQYDVQQGEwJVUzEXMBUGA1UEChMORGlnaUNlcnQsIEluYy4xOzA5BgNVBAMTMkRpZ2lDZXJ0IFRydXN0ZWQgRzQgUlNBNDA5NiBTSEEyNTYgVGltZVN0YW1waW5nIENBAhAMCy/HenjPuu1lVlTBmiQDMA0GCWCGSAFlAwQCAQUAoIHRMBoGCSqGSIb3DQEJAzENBgsqhkiG9w0BCRABBDAcBgkqhkiG9w0BCQUxDxcNMjUwMjI4MTkyNjUxWjArBgsqhkiG9w0BCRACDDEcMBowGDAWBBT3EwJUZBucztJRLWLFv58phIz8+DAvBgkqhkiG9w0BCQQxIgQgqNEYpW+a+55gBPxZUG0Z3JFEZIunaDEkQ0Tz2Zqap5kwNwYLKoZIhvcNAQkQAi8xKDAmMCQwIgQguXomaB0Y6bl8Yz74SDlkVXWXltpQQ0Qsj4zN5SfgAKkwCgYIKoZIzj0EAwIERzBFAiEAzWDv9mWbdij/wDU16JrHewfEl25Fa+ngzKg7iDbCB2MCIEU5XtKgx0R3TzbUhA2e0CidQfZ7rTEgy02p9yxTKH+uY3BhZFkTgwAAAAAAAAAAAAAAAAAAAAAAAAAAAAAAAAAAAAAAAAAAAAAAAAAAAAAAAAAAAAAAAAAAAAAAAAAAAAAAAAAAAAAAAAAAAAAAAAAAAAAAAAAAAAAAAAAAAAAAAAAAAAAAAAAAAAAAAAAAAAAAAAAAAAAAAAAAAAAAAAAAAAAAAAAAAAAAAAAAAAAAAAAAAAAAAAAAAAAAAAAAAAAAAAAAAAAAAAAAAAAAAAAAAAAAAAAAAAAAAAAAAAAAAAAAAAAAAAAAAAAAAAAAAAAAAAAAAAAAAAAAAAAAAAAAAAAAAAAAAAAAAAAAAAAAAAAAAAAAAAAAAAAAAAAAAAAAAAAAAAAAAAAAAAAAAAAAAAAAAAAAAAAAAAAAAAAAAAAAAAAAAAAAAAAAAAAAAAAAAAAAAAAAAAAAAAAAAAAAAAAAAAAAAAAAAAAAAAAAAAAAAAAAAAAAAAAAAAAAAAAAAAAAAAAAAAAAAAAAAAAAAAAAAAAAAAAAAAAAAAAAAAAAAAAAAAAAAAAAAAAAAAAAAAAAAAAAAAAAAAAAAAAAAAAAAAAAAAAAAAAAAAAAAAAAAAAAAAAAAAAAAAAAAAAAAAAAAAAAAAAAAAAAAAAAAAAAAAAAAAAAAAAAAAAAAAAAAAAAAAAAAAAAAAAAAAAAAAAAAAAAAAAAAAAAAAAAAAAAAAAAAAAAAAAAAAAAAAAAAAAAAAAAAAAAAAAAAAAAAAAAAAAAAAAAAAAAAAAAAAAAAAAAAAAAAAAAAAAAAAAAAAAAAAAAAAAAAAAAAAAAAAAAAAAAAAAAAAAAAAAAAAAAAAAAAAAAAAAAAAAAAAAAAAAAAAAAAAAAAAAAAAAAAAAAAAAAAAAAAAAAAAAAAAAAAAAAAAAAAAAAAAAAAAAAAAAAAAAAAAAAAAAAAAAAAAAAAAAAAAAAAAAAAAAAAAAAAAAAAAAAAAAAAAAAAAAAAAAAAAAAAAAAAAAAAAAAAAAAAAAAAAAAAAAAAAAAAAAAAAAAAAAAAAAAAAAAAAAAAAAAAAAAAAAAAAAAAAAAAAAAAAAAAAAAAAAAAAAAAAAAAAAAAAAAAAAAAAAAAAAAAAAAAAAAAAAAAAAAAAAAAAAAAAAAAAAAAAAAAAAAAAAAAAAAAAAAAAAAAAAAAAAAAAAAAAAAAAAAAAAAAAAAAAAAAAAAAAAAAAAAAAAAAAAAAAAAAAAAAAAAAAAAAAAAAAAAAAAAAAAAAAAAAAAAAAAAAAAAAAAAAAAAAAAAAAAAAAAAAAAAAAAAAAAAAAAAAAAAAAAAAAAAAAAAAAAAAAAAAAAAAAAAAAAAAAAAAAAAAAAAAAAAAAAAAAAAAAAAAAAAAAAAAAAAAAAAAAAAAAAAAAAAAAAAAAAAAAAAAAAAAAAAAAAAAAAAAAAAAAAAAAAAAAAAAAAAAAAAAAAAAAAAAAAAAAAAAAAAAAAAAAAAAAAAAAAAAAAAAAAAAAAAAAAAAAAAAAAAAAAAAAAAAAAAAAAAAAAAAAAAAAAAAAAAAAAAAAAAAAAAAAAAAAAAAAAAAAAAAAAAAAAAAAAAAAAAAAAAAAAAAAAAAAAAAAAAAAAAAAAAAAAAAAAAAAAAAAAAAAAAAAAAAAAAAAAAAAAAAAAAAAAAAAAAAAAAAAAAAAAAAAAAAAAAAAAAAAAAAAAAAAAAAAAAAAAAAAAAAAAAAAAAAAAAAAAAAAAAAAAAAAAAAAAAAAAAAAAAAAAAAAAAAAAAAAAAAAAAAAAAAAAAAAAAAAAAAAAAAAAAAAAAAAAAAAAAAAAAAAAAAAAAAAAAAAAAAAAAAAAAAAAAAAAAAAAAAAAAAAAAAAAAAAAAAAAAAAAAAAAAAAAAAAAAAAAAAAAAAAAAAAAAAAAAAAAAAAAAAAAAAAAAAAAAAAAAAAAAAAAAAAAAAAAAAAAAAAAAAAAAAAAAAAAAAAAAAAAAAAAAAAAAAAAAAAAAAAAAAAAAAAAAAAAAAAAAAAAAAAAAAAAAAAAAAAAAAAAAAAAAAAAAAAAAAAAAAAAAAAAAAAAAAAAAAAAAAAAAAAAAAAAAAAAAAAAAAAAAAAAAAAAAAAAAAAAAAAAAAAAAAAAAAAAAAAAAAAAAAAAAAAAAAAAAAAAAAAAAAAAAAAAAAAAAAAAAAAAAAAAAAAAAAAAAAAAAAAAAAAAAAAAAAAAAAAAAAAAAAAAAAAAAAAAAAAAAAAAAAAAAAAAAAAAAAAAAAAAAAAAAAAAAAAAAAAAAAAAAAAAAAAAAAAAAAAAAAAAAAAAAAAAAAAAAAAAAAAAAAAAAAAAAAAAAAAAAAAAAAAAAAAAAAAAAAAAAAAAAAAAAAAAAAAAAAAAAAAAAAAAAAAAAAAAAAAAAAAAAAAAAAAAAAAAAAAAAAAAAAAAAAAAAAAAAAAAAAAAAAAAAAAAAAAAAAAAAAAAAAAAAAAAAAAAAAAAAAAAAAAAAAAAAAAAAAAAAAAAAAAAAAAAAAAAAAAAAAAAAAAAAAAAAAAAAAAAAAAAAAAAAAAAAAAAAAAAAAAAAAAAAAAAAAAAAAAAAAAAAAAAAAAAAAAAAAAAAAAAAAAAAAAAAAAAAAAAAAAAAAAAAAAAAAAAAAAAAAAAAAAAAAAAAAAAAAAAAAAAAAAAAAAAAAAAAAAAAAAAAAAAAAAAAAAAAAAAAAAAAAAAAAAAAAAAAAAAAAAAAAAAAAAAAAAAAAAAAAAAAAAAAAAAAAAAAAAAAAAAAAAAAAAAAAAAAAAAAAAAAAAAAAAAAAAAAAAAAAAAAAAAAAAAAAAAAAAAAAAAAAAAAAAAAAAAAAAAAAAAAAAAAAAAAAAAAAAAAAAAAAAAAAAAAAAAAAAAAAAAAAAAAAAAAAAAAAAAAAAAAAAAAAAAAAAAAAAAAAAAAAAAAAAAAAAAAAAAAAAAAAAAAAAAAAAAAAAAAAAAAAAAAAAAAAAAAAAAAAAAAAAAAAAAAAAAAAAAAAAAAAAAAAAAAAAAAAAAAAAAAAAAAAAAAAAAAAAAAAAAAAAAAAAAAAAAAAAAAAAAAAAAAAAAAAAAAAAAAAAAAAAAAAAAAAAAAAAAAAAAAAAAAAAAAAAAAAAAAAAAAAAAAAAAAAAAAAAAAAAAAAAAAAAAAAAAAAAAAAAAAAAAAAAAAAAAAAAAAAAAAAAAAAAAAAAAAAAAAAAAAAAAAAAAAAAAAAAAAAAAAAAAAAAAAAAAAAAAAAAAAAAAAAAAAAAAAAAAAAAAAAAAAAAAAAAAAAAAAAAAAAAAAAAAAAAAAAAAAAAAAAAAAAAAAAAAAAAAAAAAAAAAAAAAAAAAAAAAAAAAAAAAAAAAAAAAAAAAAAAAAAAAAAAAAAAAAAAAAAAAAAAAAAAAAAAAAAAAAAAAAAAAAAAAAAAAAAAAAAAAAAAAAAAAAAAAAAAAAAAAAAAAAAAAAAAAAAAAAAAAAAAAAAAAAAAAAAAAAAAAAAAAAAAAAAAAAAAAAAAAAAAAAAAAAAAAAAAAAAAAAAAAAAAAAAAAAAAAAAAAAAAAAAAAAAAAAAAAAAAAAAAAAAAAAAAAAAAAAAAAAAAAAAAAAAAAAAAAAAAAAAAAAAAAAAAAAAAAAAAAAAAAAAAAAAAAAAAAAAAAAAAAAAAAAAAAAAAAAAAAAAAAAAAAAAAAAAAAAAAAAAAAAAAAAAAAAAAAAAAAAAAAAAAAAAAAAAAAAAAAAAAAAAAAAAAAAAAAAAAAAAAAAAAAAAAAAAAAAAAAAAAAAAAAAAAAAAAAAAAAAAAAAAAAAAAAAAAAAAAAAAAAAAAAAAAAAAAAAAAAAAAAAAAAAAAAAAAAAAAAAAAAAAAAAAAAAAAAAAAAAAAAAAAAAAAAAAAAAAAAAAAAAAAAAAAAAAAAAAAAAAAAAAAAAAAAAAAAAAAAAAAAAAAAAAAAAAAAAAAAAAAAAAAAAAAAAAAAAAAAAAAAAAAAAAAAAAAAAAAAAAAAAAAAAAAAAAAAAAAAAAAAAAAAAAAAAAAAAAAAAAAAAAAAAAAAAAAAAAAAAAAAAAAAAAAAAAAAAAAAAAAAAAAAAAAAAAAAAAAAAAAAAAAAAAAAAAAAAAAAAAAAAAAAAAAAAAAAAAAAAAAAAAAAAAAAAAAAAAAAAAAAAAAAAAAAAAAAAAAAAAAAAAAAAAAAAAAAAAAAAAAAAAAAAAAAAAAAAAAAAAAAAAAAAAAAAAAAAAAAAAAAAAAAAAAAAAAAAAAAAAAAAAAAAAAAAAAAAAAAAAAAAAAAAAAAAAAAAAAAAAAAAAAAAAAAAAAAAAAAAAAAAAAAAAAAAAAAAAAAAAAAAAAAAAAAAAAAAAAAAAAAAAAAAAAAAAAAAAAAAAAAAAAAAAAAAAAAAAAAAAAAAAAAAAAAAAAAAAAAAAAAAAAAAAAAAAAAAAAAAAAAAAAAAAAAAAAAAAAAAAAAAAAAAAAAAAAAAAAAAAAAAAAAAAAAAAAAAAAAAAAAAAAAAAAAAAAAAAAAAAAAAAAAAAAAAAAAAAAAAAAAAAAAAAAAAAAAAAAAAAAAAAAAAAAAAAAAAAAAAAAAAAAAAAAAAAAAAAAAAAAAAAAAAAAAAAAAAAAAAAAAAAAAAAAAAAAAAAAAAAAAAAAAAAAAAAAAAAAAAAAAAAAAAAAAAAAAAAAAAAAAAAAAAAAAAAAAAAAAAAAAAAAAAAAAAAAAAAAAAAAAAAAAAAAAAAAAAAAAAAAAAAAAAAAAAAAAAAAAAAAAAAAAAAAAAAAAAAAAAAAAAAAAAAAAAAAAAAAAAAAAAAAAAAAAAAAAAAAAAAAAAAAAAAAAAAAAAAAAAAAAAAAAAAAAAAAAAAAAAAAAAAAAAAAAAAAAAAAAAAAAAAAAAAAAAAAAAAAAAAAAAAAAAAAAAAAAAAAAAAAAAAAAAAAAAAAAAAAAAAAAAAAAAAAAAAAAAAAAAAAAAAAAAAAAAAAAAAAAAAAAAAAAAAAAAAAAAAAAAAAAAAAAAAAAAAAAAAAAAAAAAAAAAAAAAAAAAAAAAAAAAAAAAAAAAAAAAAAAAAAAAAAAAAAAAAAAAAAAAAAAAAAAAAAAAAAAAAAAAAAAAAAAAAAAAAAAAAAAAAAAAAAAAAAAAAAAAAAAAAAAAAAAAAAAAAAAAAAAAAAAAAAAAAAAAAAAAAAAAAAAAAAAAAAAAAAAAAAAAAAAAAAAAAAAAAAAAAAAAAAAAAAAAAAAAAAAAAAAAAAAAAAAAAAAAAAAAAAAAAAAAAAAAAAAAAAAAAAAAAAAAAAAAAAAAAAAAAAAAAAAAAAAAAAAAAAAAAAAAAAAAAAAAAAAAAAAAAAAAAAAAAAAAAAAAAAAAAAAAAAAAAAAAAAAAAAAAAAAAAAAAAAAAAAAAAAAAAAAAAAAAAAAAAAAAAAAAAAAAAAAAAAAAAAAAAAAAAAAAAAAAAAAAAAAAAAAAAAAAAAAAAAAAAAAAAAAAAAAAAAAAAAAAAAAAAAAAAAAAAAAAAAAAAAAAAAAAAAAAAAAAAAAAAAAAAAAAAAAAAAAAAAAAAAAAAAAAAAAAAAAAAAAAAAAAAAAAAAAAAAAAAAAAAAAAAAAAAAAAAAAAAAAAAAAAAAAAAAAAAAAAAAAAAAAAAAAAAAAAAAAAAAAAAAAAAAAAAAAAAAAAAAAAAAAAAAAAAAAAAAAAAAAAAAAAAAAAAAAAAAAAAAAAAAAAAAAAAAAAAAAAAAAAAAAAAAAAAAAAAAAAAAAAAAAAAAAAAAAAAAAAAAAAAAAAAAAAAAAAAAAAAAAAAAAAAAAAAAAAAAAAAAAAAAAAAAAAAAAAAAAAAAAAAAAAAAAAAAAAAAAAAAAAAAAAAAAAAAAAAAAAAAAAAAAAAAAAAAAAAAAAAAAAAAAAAAAAAAAAAAAAAAAAAAAAAAAAAAAAAAAAAAAAAAAAAAAAAAAAAAAAAAAAAAAAAAAAAAAAAAAAAAAAAAAAAAAAAAAAAAAAAAAAAAAAAAAAAAAAAAAAAAAAAAAAAAAAAAAAAAAAAAAAAAAAAAAAAAAAAAAAAAAAAAAAAAAAAAAAAAAAAAAAAAAAAAAAAAAAAAAAAAAAAAAAAAAAAAAAAAAAAAAAAAAAAAAAAAAAAAAAAAAAAAAAAAAAAAAAAAAAAAAAAAAAAAAAAAAAAAAAAAAAAAAAAAAAAAAAAAAAAAAAAAAAAAAAAAAAAAAAAAAAAAAAAAAAAAAAAAAAAAAAAAAAAAAAAAAAAAAAAAAAAAAAAAAAAAAAAAAAAAAAAAAAAAAAAAAAAAAAAAAAAAAAAAAAAAAAAAAAAAAAAAAAAAAAAAAAAAAAAAAAAAAAAAAAAAAAAAAAAAAAAAAAAAAAAAAAAAAAAAAAAAAAAAAAAAAAAAAAAAAAAAAAAAAAAAAAAAAAAAAAAAAAAAAAAAAAAAAAAAAAAAAAAAAAAAAAAAAAAAAAAAAAAAAAAAAAAAAAAAAAAAAAAAAAAAAAAAAAAAAAAAAAAAAAAAAAAAAAAAAAAAAAAAAAAAAAAAAAAAAAAAAAAAAAAAAAAAAAAAAAAAAAAAAAAAAAAAAAAAAAAAAAAAAAAAAAAAAAAAAAAAAAAAAAAAAAAAAAAAAAAAAAAAAAAAAAAAAAAAAAAAAAAAAAAAAAAAAAAAAAAAAAAAAAAAAAAAAAAAAAAAAAAAAAAAAAAAAAAAAAAAAAAAAAAAAAAAAAAAAAAAAAAAAAAAAAAPZZAQB4+gJj4pMTkYO/ya7w1yiSk0ah8Hu2ymqU8PazAs4D6DSyUKTyj5J1jDepO/Pj92tWfrZEw4Pb0zVfj3L0M78FYrcOJOGOmiw0fmIv9pEAE8Lo5xq0xKB99qHLAgh3l9Ik63Ws14FUWmlYxJcYG5c1mIyaDn7RpeCpiNEZ6e5uwgWuBHo9OKbW0BzRsuWd7NpYCqbGoLVO6gMLVgoO3cscYHsLtt4EY9ujOfuFLZW6UB8/u2brVfb7jRIvca9t8/DWwXICFpNJz4cKi3r9Ebt3tbJAFyYdZtLQYfo/rCQGFhatt2dWjogihxLDOWIJvtQBJ52aTS/nOi/LTt82nuQV</c2pa:manifest></metadata>
  <!-- Generator: Adobe Illustrator 29.3.1, SVG Export Plug-In . SVG Version: 2.1.0 Build 151)  -->
  <defs>
    <style>
      .st0, .st1 {
        fill: #e4151c;
      }

      .st2 {
        fill: #fff;
      }

      .st1 {
        fill-rule: evenodd;
      }
    </style>
  </defs>
  <path class="st2" d="M35.9,14.4h-.1c-1.3,0-2.4.3-3.3.7,0-1.1,0-2.2,0-3.3,0-3.2,0-6.4,0-8.3s0-.4-.1-.7c-.3-.8-1.4-2-2.2-2.4-.5-.3-1.2-.4-2-.4s-.5,0-.6,0h-.2c-1.1,0-2,.9-2,2h0c0,0-.2,0-.2,0-.1,0-.3,0-.4,0s-.4,0-.5,0h-.4c-.2.2-.3.2-.4.3l-.4.2h-.2c0,.1,0,.2,0,.2-.6-.5-1.4-.8-2.1-.8s-1.1.1-1.6.4c-.2,0-.4.2-.6.3-.6-.5-1.4-.8-2.1-.8s-.9,0-1.3.3c-.1,0-.2.1-.3.2h0c-.1.1-.3.2-.4.4-.7-.5-1.4-.8-2.2-.8s-.9.1-1.3.3c-.2,0-.5.2-.7.4,0,0-.1-.1-.2-.2-.5-.4-1.2-.6-1.9-.6h0c-.2,0-.4,0-.5,0h0C7.2,1,6.3,0,5.3,0c-.1,0-.5,0-.9,0-.8,0-1.3,0-1.7.2C1.2.7.2,2.5.2,2.5c-.1.3-.2.6-.2.9,0,5.2,0,11.3,0,17.4,0,6.1,0,12.2,0,17.3-.1,1.1.5,2.3.9,2.8.7.9,1.6,1.1,2,1.1,0,0,.2,0,.3,0,.3,0,.7,0,1.1,0v3.6c0,.5.2.9.4,1.2-.4.4-.5,1-.4,1.6l.6,3.5c.2.9,1,1.6,1.9,1.7h1.5c0,0,0,0,0,0,1,0,1.8-.7,2-1.7l.5-3.5c0-.6,0-1.1-.4-1.5.3-.4.4-.8.4-1.3v-6c.3,0,.6.1.9.1.6,0,1.3-.2,1.8-.6.1,0,.2-.2.3-.2.5.5,1.2.7,1.9.8,0,0,.2,0,.2,0,.8,0,1.5-.3,2.1-.8.6.5,1.4.8,2.2.8s.8,0,1.1-.2c.4-.1.7-.3,1-.6,0,0,.1.1.2.2l.4.2c.1,0,.3.1.4.2h.4c.2.2.4.2.5.2s.3,0,.5,0v.4c0,1.1.9,2,2,2h2s0,0,0,0c.4,0,.8-.1,1.1-.3,1.6-1,2.3-2.3,2.1-3.6,0-1.8,0-4.9,0-8.1,0-1.2,0-2.4,0-3.5,1,.5,2.1.8,3.4.8h.2c1.8,0,3.5-.8,4.7-2.2,1.2-1.4,1.8-3.2,1.5-5.2-.2-3.2-2.9-5.6-6.3-5.7Z"/>
  <g>
    <g id="g32">
      <path id="path18" class="st0" d="M9,48.2l-.5,3.5h-1.5c0,0-.6-3.5-.6-3.5h2.7Z"/>
      <path id="path20" class="st0" d="M5.2,2c0,11.1,0,26.9,0,38-.4,0-1.8,0-2.1,0-.5,0-1.1-1.3-1-1.8,0-10.3,0-24.5,0-34.9.2-.4.8-1.2,1.3-1.3.3-.1,1.6,0,1.8,0h0s0,0,0,0Z"/>
      <path id="path22" class="st1" d="M6.4,5.1c0-1,1.3-1.4,2.1-.9.8.5.4,1.5.5,2.2,0,13.1,0,26.1.1,39.2h-2.6V5.1h0Z"/>
      <path id="path24" class="st1" d="M13.2,5.2v31.1c-.1.4,0,1-.6,1.2-.4.3-1.1.4-1.5,0-.6-.4-.6-1.2-.6-1.8V5c0-.5.5-.7.9-.9.6-.3,1.2,0,1.6.4.1.2,0,.5.2.7h0Z"/>
      <path id="path26" class="st1" d="M17.5,5.2v31.5c-.2.6-.8,1.1-1.5,1.1-.8,0-1.3-.9-1.2-1.7V5c0-.4.4-.6.8-.9.6-.3,1.4,0,1.8.6,0,.2,0,.3.1.5h0Z"/>
      <path id="path28" class="st1" d="M21.7,5.2v31.5c-.2.4-.3.9-.8,1-.6.3-1.3,0-1.7-.6-.2-.5-.2-1.1-.2-1.7V5.2c.1-.4.1-.9.6-1,.6-.4,1.3-.2,1.8.2,0,.2.3.5.2.7h0Z"/>
      <path id="path30" class="st1" d="M26,5.2v31.5l-.2.5-.2.2-.4.2h-.4c0,.1-.4,0-.4,0l-.4-.2-.2-.2v-.2c-.1,0-.2-.2-.2-.2V5l.2-.5h.2c0-.1.4-.4.4-.4h.4c0-.1.6,0,.6,0l.3.2h.2c0,.1.1.4.1.4v.2c.1,0,.1.2.1.2h0Z"/>
    </g>
    <path id="path34" class="st0" d="M27.3,2c0,9-.1,29.1-.1,38.1h2c.5-.3,1.4-1.1,1.2-1.7,0-3.4,0-13.2,0-16.6h.9c.4,2.5,2.4,3.6,4.6,3.6,2.4,0,4.6-2,4.3-5.2,0-1.9-1.7-3.8-4.3-3.8-3,0-4.4,1.8-4.6,3.8h-.8c0-3.9,0-12.8,0-16.7-.1-.3-.9-1.2-1.3-1.3-.3-.2-1.5-.1-1.8-.1h0ZM34.8,17.7v2.5c-.8,0-1.4,0-2.2,0,.2-1.4.9-2.4,2.2-2.6h0ZM36.6,17.8c1.5.2,2.2,1.1,2.3,2.5h-2.3c0-.8,0-1.7,0-2.5h0ZM32.7,21.9c.8,0,1.2,0,2,0,0,.9,0,1.3,0,2.1-1.2-.3-1.8-1.1-2-2.2h0ZM36.5,21.9c.9,0,1.5,0,2.4,0-.5,1.3-1.3,2.2-2.4,2.2v-2.2Z"/>
  </g>
</svg>